<?xml version="1.0" encoding="UTF-8" standalone="no"?>
<!DOCTYPE svg PUBLIC "-//W3C//DTD SVG 1.1//EN" "http://www.w3.org/Graphics/SVG/1.1/DTD/svg11.dtd">
<svg xmlns="http://www.w3.org/2000/svg" xmlns:xl="http://www.w3.org/1999/xlink" version="1.1" viewBox="60 54 410 70" width="410pt" height="70pt" xmlns:dc="http://purl.org/dc/elements/1.1/"><metadata> Produced by OmniGraffle 6.6.2 <dc:date>2020-06-26 13:14:04 +0000</dc:date></metadata><defs/><g stroke="none" stroke-opacity="1" stroke-dasharray="none" fill="none" fill-opacity="1"><title>Canvas 13</title><rect fill="white" width="559.2" height="782.8"/><g><title>Layer 1</title><rect x="62.362204" y="116.22047" width="5.6692914" height="5.6692914" fill="white"/><rect x="62.362204" y="116.22047" width="5.6692914" height="5.6692914" stroke="black" stroke-linecap="round" stroke-linejoin="round" stroke-width="1"/><rect x="68.031496" y="116.22047" width="5.6692914" height="5.6692914" fill="white"/><rect x="68.031496" y="116.22047" width="5.6692914" height="5.6692914" stroke="black" stroke-linecap="round" stroke-linejoin="round" stroke-width="1"/><rect x="73.700787" y="116.22047" width="5.6692914" height="5.6692914" fill="white"/><rect x="73.700787" y="116.22047" width="5.6692914" height="5.6692914" stroke="black" stroke-linecap="round" stroke-linejoin="round" stroke-width="1"/><rect x="79.37008" y="116.22047" width="5.6692914" height="5.6692914" fill="white"/><rect x="79.37008" y="116.22047" width="5.6692914" height="5.6692914" stroke="black" stroke-linecap="round" stroke-linejoin="round" stroke-width="1"/><rect x="87.874015" y="116.22047" width="5.6692914" height="5.6692914" fill="white"/><rect x="87.874015" y="116.22047" width="5.6692914" height="5.6692914" stroke="black" stroke-linecap="round" stroke-linejoin="round" stroke-width="1"/><rect x="93.543306" y="116.22047" width="5.6692914" height="5.6692914" fill="white"/><rect x="93.543306" y="116.22047" width="5.6692914" height="5.6692914" stroke="black" stroke-linecap="round" stroke-linejoin="round" stroke-width="1"/><rect x="99.2126" y="116.22047" width="5.6692914" height="5.6692914" fill="white"/><rect x="99.2126" y="116.22047" width="5.6692914" height="5.6692914" stroke="black" stroke-linecap="round" stroke-linejoin="round" stroke-width="1"/><rect x="104.88189" y="116.22047" width="5.6692914" height="5.6692914" fill="white"/><rect x="104.88189" y="116.22047" width="5.6692914" height="5.6692914" stroke="black" stroke-linecap="round" stroke-linejoin="round" stroke-width="1"/><rect x="113.385826" y="116.22047" width="5.6692914" height="5.6692914" fill="white"/><rect x="113.385826" y="116.22047" width="5.6692914" height="5.6692914" stroke="black" stroke-linecap="round" stroke-linejoin="round" stroke-width="1"/><rect x="119.05512" y="116.22047" width="5.6692914" height="5.6692914" fill="white"/><rect x="119.05512" y="116.22047" width="5.6692914" height="5.6692914" stroke="black" stroke-linecap="round" stroke-linejoin="round" stroke-width="1"/><rect x="124.72441" y="116.22047" width="5.6692914" height="5.6692914" fill="white"/><rect x="124.72441" y="116.22047" width="5.6692914" height="5.6692914" stroke="black" stroke-linecap="round" stroke-linejoin="round" stroke-width="1"/><rect x="130.3937" y="116.22047" width="5.6692914" height="5.6692914" fill="white"/><rect x="130.3937" y="116.22047" width="5.6692914" height="5.6692914" stroke="black" stroke-linecap="round" stroke-linejoin="round" stroke-width="1"/><rect x="138.89764" y="116.22047" width="5.6692914" height="5.6692914" fill="white"/><rect x="138.89764" y="116.22047" width="5.6692914" height="5.6692914" stroke="black" stroke-linecap="round" stroke-linejoin="round" stroke-width="1"/><rect x="144.56693" y="116.22047" width="5.6692914" height="5.6692914" fill="white"/><rect x="144.56693" y="116.22047" width="5.6692914" height="5.6692914" stroke="black" stroke-linecap="round" stroke-linejoin="round" stroke-width="1"/><rect x="150.23622" y="116.22047" width="5.6692914" height="5.6692914" fill="white"/><rect x="150.23622" y="116.22047" width="5.6692914" height="5.6692914" stroke="black" stroke-linecap="round" stroke-linejoin="round" stroke-width="1"/><rect x="155.90551" y="116.22047" width="5.6692914" height="5.6692914" fill="white"/><rect x="155.90551" y="116.22047" width="5.6692914" height="5.6692914" stroke="black" stroke-linecap="round" stroke-linejoin="round" stroke-width="1"/><rect x="100.62992" y="85.03937" width="5.6692914" height="5.6692914" fill="white"/><rect x="100.62992" y="85.03937" width="5.6692914" height="5.6692914" stroke="black" stroke-linecap="round" stroke-linejoin="round" stroke-width="1"/><rect x="106.29921" y="85.03937" width="5.6692914" height="5.6692914" fill="white"/><rect x="106.29921" y="85.03937" width="5.6692914" height="5.6692914" stroke="black" stroke-linecap="round" stroke-linejoin="round" stroke-width="1"/><rect x="111.9685" y="85.03937" width="5.6692914" height="5.6692914" fill="white"/><rect x="111.9685" y="85.03937" width="5.6692914" height="5.6692914" stroke="black" stroke-linecap="round" stroke-linejoin="round" stroke-width="1"/><rect x="117.637795" y="85.03937" width="5.6692914" height="5.6692914" fill="white"/><rect x="117.637795" y="85.03937" width="5.6692914" height="5.6692914" stroke="black" stroke-linecap="round" stroke-linejoin="round" stroke-width="1"/><line x1="111.968503" y1="90.70866" x2="73.700787" y2="116.22047" stroke="black" stroke-linecap="round" stroke-linejoin="round" stroke-width="1"/><line x1="111.968503" y1="90.70866" x2="99.2126" y2="116.22047" stroke="black" stroke-linecap="round" stroke-linejoin="round" stroke-width="1"/><line x1="111.968503" y1="90.70866" x2="124.72441" y2="116.22047" stroke="black" stroke-linecap="round" stroke-linejoin="round" stroke-width="1"/><line x1="111.968503" y1="90.70866" x2="150.23622" y2="116.22047" stroke="black" stroke-linecap="round" stroke-linejoin="round" stroke-width="1"/><rect x="164.40945" y="116.22047" width="5.6692914" height="5.6692914" fill="white"/><rect x="164.40945" y="116.22047" width="5.6692914" height="5.6692914" stroke="black" stroke-linecap="round" stroke-linejoin="round" stroke-width="1"/><rect x="170.07874" y="116.22047" width="5.6692914" height="5.6692914" fill="white"/><rect x="170.07874" y="116.22047" width="5.6692914" height="5.6692914" stroke="black" stroke-linecap="round" stroke-linejoin="round" stroke-width="1"/><rect x="175.74803" y="116.22047" width="5.6692914" height="5.6692914" fill="white"/><rect x="175.74803" y="116.22047" width="5.6692914" height="5.6692914" stroke="black" stroke-linecap="round" stroke-linejoin="round" stroke-width="1"/><rect x="181.41732" y="116.22047" width="5.6692914" height="5.6692914" fill="white"/><rect x="181.41732" y="116.22047" width="5.6692914" height="5.6692914" stroke="black" stroke-linecap="round" stroke-linejoin="round" stroke-width="1"/><rect x="189.92126" y="116.22047" width="5.6692914" height="5.6692914" fill="white"/><rect x="189.92126" y="116.22047" width="5.6692914" height="5.6692914" stroke="black" stroke-linecap="round" stroke-linejoin="round" stroke-width="1"/><rect x="195.59055" y="116.22047" width="5.6692914" height="5.6692914" fill="white"/><rect x="195.59055" y="116.22047" width="5.6692914" height="5.6692914" stroke="black" stroke-linecap="round" stroke-linejoin="round" stroke-width="1"/><rect x="201.25984" y="116.22047" width="5.6692914" height="5.6692914" fill="white"/><rect x="201.25984" y="116.22047" width="5.6692914" height="5.6692914" stroke="black" stroke-linecap="round" stroke-linejoin="round" stroke-width="1"/><rect x="206.92913" y="116.22047" width="5.6692914" height="5.6692914" fill="white"/><rect x="206.92913" y="116.22047" width="5.6692914" height="5.6692914" stroke="black" stroke-linecap="round" stroke-linejoin="round" stroke-width="1"/><rect x="215.43307" y="116.22047" width="5.6692914" height="5.6692914" fill="white"/><rect x="215.43307" y="116.22047" width="5.6692914" height="5.6692914" stroke="black" stroke-linecap="round" stroke-linejoin="round" stroke-width="1"/><rect x="221.10236" y="116.22047" width="5.6692914" height="5.6692914" fill="white"/><rect x="221.10236" y="116.22047" width="5.6692914" height="5.6692914" stroke="black" stroke-linecap="round" stroke-linejoin="round" stroke-width="1"/><rect x="226.77165" y="116.22047" width="5.6692914" height="5.6692914" fill="white"/><rect x="226.77165" y="116.22047" width="5.6692914" height="5.6692914" stroke="black" stroke-linecap="round" stroke-linejoin="round" stroke-width="1"/><rect x="232.44094" y="116.22047" width="5.6692914" height="5.6692914" fill="white"/><rect x="232.44094" y="116.22047" width="5.6692914" height="5.6692914" stroke="black" stroke-linecap="round" stroke-linejoin="round" stroke-width="1"/><rect x="240.94488" y="116.22047" width="5.6692914" height="5.6692914" fill="white"/><rect x="240.94488" y="116.22047" width="5.6692914" height="5.6692914" stroke="black" stroke-linecap="round" stroke-linejoin="round" stroke-width="1"/><rect x="246.61417" y="116.22047" width="5.6692914" height="5.6692914" fill="white"/><rect x="246.61417" y="116.22047" width="5.6692914" height="5.6692914" stroke="black" stroke-linecap="round" stroke-linejoin="round" stroke-width="1"/><rect x="252.28346" y="116.22047" width="5.6692914" height="5.6692914" fill="white"/><rect x="252.28346" y="116.22047" width="5.6692914" height="5.6692914" stroke="black" stroke-linecap="round" stroke-linejoin="round" stroke-width="1"/><rect x="257.95275" y="116.22047" width="5.6692914" height="5.6692914" fill="white"/><rect x="257.95275" y="116.22047" width="5.6692914" height="5.6692914" stroke="black" stroke-linecap="round" stroke-linejoin="round" stroke-width="1"/><rect x="202.67716" y="85.03937" width="5.6692914" height="5.6692914" fill="white"/><rect x="202.67716" y="85.03937" width="5.6692914" height="5.6692914" stroke="black" stroke-linecap="round" stroke-linejoin="round" stroke-width="1"/><rect x="208.34646" y="85.03937" width="5.6692914" height="5.6692914" fill="white"/><rect x="208.34646" y="85.03937" width="5.6692914" height="5.6692914" stroke="black" stroke-linecap="round" stroke-linejoin="round" stroke-width="1"/><rect x="214.01575" y="85.03937" width="5.6692914" height="5.6692914" fill="white"/><rect x="214.01575" y="85.03937" width="5.6692914" height="5.6692914" stroke="black" stroke-linecap="round" stroke-linejoin="round" stroke-width="1"/><rect x="219.68504" y="85.03937" width="5.6692914" height="5.6692914" fill="white"/><rect x="219.68504" y="85.03937" width="5.6692914" height="5.6692914" stroke="black" stroke-linecap="round" stroke-linejoin="round" stroke-width="1"/><line x1="214.01575" y1="90.70866" x2="175.74803" y2="116.22047" stroke="black" stroke-linecap="round" stroke-linejoin="round" stroke-width="1"/><line x1="214.01575" y1="90.70866" x2="201.25984" y2="116.22047" stroke="black" stroke-linecap="round" stroke-linejoin="round" stroke-width="1"/><line x1="214.01575" y1="90.70866" x2="226.77165" y2="116.22047" stroke="black" stroke-linecap="round" stroke-linejoin="round" stroke-width="1"/><line x1="214.01575" y1="90.70866" x2="252.28346" y2="116.22047" stroke="black" stroke-linecap="round" stroke-linejoin="round" stroke-width="1"/><rect x="266.45669" y="116.22047" width="5.6692914" height="5.6692914" fill="white"/><rect x="266.45669" y="116.22047" width="5.6692914" height="5.6692914" stroke="black" stroke-linecap="round" stroke-linejoin="round" stroke-width="1"/><rect x="272.12598" y="116.22047" width="5.6692914" height="5.6692914" fill="white"/><rect x="272.12598" y="116.22047" width="5.6692914" height="5.6692914" stroke="black" stroke-linecap="round" stroke-linejoin="round" stroke-width="1"/><rect x="277.79527" y="116.22047" width="5.6692914" height="5.6692914" fill="white"/><rect x="277.79527" y="116.22047" width="5.6692914" height="5.6692914" stroke="black" stroke-linecap="round" stroke-linejoin="round" stroke-width="1"/><rect x="283.46457" y="116.22047" width="5.6692914" height="5.6692914" fill="white"/><rect x="283.46457" y="116.22047" width="5.6692914" height="5.6692914" stroke="black" stroke-linecap="round" stroke-linejoin="round" stroke-width="1"/><rect x="291.9685" y="116.22047" width="5.6692914" height="5.6692914" fill="white"/><rect x="291.9685" y="116.22047" width="5.6692914" height="5.6692914" stroke="black" stroke-linecap="round" stroke-linejoin="round" stroke-width="1"/><rect x="297.6378" y="116.22047" width="5.6692914" height="5.6692914" fill="white"/><rect x="297.6378" y="116.22047" width="5.6692914" height="5.6692914" stroke="black" stroke-linecap="round" stroke-linejoin="round" stroke-width="1"/><rect x="303.30708" y="116.22047" width="5.6692914" height="5.6692914" fill="white"/><rect x="303.30708" y="116.22047" width="5.6692914" height="5.6692914" stroke="black" stroke-linecap="round" stroke-linejoin="round" stroke-width="1"/><rect x="308.97638" y="116.22047" width="5.6692914" height="5.6692914" fill="white"/><rect x="308.97638" y="116.22047" width="5.6692914" height="5.6692914" stroke="black" stroke-linecap="round" stroke-linejoin="round" stroke-width="1"/><rect x="317.48031" y="116.22047" width="5.6692914" height="5.6692914" fill="white"/><rect x="317.48031" y="116.22047" width="5.6692914" height="5.6692914" stroke="black" stroke-linecap="round" stroke-linejoin="round" stroke-width="1"/><rect x="323.1496" y="116.22047" width="5.6692914" height="5.6692914" fill="white"/><rect x="323.1496" y="116.22047" width="5.6692914" height="5.6692914" stroke="black" stroke-linecap="round" stroke-linejoin="round" stroke-width="1"/><rect x="328.8189" y="116.22047" width="5.6692914" height="5.6692914" fill="white"/><rect x="328.8189" y="116.22047" width="5.6692914" height="5.6692914" stroke="black" stroke-linecap="round" stroke-linejoin="round" stroke-width="1"/><rect x="334.48819" y="116.22047" width="5.6692914" height="5.6692914" fill="white"/><rect x="334.48819" y="116.22047" width="5.6692914" height="5.6692914" stroke="black" stroke-linecap="round" stroke-linejoin="round" stroke-width="1"/><rect x="342.99212" y="116.22047" width="5.6692914" height="5.6692914" fill="white"/><rect x="342.99212" y="116.22047" width="5.6692914" height="5.6692914" stroke="black" stroke-linecap="round" stroke-linejoin="round" stroke-width="1"/><rect x="348.66142" y="116.22047" width="5.6692914" height="5.6692914" fill="white"/><rect x="348.66142" y="116.22047" width="5.6692914" height="5.6692914" stroke="black" stroke-linecap="round" stroke-linejoin="round" stroke-width="1"/><rect x="354.3307" y="116.22047" width="5.6692914" height="5.6692914" fill="white"/><rect x="354.3307" y="116.22047" width="5.6692914" height="5.6692914" stroke="black" stroke-linecap="round" stroke-linejoin="round" stroke-width="1"/><rect x="360" y="116.22047" width="5.6692914" height="5.6692914" fill="white"/><rect x="360" y="116.22047" width="5.6692914" height="5.6692914" stroke="black" stroke-linecap="round" stroke-linejoin="round" stroke-width="1"/><rect x="304.7244" y="85.03937" width="5.6692914" height="5.6692914" fill="white"/><rect x="304.7244" y="85.03937" width="5.6692914" height="5.6692914" stroke="black" stroke-linecap="round" stroke-linejoin="round" stroke-width="1"/><rect x="310.3937" y="85.03937" width="5.6692914" height="5.6692914" fill="white"/><rect x="310.3937" y="85.03937" width="5.6692914" height="5.6692914" stroke="black" stroke-linecap="round" stroke-linejoin="round" stroke-width="1"/><rect x="316.06299" y="85.03937" width="5.6692914" height="5.6692914" fill="white"/><rect x="316.06299" y="85.03937" width="5.6692914" height="5.6692914" stroke="black" stroke-linecap="round" stroke-linejoin="round" stroke-width="1"/><rect x="321.73228" y="85.03937" width="5.6692914" height="5.6692914" fill="white"/><rect x="321.73228" y="85.03937" width="5.6692914" height="5.6692914" stroke="black" stroke-linecap="round" stroke-linejoin="round" stroke-width="1"/><line x1="316.06299" y1="90.70866" x2="277.79527" y2="116.22047" stroke="black" stroke-linecap="round" stroke-linejoin="round" stroke-width="1"/><line x1="316.06299" y1="90.70866" x2="303.30708" y2="116.22047" stroke="black" stroke-linecap="round" stroke-linejoin="round" stroke-width="1"/><line x1="316.06299" y1="90.70866" x2="328.8189" y2="116.22047" stroke="black" stroke-linecap="round" stroke-linejoin="round" stroke-width="1"/><line x1="316.06299" y1="90.70866" x2="354.3307" y2="116.22047" stroke="black" stroke-linecap="round" stroke-linejoin="round" stroke-width="1"/><rect x="368.50393" y="116.22047" width="5.6692914" height="5.6692914" fill="white"/><rect x="368.50393" y="116.22047" width="5.6692914" height="5.6692914" stroke="black" stroke-linecap="round" stroke-linejoin="round" stroke-width="1"/><rect x="374.17323" y="116.22047" width="5.6692914" height="5.6692914" fill="white"/><rect x="374.17323" y="116.22047" width="5.6692914" height="5.6692914" stroke="black" stroke-linecap="round" stroke-linejoin="round" stroke-width="1"/><rect x="379.84252" y="116.22047" width="5.6692914" height="5.6692914" fill="white"/><rect x="379.84252" y="116.22047" width="5.6692914" height="5.6692914" stroke="black" stroke-linecap="round" stroke-linejoin="round" stroke-width="1"/><rect x="385.5118" y="116.22047" width="5.6692914" height="5.6692914" fill="white"/><rect x="385.5118" y="116.22047" width="5.6692914" height="5.6692914" stroke="black" stroke-linecap="round" stroke-linejoin="round" stroke-width="1"/><rect x="394.01575" y="116.22047" width="5.6692914" height="5.6692914" fill="white"/><rect x="394.01575" y="116.22047" width="5.6692914" height="5.6692914" stroke="black" stroke-linecap="round" stroke-linejoin="round" stroke-width="1"/><rect x="399.68504" y="116.22047" width="5.6692914" height="5.6692914" fill="white"/><rect x="399.68504" y="116.22047" width="5.6692914" height="5.6692914" stroke="black" stroke-linecap="round" stroke-linejoin="round" stroke-width="1"/><rect x="405.35433" y="116.22047" width="5.6692914" height="5.6692914" fill="white"/><rect x="405.35433" y="116.22047" width="5.6692914" height="5.6692914" stroke="black" stroke-linecap="round" stroke-linejoin="round" stroke-width="1"/><rect x="411.02362" y="116.22047" width="5.6692914" height="5.6692914" fill="white"/><rect x="411.02362" y="116.22047" width="5.6692914" height="5.6692914" stroke="black" stroke-linecap="round" stroke-linejoin="round" stroke-width="1"/><rect x="419.52756" y="116.22047" width="5.6692914" height="5.6692914" fill="white"/><rect x="419.52756" y="116.22047" width="5.6692914" height="5.6692914" stroke="black" stroke-linecap="round" stroke-linejoin="round" stroke-width="1"/><rect x="425.19685" y="116.22047" width="5.6692914" height="5.6692914" fill="white"/><rect x="425.19685" y="116.22047" width="5.6692914" height="5.6692914" stroke="black" stroke-linecap="round" stroke-linejoin="round" stroke-width="1"/><rect x="430.86614" y="116.22047" width="5.6692914" height="5.6692914" fill="white"/><rect x="430.86614" y="116.22047" width="5.6692914" height="5.6692914" stroke="black" stroke-linecap="round" stroke-linejoin="round" stroke-width="1"/><rect x="436.53543" y="116.22047" width="5.6692914" height="5.6692914" fill="white"/><rect x="436.53543" y="116.22047" width="5.6692914" height="5.6692914" stroke="black" stroke-linecap="round" stroke-linejoin="round" stroke-width="1"/><rect x="445.03937" y="116.22047" width="5.6692914" height="5.6692914" fill="white"/><rect x="445.03937" y="116.22047" width="5.6692914" height="5.6692914" stroke="black" stroke-linecap="round" stroke-linejoin="round" stroke-width="1"/><rect x="450.70866" y="116.22047" width="5.6692914" height="5.6692914" fill="white"/><rect x="450.70866" y="116.22047" width="5.6692914" height="5.6692914" stroke="black" stroke-linecap="round" stroke-linejoin="round" stroke-width="1"/><rect x="456.37795" y="116.22047" width="5.6692914" height="5.6692914" fill="white"/><rect x="456.37795" y="116.22047" width="5.6692914" height="5.6692914" stroke="black" stroke-linecap="round" stroke-linejoin="round" stroke-width="1"/><rect x="462.04724" y="116.22047" width="5.6692914" height="5.6692914" fill="white"/><rect x="462.04724" y="116.22047" width="5.6692914" height="5.6692914" stroke="black" stroke-linecap="round" stroke-linejoin="round" stroke-width="1"/><rect x="406.77165" y="85.03937" width="5.6692914" height="5.6692914" fill="white"/><rect x="406.77165" y="85.03937" width="5.6692914" height="5.6692914" stroke="black" stroke-linecap="round" stroke-linejoin="round" stroke-width="1"/><rect x="412.44094" y="85.03937" width="5.6692914" height="5.6692914" fill="white"/><rect x="412.44094" y="85.03937" width="5.6692914" height="5.6692914" stroke="black" stroke-linecap="round" stroke-linejoin="round" stroke-width="1"/><rect x="418.11023" y="85.03937" width="5.6692914" height="5.6692914" fill="white"/><rect x="418.11023" y="85.03937" width="5.6692914" height="5.6692914" stroke="black" stroke-linecap="round" stroke-linejoin="round" stroke-width="1"/><rect x="423.77953" y="85.03937" width="5.6692914" height="5.6692914" fill="white"/><rect x="423.77953" y="85.03937" width="5.6692914" height="5.6692914" stroke="black" stroke-linecap="round" stroke-linejoin="round" stroke-width="1"/><line x1="418.11023" y1="90.70866" x2="379.84252" y2="116.22047" stroke="black" stroke-linecap="round" stroke-linejoin="round" stroke-width="1"/><line x1="418.11023" y1="90.70866" x2="405.35433" y2="116.22047" stroke="black" stroke-linecap="round" stroke-linejoin="round" stroke-width="1"/><line x1="418.11023" y1="90.70866" x2="430.86614" y2="116.22047" stroke="black" stroke-linecap="round" stroke-linejoin="round" stroke-width="1"/><line x1="418.11023" y1="90.70866" x2="456.37795" y2="116.22047" stroke="black" stroke-linecap="round" stroke-linejoin="round" stroke-width="1"/><rect x="253.70079" y="56.692913" width="5.6692914" height="5.6692914" fill="white"/><rect x="253.70079" y="56.692913" width="5.6692914" height="5.6692914" stroke="black" stroke-linecap="round" stroke-linejoin="round" stroke-width="1"/><rect x="259.37008" y="56.692913" width="5.6692914" height="5.6692914" fill="white"/><rect x="259.37008" y="56.692913" width="5.6692914" height="5.6692914" stroke="black" stroke-linecap="round" stroke-linejoin="round" stroke-width="1"/><rect x="265.03937" y="56.692913" width="5.6692914" height="5.6692914" fill="white"/><rect x="265.03937" y="56.692913" width="5.6692914" height="5.6692914" stroke="black" stroke-linecap="round" stroke-linejoin="round" stroke-width="1"/><rect x="270.70866" y="56.692913" width="5.6692914" height="5.6692914" fill="white"/><rect x="270.70866" y="56.692913" width="5.6692914" height="5.6692914" stroke="black" stroke-linecap="round" stroke-linejoin="round" stroke-width="1"/><line x1="265.03937" y1="62.362204" x2="111.968503" y2="85.03937" stroke="black" stroke-linecap="round" stroke-linejoin="round" stroke-width="1"/><line x1="265.03937" y1="62.362204" x2="214.01575" y2="85.03937" stroke="black" stroke-linecap="round" stroke-linejoin="round" stroke-width="1"/><line x1="265.03937" y1="62.362204" x2="316.06299" y2="85.03937" stroke="black" stroke-linecap="round" stroke-linejoin="round" stroke-width="1"/><line x1="265.03937" y1="62.362204" x2="418.11023" y2="85.03937" stroke="black" stroke-linecap="round" stroke-linejoin="round" stroke-width="1"/></g></g></svg>
