<?xml version="1.0" encoding="utf-8" standalone="no"?>
<!DOCTYPE svg PUBLIC "-//W3C//DTD SVG 1.1//EN"
  "http://www.w3.org/Graphics/SVG/1.1/DTD/svg11.dtd">
<!-- Created with matplotlib (https://matplotlib.org/) -->
<svg height="576pt" version="1.1" viewBox="0 0 864 576" width="864pt" xmlns="http://www.w3.org/2000/svg" xmlns:xlink="http://www.w3.org/1999/xlink">
 <defs>
  <style type="text/css">
*{stroke-linecap:butt;stroke-linejoin:round;}
  </style>
 </defs>
 <g id="figure_1">
  <g id="patch_1">
   <path d="M 0 576 
L 864 576 
L 864 0 
L 0 0 
z
" style="fill:#ffffff;"/>
  </g>
  <g id="axes_1">
   <g id="patch_2">
    <path d="M 108 270.72 
L 777.6 270.72 
L 777.6 69.12 
L 108 69.12 
z
" style="fill:#ffffff;"/>
   </g>
   <g id="matplotlib.axis_1">
    <g id="xtick_1">
     <g id="line2d_1">
      <path clip-path="url(#p3d04c1db5b)" d="M 160.116634 270.72 
L 160.116634 69.12 
" style="fill:none;stroke:#cccccc;stroke-linecap:round;"/>
     </g>
    </g>
    <g id="xtick_2">
     <g id="line2d_2">
      <path clip-path="url(#p3d04c1db5b)" d="M 260.901477 270.72 
L 260.901477 69.12 
" style="fill:none;stroke:#cccccc;stroke-linecap:round;"/>
     </g>
    </g>
    <g id="xtick_3">
     <g id="line2d_3">
      <path clip-path="url(#p3d04c1db5b)" d="M 361.686319 270.72 
L 361.686319 69.12 
" style="fill:none;stroke:#cccccc;stroke-linecap:round;"/>
     </g>
    </g>
    <g id="xtick_4">
     <g id="line2d_4">
      <path clip-path="url(#p3d04c1db5b)" d="M 462.471162 270.72 
L 462.471162 69.12 
" style="fill:none;stroke:#cccccc;stroke-linecap:round;"/>
     </g>
    </g>
    <g id="xtick_5">
     <g id="line2d_5">
      <path clip-path="url(#p3d04c1db5b)" d="M 563.256004 270.72 
L 563.256004 69.12 
" style="fill:none;stroke:#cccccc;stroke-linecap:round;"/>
     </g>
    </g>
    <g id="xtick_6">
     <g id="line2d_6">
      <path clip-path="url(#p3d04c1db5b)" d="M 664.040847 270.72 
L 664.040847 69.12 
" style="fill:none;stroke:#cccccc;stroke-linecap:round;"/>
     </g>
    </g>
    <g id="xtick_7">
     <g id="line2d_7">
      <path clip-path="url(#p3d04c1db5b)" d="M 764.825689 270.72 
L 764.825689 69.12 
" style="fill:none;stroke:#cccccc;stroke-linecap:round;"/>
     </g>
    </g>
   </g>
   <g id="matplotlib.axis_2">
    <g id="ytick_1">
     <g id="line2d_8">
      <path clip-path="url(#p3d04c1db5b)" d="M 108 270.72 
L 777.6 270.72 
" style="fill:none;stroke:#cccccc;stroke-linecap:round;"/>
     </g>
     <g id="text_1">
      <!-- 0 -->
      <defs>
       <path d="M 31.78125 66.40625 
Q 24.171875 66.40625 20.328125 58.90625 
Q 16.5 51.421875 16.5 36.375 
Q 16.5 21.390625 20.328125 13.890625 
Q 24.171875 6.390625 31.78125 6.390625 
Q 39.453125 6.390625 43.28125 13.890625 
Q 47.125 21.390625 47.125 36.375 
Q 47.125 51.421875 43.28125 58.90625 
Q 39.453125 66.40625 31.78125 66.40625 
z
M 31.78125 74.21875 
Q 44.046875 74.21875 50.515625 64.515625 
Q 56.984375 54.828125 56.984375 36.375 
Q 56.984375 17.96875 50.515625 8.265625 
Q 44.046875 -1.421875 31.78125 -1.421875 
Q 19.53125 -1.421875 13.0625 8.265625 
Q 6.59375 17.96875 6.59375 36.375 
Q 6.59375 54.828125 13.0625 64.515625 
Q 19.53125 74.21875 31.78125 74.21875 
z
" id="DejaVuSans-48"/>
      </defs>
      <g style="fill:#262626;" transform="translate(91.50125 274.899141)scale(0.11 -0.11)">
       <use xlink:href="#DejaVuSans-48"/>
      </g>
     </g>
    </g>
    <g id="ytick_2">
     <g id="line2d_9">
      <path clip-path="url(#p3d04c1db5b)" d="M 108 244.411079 
L 777.6 244.411079 
" style="fill:none;stroke:#cccccc;stroke-linecap:round;"/>
     </g>
     <g id="text_2">
      <!-- 25 -->
      <defs>
       <path d="M 19.1875 8.296875 
L 53.609375 8.296875 
L 53.609375 0 
L 7.328125 0 
L 7.328125 8.296875 
Q 12.9375 14.109375 22.625 23.890625 
Q 32.328125 33.6875 34.8125 36.53125 
Q 39.546875 41.84375 41.421875 45.53125 
Q 43.3125 49.21875 43.3125 52.78125 
Q 43.3125 58.59375 39.234375 62.25 
Q 35.15625 65.921875 28.609375 65.921875 
Q 23.96875 65.921875 18.8125 64.3125 
Q 13.671875 62.703125 7.8125 59.421875 
L 7.8125 69.390625 
Q 13.765625 71.78125 18.9375 73 
Q 24.125 74.21875 28.421875 74.21875 
Q 39.75 74.21875 46.484375 68.546875 
Q 53.21875 62.890625 53.21875 53.421875 
Q 53.21875 48.921875 51.53125 44.890625 
Q 49.859375 40.875 45.40625 35.40625 
Q 44.1875 33.984375 37.640625 27.21875 
Q 31.109375 20.453125 19.1875 8.296875 
z
" id="DejaVuSans-50"/>
       <path d="M 10.796875 72.90625 
L 49.515625 72.90625 
L 49.515625 64.59375 
L 19.828125 64.59375 
L 19.828125 46.734375 
Q 21.96875 47.46875 24.109375 47.828125 
Q 26.265625 48.1875 28.421875 48.1875 
Q 40.625 48.1875 47.75 41.5 
Q 54.890625 34.8125 54.890625 23.390625 
Q 54.890625 11.625 47.5625 5.09375 
Q 40.234375 -1.421875 26.90625 -1.421875 
Q 22.3125 -1.421875 17.546875 -0.640625 
Q 12.796875 0.140625 7.71875 1.703125 
L 7.71875 11.625 
Q 12.109375 9.234375 16.796875 8.0625 
Q 21.484375 6.890625 26.703125 6.890625 
Q 35.15625 6.890625 40.078125 11.328125 
Q 45.015625 15.765625 45.015625 23.390625 
Q 45.015625 31 40.078125 35.4375 
Q 35.15625 39.890625 26.703125 39.890625 
Q 22.75 39.890625 18.8125 39.015625 
Q 14.890625 38.140625 10.796875 36.28125 
z
" id="DejaVuSans-53"/>
      </defs>
      <g style="fill:#262626;" transform="translate(84.5025 248.59022)scale(0.11 -0.11)">
       <use xlink:href="#DejaVuSans-50"/>
       <use x="63.623047" xlink:href="#DejaVuSans-53"/>
      </g>
     </g>
    </g>
    <g id="ytick_3">
     <g id="line2d_10">
      <path clip-path="url(#p3d04c1db5b)" d="M 108 218.102158 
L 777.6 218.102158 
" style="fill:none;stroke:#cccccc;stroke-linecap:round;"/>
     </g>
     <g id="text_3">
      <!-- 50 -->
      <g style="fill:#262626;" transform="translate(84.5025 222.281299)scale(0.11 -0.11)">
       <use xlink:href="#DejaVuSans-53"/>
       <use x="63.623047" xlink:href="#DejaVuSans-48"/>
      </g>
     </g>
    </g>
    <g id="ytick_4">
     <g id="line2d_11">
      <path clip-path="url(#p3d04c1db5b)" d="M 108 191.793237 
L 777.6 191.793237 
" style="fill:none;stroke:#cccccc;stroke-linecap:round;"/>
     </g>
     <g id="text_4">
      <!-- 75 -->
      <defs>
       <path d="M 8.203125 72.90625 
L 55.078125 72.90625 
L 55.078125 68.703125 
L 28.609375 0 
L 18.3125 0 
L 43.21875 64.59375 
L 8.203125 64.59375 
z
" id="DejaVuSans-55"/>
      </defs>
      <g style="fill:#262626;" transform="translate(84.5025 195.972378)scale(0.11 -0.11)">
       <use xlink:href="#DejaVuSans-55"/>
       <use x="63.623047" xlink:href="#DejaVuSans-53"/>
      </g>
     </g>
    </g>
    <g id="ytick_5">
     <g id="line2d_12">
      <path clip-path="url(#p3d04c1db5b)" d="M 108 165.484316 
L 777.6 165.484316 
" style="fill:none;stroke:#cccccc;stroke-linecap:round;"/>
     </g>
     <g id="text_5">
      <!-- 100 -->
      <defs>
       <path d="M 12.40625 8.296875 
L 28.515625 8.296875 
L 28.515625 63.921875 
L 10.984375 60.40625 
L 10.984375 69.390625 
L 28.421875 72.90625 
L 38.28125 72.90625 
L 38.28125 8.296875 
L 54.390625 8.296875 
L 54.390625 0 
L 12.40625 0 
z
" id="DejaVuSans-49"/>
      </defs>
      <g style="fill:#262626;" transform="translate(77.50375 169.663457)scale(0.11 -0.11)">
       <use xlink:href="#DejaVuSans-49"/>
       <use x="63.623047" xlink:href="#DejaVuSans-48"/>
       <use x="127.246094" xlink:href="#DejaVuSans-48"/>
      </g>
     </g>
    </g>
    <g id="ytick_6">
     <g id="line2d_13">
      <path clip-path="url(#p3d04c1db5b)" d="M 108 139.175395 
L 777.6 139.175395 
" style="fill:none;stroke:#cccccc;stroke-linecap:round;"/>
     </g>
     <g id="text_6">
      <!-- 125 -->
      <g style="fill:#262626;" transform="translate(77.50375 143.354536)scale(0.11 -0.11)">
       <use xlink:href="#DejaVuSans-49"/>
       <use x="63.623047" xlink:href="#DejaVuSans-50"/>
       <use x="127.246094" xlink:href="#DejaVuSans-53"/>
      </g>
     </g>
    </g>
    <g id="ytick_7">
     <g id="line2d_14">
      <path clip-path="url(#p3d04c1db5b)" d="M 108 112.866474 
L 777.6 112.866474 
" style="fill:none;stroke:#cccccc;stroke-linecap:round;"/>
     </g>
     <g id="text_7">
      <!-- 150 -->
      <g style="fill:#262626;" transform="translate(77.50375 117.045614)scale(0.11 -0.11)">
       <use xlink:href="#DejaVuSans-49"/>
       <use x="63.623047" xlink:href="#DejaVuSans-53"/>
       <use x="127.246094" xlink:href="#DejaVuSans-48"/>
      </g>
     </g>
    </g>
    <g id="ytick_8">
     <g id="line2d_15">
      <path clip-path="url(#p3d04c1db5b)" d="M 108 86.557553 
L 777.6 86.557553 
" style="fill:none;stroke:#cccccc;stroke-linecap:round;"/>
     </g>
     <g id="text_8">
      <!-- 175 -->
      <g style="fill:#262626;" transform="translate(77.50375 90.736693)scale(0.11 -0.11)">
       <use xlink:href="#DejaVuSans-49"/>
       <use x="63.623047" xlink:href="#DejaVuSans-55"/>
       <use x="127.246094" xlink:href="#DejaVuSans-53"/>
      </g>
     </g>
    </g>
    <g id="text_9">
     <!-- Update -->
     <defs>
      <path d="M 8.6875 72.90625 
L 18.609375 72.90625 
L 18.609375 28.609375 
Q 18.609375 16.890625 22.84375 11.734375 
Q 27.09375 6.59375 36.625 6.59375 
Q 46.09375 6.59375 50.34375 11.734375 
Q 54.59375 16.890625 54.59375 28.609375 
L 54.59375 72.90625 
L 64.5 72.90625 
L 64.5 27.390625 
Q 64.5 13.140625 57.4375 5.859375 
Q 50.390625 -1.421875 36.625 -1.421875 
Q 22.796875 -1.421875 15.734375 5.859375 
Q 8.6875 13.140625 8.6875 27.390625 
z
" id="DejaVuSans-85"/>
      <path d="M 18.109375 8.203125 
L 18.109375 -20.796875 
L 9.078125 -20.796875 
L 9.078125 54.6875 
L 18.109375 54.6875 
L 18.109375 46.390625 
Q 20.953125 51.265625 25.265625 53.625 
Q 29.59375 56 35.59375 56 
Q 45.5625 56 51.78125 48.09375 
Q 58.015625 40.1875 58.015625 27.296875 
Q 58.015625 14.40625 51.78125 6.484375 
Q 45.5625 -1.421875 35.59375 -1.421875 
Q 29.59375 -1.421875 25.265625 0.953125 
Q 20.953125 3.328125 18.109375 8.203125 
z
M 48.6875 27.296875 
Q 48.6875 37.203125 44.609375 42.84375 
Q 40.53125 48.484375 33.40625 48.484375 
Q 26.265625 48.484375 22.1875 42.84375 
Q 18.109375 37.203125 18.109375 27.296875 
Q 18.109375 17.390625 22.1875 11.75 
Q 26.265625 6.109375 33.40625 6.109375 
Q 40.53125 6.109375 44.609375 11.75 
Q 48.6875 17.390625 48.6875 27.296875 
z
" id="DejaVuSans-112"/>
      <path d="M 45.40625 46.390625 
L 45.40625 75.984375 
L 54.390625 75.984375 
L 54.390625 0 
L 45.40625 0 
L 45.40625 8.203125 
Q 42.578125 3.328125 38.25 0.953125 
Q 33.9375 -1.421875 27.875 -1.421875 
Q 17.96875 -1.421875 11.734375 6.484375 
Q 5.515625 14.40625 5.515625 27.296875 
Q 5.515625 40.1875 11.734375 48.09375 
Q 17.96875 56 27.875 56 
Q 33.9375 56 38.25 53.625 
Q 42.578125 51.265625 45.40625 46.390625 
z
M 14.796875 27.296875 
Q 14.796875 17.390625 18.875 11.75 
Q 22.953125 6.109375 30.078125 6.109375 
Q 37.203125 6.109375 41.296875 11.75 
Q 45.40625 17.390625 45.40625 27.296875 
Q 45.40625 37.203125 41.296875 42.84375 
Q 37.203125 48.484375 30.078125 48.484375 
Q 22.953125 48.484375 18.875 42.84375 
Q 14.796875 37.203125 14.796875 27.296875 
z
" id="DejaVuSans-100"/>
      <path d="M 34.28125 27.484375 
Q 23.390625 27.484375 19.1875 25 
Q 14.984375 22.515625 14.984375 16.5 
Q 14.984375 11.71875 18.140625 8.90625 
Q 21.296875 6.109375 26.703125 6.109375 
Q 34.1875 6.109375 38.703125 11.40625 
Q 43.21875 16.703125 43.21875 25.484375 
L 43.21875 27.484375 
z
M 52.203125 31.203125 
L 52.203125 0 
L 43.21875 0 
L 43.21875 8.296875 
Q 40.140625 3.328125 35.546875 0.953125 
Q 30.953125 -1.421875 24.3125 -1.421875 
Q 15.921875 -1.421875 10.953125 3.296875 
Q 6 8.015625 6 15.921875 
Q 6 25.140625 12.171875 29.828125 
Q 18.359375 34.515625 30.609375 34.515625 
L 43.21875 34.515625 
L 43.21875 35.40625 
Q 43.21875 41.609375 39.140625 45 
Q 35.0625 48.390625 27.6875 48.390625 
Q 23 48.390625 18.546875 47.265625 
Q 14.109375 46.140625 10.015625 43.890625 
L 10.015625 52.203125 
Q 14.9375 54.109375 19.578125 55.046875 
Q 24.21875 56 28.609375 56 
Q 40.484375 56 46.34375 49.84375 
Q 52.203125 43.703125 52.203125 31.203125 
z
" id="DejaVuSans-97"/>
      <path d="M 18.3125 70.21875 
L 18.3125 54.6875 
L 36.8125 54.6875 
L 36.8125 47.703125 
L 18.3125 47.703125 
L 18.3125 18.015625 
Q 18.3125 11.328125 20.140625 9.421875 
Q 21.96875 7.515625 27.59375 7.515625 
L 36.8125 7.515625 
L 36.8125 0 
L 27.59375 0 
Q 17.1875 0 13.234375 3.875 
Q 9.28125 7.765625 9.28125 18.015625 
L 9.28125 47.703125 
L 2.6875 47.703125 
L 2.6875 54.6875 
L 9.28125 54.6875 
L 9.28125 70.21875 
z
" id="DejaVuSans-116"/>
      <path d="M 56.203125 29.59375 
L 56.203125 25.203125 
L 14.890625 25.203125 
Q 15.484375 15.921875 20.484375 11.0625 
Q 25.484375 6.203125 34.421875 6.203125 
Q 39.59375 6.203125 44.453125 7.46875 
Q 49.3125 8.734375 54.109375 11.28125 
L 54.109375 2.78125 
Q 49.265625 0.734375 44.1875 -0.34375 
Q 39.109375 -1.421875 33.890625 -1.421875 
Q 20.796875 -1.421875 13.15625 6.1875 
Q 5.515625 13.8125 5.515625 26.8125 
Q 5.515625 40.234375 12.765625 48.109375 
Q 20.015625 56 32.328125 56 
Q 43.359375 56 49.78125 48.890625 
Q 56.203125 41.796875 56.203125 29.59375 
z
M 47.21875 32.234375 
Q 47.125 39.59375 43.09375 43.984375 
Q 39.0625 48.390625 32.421875 48.390625 
Q 24.90625 48.390625 20.390625 44.140625 
Q 15.875 39.890625 15.1875 32.171875 
z
" id="DejaVuSans-101"/>
     </defs>
     <g style="fill:#262626;" transform="translate(71.008125 191.650312)rotate(-90)scale(0.12 -0.12)">
      <use xlink:href="#DejaVuSans-85"/>
      <use x="73.193359" xlink:href="#DejaVuSans-112"/>
      <use x="136.669922" xlink:href="#DejaVuSans-100"/>
      <use x="200.146484" xlink:href="#DejaVuSans-97"/>
      <use x="261.425781" xlink:href="#DejaVuSans-116"/>
      <use x="300.634766" xlink:href="#DejaVuSans-101"/>
     </g>
    </g>
   </g>
   <g id="line2d_16">
    <path clip-path="url(#p3d04c1db5b)" d="M -1 257.75022 
L 5.15049 260.217479 
L 16.48549 257.27088 
L 28.057165 252.67208 
L 39.357563 254.797841 
L 50.910715 258.049624 
L 62.254135 257.607634 
L 73.7139 253.513966 
L 85.120247 252.356373 
L 96.611128 255.934386 
L 108 258.765226 
L 119.414313 253.766531 
L 130.833937 249.683387 
L 142.260504 252.96674 
L 153.661629 256.197476 
L 165.089867 255.787056 
L 176.509564 250.335848 
L 187.918549 250.525272 
L 199.325825 254.019097 
L 210.757121 256.849937 
L 222.16085 251.525011 
L 233.583434 248.441606 
L 244.993109 251.746006 
L 256.407988 254.524228 
L 267.828998 252.103807 
L 279.244208 247.336631 
L 290.656694 248.904643 
L 302.071259 252.072237 
L 313.483678 252.998311 
L 324.900016 248.167993 
L 336.315838 245.842284 
L 347.728673 249.051973 
L 359.144181 251.546058 
L 370.55822 247.946998 
L 381.973255 243.274534 
L 393.386779 245.06354 
L 404.800773 247.431343 
L 416.215286 246.557887 
L 427.630127 241.496051 
L 439.044142 239.633379 
L 450.459077 242.095894 
L 461.872999 244.158513 
L 473.287474 239.717567 
L 484.701927 232.277405 
L 496.116118 232.993007 
L 507.530673 237.181387 
L 518.944856 229.793842 
L 530.359267 224.953001 
L 541.773662 220.932998 
L 553.187998 216.313151 
L 564.60225 222.616769 
L 576.016588 203.295497 
L 587.430907 198.254708 
L 598.845217 178.05998 
L 610.259518 189.099203 
L 621.673879 181.469616 
L 633.08819 177.923174 
L 644.50247 175.134428 
L 655.916812 170.504058 
L 667.331129 163.505885 
L 678.745424 160.769757 
L 690.159756 159.601641 
L 701.574062 154.360904 
L 712.98837 151.214357 
L 724.402693 148.351947 
L 735.817012 143.932048 
L 747.231316 138.9544 
L 758.645637 140.122516 
L 770.059949 135.660523 
L 781.47426 127.89413 
" style="fill:none;stroke:#8b0000;stroke-linecap:round;stroke-width:1.5;"/>
   </g>
   <g id="line2d_17">
    <path clip-path="url(#p3d04c1db5b)" d="M -1 250.890067 
L 5.15049 250.998833 
L 16.48549 249.272968 
L 28.057165 249.462392 
L 39.357563 249.620245 
L 50.910715 249.54658 
L 62.254135 247.620767 
L 73.7139 248.18904 
L 85.120247 248.325846 
L 96.611128 248.262705 
L 108 248.357417 
L 119.414313 246.368463 
L 130.833937 246.589458 
L 142.260504 246.631552 
L 153.661629 246.873594 
L 165.089867 245.137205 
L 176.509564 245.284535 
L 187.918549 245.526577 
L 199.325825 245.684431 
L 210.757121 243.948042 
L 222.16085 244.358461 
L 233.583434 244.368985 
L 244.993109 244.347938 
L 256.407988 244.537362 
L 267.828998 242.874638 
L 279.244208 243.021968 
L 290.656694 242.748355 
L 302.071259 243.021968 
L 313.483678 241.190867 
L 324.900016 241.390815 
L 336.315838 241.443433 
L 347.728673 241.432909 
L 359.144181 241.569716 
L 370.55822 239.349243 
L 381.973255 239.854374 
L 393.386779 239.633379 
L 404.800773 240.054322 
L 416.215286 238.139032 
L 427.630127 238.317933 
L 439.044142 237.981179 
L 450.459077 238.107462 
L 461.872999 237.444477 
L 473.287474 234.992485 
L 484.701927 235.266098 
L 496.116118 233.729657 
L 507.530673 232.887772 
L 518.944856 230.614681 
L 530.359267 229.288711 
L 541.773662 228.288972 
L 553.187998 226.573631 
L 564.60225 227.562846 
L 576.016588 224.542582 
L 587.430907 224.458393 
L 598.845217 218.144252 
L 610.259518 215.197653 
L 621.673879 207.115553 
L 633.08819 198.286279 
L 644.50247 194.813501 
L 655.916812 193.824286 
L 667.331129 185.931609 
L 678.745424 183.416476 
L 690.159756 181.816894 
L 701.574062 178.228357 
L 712.98837 173.082332 
L 724.402693 171.082854 
L 735.817012 169.788455 
L 747.231316 167.652171 
L 758.645637 167.083898 
L 770.059949 161.495883 
L 781.47426 159.843683 
" style="fill:none;stroke:#00008b;stroke-linecap:round;stroke-width:1.5;"/>
   </g>
   <g id="line2d_18">
    <path clip-path="url(#p3d04c1db5b)" d="M -1 265.301288 
L 5.15049 265.289839 
L 16.48549 263.763921 
L 28.057165 263.795492 
L 39.357563 263.816539 
L 50.910715 263.784968 
L 62.254135 263.763921 
L 73.7139 263.806016 
L 85.120247 263.816539 
L 96.611128 263.816539 
L 108 263.795492 
L 119.414313 263.806016 
L 130.833937 263.500832 
L 142.260504 263.827063 
L 153.661629 263.795492 
L 165.089867 263.816539 
L 176.509564 263.837586 
L 187.918549 263.837586 
L 199.325825 263.827063 
L 210.757121 263.816539 
L 222.16085 261.659208 
L 233.583434 261.648684 
L 244.993109 261.648684 
L 256.407988 261.575019 
L 267.828998 261.543448 
L 279.244208 261.469783 
L 290.656694 261.480307 
L 302.071259 261.448736 
L 313.483678 261.427689 
L 324.900016 261.427689 
L 336.315838 261.406642 
L 347.728673 261.375071 
L 359.144181 261.332977 
L 370.55822 261.322453 
L 381.973255 261.301406 
L 393.386779 261.269836 
L 404.800773 260.880464 
L 416.215286 260.859416 
L 427.630127 257.481351 
L 439.044142 256.576324 
L 450.459077 255.987004 
L 461.872999 256.197476 
L 473.287474 254.061191 
L 484.701927 252.177472 
L 496.116118 251.893336 
L 507.530673 250.409513 
L 518.944856 248.104851 
L 530.359267 244.232178 
L 541.773662 245.589719 
L 553.187998 242.958827 
L 564.60225 244.211131 
L 576.016588 240.022751 
L 587.430907 235.834371 
L 598.845217 231.119812 
L 610.259518 220.006924 
L 621.673879 212.840374 
L 633.08819 207.789061 
L 644.50247 200.212092 
L 655.916812 205.316022 
L 667.331129 196.539366 
L 678.745424 190.898734 
L 690.159756 187.099725 
L 701.574062 189.646429 
L 712.98837 191.361771 
L 724.402693 189.867424 
L 735.817012 182.51145 
L 747.231316 185.96318 
L 758.645637 183.227052 
L 770.059949 182.24836 
L 781.47426 179.080766 
" style="fill:none;stroke:#006400;stroke-linecap:round;stroke-width:1.5;"/>
   </g>
   <g id="line2d_19">
    <path clip-path="url(#p3d04c1db5b)" d="M 260.901477 270.72 
L 260.901477 69.12 
" style="fill:none;stroke:#000000;stroke-dasharray:3.7,1.6;stroke-dashoffset:0;"/>
   </g>
   <g id="line2d_20">
    <path clip-path="url(#p3d04c1db5b)" d="M 462.471162 270.72 
L 462.471162 69.12 
" style="fill:none;stroke:#000000;stroke-dasharray:3.7,1.6;stroke-dashoffset:0;"/>
   </g>
   <g id="line2d_21">
    <path clip-path="url(#p3d04c1db5b)" d="M 613.648425 270.72 
L 613.648425 69.12 
" style="fill:none;stroke:#000000;stroke-dasharray:3.7,1.6;stroke-dashoffset:0;"/>
   </g>
   <g id="patch_3">
    <path d="M 108 270.72 
L 108 69.12 
" style="fill:none;stroke:#cccccc;stroke-linecap:square;stroke-linejoin:miter;stroke-width:1.25;"/>
   </g>
   <g id="patch_4">
    <path d="M 777.6 270.72 
L 777.6 69.12 
" style="fill:none;stroke:#cccccc;stroke-linecap:square;stroke-linejoin:miter;stroke-width:1.25;"/>
   </g>
   <g id="patch_5">
    <path d="M 108 270.72 
L 777.6 270.72 
" style="fill:none;stroke:#cccccc;stroke-linecap:square;stroke-linejoin:miter;stroke-width:1.25;"/>
   </g>
   <g id="patch_6">
    <path d="M 108 69.12 
L 777.6 69.12 
" style="fill:none;stroke:#cccccc;stroke-linecap:square;stroke-linejoin:miter;stroke-width:1.25;"/>
   </g>
   <g id="legend_1">
    <g id="patch_7">
     <path d="M 115.7 126.357813 
L 327.276406 126.357813 
Q 329.476406 126.357813 329.476406 124.157813 
L 329.476406 76.82 
Q 329.476406 74.62 327.276406 74.62 
L 115.7 74.62 
Q 113.5 74.62 113.5 76.82 
L 113.5 124.157813 
Q 113.5 126.357813 115.7 126.357813 
z
" style="fill:#ffffff;opacity:0.8;stroke:#cccccc;stroke-linejoin:miter;"/>
    </g>
    <g id="line2d_22">
     <path d="M 117.9 83.528281 
L 139.9 83.528281 
" style="fill:none;stroke:#8b0000;stroke-linecap:round;stroke-width:1.5;"/>
    </g>
    <g id="line2d_23"/>
    <g id="text_10">
     <!-- Segment tree (bottom-up) -->
     <defs>
      <path d="M 53.515625 70.515625 
L 53.515625 60.890625 
Q 47.90625 63.578125 42.921875 64.890625 
Q 37.9375 66.21875 33.296875 66.21875 
Q 25.25 66.21875 20.875 63.09375 
Q 16.5 59.96875 16.5 54.203125 
Q 16.5 49.359375 19.40625 46.890625 
Q 22.3125 44.4375 30.421875 42.921875 
L 36.375 41.703125 
Q 47.40625 39.59375 52.65625 34.296875 
Q 57.90625 29 57.90625 20.125 
Q 57.90625 9.515625 50.796875 4.046875 
Q 43.703125 -1.421875 29.984375 -1.421875 
Q 24.8125 -1.421875 18.96875 -0.25 
Q 13.140625 0.921875 6.890625 3.21875 
L 6.890625 13.375 
Q 12.890625 10.015625 18.65625 8.296875 
Q 24.421875 6.59375 29.984375 6.59375 
Q 38.421875 6.59375 43.015625 9.90625 
Q 47.609375 13.234375 47.609375 19.390625 
Q 47.609375 24.75 44.3125 27.78125 
Q 41.015625 30.8125 33.5 32.328125 
L 27.484375 33.5 
Q 16.453125 35.6875 11.515625 40.375 
Q 6.59375 45.0625 6.59375 53.421875 
Q 6.59375 63.09375 13.40625 68.65625 
Q 20.21875 74.21875 32.171875 74.21875 
Q 37.3125 74.21875 42.625 73.28125 
Q 47.953125 72.359375 53.515625 70.515625 
z
" id="DejaVuSans-83"/>
      <path d="M 45.40625 27.984375 
Q 45.40625 37.75 41.375 43.109375 
Q 37.359375 48.484375 30.078125 48.484375 
Q 22.859375 48.484375 18.828125 43.109375 
Q 14.796875 37.75 14.796875 27.984375 
Q 14.796875 18.265625 18.828125 12.890625 
Q 22.859375 7.515625 30.078125 7.515625 
Q 37.359375 7.515625 41.375 12.890625 
Q 45.40625 18.265625 45.40625 27.984375 
z
M 54.390625 6.78125 
Q 54.390625 -7.171875 48.1875 -13.984375 
Q 42 -20.796875 29.203125 -20.796875 
Q 24.46875 -20.796875 20.265625 -20.09375 
Q 16.0625 -19.390625 12.109375 -17.921875 
L 12.109375 -9.1875 
Q 16.0625 -11.328125 19.921875 -12.34375 
Q 23.78125 -13.375 27.78125 -13.375 
Q 36.625 -13.375 41.015625 -8.765625 
Q 45.40625 -4.15625 45.40625 5.171875 
L 45.40625 9.625 
Q 42.625 4.78125 38.28125 2.390625 
Q 33.9375 0 27.875 0 
Q 17.828125 0 11.671875 7.65625 
Q 5.515625 15.328125 5.515625 27.984375 
Q 5.515625 40.671875 11.671875 48.328125 
Q 17.828125 56 27.875 56 
Q 33.9375 56 38.28125 53.609375 
Q 42.625 51.21875 45.40625 46.390625 
L 45.40625 54.6875 
L 54.390625 54.6875 
z
" id="DejaVuSans-103"/>
      <path d="M 52 44.1875 
Q 55.375 50.25 60.0625 53.125 
Q 64.75 56 71.09375 56 
Q 79.640625 56 84.28125 50.015625 
Q 88.921875 44.046875 88.921875 33.015625 
L 88.921875 0 
L 79.890625 0 
L 79.890625 32.71875 
Q 79.890625 40.578125 77.09375 44.375 
Q 74.3125 48.1875 68.609375 48.1875 
Q 61.625 48.1875 57.5625 43.546875 
Q 53.515625 38.921875 53.515625 30.90625 
L 53.515625 0 
L 44.484375 0 
L 44.484375 32.71875 
Q 44.484375 40.625 41.703125 44.40625 
Q 38.921875 48.1875 33.109375 48.1875 
Q 26.21875 48.1875 22.15625 43.53125 
Q 18.109375 38.875 18.109375 30.90625 
L 18.109375 0 
L 9.078125 0 
L 9.078125 54.6875 
L 18.109375 54.6875 
L 18.109375 46.1875 
Q 21.1875 51.21875 25.484375 53.609375 
Q 29.78125 56 35.6875 56 
Q 41.65625 56 45.828125 52.96875 
Q 50 49.953125 52 44.1875 
z
" id="DejaVuSans-109"/>
      <path d="M 54.890625 33.015625 
L 54.890625 0 
L 45.90625 0 
L 45.90625 32.71875 
Q 45.90625 40.484375 42.875 44.328125 
Q 39.84375 48.1875 33.796875 48.1875 
Q 26.515625 48.1875 22.3125 43.546875 
Q 18.109375 38.921875 18.109375 30.90625 
L 18.109375 0 
L 9.078125 0 
L 9.078125 54.6875 
L 18.109375 54.6875 
L 18.109375 46.1875 
Q 21.34375 51.125 25.703125 53.5625 
Q 30.078125 56 35.796875 56 
Q 45.21875 56 50.046875 50.171875 
Q 54.890625 44.34375 54.890625 33.015625 
z
" id="DejaVuSans-110"/>
      <path id="DejaVuSans-32"/>
      <path d="M 41.109375 46.296875 
Q 39.59375 47.171875 37.8125 47.578125 
Q 36.03125 48 33.890625 48 
Q 26.265625 48 22.1875 43.046875 
Q 18.109375 38.09375 18.109375 28.8125 
L 18.109375 0 
L 9.078125 0 
L 9.078125 54.6875 
L 18.109375 54.6875 
L 18.109375 46.1875 
Q 20.953125 51.171875 25.484375 53.578125 
Q 30.03125 56 36.53125 56 
Q 37.453125 56 38.578125 55.875 
Q 39.703125 55.765625 41.0625 55.515625 
z
" id="DejaVuSans-114"/>
      <path d="M 31 75.875 
Q 24.46875 64.65625 21.28125 53.65625 
Q 18.109375 42.671875 18.109375 31.390625 
Q 18.109375 20.125 21.3125 9.0625 
Q 24.515625 -2 31 -13.1875 
L 23.1875 -13.1875 
Q 15.875 -1.703125 12.234375 9.375 
Q 8.59375 20.453125 8.59375 31.390625 
Q 8.59375 42.28125 12.203125 53.3125 
Q 15.828125 64.359375 23.1875 75.875 
z
" id="DejaVuSans-40"/>
      <path d="M 48.6875 27.296875 
Q 48.6875 37.203125 44.609375 42.84375 
Q 40.53125 48.484375 33.40625 48.484375 
Q 26.265625 48.484375 22.1875 42.84375 
Q 18.109375 37.203125 18.109375 27.296875 
Q 18.109375 17.390625 22.1875 11.75 
Q 26.265625 6.109375 33.40625 6.109375 
Q 40.53125 6.109375 44.609375 11.75 
Q 48.6875 17.390625 48.6875 27.296875 
z
M 18.109375 46.390625 
Q 20.953125 51.265625 25.265625 53.625 
Q 29.59375 56 35.59375 56 
Q 45.5625 56 51.78125 48.09375 
Q 58.015625 40.1875 58.015625 27.296875 
Q 58.015625 14.40625 51.78125 6.484375 
Q 45.5625 -1.421875 35.59375 -1.421875 
Q 29.59375 -1.421875 25.265625 0.953125 
Q 20.953125 3.328125 18.109375 8.203125 
L 18.109375 0 
L 9.078125 0 
L 9.078125 75.984375 
L 18.109375 75.984375 
z
" id="DejaVuSans-98"/>
      <path d="M 30.609375 48.390625 
Q 23.390625 48.390625 19.1875 42.75 
Q 14.984375 37.109375 14.984375 27.296875 
Q 14.984375 17.484375 19.15625 11.84375 
Q 23.34375 6.203125 30.609375 6.203125 
Q 37.796875 6.203125 41.984375 11.859375 
Q 46.1875 17.53125 46.1875 27.296875 
Q 46.1875 37.015625 41.984375 42.703125 
Q 37.796875 48.390625 30.609375 48.390625 
z
M 30.609375 56 
Q 42.328125 56 49.015625 48.375 
Q 55.71875 40.765625 55.71875 27.296875 
Q 55.71875 13.875 49.015625 6.21875 
Q 42.328125 -1.421875 30.609375 -1.421875 
Q 18.84375 -1.421875 12.171875 6.21875 
Q 5.515625 13.875 5.515625 27.296875 
Q 5.515625 40.765625 12.171875 48.375 
Q 18.84375 56 30.609375 56 
z
" id="DejaVuSans-111"/>
      <path d="M 4.890625 31.390625 
L 31.203125 31.390625 
L 31.203125 23.390625 
L 4.890625 23.390625 
z
" id="DejaVuSans-45"/>
      <path d="M 8.5 21.578125 
L 8.5 54.6875 
L 17.484375 54.6875 
L 17.484375 21.921875 
Q 17.484375 14.15625 20.5 10.265625 
Q 23.53125 6.390625 29.59375 6.390625 
Q 36.859375 6.390625 41.078125 11.03125 
Q 45.3125 15.671875 45.3125 23.6875 
L 45.3125 54.6875 
L 54.296875 54.6875 
L 54.296875 0 
L 45.3125 0 
L 45.3125 8.40625 
Q 42.046875 3.421875 37.71875 1 
Q 33.40625 -1.421875 27.6875 -1.421875 
Q 18.265625 -1.421875 13.375 4.4375 
Q 8.5 10.296875 8.5 21.578125 
z
M 31.109375 56 
z
" id="DejaVuSans-117"/>
      <path d="M 8.015625 75.875 
L 15.828125 75.875 
Q 23.140625 64.359375 26.78125 53.3125 
Q 30.421875 42.28125 30.421875 31.390625 
Q 30.421875 20.453125 26.78125 9.375 
Q 23.140625 -1.703125 15.828125 -13.1875 
L 8.015625 -13.1875 
Q 14.5 -2 17.703125 9.0625 
Q 20.90625 20.125 20.90625 31.390625 
Q 20.90625 42.671875 17.703125 53.65625 
Q 14.5 64.65625 8.015625 75.875 
z
" id="DejaVuSans-41"/>
     </defs>
     <g style="fill:#262626;" transform="translate(148.7 87.378281)scale(0.11 -0.11)">
      <use xlink:href="#DejaVuSans-83"/>
      <use x="63.476562" xlink:href="#DejaVuSans-101"/>
      <use x="125" xlink:href="#DejaVuSans-103"/>
      <use x="188.476562" xlink:href="#DejaVuSans-109"/>
      <use x="285.888672" xlink:href="#DejaVuSans-101"/>
      <use x="347.412109" xlink:href="#DejaVuSans-110"/>
      <use x="410.791016" xlink:href="#DejaVuSans-116"/>
      <use x="450" xlink:href="#DejaVuSans-32"/>
      <use x="481.787109" xlink:href="#DejaVuSans-116"/>
      <use x="520.996094" xlink:href="#DejaVuSans-114"/>
      <use x="562.078125" xlink:href="#DejaVuSans-101"/>
      <use x="623.601562" xlink:href="#DejaVuSans-101"/>
      <use x="685.125" xlink:href="#DejaVuSans-32"/>
      <use x="716.912109" xlink:href="#DejaVuSans-40"/>
      <use x="755.925781" xlink:href="#DejaVuSans-98"/>
      <use x="819.402344" xlink:href="#DejaVuSans-111"/>
      <use x="880.583984" xlink:href="#DejaVuSans-116"/>
      <use x="919.792969" xlink:href="#DejaVuSans-116"/>
      <use x="959.001953" xlink:href="#DejaVuSans-111"/>
      <use x="1020.183594" xlink:href="#DejaVuSans-109"/>
      <use x="1117.595703" xlink:href="#DejaVuSans-45"/>
      <use x="1153.679688" xlink:href="#DejaVuSans-117"/>
      <use x="1217.058594" xlink:href="#DejaVuSans-112"/>
      <use x="1280.535156" xlink:href="#DejaVuSans-41"/>
     </g>
    </g>
    <g id="line2d_24">
     <path d="M 117.9 99.674219 
L 139.9 99.674219 
" style="fill:none;stroke:#00008b;stroke-linecap:round;stroke-width:1.5;"/>
    </g>
    <g id="line2d_25"/>
    <g id="text_11">
     <!-- Fenwick tree (with layout holes) -->
     <defs>
      <path d="M 9.8125 72.90625 
L 51.703125 72.90625 
L 51.703125 64.59375 
L 19.671875 64.59375 
L 19.671875 43.109375 
L 48.578125 43.109375 
L 48.578125 34.8125 
L 19.671875 34.8125 
L 19.671875 0 
L 9.8125 0 
z
" id="DejaVuSans-70"/>
      <path d="M 4.203125 54.6875 
L 13.1875 54.6875 
L 24.421875 12.015625 
L 35.59375 54.6875 
L 46.1875 54.6875 
L 57.421875 12.015625 
L 68.609375 54.6875 
L 77.59375 54.6875 
L 63.28125 0 
L 52.6875 0 
L 40.921875 44.828125 
L 29.109375 0 
L 18.5 0 
z
" id="DejaVuSans-119"/>
      <path d="M 9.421875 54.6875 
L 18.40625 54.6875 
L 18.40625 0 
L 9.421875 0 
z
M 9.421875 75.984375 
L 18.40625 75.984375 
L 18.40625 64.59375 
L 9.421875 64.59375 
z
" id="DejaVuSans-105"/>
      <path d="M 48.78125 52.59375 
L 48.78125 44.1875 
Q 44.96875 46.296875 41.140625 47.34375 
Q 37.3125 48.390625 33.40625 48.390625 
Q 24.65625 48.390625 19.8125 42.84375 
Q 14.984375 37.3125 14.984375 27.296875 
Q 14.984375 17.28125 19.8125 11.734375 
Q 24.65625 6.203125 33.40625 6.203125 
Q 37.3125 6.203125 41.140625 7.25 
Q 44.96875 8.296875 48.78125 10.40625 
L 48.78125 2.09375 
Q 45.015625 0.34375 40.984375 -0.53125 
Q 36.96875 -1.421875 32.421875 -1.421875 
Q 20.0625 -1.421875 12.78125 6.34375 
Q 5.515625 14.109375 5.515625 27.296875 
Q 5.515625 40.671875 12.859375 48.328125 
Q 20.21875 56 33.015625 56 
Q 37.15625 56 41.109375 55.140625 
Q 45.0625 54.296875 48.78125 52.59375 
z
" id="DejaVuSans-99"/>
      <path d="M 9.078125 75.984375 
L 18.109375 75.984375 
L 18.109375 31.109375 
L 44.921875 54.6875 
L 56.390625 54.6875 
L 27.390625 29.109375 
L 57.625 0 
L 45.90625 0 
L 18.109375 26.703125 
L 18.109375 0 
L 9.078125 0 
z
" id="DejaVuSans-107"/>
      <path d="M 54.890625 33.015625 
L 54.890625 0 
L 45.90625 0 
L 45.90625 32.71875 
Q 45.90625 40.484375 42.875 44.328125 
Q 39.84375 48.1875 33.796875 48.1875 
Q 26.515625 48.1875 22.3125 43.546875 
Q 18.109375 38.921875 18.109375 30.90625 
L 18.109375 0 
L 9.078125 0 
L 9.078125 75.984375 
L 18.109375 75.984375 
L 18.109375 46.1875 
Q 21.34375 51.125 25.703125 53.5625 
Q 30.078125 56 35.796875 56 
Q 45.21875 56 50.046875 50.171875 
Q 54.890625 44.34375 54.890625 33.015625 
z
" id="DejaVuSans-104"/>
      <path d="M 9.421875 75.984375 
L 18.40625 75.984375 
L 18.40625 0 
L 9.421875 0 
z
" id="DejaVuSans-108"/>
      <path d="M 32.171875 -5.078125 
Q 28.375 -14.84375 24.75 -17.8125 
Q 21.140625 -20.796875 15.09375 -20.796875 
L 7.90625 -20.796875 
L 7.90625 -13.28125 
L 13.1875 -13.28125 
Q 16.890625 -13.28125 18.9375 -11.515625 
Q 21 -9.765625 23.484375 -3.21875 
L 25.09375 0.875 
L 2.984375 54.6875 
L 12.5 54.6875 
L 29.59375 11.921875 
L 46.6875 54.6875 
L 56.203125 54.6875 
z
" id="DejaVuSans-121"/>
      <path d="M 44.28125 53.078125 
L 44.28125 44.578125 
Q 40.484375 46.53125 36.375 47.5 
Q 32.28125 48.484375 27.875 48.484375 
Q 21.1875 48.484375 17.84375 46.4375 
Q 14.5 44.390625 14.5 40.28125 
Q 14.5 37.15625 16.890625 35.375 
Q 19.28125 33.59375 26.515625 31.984375 
L 29.59375 31.296875 
Q 39.15625 29.25 43.1875 25.515625 
Q 47.21875 21.78125 47.21875 15.09375 
Q 47.21875 7.46875 41.1875 3.015625 
Q 35.15625 -1.421875 24.609375 -1.421875 
Q 20.21875 -1.421875 15.453125 -0.5625 
Q 10.6875 0.296875 5.421875 2 
L 5.421875 11.28125 
Q 10.40625 8.6875 15.234375 7.390625 
Q 20.0625 6.109375 24.8125 6.109375 
Q 31.15625 6.109375 34.5625 8.28125 
Q 37.984375 10.453125 37.984375 14.40625 
Q 37.984375 18.0625 35.515625 20.015625 
Q 33.0625 21.96875 24.703125 23.78125 
L 21.578125 24.515625 
Q 13.234375 26.265625 9.515625 29.90625 
Q 5.8125 33.546875 5.8125 39.890625 
Q 5.8125 47.609375 11.28125 51.796875 
Q 16.75 56 26.8125 56 
Q 31.78125 56 36.171875 55.265625 
Q 40.578125 54.546875 44.28125 53.078125 
z
" id="DejaVuSans-115"/>
     </defs>
     <g style="fill:#262626;" transform="translate(148.7 103.524219)scale(0.11 -0.11)">
      <use xlink:href="#DejaVuSans-70"/>
      <use x="57.441406" xlink:href="#DejaVuSans-101"/>
      <use x="118.964844" xlink:href="#DejaVuSans-110"/>
      <use x="182.34375" xlink:href="#DejaVuSans-119"/>
      <use x="264.130859" xlink:href="#DejaVuSans-105"/>
      <use x="291.914062" xlink:href="#DejaVuSans-99"/>
      <use x="346.894531" xlink:href="#DejaVuSans-107"/>
      <use x="404.804688" xlink:href="#DejaVuSans-32"/>
      <use x="436.591797" xlink:href="#DejaVuSans-116"/>
      <use x="475.800781" xlink:href="#DejaVuSans-114"/>
      <use x="516.882812" xlink:href="#DejaVuSans-101"/>
      <use x="578.40625" xlink:href="#DejaVuSans-101"/>
      <use x="639.929688" xlink:href="#DejaVuSans-32"/>
      <use x="671.716797" xlink:href="#DejaVuSans-40"/>
      <use x="710.730469" xlink:href="#DejaVuSans-119"/>
      <use x="792.517578" xlink:href="#DejaVuSans-105"/>
      <use x="820.300781" xlink:href="#DejaVuSans-116"/>
      <use x="859.509766" xlink:href="#DejaVuSans-104"/>
      <use x="922.888672" xlink:href="#DejaVuSans-32"/>
      <use x="954.675781" xlink:href="#DejaVuSans-108"/>
      <use x="982.458984" xlink:href="#DejaVuSans-97"/>
      <use x="1043.738281" xlink:href="#DejaVuSans-121"/>
      <use x="1102.917969" xlink:href="#DejaVuSans-111"/>
      <use x="1164.099609" xlink:href="#DejaVuSans-117"/>
      <use x="1227.478516" xlink:href="#DejaVuSans-116"/>
      <use x="1266.6875" xlink:href="#DejaVuSans-32"/>
      <use x="1298.474609" xlink:href="#DejaVuSans-104"/>
      <use x="1361.853516" xlink:href="#DejaVuSans-111"/>
      <use x="1423.035156" xlink:href="#DejaVuSans-108"/>
      <use x="1450.818359" xlink:href="#DejaVuSans-101"/>
      <use x="1512.341797" xlink:href="#DejaVuSans-115"/>
      <use x="1564.441406" xlink:href="#DejaVuSans-41"/>
     </g>
    </g>
    <g id="line2d_26">
     <path d="M 117.9 115.820156 
L 139.9 115.820156 
" style="fill:none;stroke:#006400;stroke-linecap:round;stroke-width:1.5;"/>
    </g>
    <g id="line2d_27"/>
    <g id="text_12">
     <!-- Wide segment tree (with SIMD) -->
     <defs>
      <path d="M 3.328125 72.90625 
L 13.28125 72.90625 
L 28.609375 11.28125 
L 43.890625 72.90625 
L 54.984375 72.90625 
L 70.3125 11.28125 
L 85.59375 72.90625 
L 95.609375 72.90625 
L 77.296875 0 
L 64.890625 0 
L 49.515625 63.28125 
L 33.984375 0 
L 21.578125 0 
z
" id="DejaVuSans-87"/>
      <path d="M 9.8125 72.90625 
L 19.671875 72.90625 
L 19.671875 0 
L 9.8125 0 
z
" id="DejaVuSans-73"/>
      <path d="M 9.8125 72.90625 
L 24.515625 72.90625 
L 43.109375 23.296875 
L 61.8125 72.90625 
L 76.515625 72.90625 
L 76.515625 0 
L 66.890625 0 
L 66.890625 64.015625 
L 48.09375 14.015625 
L 38.1875 14.015625 
L 19.390625 64.015625 
L 19.390625 0 
L 9.8125 0 
z
" id="DejaVuSans-77"/>
      <path d="M 19.671875 64.796875 
L 19.671875 8.109375 
L 31.59375 8.109375 
Q 46.6875 8.109375 53.6875 14.9375 
Q 60.6875 21.78125 60.6875 36.53125 
Q 60.6875 51.171875 53.6875 57.984375 
Q 46.6875 64.796875 31.59375 64.796875 
z
M 9.8125 72.90625 
L 30.078125 72.90625 
Q 51.265625 72.90625 61.171875 64.09375 
Q 71.09375 55.28125 71.09375 36.53125 
Q 71.09375 17.671875 61.125 8.828125 
Q 51.171875 0 30.078125 0 
L 9.8125 0 
z
" id="DejaVuSans-68"/>
     </defs>
     <g style="fill:#262626;" transform="translate(148.7 119.670156)scale(0.11 -0.11)">
      <use xlink:href="#DejaVuSans-87"/>
      <use x="98.845703" xlink:href="#DejaVuSans-105"/>
      <use x="126.628906" xlink:href="#DejaVuSans-100"/>
      <use x="190.105469" xlink:href="#DejaVuSans-101"/>
      <use x="251.628906" xlink:href="#DejaVuSans-32"/>
      <use x="283.416016" xlink:href="#DejaVuSans-115"/>
      <use x="335.515625" xlink:href="#DejaVuSans-101"/>
      <use x="397.039062" xlink:href="#DejaVuSans-103"/>
      <use x="460.515625" xlink:href="#DejaVuSans-109"/>
      <use x="557.927734" xlink:href="#DejaVuSans-101"/>
      <use x="619.451172" xlink:href="#DejaVuSans-110"/>
      <use x="682.830078" xlink:href="#DejaVuSans-116"/>
      <use x="722.039062" xlink:href="#DejaVuSans-32"/>
      <use x="753.826172" xlink:href="#DejaVuSans-116"/>
      <use x="793.035156" xlink:href="#DejaVuSans-114"/>
      <use x="834.117188" xlink:href="#DejaVuSans-101"/>
      <use x="895.640625" xlink:href="#DejaVuSans-101"/>
      <use x="957.164062" xlink:href="#DejaVuSans-32"/>
      <use x="988.951172" xlink:href="#DejaVuSans-40"/>
      <use x="1027.964844" xlink:href="#DejaVuSans-119"/>
      <use x="1109.751953" xlink:href="#DejaVuSans-105"/>
      <use x="1137.535156" xlink:href="#DejaVuSans-116"/>
      <use x="1176.744141" xlink:href="#DejaVuSans-104"/>
      <use x="1240.123047" xlink:href="#DejaVuSans-32"/>
      <use x="1271.910156" xlink:href="#DejaVuSans-83"/>
      <use x="1335.386719" xlink:href="#DejaVuSans-73"/>
      <use x="1364.878906" xlink:href="#DejaVuSans-77"/>
      <use x="1451.158203" xlink:href="#DejaVuSans-68"/>
      <use x="1528.160156" xlink:href="#DejaVuSans-41"/>
     </g>
    </g>
   </g>
  </g>
  <g id="axes_2">
   <g id="patch_8">
    <path d="M 108 512.64 
L 777.6 512.64 
L 777.6 311.04 
L 108 311.04 
z
" style="fill:#ffffff;"/>
   </g>
   <g id="matplotlib.axis_3">
    <g id="xtick_8">
     <g id="line2d_28">
      <path clip-path="url(#pd40879ee45)" d="M 160.116634 512.64 
L 160.116634 311.04 
" style="fill:none;stroke:#cccccc;stroke-linecap:round;"/>
     </g>
     <g id="text_13">
      <!-- $\mathdefault{2^{11}}$ -->
      <g style="fill:#262626;" transform="translate(151.481634 530.498281)scale(0.11 -0.11)">
       <use transform="translate(0 0.684375)" xlink:href="#DejaVuSans-50"/>
       <use transform="translate(64.580078 38.965625)scale(0.7)" xlink:href="#DejaVuSans-49"/>
       <use transform="translate(109.116211 38.965625)scale(0.7)" xlink:href="#DejaVuSans-49"/>
      </g>
     </g>
    </g>
    <g id="xtick_9">
     <g id="line2d_29">
      <path clip-path="url(#pd40879ee45)" d="M 260.901477 512.64 
L 260.901477 311.04 
" style="fill:none;stroke:#cccccc;stroke-linecap:round;"/>
     </g>
     <g id="text_14">
      <!-- $\mathdefault{2^{13}}$ -->
      <defs>
       <path d="M 40.578125 39.3125 
Q 47.65625 37.796875 51.625 33 
Q 55.609375 28.21875 55.609375 21.1875 
Q 55.609375 10.40625 48.1875 4.484375 
Q 40.765625 -1.421875 27.09375 -1.421875 
Q 22.515625 -1.421875 17.65625 -0.515625 
Q 12.796875 0.390625 7.625 2.203125 
L 7.625 11.71875 
Q 11.71875 9.328125 16.59375 8.109375 
Q 21.484375 6.890625 26.8125 6.890625 
Q 36.078125 6.890625 40.9375 10.546875 
Q 45.796875 14.203125 45.796875 21.1875 
Q 45.796875 27.640625 41.28125 31.265625 
Q 36.765625 34.90625 28.71875 34.90625 
L 20.21875 34.90625 
L 20.21875 43.015625 
L 29.109375 43.015625 
Q 36.375 43.015625 40.234375 45.921875 
Q 44.09375 48.828125 44.09375 54.296875 
Q 44.09375 59.90625 40.109375 62.90625 
Q 36.140625 65.921875 28.71875 65.921875 
Q 24.65625 65.921875 20.015625 65.03125 
Q 15.375 64.15625 9.8125 62.3125 
L 9.8125 71.09375 
Q 15.4375 72.65625 20.34375 73.4375 
Q 25.25 74.21875 29.59375 74.21875 
Q 40.828125 74.21875 47.359375 69.109375 
Q 53.90625 64.015625 53.90625 55.328125 
Q 53.90625 49.265625 50.4375 45.09375 
Q 46.96875 40.921875 40.578125 39.3125 
z
" id="DejaVuSans-51"/>
      </defs>
      <g style="fill:#262626;" transform="translate(252.266477 530.498281)scale(0.11 -0.11)">
       <use transform="translate(0 0.765625)" xlink:href="#DejaVuSans-50"/>
       <use transform="translate(64.580078 39.046875)scale(0.7)" xlink:href="#DejaVuSans-49"/>
       <use transform="translate(109.116211 39.046875)scale(0.7)" xlink:href="#DejaVuSans-51"/>
      </g>
     </g>
    </g>
    <g id="xtick_10">
     <g id="line2d_30">
      <path clip-path="url(#pd40879ee45)" d="M 361.686319 512.64 
L 361.686319 311.04 
" style="fill:none;stroke:#cccccc;stroke-linecap:round;"/>
     </g>
     <g id="text_15">
      <!-- $\mathdefault{2^{15}}$ -->
      <g style="fill:#262626;" transform="translate(353.051319 530.498281)scale(0.11 -0.11)">
       <use transform="translate(0 0.684375)" xlink:href="#DejaVuSans-50"/>
       <use transform="translate(64.580078 38.965625)scale(0.7)" xlink:href="#DejaVuSans-49"/>
       <use transform="translate(109.116211 38.965625)scale(0.7)" xlink:href="#DejaVuSans-53"/>
      </g>
     </g>
    </g>
    <g id="xtick_11">
     <g id="line2d_31">
      <path clip-path="url(#pd40879ee45)" d="M 462.471162 512.64 
L 462.471162 311.04 
" style="fill:none;stroke:#cccccc;stroke-linecap:round;"/>
     </g>
     <g id="text_16">
      <!-- $\mathdefault{2^{17}}$ -->
      <g style="fill:#262626;" transform="translate(453.836162 530.498281)scale(0.11 -0.11)">
       <use transform="translate(0 0.684375)" xlink:href="#DejaVuSans-50"/>
       <use transform="translate(64.580078 38.965625)scale(0.7)" xlink:href="#DejaVuSans-49"/>
       <use transform="translate(109.116211 38.965625)scale(0.7)" xlink:href="#DejaVuSans-55"/>
      </g>
     </g>
    </g>
    <g id="xtick_12">
     <g id="line2d_32">
      <path clip-path="url(#pd40879ee45)" d="M 563.256004 512.64 
L 563.256004 311.04 
" style="fill:none;stroke:#cccccc;stroke-linecap:round;"/>
     </g>
     <g id="text_17">
      <!-- $\mathdefault{2^{19}}$ -->
      <defs>
       <path d="M 10.984375 1.515625 
L 10.984375 10.5 
Q 14.703125 8.734375 18.5 7.8125 
Q 22.3125 6.890625 25.984375 6.890625 
Q 35.75 6.890625 40.890625 13.453125 
Q 46.046875 20.015625 46.78125 33.40625 
Q 43.953125 29.203125 39.59375 26.953125 
Q 35.25 24.703125 29.984375 24.703125 
Q 19.046875 24.703125 12.671875 31.3125 
Q 6.296875 37.9375 6.296875 49.421875 
Q 6.296875 60.640625 12.9375 67.421875 
Q 19.578125 74.21875 30.609375 74.21875 
Q 43.265625 74.21875 49.921875 64.515625 
Q 56.59375 54.828125 56.59375 36.375 
Q 56.59375 19.140625 48.40625 8.859375 
Q 40.234375 -1.421875 26.421875 -1.421875 
Q 22.703125 -1.421875 18.890625 -0.6875 
Q 15.09375 0.046875 10.984375 1.515625 
z
M 30.609375 32.421875 
Q 37.25 32.421875 41.125 36.953125 
Q 45.015625 41.5 45.015625 49.421875 
Q 45.015625 57.28125 41.125 61.84375 
Q 37.25 66.40625 30.609375 66.40625 
Q 23.96875 66.40625 20.09375 61.84375 
Q 16.21875 57.28125 16.21875 49.421875 
Q 16.21875 41.5 20.09375 36.953125 
Q 23.96875 32.421875 30.609375 32.421875 
z
" id="DejaVuSans-57"/>
      </defs>
      <g style="fill:#262626;" transform="translate(554.621004 530.498281)scale(0.11 -0.11)">
       <use transform="translate(0 0.765625)" xlink:href="#DejaVuSans-50"/>
       <use transform="translate(64.580078 39.046875)scale(0.7)" xlink:href="#DejaVuSans-49"/>
       <use transform="translate(109.116211 39.046875)scale(0.7)" xlink:href="#DejaVuSans-57"/>
      </g>
     </g>
    </g>
    <g id="xtick_13">
     <g id="line2d_33">
      <path clip-path="url(#pd40879ee45)" d="M 664.040847 512.64 
L 664.040847 311.04 
" style="fill:none;stroke:#cccccc;stroke-linecap:round;"/>
     </g>
     <g id="text_18">
      <!-- $\mathdefault{2^{21}}$ -->
      <g style="fill:#262626;" transform="translate(655.405847 530.498281)scale(0.11 -0.11)">
       <use transform="translate(0 0.765625)" xlink:href="#DejaVuSans-50"/>
       <use transform="translate(64.580078 39.046875)scale(0.7)" xlink:href="#DejaVuSans-50"/>
       <use transform="translate(109.116211 39.046875)scale(0.7)" xlink:href="#DejaVuSans-49"/>
      </g>
     </g>
    </g>
    <g id="xtick_14">
     <g id="line2d_34">
      <path clip-path="url(#pd40879ee45)" d="M 764.825689 512.64 
L 764.825689 311.04 
" style="fill:none;stroke:#cccccc;stroke-linecap:round;"/>
     </g>
     <g id="text_19">
      <!-- $\mathdefault{2^{23}}$ -->
      <g style="fill:#262626;" transform="translate(756.190689 530.498281)scale(0.11 -0.11)">
       <use transform="translate(0 0.765625)" xlink:href="#DejaVuSans-50"/>
       <use transform="translate(64.580078 39.046875)scale(0.7)" xlink:href="#DejaVuSans-50"/>
       <use transform="translate(109.116211 39.046875)scale(0.7)" xlink:href="#DejaVuSans-51"/>
      </g>
     </g>
    </g>
    <g id="text_20">
     <!-- Array size -->
     <defs>
      <path d="M 34.1875 63.1875 
L 20.796875 26.90625 
L 47.609375 26.90625 
z
M 28.609375 72.90625 
L 39.796875 72.90625 
L 67.578125 0 
L 57.328125 0 
L 50.6875 18.703125 
L 17.828125 18.703125 
L 11.1875 0 
L 0.78125 0 
z
" id="DejaVuSans-65"/>
      <path d="M 5.515625 54.6875 
L 48.1875 54.6875 
L 48.1875 46.484375 
L 14.40625 7.171875 
L 48.1875 7.171875 
L 48.1875 0 
L 4.296875 0 
L 4.296875 8.203125 
L 38.09375 47.515625 
L 5.515625 47.515625 
z
" id="DejaVuSans-122"/>
     </defs>
     <g style="fill:#262626;" transform="translate(412.995 545.904063)scale(0.12 -0.12)">
      <use xlink:href="#DejaVuSans-65"/>
      <use x="68.408203" xlink:href="#DejaVuSans-114"/>
      <use x="109.505859" xlink:href="#DejaVuSans-114"/>
      <use x="150.619141" xlink:href="#DejaVuSans-97"/>
      <use x="211.898438" xlink:href="#DejaVuSans-121"/>
      <use x="271.078125" xlink:href="#DejaVuSans-32"/>
      <use x="302.865234" xlink:href="#DejaVuSans-115"/>
      <use x="354.964844" xlink:href="#DejaVuSans-105"/>
      <use x="382.748047" xlink:href="#DejaVuSans-122"/>
      <use x="435.238281" xlink:href="#DejaVuSans-101"/>
     </g>
    </g>
   </g>
   <g id="matplotlib.axis_4">
    <g id="ytick_9">
     <g id="line2d_35">
      <path clip-path="url(#pd40879ee45)" d="M 108 512.64 
L 777.6 512.64 
" style="fill:none;stroke:#cccccc;stroke-linecap:round;"/>
     </g>
     <g id="text_21">
      <!-- 0 -->
      <g style="fill:#262626;" transform="translate(91.50125 516.819141)scale(0.11 -0.11)">
       <use xlink:href="#DejaVuSans-48"/>
      </g>
     </g>
    </g>
    <g id="ytick_10">
     <g id="line2d_36">
      <path clip-path="url(#pd40879ee45)" d="M 108 486.331079 
L 777.6 486.331079 
" style="fill:none;stroke:#cccccc;stroke-linecap:round;"/>
     </g>
     <g id="text_22">
      <!-- 25 -->
      <g style="fill:#262626;" transform="translate(84.5025 490.51022)scale(0.11 -0.11)">
       <use xlink:href="#DejaVuSans-50"/>
       <use x="63.623047" xlink:href="#DejaVuSans-53"/>
      </g>
     </g>
    </g>
    <g id="ytick_11">
     <g id="line2d_37">
      <path clip-path="url(#pd40879ee45)" d="M 108 460.022158 
L 777.6 460.022158 
" style="fill:none;stroke:#cccccc;stroke-linecap:round;"/>
     </g>
     <g id="text_23">
      <!-- 50 -->
      <g style="fill:#262626;" transform="translate(84.5025 464.201299)scale(0.11 -0.11)">
       <use xlink:href="#DejaVuSans-53"/>
       <use x="63.623047" xlink:href="#DejaVuSans-48"/>
      </g>
     </g>
    </g>
    <g id="ytick_12">
     <g id="line2d_38">
      <path clip-path="url(#pd40879ee45)" d="M 108 433.713237 
L 777.6 433.713237 
" style="fill:none;stroke:#cccccc;stroke-linecap:round;"/>
     </g>
     <g id="text_24">
      <!-- 75 -->
      <g style="fill:#262626;" transform="translate(84.5025 437.892378)scale(0.11 -0.11)">
       <use xlink:href="#DejaVuSans-55"/>
       <use x="63.623047" xlink:href="#DejaVuSans-53"/>
      </g>
     </g>
    </g>
    <g id="ytick_13">
     <g id="line2d_39">
      <path clip-path="url(#pd40879ee45)" d="M 108 407.404316 
L 777.6 407.404316 
" style="fill:none;stroke:#cccccc;stroke-linecap:round;"/>
     </g>
     <g id="text_25">
      <!-- 100 -->
      <g style="fill:#262626;" transform="translate(77.50375 411.583457)scale(0.11 -0.11)">
       <use xlink:href="#DejaVuSans-49"/>
       <use x="63.623047" xlink:href="#DejaVuSans-48"/>
       <use x="127.246094" xlink:href="#DejaVuSans-48"/>
      </g>
     </g>
    </g>
    <g id="ytick_14">
     <g id="line2d_40">
      <path clip-path="url(#pd40879ee45)" d="M 108 381.095395 
L 777.6 381.095395 
" style="fill:none;stroke:#cccccc;stroke-linecap:round;"/>
     </g>
     <g id="text_26">
      <!-- 125 -->
      <g style="fill:#262626;" transform="translate(77.50375 385.274536)scale(0.11 -0.11)">
       <use xlink:href="#DejaVuSans-49"/>
       <use x="63.623047" xlink:href="#DejaVuSans-50"/>
       <use x="127.246094" xlink:href="#DejaVuSans-53"/>
      </g>
     </g>
    </g>
    <g id="ytick_15">
     <g id="line2d_41">
      <path clip-path="url(#pd40879ee45)" d="M 108 354.786474 
L 777.6 354.786474 
" style="fill:none;stroke:#cccccc;stroke-linecap:round;"/>
     </g>
     <g id="text_27">
      <!-- 150 -->
      <g style="fill:#262626;" transform="translate(77.50375 358.965614)scale(0.11 -0.11)">
       <use xlink:href="#DejaVuSans-49"/>
       <use x="63.623047" xlink:href="#DejaVuSans-53"/>
       <use x="127.246094" xlink:href="#DejaVuSans-48"/>
      </g>
     </g>
    </g>
    <g id="ytick_16">
     <g id="line2d_42">
      <path clip-path="url(#pd40879ee45)" d="M 108 328.477553 
L 777.6 328.477553 
" style="fill:none;stroke:#cccccc;stroke-linecap:round;"/>
     </g>
     <g id="text_28">
      <!-- 175 -->
      <g style="fill:#262626;" transform="translate(77.50375 332.656693)scale(0.11 -0.11)">
       <use xlink:href="#DejaVuSans-49"/>
       <use x="63.623047" xlink:href="#DejaVuSans-55"/>
       <use x="127.246094" xlink:href="#DejaVuSans-53"/>
      </g>
     </g>
    </g>
    <g id="text_29">
     <!-- Prefix sum -->
     <defs>
      <path d="M 19.671875 64.796875 
L 19.671875 37.40625 
L 32.078125 37.40625 
Q 38.96875 37.40625 42.71875 40.96875 
Q 46.484375 44.53125 46.484375 51.125 
Q 46.484375 57.671875 42.71875 61.234375 
Q 38.96875 64.796875 32.078125 64.796875 
z
M 9.8125 72.90625 
L 32.078125 72.90625 
Q 44.34375 72.90625 50.609375 67.359375 
Q 56.890625 61.8125 56.890625 51.125 
Q 56.890625 40.328125 50.609375 34.8125 
Q 44.34375 29.296875 32.078125 29.296875 
L 19.671875 29.296875 
L 19.671875 0 
L 9.8125 0 
z
" id="DejaVuSans-80"/>
      <path d="M 37.109375 75.984375 
L 37.109375 68.5 
L 28.515625 68.5 
Q 23.6875 68.5 21.796875 66.546875 
Q 19.921875 64.59375 19.921875 59.515625 
L 19.921875 54.6875 
L 34.71875 54.6875 
L 34.71875 47.703125 
L 19.921875 47.703125 
L 19.921875 0 
L 10.890625 0 
L 10.890625 47.703125 
L 2.296875 47.703125 
L 2.296875 54.6875 
L 10.890625 54.6875 
L 10.890625 58.5 
Q 10.890625 67.625 15.140625 71.796875 
Q 19.390625 75.984375 28.609375 75.984375 
z
" id="DejaVuSans-102"/>
      <path d="M 54.890625 54.6875 
L 35.109375 28.078125 
L 55.90625 0 
L 45.3125 0 
L 29.390625 21.484375 
L 13.484375 0 
L 2.875 0 
L 24.125 28.609375 
L 4.6875 54.6875 
L 15.28125 54.6875 
L 29.78125 35.203125 
L 44.28125 54.6875 
z
" id="DejaVuSans-120"/>
     </defs>
     <g style="fill:#262626;" transform="translate(71.008125 443.623125)rotate(-90)scale(0.12 -0.12)">
      <use xlink:href="#DejaVuSans-80"/>
      <use x="60.287109" xlink:href="#DejaVuSans-114"/>
      <use x="101.369141" xlink:href="#DejaVuSans-101"/>
      <use x="162.892578" xlink:href="#DejaVuSans-102"/>
      <use x="198.097656" xlink:href="#DejaVuSans-105"/>
      <use x="225.880859" xlink:href="#DejaVuSans-120"/>
      <use x="285.060547" xlink:href="#DejaVuSans-32"/>
      <use x="316.847656" xlink:href="#DejaVuSans-115"/>
      <use x="368.947266" xlink:href="#DejaVuSans-117"/>
      <use x="432.326172" xlink:href="#DejaVuSans-109"/>
     </g>
    </g>
   </g>
   <g id="line2d_43">
    <path clip-path="url(#pd40879ee45)" d="M -1 493.618784 
L 5.15049 495.244541 
L 16.48549 492.318989 
L 28.057165 486.720451 
L 39.357563 489.446055 
L 50.910715 492.013806 
L 62.254135 492.729409 
L 73.7139 486.762545 
L 85.120247 485.604953 
L 96.611128 489.004065 
L 108 491.750717 
L 119.414313 486.973017 
L 130.833937 482.868825 
L 142.260504 485.362911 
L 153.661629 488.488411 
L 165.089867 487.194012 
L 176.509564 480.732541 
L 187.918549 481.300813 
L 199.325825 485.215581 
L 210.757121 487.436054 
L 222.16085 481.058771 
L 233.583434 478.564685 
L 244.993109 481.500761 
L 256.407988 484.205318 
L 267.828998 481.837515 
L 279.244208 476.481019 
L 290.656694 477.796465 
L 302.071259 480.479975 
L 313.483678 481.511285 
L 324.900016 476.186359 
L 336.315838 473.281854 
L 347.728673 477.091386 
L 359.144181 479.585472 
L 370.55822 476.270548 
L 381.973255 470.693056 
L 393.386779 472.261068 
L 404.800773 475.123479 
L 416.215286 473.555467 
L 427.630127 467.862216 
L 439.044142 465.652267 
L 450.459077 470.70358 
L 461.872999 470.419444 
L 473.287474 465.252371 
L 484.701927 457.654355 
L 496.116118 458.485717 
L 507.530673 462.842474 
L 518.944856 456.822993 
L 530.359267 447.10974 
L 541.773662 452.897702 
L 553.187998 444.647225 
L 564.60225 455.276029 
L 576.016588 422.453019 
L 587.430907 418.085738 
L 598.845217 406.278294 
L 610.259518 399.890488 
L 621.673879 392.19776 
L 633.08819 384.231418 
L 644.50247 378.201414 
L 655.916812 371.897796 
L 667.331129 367.993552 
L 678.745424 362.742292 
L 690.159756 355.060087 
L 701.574062 350.471811 
L 712.98837 348.177673 
L 724.402693 343.778821 
L 735.817012 336.664889 
L 747.231316 332.760645 
L 758.645637 333.065829 
L 770.059949 327.341007 
L 781.47426 320.574353 
" style="fill:none;stroke:#8b0000;stroke-linecap:round;stroke-width:1.5;"/>
   </g>
   <g id="line2d_44">
    <path clip-path="url(#pd40879ee45)" d="M -1 494.923519 
L 5.15049 494.728887 
L 16.48549 494.339515 
L 28.057165 494.171137 
L 39.357563 493.844907 
L 50.910715 493.887001 
L 62.254135 493.118781 
L 73.7139 493.308205 
L 85.120247 493.423964 
L 96.611128 492.950404 
L 108 492.329513 
L 119.414313 491.982235 
L 130.833937 491.992759 
L 142.260504 491.992759 
L 153.661629 491.824382 
L 165.089867 491.014067 
L 176.509564 490.677313 
L 187.918549 490.856213 
L 199.325825 490.340559 
L 210.757121 489.803857 
L 222.16085 489.772286 
L 233.583434 489.709144 
L 244.993109 489.435532 
L 256.407988 488.888306 
L 267.828998 488.835688 
L 279.244208 488.519981 
L 290.656694 488.372651 
L 302.071259 488.141133 
L 313.483678 487.625478 
L 324.900016 487.57286 
L 336.315838 487.488672 
L 347.728673 487.404483 
L 359.144181 486.741498 
L 370.55822 486.520503 
L 381.973255 486.50998 
L 393.386779 486.152178 
L 404.800773 485.983801 
L 416.215286 484.468407 
L 427.630127 485.268199 
L 439.044142 485.047204 
L 450.459077 484.710449 
L 461.872999 483.931705 
L 473.287474 483.068773 
L 484.701927 483.163485 
L 496.116118 482.047987 
L 507.530673 481.521808 
L 518.944856 480.290551 
L 530.359267 479.974844 
L 541.773662 479.006675 
L 553.187998 478.133219 
L 564.60225 477.691229 
L 576.016588 476.028506 
L 587.430907 477.491282 
L 598.845217 471.103475 
L 610.259518 469.987977 
L 621.673879 465.841691 
L 633.08819 461.29551 
L 644.50247 456.675663 
L 655.916812 455.04451 
L 667.331129 452.308382 
L 678.745424 452.550424 
L 690.159756 452.318906 
L 701.574062 450.761418 
L 712.98837 449.698537 
L 724.402693 448.90927 
L 735.817012 448.246285 
L 747.231316 446.794032 
L 758.645637 446.341519 
L 770.059949 444.373612 
L 781.47426 444.699842 
" style="fill:none;stroke:#00008b;stroke-linecap:round;stroke-width:1.5;"/>
   </g>
   <g id="line2d_45">
    <path clip-path="url(#pd40879ee45)" d="M -1 511.204168 
L 5.15049 511.261413 
L 16.48549 510.882564 
L 28.057165 510.893088 
L 39.357563 510.882564 
L 50.910715 510.872041 
L 62.254135 510.882564 
L 73.7139 510.893088 
L 85.120247 510.882564 
L 96.611128 510.882564 
L 108 510.882564 
L 119.414313 510.882564 
L 130.833937 510.535286 
L 142.260504 510.882564 
L 153.661629 510.882564 
L 165.089867 510.882564 
L 176.509564 510.882564 
L 187.918549 510.882564 
L 199.325825 510.882564 
L 210.757121 510.882564 
L 222.16085 510.440574 
L 233.583434 510.451098 
L 244.993109 510.451098 
L 256.407988 510.440574 
L 267.828998 510.419527 
L 279.244208 510.39848 
L 290.656694 510.366909 
L 302.071259 510.356386 
L 313.483678 510.345862 
L 324.900016 510.324815 
L 336.315838 510.314291 
L 347.728673 510.303768 
L 359.144181 510.293244 
L 370.55822 510.272197 
L 381.973255 510.261674 
L 393.386779 510.25115 
L 404.800773 509.998584 
L 416.215286 510.051202 
L 427.630127 509.177746 
L 439.044142 509.146175 
L 450.459077 508.704185 
L 461.872999 508.420049 
L 473.287474 508.377955 
L 484.701927 507.935965 
L 496.116118 507.967536 
L 507.530673 507.599211 
L 518.944856 506.788896 
L 530.359267 506.50476 
L 541.773662 506.967797 
L 553.187998 503.074076 
L 564.60225 506.662613 
L 576.016588 503.473972 
L 587.430907 505.515544 
L 598.845217 502.747846 
L 610.259518 495.654961 
L 621.673879 492.855691 
L 633.08819 493.666006 
L 644.50247 490.193229 
L 655.916812 491.866476 
L 667.331129 488.035897 
L 678.745424 484.59469 
L 690.159756 486.436315 
L 701.574062 486.236367 
L 712.98837 485.520764 
L 724.402693 484.215842 
L 735.817012 480.248456 
L 747.231316 483.458145 
L 758.645637 482.889872 
L 770.059949 482.984584 
L 781.47426 481.258719 
" style="fill:none;stroke:#006400;stroke-linecap:round;stroke-width:1.5;"/>
   </g>
   <g id="line2d_46">
    <path clip-path="url(#pd40879ee45)" d="M 260.901477 512.64 
L 260.901477 311.04 
" style="fill:none;stroke:#000000;stroke-dasharray:3.7,1.6;stroke-dashoffset:0;"/>
   </g>
   <g id="line2d_47">
    <path clip-path="url(#pd40879ee45)" d="M 462.471162 512.64 
L 462.471162 311.04 
" style="fill:none;stroke:#000000;stroke-dasharray:3.7,1.6;stroke-dashoffset:0;"/>
   </g>
   <g id="line2d_48">
    <path clip-path="url(#pd40879ee45)" d="M 613.648425 512.64 
L 613.648425 311.04 
" style="fill:none;stroke:#000000;stroke-dasharray:3.7,1.6;stroke-dashoffset:0;"/>
   </g>
   <g id="patch_9">
    <path d="M 108 512.64 
L 108 311.04 
" style="fill:none;stroke:#cccccc;stroke-linecap:square;stroke-linejoin:miter;stroke-width:1.25;"/>
   </g>
   <g id="patch_10">
    <path d="M 777.6 512.64 
L 777.6 311.04 
" style="fill:none;stroke:#cccccc;stroke-linecap:square;stroke-linejoin:miter;stroke-width:1.25;"/>
   </g>
   <g id="patch_11">
    <path d="M 108 512.64 
L 777.6 512.64 
" style="fill:none;stroke:#cccccc;stroke-linecap:square;stroke-linejoin:miter;stroke-width:1.25;"/>
   </g>
   <g id="patch_12">
    <path d="M 108 311.04 
L 777.6 311.04 
" style="fill:none;stroke:#cccccc;stroke-linecap:square;stroke-linejoin:miter;stroke-width:1.25;"/>
   </g>
  </g>
 </g>
 <defs>
  <clipPath id="p3d04c1db5b">
   <rect height="201.6" width="669.6" x="108" y="69.12"/>
  </clipPath>
  <clipPath id="pd40879ee45">
   <rect height="201.6" width="669.6" x="108" y="311.04"/>
  </clipPath>
 </defs>
</svg>
