<?xml version="1.0" encoding="utf-8" standalone="no"?>
<!DOCTYPE svg PUBLIC "-//W3C//DTD SVG 1.1//EN"
  "http://www.w3.org/Graphics/SVG/1.1/DTD/svg11.dtd">
<!-- Created with matplotlib (https://matplotlib.org/) -->
<svg height="576pt" version="1.1" viewBox="0 0 864 576" width="864pt" xmlns="http://www.w3.org/2000/svg" xmlns:xlink="http://www.w3.org/1999/xlink">
 <defs>
  <style type="text/css">
*{stroke-linecap:butt;stroke-linejoin:round;}
  </style>
 </defs>
 <g id="figure_1">
  <g id="patch_1">
   <path d="M 0 576 
L 864 576 
L 864 0 
L 0 0 
z
" style="fill:#ffffff;"/>
  </g>
  <g id="axes_1">
   <g id="patch_2">
    <path d="M 108 270.72 
L 777.6 270.72 
L 777.6 69.12 
L 108 69.12 
z
" style="fill:#ffffff;"/>
   </g>
   <g id="matplotlib.axis_1">
    <g id="xtick_1">
     <g id="line2d_1">
      <path clip-path="url(#p0fad162113)" d="M 160.116634 270.72 
L 160.116634 69.12 
" style="fill:none;stroke:#cccccc;stroke-linecap:round;"/>
     </g>
    </g>
    <g id="xtick_2">
     <g id="line2d_2">
      <path clip-path="url(#p0fad162113)" d="M 260.901477 270.72 
L 260.901477 69.12 
" style="fill:none;stroke:#cccccc;stroke-linecap:round;"/>
     </g>
    </g>
    <g id="xtick_3">
     <g id="line2d_3">
      <path clip-path="url(#p0fad162113)" d="M 361.686319 270.72 
L 361.686319 69.12 
" style="fill:none;stroke:#cccccc;stroke-linecap:round;"/>
     </g>
    </g>
    <g id="xtick_4">
     <g id="line2d_4">
      <path clip-path="url(#p0fad162113)" d="M 462.471162 270.72 
L 462.471162 69.12 
" style="fill:none;stroke:#cccccc;stroke-linecap:round;"/>
     </g>
    </g>
    <g id="xtick_5">
     <g id="line2d_5">
      <path clip-path="url(#p0fad162113)" d="M 563.256004 270.72 
L 563.256004 69.12 
" style="fill:none;stroke:#cccccc;stroke-linecap:round;"/>
     </g>
    </g>
    <g id="xtick_6">
     <g id="line2d_6">
      <path clip-path="url(#p0fad162113)" d="M 664.040847 270.72 
L 664.040847 69.12 
" style="fill:none;stroke:#cccccc;stroke-linecap:round;"/>
     </g>
    </g>
    <g id="xtick_7">
     <g id="line2d_7">
      <path clip-path="url(#p0fad162113)" d="M 764.825689 270.72 
L 764.825689 69.12 
" style="fill:none;stroke:#cccccc;stroke-linecap:round;"/>
     </g>
    </g>
   </g>
   <g id="matplotlib.axis_2">
    <g id="ytick_1">
     <g id="line2d_8">
      <path clip-path="url(#p0fad162113)" d="M 108 270.72 
L 777.6 270.72 
" style="fill:none;stroke:#cccccc;stroke-linecap:round;"/>
     </g>
     <g id="text_1">
      <!-- 0 -->
      <defs>
       <path d="M 31.78125 66.40625 
Q 24.171875 66.40625 20.328125 58.90625 
Q 16.5 51.421875 16.5 36.375 
Q 16.5 21.390625 20.328125 13.890625 
Q 24.171875 6.390625 31.78125 6.390625 
Q 39.453125 6.390625 43.28125 13.890625 
Q 47.125 21.390625 47.125 36.375 
Q 47.125 51.421875 43.28125 58.90625 
Q 39.453125 66.40625 31.78125 66.40625 
z
M 31.78125 74.21875 
Q 44.046875 74.21875 50.515625 64.515625 
Q 56.984375 54.828125 56.984375 36.375 
Q 56.984375 17.96875 50.515625 8.265625 
Q 44.046875 -1.421875 31.78125 -1.421875 
Q 19.53125 -1.421875 13.0625 8.265625 
Q 6.59375 17.96875 6.59375 36.375 
Q 6.59375 54.828125 13.0625 64.515625 
Q 19.53125 74.21875 31.78125 74.21875 
z
" id="DejaVuSans-48"/>
      </defs>
      <g style="fill:#262626;" transform="translate(91.50125 274.899141)scale(0.11 -0.11)">
       <use xlink:href="#DejaVuSans-48"/>
      </g>
     </g>
    </g>
    <g id="ytick_2">
     <g id="line2d_9">
      <path clip-path="url(#p0fad162113)" d="M 108 230.4 
L 777.6 230.4 
" style="fill:none;stroke:#cccccc;stroke-linecap:round;"/>
     </g>
     <g id="text_2">
      <!-- 100 -->
      <defs>
       <path d="M 12.40625 8.296875 
L 28.515625 8.296875 
L 28.515625 63.921875 
L 10.984375 60.40625 
L 10.984375 69.390625 
L 28.421875 72.90625 
L 38.28125 72.90625 
L 38.28125 8.296875 
L 54.390625 8.296875 
L 54.390625 0 
L 12.40625 0 
z
" id="DejaVuSans-49"/>
      </defs>
      <g style="fill:#262626;" transform="translate(77.50375 234.579141)scale(0.11 -0.11)">
       <use xlink:href="#DejaVuSans-49"/>
       <use x="63.623047" xlink:href="#DejaVuSans-48"/>
       <use x="127.246094" xlink:href="#DejaVuSans-48"/>
      </g>
     </g>
    </g>
    <g id="ytick_3">
     <g id="line2d_10">
      <path clip-path="url(#p0fad162113)" d="M 108 190.08 
L 777.6 190.08 
" style="fill:none;stroke:#cccccc;stroke-linecap:round;"/>
     </g>
     <g id="text_3">
      <!-- 200 -->
      <defs>
       <path d="M 19.1875 8.296875 
L 53.609375 8.296875 
L 53.609375 0 
L 7.328125 0 
L 7.328125 8.296875 
Q 12.9375 14.109375 22.625 23.890625 
Q 32.328125 33.6875 34.8125 36.53125 
Q 39.546875 41.84375 41.421875 45.53125 
Q 43.3125 49.21875 43.3125 52.78125 
Q 43.3125 58.59375 39.234375 62.25 
Q 35.15625 65.921875 28.609375 65.921875 
Q 23.96875 65.921875 18.8125 64.3125 
Q 13.671875 62.703125 7.8125 59.421875 
L 7.8125 69.390625 
Q 13.765625 71.78125 18.9375 73 
Q 24.125 74.21875 28.421875 74.21875 
Q 39.75 74.21875 46.484375 68.546875 
Q 53.21875 62.890625 53.21875 53.421875 
Q 53.21875 48.921875 51.53125 44.890625 
Q 49.859375 40.875 45.40625 35.40625 
Q 44.1875 33.984375 37.640625 27.21875 
Q 31.109375 20.453125 19.1875 8.296875 
z
" id="DejaVuSans-50"/>
      </defs>
      <g style="fill:#262626;" transform="translate(77.50375 194.259141)scale(0.11 -0.11)">
       <use xlink:href="#DejaVuSans-50"/>
       <use x="63.623047" xlink:href="#DejaVuSans-48"/>
       <use x="127.246094" xlink:href="#DejaVuSans-48"/>
      </g>
     </g>
    </g>
    <g id="ytick_4">
     <g id="line2d_11">
      <path clip-path="url(#p0fad162113)" d="M 108 149.76 
L 777.6 149.76 
" style="fill:none;stroke:#cccccc;stroke-linecap:round;"/>
     </g>
     <g id="text_4">
      <!-- 300 -->
      <defs>
       <path d="M 40.578125 39.3125 
Q 47.65625 37.796875 51.625 33 
Q 55.609375 28.21875 55.609375 21.1875 
Q 55.609375 10.40625 48.1875 4.484375 
Q 40.765625 -1.421875 27.09375 -1.421875 
Q 22.515625 -1.421875 17.65625 -0.515625 
Q 12.796875 0.390625 7.625 2.203125 
L 7.625 11.71875 
Q 11.71875 9.328125 16.59375 8.109375 
Q 21.484375 6.890625 26.8125 6.890625 
Q 36.078125 6.890625 40.9375 10.546875 
Q 45.796875 14.203125 45.796875 21.1875 
Q 45.796875 27.640625 41.28125 31.265625 
Q 36.765625 34.90625 28.71875 34.90625 
L 20.21875 34.90625 
L 20.21875 43.015625 
L 29.109375 43.015625 
Q 36.375 43.015625 40.234375 45.921875 
Q 44.09375 48.828125 44.09375 54.296875 
Q 44.09375 59.90625 40.109375 62.90625 
Q 36.140625 65.921875 28.71875 65.921875 
Q 24.65625 65.921875 20.015625 65.03125 
Q 15.375 64.15625 9.8125 62.3125 
L 9.8125 71.09375 
Q 15.4375 72.65625 20.34375 73.4375 
Q 25.25 74.21875 29.59375 74.21875 
Q 40.828125 74.21875 47.359375 69.109375 
Q 53.90625 64.015625 53.90625 55.328125 
Q 53.90625 49.265625 50.4375 45.09375 
Q 46.96875 40.921875 40.578125 39.3125 
z
" id="DejaVuSans-51"/>
      </defs>
      <g style="fill:#262626;" transform="translate(77.50375 153.939141)scale(0.11 -0.11)">
       <use xlink:href="#DejaVuSans-51"/>
       <use x="63.623047" xlink:href="#DejaVuSans-48"/>
       <use x="127.246094" xlink:href="#DejaVuSans-48"/>
      </g>
     </g>
    </g>
    <g id="ytick_5">
     <g id="line2d_12">
      <path clip-path="url(#p0fad162113)" d="M 108 109.44 
L 777.6 109.44 
" style="fill:none;stroke:#cccccc;stroke-linecap:round;"/>
     </g>
     <g id="text_5">
      <!-- 400 -->
      <defs>
       <path d="M 37.796875 64.3125 
L 12.890625 25.390625 
L 37.796875 25.390625 
z
M 35.203125 72.90625 
L 47.609375 72.90625 
L 47.609375 25.390625 
L 58.015625 25.390625 
L 58.015625 17.1875 
L 47.609375 17.1875 
L 47.609375 0 
L 37.796875 0 
L 37.796875 17.1875 
L 4.890625 17.1875 
L 4.890625 26.703125 
z
" id="DejaVuSans-52"/>
      </defs>
      <g style="fill:#262626;" transform="translate(77.50375 113.619141)scale(0.11 -0.11)">
       <use xlink:href="#DejaVuSans-52"/>
       <use x="63.623047" xlink:href="#DejaVuSans-48"/>
       <use x="127.246094" xlink:href="#DejaVuSans-48"/>
      </g>
     </g>
    </g>
    <g id="ytick_6">
     <g id="line2d_13">
      <path clip-path="url(#p0fad162113)" d="M 108 69.12 
L 777.6 69.12 
" style="fill:none;stroke:#cccccc;stroke-linecap:round;"/>
     </g>
     <g id="text_6">
      <!-- 500 -->
      <defs>
       <path d="M 10.796875 72.90625 
L 49.515625 72.90625 
L 49.515625 64.59375 
L 19.828125 64.59375 
L 19.828125 46.734375 
Q 21.96875 47.46875 24.109375 47.828125 
Q 26.265625 48.1875 28.421875 48.1875 
Q 40.625 48.1875 47.75 41.5 
Q 54.890625 34.8125 54.890625 23.390625 
Q 54.890625 11.625 47.5625 5.09375 
Q 40.234375 -1.421875 26.90625 -1.421875 
Q 22.3125 -1.421875 17.546875 -0.640625 
Q 12.796875 0.140625 7.71875 1.703125 
L 7.71875 11.625 
Q 12.109375 9.234375 16.796875 8.0625 
Q 21.484375 6.890625 26.703125 6.890625 
Q 35.15625 6.890625 40.078125 11.328125 
Q 45.015625 15.765625 45.015625 23.390625 
Q 45.015625 31 40.078125 35.4375 
Q 35.15625 39.890625 26.703125 39.890625 
Q 22.75 39.890625 18.8125 39.015625 
Q 14.890625 38.140625 10.796875 36.28125 
z
" id="DejaVuSans-53"/>
      </defs>
      <g style="fill:#262626;" transform="translate(77.50375 73.299141)scale(0.11 -0.11)">
       <use xlink:href="#DejaVuSans-53"/>
       <use x="63.623047" xlink:href="#DejaVuSans-48"/>
       <use x="127.246094" xlink:href="#DejaVuSans-48"/>
      </g>
     </g>
    </g>
    <g id="text_7">
     <!-- Update -->
     <defs>
      <path d="M 8.6875 72.90625 
L 18.609375 72.90625 
L 18.609375 28.609375 
Q 18.609375 16.890625 22.84375 11.734375 
Q 27.09375 6.59375 36.625 6.59375 
Q 46.09375 6.59375 50.34375 11.734375 
Q 54.59375 16.890625 54.59375 28.609375 
L 54.59375 72.90625 
L 64.5 72.90625 
L 64.5 27.390625 
Q 64.5 13.140625 57.4375 5.859375 
Q 50.390625 -1.421875 36.625 -1.421875 
Q 22.796875 -1.421875 15.734375 5.859375 
Q 8.6875 13.140625 8.6875 27.390625 
z
" id="DejaVuSans-85"/>
      <path d="M 18.109375 8.203125 
L 18.109375 -20.796875 
L 9.078125 -20.796875 
L 9.078125 54.6875 
L 18.109375 54.6875 
L 18.109375 46.390625 
Q 20.953125 51.265625 25.265625 53.625 
Q 29.59375 56 35.59375 56 
Q 45.5625 56 51.78125 48.09375 
Q 58.015625 40.1875 58.015625 27.296875 
Q 58.015625 14.40625 51.78125 6.484375 
Q 45.5625 -1.421875 35.59375 -1.421875 
Q 29.59375 -1.421875 25.265625 0.953125 
Q 20.953125 3.328125 18.109375 8.203125 
z
M 48.6875 27.296875 
Q 48.6875 37.203125 44.609375 42.84375 
Q 40.53125 48.484375 33.40625 48.484375 
Q 26.265625 48.484375 22.1875 42.84375 
Q 18.109375 37.203125 18.109375 27.296875 
Q 18.109375 17.390625 22.1875 11.75 
Q 26.265625 6.109375 33.40625 6.109375 
Q 40.53125 6.109375 44.609375 11.75 
Q 48.6875 17.390625 48.6875 27.296875 
z
" id="DejaVuSans-112"/>
      <path d="M 45.40625 46.390625 
L 45.40625 75.984375 
L 54.390625 75.984375 
L 54.390625 0 
L 45.40625 0 
L 45.40625 8.203125 
Q 42.578125 3.328125 38.25 0.953125 
Q 33.9375 -1.421875 27.875 -1.421875 
Q 17.96875 -1.421875 11.734375 6.484375 
Q 5.515625 14.40625 5.515625 27.296875 
Q 5.515625 40.1875 11.734375 48.09375 
Q 17.96875 56 27.875 56 
Q 33.9375 56 38.25 53.625 
Q 42.578125 51.265625 45.40625 46.390625 
z
M 14.796875 27.296875 
Q 14.796875 17.390625 18.875 11.75 
Q 22.953125 6.109375 30.078125 6.109375 
Q 37.203125 6.109375 41.296875 11.75 
Q 45.40625 17.390625 45.40625 27.296875 
Q 45.40625 37.203125 41.296875 42.84375 
Q 37.203125 48.484375 30.078125 48.484375 
Q 22.953125 48.484375 18.875 42.84375 
Q 14.796875 37.203125 14.796875 27.296875 
z
" id="DejaVuSans-100"/>
      <path d="M 34.28125 27.484375 
Q 23.390625 27.484375 19.1875 25 
Q 14.984375 22.515625 14.984375 16.5 
Q 14.984375 11.71875 18.140625 8.90625 
Q 21.296875 6.109375 26.703125 6.109375 
Q 34.1875 6.109375 38.703125 11.40625 
Q 43.21875 16.703125 43.21875 25.484375 
L 43.21875 27.484375 
z
M 52.203125 31.203125 
L 52.203125 0 
L 43.21875 0 
L 43.21875 8.296875 
Q 40.140625 3.328125 35.546875 0.953125 
Q 30.953125 -1.421875 24.3125 -1.421875 
Q 15.921875 -1.421875 10.953125 3.296875 
Q 6 8.015625 6 15.921875 
Q 6 25.140625 12.171875 29.828125 
Q 18.359375 34.515625 30.609375 34.515625 
L 43.21875 34.515625 
L 43.21875 35.40625 
Q 43.21875 41.609375 39.140625 45 
Q 35.0625 48.390625 27.6875 48.390625 
Q 23 48.390625 18.546875 47.265625 
Q 14.109375 46.140625 10.015625 43.890625 
L 10.015625 52.203125 
Q 14.9375 54.109375 19.578125 55.046875 
Q 24.21875 56 28.609375 56 
Q 40.484375 56 46.34375 49.84375 
Q 52.203125 43.703125 52.203125 31.203125 
z
" id="DejaVuSans-97"/>
      <path d="M 18.3125 70.21875 
L 18.3125 54.6875 
L 36.8125 54.6875 
L 36.8125 47.703125 
L 18.3125 47.703125 
L 18.3125 18.015625 
Q 18.3125 11.328125 20.140625 9.421875 
Q 21.96875 7.515625 27.59375 7.515625 
L 36.8125 7.515625 
L 36.8125 0 
L 27.59375 0 
Q 17.1875 0 13.234375 3.875 
Q 9.28125 7.765625 9.28125 18.015625 
L 9.28125 47.703125 
L 2.6875 47.703125 
L 2.6875 54.6875 
L 9.28125 54.6875 
L 9.28125 70.21875 
z
" id="DejaVuSans-116"/>
      <path d="M 56.203125 29.59375 
L 56.203125 25.203125 
L 14.890625 25.203125 
Q 15.484375 15.921875 20.484375 11.0625 
Q 25.484375 6.203125 34.421875 6.203125 
Q 39.59375 6.203125 44.453125 7.46875 
Q 49.3125 8.734375 54.109375 11.28125 
L 54.109375 2.78125 
Q 49.265625 0.734375 44.1875 -0.34375 
Q 39.109375 -1.421875 33.890625 -1.421875 
Q 20.796875 -1.421875 13.15625 6.1875 
Q 5.515625 13.8125 5.515625 26.8125 
Q 5.515625 40.234375 12.765625 48.109375 
Q 20.015625 56 32.328125 56 
Q 43.359375 56 49.78125 48.890625 
Q 56.203125 41.796875 56.203125 29.59375 
z
M 47.21875 32.234375 
Q 47.125 39.59375 43.09375 43.984375 
Q 39.0625 48.390625 32.421875 48.390625 
Q 24.90625 48.390625 20.390625 44.140625 
Q 15.875 39.890625 15.1875 32.171875 
z
" id="DejaVuSans-101"/>
     </defs>
     <g style="fill:#262626;" transform="translate(71.008125 191.650312)rotate(-90)scale(0.12 -0.12)">
      <use xlink:href="#DejaVuSans-85"/>
      <use x="73.193359" xlink:href="#DejaVuSans-112"/>
      <use x="136.669922" xlink:href="#DejaVuSans-100"/>
      <use x="200.146484" xlink:href="#DejaVuSans-97"/>
      <use x="261.425781" xlink:href="#DejaVuSans-116"/>
      <use x="300.634766" xlink:href="#DejaVuSans-101"/>
     </g>
    </g>
   </g>
   <g id="line2d_14">
    <path clip-path="url(#p0fad162113)" d="M -1 243.794182 
L 5.15049 243.346752 
L 16.48549 242.419392 
L 28.057165 241.314624 
L 39.357563 239.8752 
L 50.910715 238.113216 
L 62.254135 236.875392 
L 73.7139 234.661824 
L 85.120247 232.786944 
L 96.611128 231.234624 
L 108 229.061376 
L 119.414313 228.017088 
L 130.833937 224.706816 
L 142.260504 226.432512 
L 153.661629 224.989056 
L 165.089867 223.541568 
L 176.509564 222.086016 
L 187.918549 220.707072 
L 199.325825 218.074176 
L 210.757121 215.808192 
L 222.16085 214.973568 
L 233.583434 211.546368 
L 244.993109 208.772352 
L 256.407988 205.256448 
L 267.828998 201.587328 
L 279.244208 193.999104 
L 290.656694 190.588032 
L 302.071259 186.600384 
L 313.483678 174.044736 
L 324.900016 177.225984 
L 336.315838 173.052864 
L 347.728673 160.90848 
L 359.144181 153.735552 
L 370.55822 139.792896 
L 381.973255 112.734144 
L 393.386779 108.278784 
L 404.800773 101.750976 
L 416.215286 105.895872 
L 427.630127 81.35712 
L 439.044142 66.94272 
L 450.459077 54.951552 
L 461.872999 32.541696 
L 473.287474 37.980864 
L 484.701927 17.909568 
L 496.116118 25.4736 
L 507.530673 -0.2304 
L 508.930839 -1 
" style="fill:none;stroke:#8b0000;stroke-linecap:round;stroke-width:1.5;"/>
   </g>
   <g id="line2d_15">
    <path clip-path="url(#p0fad162113)" d="M -1 258.200869 
L 5.15049 258.821568 
L 16.48549 257.25312 
L 28.057165 254.620224 
L 39.357563 255.321792 
L 50.910715 256.676544 
L 62.254135 256.793472 
L 73.7139 253.963008 
L 85.120247 252.79776 
L 96.611128 254.321856 
L 108 255.454848 
L 119.414313 252.950976 
L 130.833937 250.531776 
L 142.260504 251.862336 
L 153.661629 253.16064 
L 165.089867 252.507456 
L 176.509564 249.576192 
L 187.918549 249.06816 
L 199.325825 250.668864 
L 210.757121 251.938944 
L 222.16085 249.193152 
L 233.583434 247.007808 
L 244.993109 248.544 
L 256.407988 249.664896 
L 267.828998 248.386752 
L 279.244208 245.346624 
L 290.656694 245.685312 
L 302.071259 247.076352 
L 313.483678 247.51584 
L 324.900016 244.766016 
L 336.315838 243.24192 
L 347.728673 244.7136 
L 359.144181 245.43936 
L 370.55822 243.024192 
L 381.973255 240.032448 
L 393.386779 238.399488 
L 404.800773 236.254464 
L 416.215286 231.980544 
L 427.630127 229.859712 
L 439.044142 228.408192 
L 450.459077 228.307392 
L 461.872999 227.924352 
L 473.287474 220.74336 
L 484.701927 216.860544 
L 496.116118 217.05408 
L 507.530673 216.477504 
L 518.944856 205.772544 
L 530.359267 206.38944 
L 541.773662 204.135552 
L 553.187998 199.69632 
L 564.60225 198.067392 
L 576.016588 192.281472 
L 587.430907 188.934912 
L 598.845217 185.971392 
L 610.259518 186.51168 
L 621.673879 174.016512 
L 633.08819 171.766656 
L 644.50247 176.197824 
L 655.916812 168.67008 
L 667.331129 174.59712 
L 678.745424 171.738432 
L 690.159756 157.110336 
L 701.574062 161.464896 
L 712.98837 163.517184 
L 724.402693 161.440704 
L 735.817012 160.92864 
L 747.231316 159.420672 
L 758.645637 159.932736 
L 770.059949 156.920832 
L 781.47426 154.642752 
" style="fill:none;stroke:#00008b;stroke-linecap:round;stroke-width:1.5;"/>
   </g>
   <g id="line2d_16">
    <path clip-path="url(#p0fad162113)" d="M -1 266.342201 
L 5.15049 267.228288 
L 16.48549 266.232384 
L 28.057165 264.49056 
L 39.357563 265.25664 
L 50.910715 266.46624 
L 62.254135 266.716224 
L 73.7139 264.708288 
L 85.120247 264.325248 
L 96.611128 265.643712 
L 108 266.712192 
L 119.414313 264.99456 
L 130.833937 263.365632 
L 142.260504 264.538944 
L 153.661629 265.728384 
L 165.089867 265.571136 
L 176.509564 263.466432 
L 187.918549 263.64384 
L 199.325825 264.958272 
L 210.757121 265.946112 
L 222.16085 264.04704 
L 233.583434 262.768896 
L 244.993109 264.02688 
L 256.407988 265.091328 
L 267.828998 264.151872 
L 279.244208 262.381824 
L 290.656694 262.962432 
L 302.071259 264.155904 
L 313.483678 264.474432 
L 324.900016 262.700352 
L 336.315838 261.885888 
L 347.728673 263.09952 
L 359.144181 264.02688 
L 370.55822 262.647936 
L 381.973255 260.954496 
L 393.386779 261.660096 
L 404.800773 262.478592 
L 416.215286 262.067328 
L 427.630127 259.938432 
L 439.044142 259.337664 
L 450.459077 260.41824 
L 461.872999 260.494848 
L 473.287474 258.736896 
L 484.701927 257.112 
L 496.116118 257.551488 
L 507.530673 257.668416 
L 518.944856 258.450624 
L 530.359267 254.45088 
L 541.773662 249.749568 
L 553.187998 249.104448 
L 564.60225 252.257472 
L 576.016588 244.003968 
L 587.430907 239.697792 
L 598.845217 242.129088 
L 610.259518 238.697856 
L 621.673879 236.746368 
L 633.08819 229.742784 
L 644.50247 231.432192 
L 655.916812 230.529024 
L 667.331129 230.476608 
L 678.745424 228.50496 
L 690.159756 227.585664 
L 701.574062 226.863936 
L 712.98837 225.226944 
L 724.402693 224.142336 
L 735.817012 221.799744 
L 747.231316 223.0416 
L 758.645637 221.263488 
L 770.059949 215.134848 
L 781.47426 212.018112 
" style="fill:none;stroke:#006400;stroke-linecap:round;stroke-width:1.5;"/>
   </g>
   <g id="line2d_17">
    <path clip-path="url(#p0fad162113)" d="M -1 262.802834 
L 5.15049 262.881792 
L 16.48549 262.127808 
L 28.057165 262.228608 
L 39.357563 262.176192 
L 50.910715 262.329408 
L 62.254135 261.46656 
L 73.7139 261.60768 
L 85.120247 261.764928 
L 96.611128 261.76896 
L 108 261.7488 
L 119.414313 260.998848 
L 130.833937 260.990784 
L 142.260504 260.950464 
L 153.661629 261.156096 
L 165.089867 260.25696 
L 176.509564 260.385984 
L 187.918549 260.551296 
L 199.325825 260.466624 
L 210.757121 259.7328 
L 222.16085 259.926336 
L 233.583434 260.01504 
L 244.993109 259.89408 
L 256.407988 260.027136 
L 267.828998 259.357824 
L 279.244208 259.438464 
L 290.656694 259.3296 
L 302.071259 259.434432 
L 313.483678 258.676416 
L 324.900016 258.821568 
L 336.315838 258.8256 
L 347.728673 258.857856 
L 359.144181 258.841728 
L 370.55822 257.870016 
L 381.973255 258.224832 
L 393.386779 258.128064 
L 404.800773 258.253056 
L 416.215286 257.462784 
L 427.630127 257.587776 
L 439.044142 257.442624 
L 450.459077 257.325696 
L 461.872999 257.33376 
L 473.287474 256.269312 
L 484.701927 256.14432 
L 496.116118 255.563712 
L 507.530673 255.374208 
L 518.944856 254.43072 
L 530.359267 254.479104 
L 541.773662 253.418688 
L 553.187998 252.700992 
L 564.60225 249.28992 
L 576.016588 250.789824 
L 587.430907 250.13664 
L 598.845217 247.322304 
L 610.259518 244.056384 
L 621.673879 238.004352 
L 633.08819 236.113344 
L 644.50247 226.823616 
L 655.916812 227.186496 
L 667.331129 214.651008 
L 678.745424 220.376448 
L 690.159756 212.945472 
L 701.574062 208.9296 
L 712.98837 204.409728 
L 724.402693 190.741248 
L 735.817012 194.329728 
L 747.231316 189.934848 
L 758.645637 186.580224 
L 770.059949 176.911488 
L 781.47426 173.443968 
" style="fill:none;stroke:#ffa500;stroke-linecap:round;stroke-width:1.5;"/>
   </g>
   <g id="line2d_18">
    <path clip-path="url(#p0fad162113)" d="M -1 268.643875 
L 5.15049 268.639488 
L 16.48549 268.054848 
L 28.057165 268.066944 
L 39.357563 268.075008 
L 50.910715 268.062912 
L 62.254135 268.054848 
L 73.7139 268.070976 
L 85.120247 268.075008 
L 96.611128 268.075008 
L 108 268.066944 
L 119.414313 268.070976 
L 130.833937 267.954048 
L 142.260504 268.07904 
L 153.661629 268.066944 
L 165.089867 268.075008 
L 176.509564 268.083072 
L 187.918549 268.083072 
L 199.325825 268.07904 
L 210.757121 268.075008 
L 222.16085 267.248448 
L 233.583434 267.244416 
L 244.993109 267.244416 
L 256.407988 267.216192 
L 267.828998 267.204096 
L 279.244208 267.175872 
L 290.656694 267.179904 
L 302.071259 267.167808 
L 313.483678 267.159744 
L 324.900016 267.159744 
L 336.315838 267.15168 
L 347.728673 267.139584 
L 359.144181 267.123456 
L 370.55822 267.119424 
L 381.973255 267.11136 
L 393.386779 267.099264 
L 404.800773 266.95008 
L 416.215286 266.942016 
L 427.630127 265.647744 
L 439.044142 265.300992 
L 450.459077 265.0752 
L 461.872999 265.15584 
L 473.287474 264.337344 
L 484.701927 263.615616 
L 496.116118 263.506752 
L 507.530673 262.93824 
L 518.944856 262.055232 
L 530.359267 260.571456 
L 541.773662 261.091584 
L 553.187998 260.083584 
L 564.60225 260.563392 
L 576.016588 258.958656 
L 587.430907 257.35392 
L 598.845217 255.547584 
L 610.259518 251.289792 
L 621.673879 248.544 
L 633.08819 246.60864 
L 644.50247 243.7056 
L 655.916812 245.66112 
L 667.331129 242.298432 
L 678.745424 240.13728 
L 690.159756 238.681728 
L 701.574062 239.657472 
L 712.98837 240.314688 
L 724.402693 239.742144 
L 735.817012 236.923776 
L 747.231316 238.246272 
L 758.645637 237.197952 
L 770.059949 236.822976 
L 781.47426 235.609344 
" style="fill:none;stroke:#800080;stroke-linecap:round;stroke-width:1.5;"/>
   </g>
   <g id="line2d_19">
    <path clip-path="url(#p0fad162113)" d="M 260.901477 270.72 
L 260.901477 69.12 
" style="fill:none;stroke:#000000;stroke-dasharray:3.7,1.6;stroke-dashoffset:0;"/>
   </g>
   <g id="line2d_20">
    <path clip-path="url(#p0fad162113)" d="M 462.471162 270.72 
L 462.471162 69.12 
" style="fill:none;stroke:#000000;stroke-dasharray:3.7,1.6;stroke-dashoffset:0;"/>
   </g>
   <g id="line2d_21">
    <path clip-path="url(#p0fad162113)" d="M 613.648425 270.72 
L 613.648425 69.12 
" style="fill:none;stroke:#000000;stroke-dasharray:3.7,1.6;stroke-dashoffset:0;"/>
   </g>
   <g id="patch_3">
    <path d="M 108 270.72 
L 108 69.12 
" style="fill:none;stroke:#cccccc;stroke-linecap:square;stroke-linejoin:miter;stroke-width:1.25;"/>
   </g>
   <g id="patch_4">
    <path d="M 777.6 270.72 
L 777.6 69.12 
" style="fill:none;stroke:#cccccc;stroke-linecap:square;stroke-linejoin:miter;stroke-width:1.25;"/>
   </g>
   <g id="patch_5">
    <path d="M 108 270.72 
L 777.6 270.72 
" style="fill:none;stroke:#cccccc;stroke-linecap:square;stroke-linejoin:miter;stroke-width:1.25;"/>
   </g>
   <g id="patch_6">
    <path d="M 108 69.12 
L 777.6 69.12 
" style="fill:none;stroke:#cccccc;stroke-linecap:square;stroke-linejoin:miter;stroke-width:1.25;"/>
   </g>
   <g id="legend_1">
    <g id="patch_7">
     <path d="M 115.7 158.649688 
L 314.853281 158.649688 
Q 317.053281 158.649688 317.053281 156.449688 
L 317.053281 76.82 
Q 317.053281 74.62 314.853281 74.62 
L 115.7 74.62 
Q 113.5 74.62 113.5 76.82 
L 113.5 156.449688 
Q 113.5 158.649688 115.7 158.649688 
z
" style="fill:#ffffff;opacity:0.8;stroke:#cccccc;stroke-linejoin:miter;"/>
    </g>
    <g id="line2d_22">
     <path d="M 117.9 83.528281 
L 139.9 83.528281 
" style="fill:none;stroke:#8b0000;stroke-linecap:round;stroke-width:1.5;"/>
    </g>
    <g id="line2d_23"/>
    <g id="text_8">
     <!-- Segment tree (pointer-based) -->
     <defs>
      <path d="M 53.515625 70.515625 
L 53.515625 60.890625 
Q 47.90625 63.578125 42.921875 64.890625 
Q 37.9375 66.21875 33.296875 66.21875 
Q 25.25 66.21875 20.875 63.09375 
Q 16.5 59.96875 16.5 54.203125 
Q 16.5 49.359375 19.40625 46.890625 
Q 22.3125 44.4375 30.421875 42.921875 
L 36.375 41.703125 
Q 47.40625 39.59375 52.65625 34.296875 
Q 57.90625 29 57.90625 20.125 
Q 57.90625 9.515625 50.796875 4.046875 
Q 43.703125 -1.421875 29.984375 -1.421875 
Q 24.8125 -1.421875 18.96875 -0.25 
Q 13.140625 0.921875 6.890625 3.21875 
L 6.890625 13.375 
Q 12.890625 10.015625 18.65625 8.296875 
Q 24.421875 6.59375 29.984375 6.59375 
Q 38.421875 6.59375 43.015625 9.90625 
Q 47.609375 13.234375 47.609375 19.390625 
Q 47.609375 24.75 44.3125 27.78125 
Q 41.015625 30.8125 33.5 32.328125 
L 27.484375 33.5 
Q 16.453125 35.6875 11.515625 40.375 
Q 6.59375 45.0625 6.59375 53.421875 
Q 6.59375 63.09375 13.40625 68.65625 
Q 20.21875 74.21875 32.171875 74.21875 
Q 37.3125 74.21875 42.625 73.28125 
Q 47.953125 72.359375 53.515625 70.515625 
z
" id="DejaVuSans-83"/>
      <path d="M 45.40625 27.984375 
Q 45.40625 37.75 41.375 43.109375 
Q 37.359375 48.484375 30.078125 48.484375 
Q 22.859375 48.484375 18.828125 43.109375 
Q 14.796875 37.75 14.796875 27.984375 
Q 14.796875 18.265625 18.828125 12.890625 
Q 22.859375 7.515625 30.078125 7.515625 
Q 37.359375 7.515625 41.375 12.890625 
Q 45.40625 18.265625 45.40625 27.984375 
z
M 54.390625 6.78125 
Q 54.390625 -7.171875 48.1875 -13.984375 
Q 42 -20.796875 29.203125 -20.796875 
Q 24.46875 -20.796875 20.265625 -20.09375 
Q 16.0625 -19.390625 12.109375 -17.921875 
L 12.109375 -9.1875 
Q 16.0625 -11.328125 19.921875 -12.34375 
Q 23.78125 -13.375 27.78125 -13.375 
Q 36.625 -13.375 41.015625 -8.765625 
Q 45.40625 -4.15625 45.40625 5.171875 
L 45.40625 9.625 
Q 42.625 4.78125 38.28125 2.390625 
Q 33.9375 0 27.875 0 
Q 17.828125 0 11.671875 7.65625 
Q 5.515625 15.328125 5.515625 27.984375 
Q 5.515625 40.671875 11.671875 48.328125 
Q 17.828125 56 27.875 56 
Q 33.9375 56 38.28125 53.609375 
Q 42.625 51.21875 45.40625 46.390625 
L 45.40625 54.6875 
L 54.390625 54.6875 
z
" id="DejaVuSans-103"/>
      <path d="M 52 44.1875 
Q 55.375 50.25 60.0625 53.125 
Q 64.75 56 71.09375 56 
Q 79.640625 56 84.28125 50.015625 
Q 88.921875 44.046875 88.921875 33.015625 
L 88.921875 0 
L 79.890625 0 
L 79.890625 32.71875 
Q 79.890625 40.578125 77.09375 44.375 
Q 74.3125 48.1875 68.609375 48.1875 
Q 61.625 48.1875 57.5625 43.546875 
Q 53.515625 38.921875 53.515625 30.90625 
L 53.515625 0 
L 44.484375 0 
L 44.484375 32.71875 
Q 44.484375 40.625 41.703125 44.40625 
Q 38.921875 48.1875 33.109375 48.1875 
Q 26.21875 48.1875 22.15625 43.53125 
Q 18.109375 38.875 18.109375 30.90625 
L 18.109375 0 
L 9.078125 0 
L 9.078125 54.6875 
L 18.109375 54.6875 
L 18.109375 46.1875 
Q 21.1875 51.21875 25.484375 53.609375 
Q 29.78125 56 35.6875 56 
Q 41.65625 56 45.828125 52.96875 
Q 50 49.953125 52 44.1875 
z
" id="DejaVuSans-109"/>
      <path d="M 54.890625 33.015625 
L 54.890625 0 
L 45.90625 0 
L 45.90625 32.71875 
Q 45.90625 40.484375 42.875 44.328125 
Q 39.84375 48.1875 33.796875 48.1875 
Q 26.515625 48.1875 22.3125 43.546875 
Q 18.109375 38.921875 18.109375 30.90625 
L 18.109375 0 
L 9.078125 0 
L 9.078125 54.6875 
L 18.109375 54.6875 
L 18.109375 46.1875 
Q 21.34375 51.125 25.703125 53.5625 
Q 30.078125 56 35.796875 56 
Q 45.21875 56 50.046875 50.171875 
Q 54.890625 44.34375 54.890625 33.015625 
z
" id="DejaVuSans-110"/>
      <path id="DejaVuSans-32"/>
      <path d="M 41.109375 46.296875 
Q 39.59375 47.171875 37.8125 47.578125 
Q 36.03125 48 33.890625 48 
Q 26.265625 48 22.1875 43.046875 
Q 18.109375 38.09375 18.109375 28.8125 
L 18.109375 0 
L 9.078125 0 
L 9.078125 54.6875 
L 18.109375 54.6875 
L 18.109375 46.1875 
Q 20.953125 51.171875 25.484375 53.578125 
Q 30.03125 56 36.53125 56 
Q 37.453125 56 38.578125 55.875 
Q 39.703125 55.765625 41.0625 55.515625 
z
" id="DejaVuSans-114"/>
      <path d="M 31 75.875 
Q 24.46875 64.65625 21.28125 53.65625 
Q 18.109375 42.671875 18.109375 31.390625 
Q 18.109375 20.125 21.3125 9.0625 
Q 24.515625 -2 31 -13.1875 
L 23.1875 -13.1875 
Q 15.875 -1.703125 12.234375 9.375 
Q 8.59375 20.453125 8.59375 31.390625 
Q 8.59375 42.28125 12.203125 53.3125 
Q 15.828125 64.359375 23.1875 75.875 
z
" id="DejaVuSans-40"/>
      <path d="M 30.609375 48.390625 
Q 23.390625 48.390625 19.1875 42.75 
Q 14.984375 37.109375 14.984375 27.296875 
Q 14.984375 17.484375 19.15625 11.84375 
Q 23.34375 6.203125 30.609375 6.203125 
Q 37.796875 6.203125 41.984375 11.859375 
Q 46.1875 17.53125 46.1875 27.296875 
Q 46.1875 37.015625 41.984375 42.703125 
Q 37.796875 48.390625 30.609375 48.390625 
z
M 30.609375 56 
Q 42.328125 56 49.015625 48.375 
Q 55.71875 40.765625 55.71875 27.296875 
Q 55.71875 13.875 49.015625 6.21875 
Q 42.328125 -1.421875 30.609375 -1.421875 
Q 18.84375 -1.421875 12.171875 6.21875 
Q 5.515625 13.875 5.515625 27.296875 
Q 5.515625 40.765625 12.171875 48.375 
Q 18.84375 56 30.609375 56 
z
" id="DejaVuSans-111"/>
      <path d="M 9.421875 54.6875 
L 18.40625 54.6875 
L 18.40625 0 
L 9.421875 0 
z
M 9.421875 75.984375 
L 18.40625 75.984375 
L 18.40625 64.59375 
L 9.421875 64.59375 
z
" id="DejaVuSans-105"/>
      <path d="M 4.890625 31.390625 
L 31.203125 31.390625 
L 31.203125 23.390625 
L 4.890625 23.390625 
z
" id="DejaVuSans-45"/>
      <path d="M 48.6875 27.296875 
Q 48.6875 37.203125 44.609375 42.84375 
Q 40.53125 48.484375 33.40625 48.484375 
Q 26.265625 48.484375 22.1875 42.84375 
Q 18.109375 37.203125 18.109375 27.296875 
Q 18.109375 17.390625 22.1875 11.75 
Q 26.265625 6.109375 33.40625 6.109375 
Q 40.53125 6.109375 44.609375 11.75 
Q 48.6875 17.390625 48.6875 27.296875 
z
M 18.109375 46.390625 
Q 20.953125 51.265625 25.265625 53.625 
Q 29.59375 56 35.59375 56 
Q 45.5625 56 51.78125 48.09375 
Q 58.015625 40.1875 58.015625 27.296875 
Q 58.015625 14.40625 51.78125 6.484375 
Q 45.5625 -1.421875 35.59375 -1.421875 
Q 29.59375 -1.421875 25.265625 0.953125 
Q 20.953125 3.328125 18.109375 8.203125 
L 18.109375 0 
L 9.078125 0 
L 9.078125 75.984375 
L 18.109375 75.984375 
z
" id="DejaVuSans-98"/>
      <path d="M 44.28125 53.078125 
L 44.28125 44.578125 
Q 40.484375 46.53125 36.375 47.5 
Q 32.28125 48.484375 27.875 48.484375 
Q 21.1875 48.484375 17.84375 46.4375 
Q 14.5 44.390625 14.5 40.28125 
Q 14.5 37.15625 16.890625 35.375 
Q 19.28125 33.59375 26.515625 31.984375 
L 29.59375 31.296875 
Q 39.15625 29.25 43.1875 25.515625 
Q 47.21875 21.78125 47.21875 15.09375 
Q 47.21875 7.46875 41.1875 3.015625 
Q 35.15625 -1.421875 24.609375 -1.421875 
Q 20.21875 -1.421875 15.453125 -0.5625 
Q 10.6875 0.296875 5.421875 2 
L 5.421875 11.28125 
Q 10.40625 8.6875 15.234375 7.390625 
Q 20.0625 6.109375 24.8125 6.109375 
Q 31.15625 6.109375 34.5625 8.28125 
Q 37.984375 10.453125 37.984375 14.40625 
Q 37.984375 18.0625 35.515625 20.015625 
Q 33.0625 21.96875 24.703125 23.78125 
L 21.578125 24.515625 
Q 13.234375 26.265625 9.515625 29.90625 
Q 5.8125 33.546875 5.8125 39.890625 
Q 5.8125 47.609375 11.28125 51.796875 
Q 16.75 56 26.8125 56 
Q 31.78125 56 36.171875 55.265625 
Q 40.578125 54.546875 44.28125 53.078125 
z
" id="DejaVuSans-115"/>
      <path d="M 8.015625 75.875 
L 15.828125 75.875 
Q 23.140625 64.359375 26.78125 53.3125 
Q 30.421875 42.28125 30.421875 31.390625 
Q 30.421875 20.453125 26.78125 9.375 
Q 23.140625 -1.703125 15.828125 -13.1875 
L 8.015625 -13.1875 
Q 14.5 -2 17.703125 9.0625 
Q 20.90625 20.125 20.90625 31.390625 
Q 20.90625 42.671875 17.703125 53.65625 
Q 14.5 64.65625 8.015625 75.875 
z
" id="DejaVuSans-41"/>
     </defs>
     <g style="fill:#262626;" transform="translate(148.7 87.378281)scale(0.11 -0.11)">
      <use xlink:href="#DejaVuSans-83"/>
      <use x="63.476562" xlink:href="#DejaVuSans-101"/>
      <use x="125" xlink:href="#DejaVuSans-103"/>
      <use x="188.476562" xlink:href="#DejaVuSans-109"/>
      <use x="285.888672" xlink:href="#DejaVuSans-101"/>
      <use x="347.412109" xlink:href="#DejaVuSans-110"/>
      <use x="410.791016" xlink:href="#DejaVuSans-116"/>
      <use x="450" xlink:href="#DejaVuSans-32"/>
      <use x="481.787109" xlink:href="#DejaVuSans-116"/>
      <use x="520.996094" xlink:href="#DejaVuSans-114"/>
      <use x="562.078125" xlink:href="#DejaVuSans-101"/>
      <use x="623.601562" xlink:href="#DejaVuSans-101"/>
      <use x="685.125" xlink:href="#DejaVuSans-32"/>
      <use x="716.912109" xlink:href="#DejaVuSans-40"/>
      <use x="755.925781" xlink:href="#DejaVuSans-112"/>
      <use x="819.402344" xlink:href="#DejaVuSans-111"/>
      <use x="880.583984" xlink:href="#DejaVuSans-105"/>
      <use x="908.367188" xlink:href="#DejaVuSans-110"/>
      <use x="971.746094" xlink:href="#DejaVuSans-116"/>
      <use x="1010.955078" xlink:href="#DejaVuSans-101"/>
      <use x="1072.478516" xlink:href="#DejaVuSans-114"/>
      <use x="1113.498047" xlink:href="#DejaVuSans-45"/>
      <use x="1149.582031" xlink:href="#DejaVuSans-98"/>
      <use x="1213.058594" xlink:href="#DejaVuSans-97"/>
      <use x="1274.337891" xlink:href="#DejaVuSans-115"/>
      <use x="1326.4375" xlink:href="#DejaVuSans-101"/>
      <use x="1387.960938" xlink:href="#DejaVuSans-100"/>
      <use x="1451.4375" xlink:href="#DejaVuSans-41"/>
     </g>
    </g>
    <g id="line2d_24">
     <path d="M 117.9 99.674219 
L 139.9 99.674219 
" style="fill:none;stroke:#00008b;stroke-linecap:round;stroke-width:1.5;"/>
    </g>
    <g id="line2d_25"/>
    <g id="text_9">
     <!-- Segment tree (top-down) -->
     <defs>
      <path d="M 4.203125 54.6875 
L 13.1875 54.6875 
L 24.421875 12.015625 
L 35.59375 54.6875 
L 46.1875 54.6875 
L 57.421875 12.015625 
L 68.609375 54.6875 
L 77.59375 54.6875 
L 63.28125 0 
L 52.6875 0 
L 40.921875 44.828125 
L 29.109375 0 
L 18.5 0 
z
" id="DejaVuSans-119"/>
     </defs>
     <g style="fill:#262626;" transform="translate(148.7 103.524219)scale(0.11 -0.11)">
      <use xlink:href="#DejaVuSans-83"/>
      <use x="63.476562" xlink:href="#DejaVuSans-101"/>
      <use x="125" xlink:href="#DejaVuSans-103"/>
      <use x="188.476562" xlink:href="#DejaVuSans-109"/>
      <use x="285.888672" xlink:href="#DejaVuSans-101"/>
      <use x="347.412109" xlink:href="#DejaVuSans-110"/>
      <use x="410.791016" xlink:href="#DejaVuSans-116"/>
      <use x="450" xlink:href="#DejaVuSans-32"/>
      <use x="481.787109" xlink:href="#DejaVuSans-116"/>
      <use x="520.996094" xlink:href="#DejaVuSans-114"/>
      <use x="562.078125" xlink:href="#DejaVuSans-101"/>
      <use x="623.601562" xlink:href="#DejaVuSans-101"/>
      <use x="685.125" xlink:href="#DejaVuSans-32"/>
      <use x="716.912109" xlink:href="#DejaVuSans-40"/>
      <use x="755.925781" xlink:href="#DejaVuSans-116"/>
      <use x="795.134766" xlink:href="#DejaVuSans-111"/>
      <use x="856.316406" xlink:href="#DejaVuSans-112"/>
      <use x="919.792969" xlink:href="#DejaVuSans-45"/>
      <use x="955.876953" xlink:href="#DejaVuSans-100"/>
      <use x="1019.353516" xlink:href="#DejaVuSans-111"/>
      <use x="1080.535156" xlink:href="#DejaVuSans-119"/>
      <use x="1162.322266" xlink:href="#DejaVuSans-110"/>
      <use x="1225.701172" xlink:href="#DejaVuSans-41"/>
     </g>
    </g>
    <g id="line2d_26">
     <path d="M 117.9 115.820156 
L 139.9 115.820156 
" style="fill:none;stroke:#006400;stroke-linecap:round;stroke-width:1.5;"/>
    </g>
    <g id="line2d_27"/>
    <g id="text_10">
     <!-- Segment tree (bottom-up) -->
     <defs>
      <path d="M 8.5 21.578125 
L 8.5 54.6875 
L 17.484375 54.6875 
L 17.484375 21.921875 
Q 17.484375 14.15625 20.5 10.265625 
Q 23.53125 6.390625 29.59375 6.390625 
Q 36.859375 6.390625 41.078125 11.03125 
Q 45.3125 15.671875 45.3125 23.6875 
L 45.3125 54.6875 
L 54.296875 54.6875 
L 54.296875 0 
L 45.3125 0 
L 45.3125 8.40625 
Q 42.046875 3.421875 37.71875 1 
Q 33.40625 -1.421875 27.6875 -1.421875 
Q 18.265625 -1.421875 13.375 4.4375 
Q 8.5 10.296875 8.5 21.578125 
z
M 31.109375 56 
z
" id="DejaVuSans-117"/>
     </defs>
     <g style="fill:#262626;" transform="translate(148.7 119.670156)scale(0.11 -0.11)">
      <use xlink:href="#DejaVuSans-83"/>
      <use x="63.476562" xlink:href="#DejaVuSans-101"/>
      <use x="125" xlink:href="#DejaVuSans-103"/>
      <use x="188.476562" xlink:href="#DejaVuSans-109"/>
      <use x="285.888672" xlink:href="#DejaVuSans-101"/>
      <use x="347.412109" xlink:href="#DejaVuSans-110"/>
      <use x="410.791016" xlink:href="#DejaVuSans-116"/>
      <use x="450" xlink:href="#DejaVuSans-32"/>
      <use x="481.787109" xlink:href="#DejaVuSans-116"/>
      <use x="520.996094" xlink:href="#DejaVuSans-114"/>
      <use x="562.078125" xlink:href="#DejaVuSans-101"/>
      <use x="623.601562" xlink:href="#DejaVuSans-101"/>
      <use x="685.125" xlink:href="#DejaVuSans-32"/>
      <use x="716.912109" xlink:href="#DejaVuSans-40"/>
      <use x="755.925781" xlink:href="#DejaVuSans-98"/>
      <use x="819.402344" xlink:href="#DejaVuSans-111"/>
      <use x="880.583984" xlink:href="#DejaVuSans-116"/>
      <use x="919.792969" xlink:href="#DejaVuSans-116"/>
      <use x="959.001953" xlink:href="#DejaVuSans-111"/>
      <use x="1020.183594" xlink:href="#DejaVuSans-109"/>
      <use x="1117.595703" xlink:href="#DejaVuSans-45"/>
      <use x="1153.679688" xlink:href="#DejaVuSans-117"/>
      <use x="1217.058594" xlink:href="#DejaVuSans-112"/>
      <use x="1280.535156" xlink:href="#DejaVuSans-41"/>
     </g>
    </g>
    <g id="line2d_28">
     <path d="M 117.9 131.966094 
L 139.9 131.966094 
" style="fill:none;stroke:#ffa500;stroke-linecap:round;stroke-width:1.5;"/>
    </g>
    <g id="line2d_29"/>
    <g id="text_11">
     <!-- Fenwick tree -->
     <defs>
      <path d="M 9.8125 72.90625 
L 51.703125 72.90625 
L 51.703125 64.59375 
L 19.671875 64.59375 
L 19.671875 43.109375 
L 48.578125 43.109375 
L 48.578125 34.8125 
L 19.671875 34.8125 
L 19.671875 0 
L 9.8125 0 
z
" id="DejaVuSans-70"/>
      <path d="M 48.78125 52.59375 
L 48.78125 44.1875 
Q 44.96875 46.296875 41.140625 47.34375 
Q 37.3125 48.390625 33.40625 48.390625 
Q 24.65625 48.390625 19.8125 42.84375 
Q 14.984375 37.3125 14.984375 27.296875 
Q 14.984375 17.28125 19.8125 11.734375 
Q 24.65625 6.203125 33.40625 6.203125 
Q 37.3125 6.203125 41.140625 7.25 
Q 44.96875 8.296875 48.78125 10.40625 
L 48.78125 2.09375 
Q 45.015625 0.34375 40.984375 -0.53125 
Q 36.96875 -1.421875 32.421875 -1.421875 
Q 20.0625 -1.421875 12.78125 6.34375 
Q 5.515625 14.109375 5.515625 27.296875 
Q 5.515625 40.671875 12.859375 48.328125 
Q 20.21875 56 33.015625 56 
Q 37.15625 56 41.109375 55.140625 
Q 45.0625 54.296875 48.78125 52.59375 
z
" id="DejaVuSans-99"/>
      <path d="M 9.078125 75.984375 
L 18.109375 75.984375 
L 18.109375 31.109375 
L 44.921875 54.6875 
L 56.390625 54.6875 
L 27.390625 29.109375 
L 57.625 0 
L 45.90625 0 
L 18.109375 26.703125 
L 18.109375 0 
L 9.078125 0 
z
" id="DejaVuSans-107"/>
     </defs>
     <g style="fill:#262626;" transform="translate(148.7 135.816094)scale(0.11 -0.11)">
      <use xlink:href="#DejaVuSans-70"/>
      <use x="57.441406" xlink:href="#DejaVuSans-101"/>
      <use x="118.964844" xlink:href="#DejaVuSans-110"/>
      <use x="182.34375" xlink:href="#DejaVuSans-119"/>
      <use x="264.130859" xlink:href="#DejaVuSans-105"/>
      <use x="291.914062" xlink:href="#DejaVuSans-99"/>
      <use x="346.894531" xlink:href="#DejaVuSans-107"/>
      <use x="404.804688" xlink:href="#DejaVuSans-32"/>
      <use x="436.591797" xlink:href="#DejaVuSans-116"/>
      <use x="475.800781" xlink:href="#DejaVuSans-114"/>
      <use x="516.882812" xlink:href="#DejaVuSans-101"/>
      <use x="578.40625" xlink:href="#DejaVuSans-101"/>
     </g>
    </g>
    <g id="line2d_30">
     <path d="M 117.9 148.112031 
L 139.9 148.112031 
" style="fill:none;stroke:#800080;stroke-linecap:round;stroke-width:1.5;"/>
    </g>
    <g id="line2d_31"/>
    <g id="text_12">
     <!-- Wide segment tree -->
     <defs>
      <path d="M 3.328125 72.90625 
L 13.28125 72.90625 
L 28.609375 11.28125 
L 43.890625 72.90625 
L 54.984375 72.90625 
L 70.3125 11.28125 
L 85.59375 72.90625 
L 95.609375 72.90625 
L 77.296875 0 
L 64.890625 0 
L 49.515625 63.28125 
L 33.984375 0 
L 21.578125 0 
z
" id="DejaVuSans-87"/>
     </defs>
     <g style="fill:#262626;" transform="translate(148.7 151.962031)scale(0.11 -0.11)">
      <use xlink:href="#DejaVuSans-87"/>
      <use x="98.845703" xlink:href="#DejaVuSans-105"/>
      <use x="126.628906" xlink:href="#DejaVuSans-100"/>
      <use x="190.105469" xlink:href="#DejaVuSans-101"/>
      <use x="251.628906" xlink:href="#DejaVuSans-32"/>
      <use x="283.416016" xlink:href="#DejaVuSans-115"/>
      <use x="335.515625" xlink:href="#DejaVuSans-101"/>
      <use x="397.039062" xlink:href="#DejaVuSans-103"/>
      <use x="460.515625" xlink:href="#DejaVuSans-109"/>
      <use x="557.927734" xlink:href="#DejaVuSans-101"/>
      <use x="619.451172" xlink:href="#DejaVuSans-110"/>
      <use x="682.830078" xlink:href="#DejaVuSans-116"/>
      <use x="722.039062" xlink:href="#DejaVuSans-32"/>
      <use x="753.826172" xlink:href="#DejaVuSans-116"/>
      <use x="793.035156" xlink:href="#DejaVuSans-114"/>
      <use x="834.117188" xlink:href="#DejaVuSans-101"/>
      <use x="895.640625" xlink:href="#DejaVuSans-101"/>
     </g>
    </g>
   </g>
  </g>
  <g id="axes_2">
   <g id="patch_8">
    <path d="M 108 512.64 
L 777.6 512.64 
L 777.6 311.04 
L 108 311.04 
z
" style="fill:#ffffff;"/>
   </g>
   <g id="matplotlib.axis_3">
    <g id="xtick_8">
     <g id="line2d_32">
      <path clip-path="url(#p74657c12f4)" d="M 160.116634 512.64 
L 160.116634 311.04 
" style="fill:none;stroke:#cccccc;stroke-linecap:round;"/>
     </g>
     <g id="text_13">
      <!-- $\mathdefault{2^{11}}$ -->
      <g style="fill:#262626;" transform="translate(151.481634 530.498281)scale(0.11 -0.11)">
       <use transform="translate(0 0.684375)" xlink:href="#DejaVuSans-50"/>
       <use transform="translate(64.580078 38.965625)scale(0.7)" xlink:href="#DejaVuSans-49"/>
       <use transform="translate(109.116211 38.965625)scale(0.7)" xlink:href="#DejaVuSans-49"/>
      </g>
     </g>
    </g>
    <g id="xtick_9">
     <g id="line2d_33">
      <path clip-path="url(#p74657c12f4)" d="M 260.901477 512.64 
L 260.901477 311.04 
" style="fill:none;stroke:#cccccc;stroke-linecap:round;"/>
     </g>
     <g id="text_14">
      <!-- $\mathdefault{2^{13}}$ -->
      <g style="fill:#262626;" transform="translate(252.266477 530.498281)scale(0.11 -0.11)">
       <use transform="translate(0 0.765625)" xlink:href="#DejaVuSans-50"/>
       <use transform="translate(64.580078 39.046875)scale(0.7)" xlink:href="#DejaVuSans-49"/>
       <use transform="translate(109.116211 39.046875)scale(0.7)" xlink:href="#DejaVuSans-51"/>
      </g>
     </g>
    </g>
    <g id="xtick_10">
     <g id="line2d_34">
      <path clip-path="url(#p74657c12f4)" d="M 361.686319 512.64 
L 361.686319 311.04 
" style="fill:none;stroke:#cccccc;stroke-linecap:round;"/>
     </g>
     <g id="text_15">
      <!-- $\mathdefault{2^{15}}$ -->
      <g style="fill:#262626;" transform="translate(353.051319 530.498281)scale(0.11 -0.11)">
       <use transform="translate(0 0.684375)" xlink:href="#DejaVuSans-50"/>
       <use transform="translate(64.580078 38.965625)scale(0.7)" xlink:href="#DejaVuSans-49"/>
       <use transform="translate(109.116211 38.965625)scale(0.7)" xlink:href="#DejaVuSans-53"/>
      </g>
     </g>
    </g>
    <g id="xtick_11">
     <g id="line2d_35">
      <path clip-path="url(#p74657c12f4)" d="M 462.471162 512.64 
L 462.471162 311.04 
" style="fill:none;stroke:#cccccc;stroke-linecap:round;"/>
     </g>
     <g id="text_16">
      <!-- $\mathdefault{2^{17}}$ -->
      <defs>
       <path d="M 8.203125 72.90625 
L 55.078125 72.90625 
L 55.078125 68.703125 
L 28.609375 0 
L 18.3125 0 
L 43.21875 64.59375 
L 8.203125 64.59375 
z
" id="DejaVuSans-55"/>
      </defs>
      <g style="fill:#262626;" transform="translate(453.836162 530.498281)scale(0.11 -0.11)">
       <use transform="translate(0 0.684375)" xlink:href="#DejaVuSans-50"/>
       <use transform="translate(64.580078 38.965625)scale(0.7)" xlink:href="#DejaVuSans-49"/>
       <use transform="translate(109.116211 38.965625)scale(0.7)" xlink:href="#DejaVuSans-55"/>
      </g>
     </g>
    </g>
    <g id="xtick_12">
     <g id="line2d_36">
      <path clip-path="url(#p74657c12f4)" d="M 563.256004 512.64 
L 563.256004 311.04 
" style="fill:none;stroke:#cccccc;stroke-linecap:round;"/>
     </g>
     <g id="text_17">
      <!-- $\mathdefault{2^{19}}$ -->
      <defs>
       <path d="M 10.984375 1.515625 
L 10.984375 10.5 
Q 14.703125 8.734375 18.5 7.8125 
Q 22.3125 6.890625 25.984375 6.890625 
Q 35.75 6.890625 40.890625 13.453125 
Q 46.046875 20.015625 46.78125 33.40625 
Q 43.953125 29.203125 39.59375 26.953125 
Q 35.25 24.703125 29.984375 24.703125 
Q 19.046875 24.703125 12.671875 31.3125 
Q 6.296875 37.9375 6.296875 49.421875 
Q 6.296875 60.640625 12.9375 67.421875 
Q 19.578125 74.21875 30.609375 74.21875 
Q 43.265625 74.21875 49.921875 64.515625 
Q 56.59375 54.828125 56.59375 36.375 
Q 56.59375 19.140625 48.40625 8.859375 
Q 40.234375 -1.421875 26.421875 -1.421875 
Q 22.703125 -1.421875 18.890625 -0.6875 
Q 15.09375 0.046875 10.984375 1.515625 
z
M 30.609375 32.421875 
Q 37.25 32.421875 41.125 36.953125 
Q 45.015625 41.5 45.015625 49.421875 
Q 45.015625 57.28125 41.125 61.84375 
Q 37.25 66.40625 30.609375 66.40625 
Q 23.96875 66.40625 20.09375 61.84375 
Q 16.21875 57.28125 16.21875 49.421875 
Q 16.21875 41.5 20.09375 36.953125 
Q 23.96875 32.421875 30.609375 32.421875 
z
" id="DejaVuSans-57"/>
      </defs>
      <g style="fill:#262626;" transform="translate(554.621004 530.498281)scale(0.11 -0.11)">
       <use transform="translate(0 0.765625)" xlink:href="#DejaVuSans-50"/>
       <use transform="translate(64.580078 39.046875)scale(0.7)" xlink:href="#DejaVuSans-49"/>
       <use transform="translate(109.116211 39.046875)scale(0.7)" xlink:href="#DejaVuSans-57"/>
      </g>
     </g>
    </g>
    <g id="xtick_13">
     <g id="line2d_37">
      <path clip-path="url(#p74657c12f4)" d="M 664.040847 512.64 
L 664.040847 311.04 
" style="fill:none;stroke:#cccccc;stroke-linecap:round;"/>
     </g>
     <g id="text_18">
      <!-- $\mathdefault{2^{21}}$ -->
      <g style="fill:#262626;" transform="translate(655.405847 530.498281)scale(0.11 -0.11)">
       <use transform="translate(0 0.765625)" xlink:href="#DejaVuSans-50"/>
       <use transform="translate(64.580078 39.046875)scale(0.7)" xlink:href="#DejaVuSans-50"/>
       <use transform="translate(109.116211 39.046875)scale(0.7)" xlink:href="#DejaVuSans-49"/>
      </g>
     </g>
    </g>
    <g id="xtick_14">
     <g id="line2d_38">
      <path clip-path="url(#p74657c12f4)" d="M 764.825689 512.64 
L 764.825689 311.04 
" style="fill:none;stroke:#cccccc;stroke-linecap:round;"/>
     </g>
     <g id="text_19">
      <!-- $\mathdefault{2^{23}}$ -->
      <g style="fill:#262626;" transform="translate(756.190689 530.498281)scale(0.11 -0.11)">
       <use transform="translate(0 0.765625)" xlink:href="#DejaVuSans-50"/>
       <use transform="translate(64.580078 39.046875)scale(0.7)" xlink:href="#DejaVuSans-50"/>
       <use transform="translate(109.116211 39.046875)scale(0.7)" xlink:href="#DejaVuSans-51"/>
      </g>
     </g>
    </g>
    <g id="text_20">
     <!-- Array size -->
     <defs>
      <path d="M 34.1875 63.1875 
L 20.796875 26.90625 
L 47.609375 26.90625 
z
M 28.609375 72.90625 
L 39.796875 72.90625 
L 67.578125 0 
L 57.328125 0 
L 50.6875 18.703125 
L 17.828125 18.703125 
L 11.1875 0 
L 0.78125 0 
z
" id="DejaVuSans-65"/>
      <path d="M 32.171875 -5.078125 
Q 28.375 -14.84375 24.75 -17.8125 
Q 21.140625 -20.796875 15.09375 -20.796875 
L 7.90625 -20.796875 
L 7.90625 -13.28125 
L 13.1875 -13.28125 
Q 16.890625 -13.28125 18.9375 -11.515625 
Q 21 -9.765625 23.484375 -3.21875 
L 25.09375 0.875 
L 2.984375 54.6875 
L 12.5 54.6875 
L 29.59375 11.921875 
L 46.6875 54.6875 
L 56.203125 54.6875 
z
" id="DejaVuSans-121"/>
      <path d="M 5.515625 54.6875 
L 48.1875 54.6875 
L 48.1875 46.484375 
L 14.40625 7.171875 
L 48.1875 7.171875 
L 48.1875 0 
L 4.296875 0 
L 4.296875 8.203125 
L 38.09375 47.515625 
L 5.515625 47.515625 
z
" id="DejaVuSans-122"/>
     </defs>
     <g style="fill:#262626;" transform="translate(412.995 545.904063)scale(0.12 -0.12)">
      <use xlink:href="#DejaVuSans-65"/>
      <use x="68.408203" xlink:href="#DejaVuSans-114"/>
      <use x="109.505859" xlink:href="#DejaVuSans-114"/>
      <use x="150.619141" xlink:href="#DejaVuSans-97"/>
      <use x="211.898438" xlink:href="#DejaVuSans-121"/>
      <use x="271.078125" xlink:href="#DejaVuSans-32"/>
      <use x="302.865234" xlink:href="#DejaVuSans-115"/>
      <use x="354.964844" xlink:href="#DejaVuSans-105"/>
      <use x="382.748047" xlink:href="#DejaVuSans-122"/>
      <use x="435.238281" xlink:href="#DejaVuSans-101"/>
     </g>
    </g>
   </g>
   <g id="matplotlib.axis_4">
    <g id="ytick_7">
     <g id="line2d_39">
      <path clip-path="url(#p74657c12f4)" d="M 108 512.64 
L 777.6 512.64 
" style="fill:none;stroke:#cccccc;stroke-linecap:round;"/>
     </g>
     <g id="text_21">
      <!-- 0 -->
      <g style="fill:#262626;" transform="translate(91.50125 516.819141)scale(0.11 -0.11)">
       <use xlink:href="#DejaVuSans-48"/>
      </g>
     </g>
    </g>
    <g id="ytick_8">
     <g id="line2d_40">
      <path clip-path="url(#p74657c12f4)" d="M 108 472.32 
L 777.6 472.32 
" style="fill:none;stroke:#cccccc;stroke-linecap:round;"/>
     </g>
     <g id="text_22">
      <!-- 100 -->
      <g style="fill:#262626;" transform="translate(77.50375 476.499141)scale(0.11 -0.11)">
       <use xlink:href="#DejaVuSans-49"/>
       <use x="63.623047" xlink:href="#DejaVuSans-48"/>
       <use x="127.246094" xlink:href="#DejaVuSans-48"/>
      </g>
     </g>
    </g>
    <g id="ytick_9">
     <g id="line2d_41">
      <path clip-path="url(#p74657c12f4)" d="M 108 432 
L 777.6 432 
" style="fill:none;stroke:#cccccc;stroke-linecap:round;"/>
     </g>
     <g id="text_23">
      <!-- 200 -->
      <g style="fill:#262626;" transform="translate(77.50375 436.179141)scale(0.11 -0.11)">
       <use xlink:href="#DejaVuSans-50"/>
       <use x="63.623047" xlink:href="#DejaVuSans-48"/>
       <use x="127.246094" xlink:href="#DejaVuSans-48"/>
      </g>
     </g>
    </g>
    <g id="ytick_10">
     <g id="line2d_42">
      <path clip-path="url(#p74657c12f4)" d="M 108 391.68 
L 777.6 391.68 
" style="fill:none;stroke:#cccccc;stroke-linecap:round;"/>
     </g>
     <g id="text_24">
      <!-- 300 -->
      <g style="fill:#262626;" transform="translate(77.50375 395.859141)scale(0.11 -0.11)">
       <use xlink:href="#DejaVuSans-51"/>
       <use x="63.623047" xlink:href="#DejaVuSans-48"/>
       <use x="127.246094" xlink:href="#DejaVuSans-48"/>
      </g>
     </g>
    </g>
    <g id="ytick_11">
     <g id="line2d_43">
      <path clip-path="url(#p74657c12f4)" d="M 108 351.36 
L 777.6 351.36 
" style="fill:none;stroke:#cccccc;stroke-linecap:round;"/>
     </g>
     <g id="text_25">
      <!-- 400 -->
      <g style="fill:#262626;" transform="translate(77.50375 355.539141)scale(0.11 -0.11)">
       <use xlink:href="#DejaVuSans-52"/>
       <use x="63.623047" xlink:href="#DejaVuSans-48"/>
       <use x="127.246094" xlink:href="#DejaVuSans-48"/>
      </g>
     </g>
    </g>
    <g id="ytick_12">
     <g id="line2d_44">
      <path clip-path="url(#p74657c12f4)" d="M 108 311.04 
L 777.6 311.04 
" style="fill:none;stroke:#cccccc;stroke-linecap:round;"/>
     </g>
     <g id="text_26">
      <!-- 500 -->
      <g style="fill:#262626;" transform="translate(77.50375 315.219141)scale(0.11 -0.11)">
       <use xlink:href="#DejaVuSans-53"/>
       <use x="63.623047" xlink:href="#DejaVuSans-48"/>
       <use x="127.246094" xlink:href="#DejaVuSans-48"/>
      </g>
     </g>
    </g>
    <g id="text_27">
     <!-- Prefix sum -->
     <defs>
      <path d="M 19.671875 64.796875 
L 19.671875 37.40625 
L 32.078125 37.40625 
Q 38.96875 37.40625 42.71875 40.96875 
Q 46.484375 44.53125 46.484375 51.125 
Q 46.484375 57.671875 42.71875 61.234375 
Q 38.96875 64.796875 32.078125 64.796875 
z
M 9.8125 72.90625 
L 32.078125 72.90625 
Q 44.34375 72.90625 50.609375 67.359375 
Q 56.890625 61.8125 56.890625 51.125 
Q 56.890625 40.328125 50.609375 34.8125 
Q 44.34375 29.296875 32.078125 29.296875 
L 19.671875 29.296875 
L 19.671875 0 
L 9.8125 0 
z
" id="DejaVuSans-80"/>
      <path d="M 37.109375 75.984375 
L 37.109375 68.5 
L 28.515625 68.5 
Q 23.6875 68.5 21.796875 66.546875 
Q 19.921875 64.59375 19.921875 59.515625 
L 19.921875 54.6875 
L 34.71875 54.6875 
L 34.71875 47.703125 
L 19.921875 47.703125 
L 19.921875 0 
L 10.890625 0 
L 10.890625 47.703125 
L 2.296875 47.703125 
L 2.296875 54.6875 
L 10.890625 54.6875 
L 10.890625 58.5 
Q 10.890625 67.625 15.140625 71.796875 
Q 19.390625 75.984375 28.609375 75.984375 
z
" id="DejaVuSans-102"/>
      <path d="M 54.890625 54.6875 
L 35.109375 28.078125 
L 55.90625 0 
L 45.3125 0 
L 29.390625 21.484375 
L 13.484375 0 
L 2.875 0 
L 24.125 28.609375 
L 4.6875 54.6875 
L 15.28125 54.6875 
L 29.78125 35.203125 
L 44.28125 54.6875 
z
" id="DejaVuSans-120"/>
     </defs>
     <g style="fill:#262626;" transform="translate(71.008125 443.623125)rotate(-90)scale(0.12 -0.12)">
      <use xlink:href="#DejaVuSans-80"/>
      <use x="60.287109" xlink:href="#DejaVuSans-114"/>
      <use x="101.369141" xlink:href="#DejaVuSans-101"/>
      <use x="162.892578" xlink:href="#DejaVuSans-102"/>
      <use x="198.097656" xlink:href="#DejaVuSans-105"/>
      <use x="225.880859" xlink:href="#DejaVuSans-120"/>
      <use x="285.060547" xlink:href="#DejaVuSans-32"/>
      <use x="316.847656" xlink:href="#DejaVuSans-115"/>
      <use x="368.947266" xlink:href="#DejaVuSans-117"/>
      <use x="432.326172" xlink:href="#DejaVuSans-109"/>
     </g>
    </g>
   </g>
   <g id="line2d_45">
    <path clip-path="url(#p74657c12f4)" d="M -1 472.924951 
L 5.15049 472.174848 
L 16.48549 471.13056 
L 28.057165 469.005696 
L 39.357563 468.033984 
L 50.910715 466.042176 
L 62.254135 465.167232 
L 73.7139 463.864896 
L 85.120247 461.469888 
L 96.611128 460.643328 
L 108 458.115264 
L 119.414313 456.982272 
L 130.833937 453.051072 
L 142.260504 454.647744 
L 153.661629 452.256768 
L 165.089867 450.22464 
L 176.509564 449.309376 
L 187.918549 447.490944 
L 199.325825 444.386304 
L 210.757121 441.451008 
L 222.16085 440.838144 
L 233.583434 437.177088 
L 244.993109 429.74208 
L 256.407988 425.685888 
L 267.828998 423.831168 
L 279.244208 418.017024 
L 290.656694 408.404736 
L 302.071259 405.654912 
L 313.483678 403.054272 
L 324.900016 396.35712 
L 336.315838 391.796928 
L 347.728673 366.6816 
L 359.144181 368.850816 
L 370.55822 361.948032 
L 381.973255 321.575616 
L 393.386779 326.740608 
L 404.800773 323.450496 
L 416.215286 322.3296 
L 427.630127 301.093056 
L 439.044142 271.574784 
L 450.459077 229.508928 
L 461.872999 224.783424 
L 473.287474 190.894464 
L 484.701927 235.456128 
L 496.116118 223.412544 
L 507.530673 189.25344 
L 518.944856 188.80992 
L 530.359267 149.449536 
L 541.773662 152.352576 
L 553.187998 142.26048 
L 564.60225 104.424192 
L 576.016588 100.517184 
L 587.430907 108.125568 
L 598.845217 101.670336 
L 610.259518 78.401664 
L 621.673879 76.61952 
L 633.08819 79.897536 
L 644.50247 43.210368 
L 650.905336 -1 
" style="fill:none;stroke:#8b0000;stroke-linecap:round;stroke-width:1.5;"/>
   </g>
   <g id="line2d_46">
    <path clip-path="url(#p74657c12f4)" d="M -1 475.277932 
L 5.15049 474.573888 
L 16.48549 473.807808 
L 28.057165 472.449024 
L 39.357563 470.997504 
L 50.910715 470.04192 
L 62.254135 468.662976 
L 73.7139 468.038016 
L 85.120247 466.844544 
L 96.611128 466.046208 
L 108 464.223744 
L 119.414313 463.10688 
L 130.833937 462.292416 
L 142.260504 461.356992 
L 153.661629 459.86112 
L 165.089867 458.788608 
L 176.509564 457.679808 
L 187.918549 456.550848 
L 199.325825 455.5872 
L 210.757121 453.869568 
L 222.16085 452.897856 
L 233.583434 451.720512 
L 244.993109 450.845568 
L 256.407988 449.269056 
L 267.828998 448.051392 
L 279.244208 447.103872 
L 290.656694 445.918464 
L 302.071259 445.18464 
L 313.483678 443.257344 
L 324.900016 442.446912 
L 336.315838 441.672768 
L 347.728673 440.289792 
L 359.144181 438.285888 
L 370.55822 436.65696 
L 381.973255 433.79424 
L 393.386779 433.661184 
L 404.800773 432.34272 
L 416.215286 428.5728 
L 427.630127 426.121344 
L 439.044142 422.496576 
L 450.459077 422.190144 
L 461.872999 419.956416 
L 473.287474 415.634112 
L 484.701927 412.02144 
L 496.116118 410.114304 
L 507.530673 407.533824 
L 518.944856 397.60704 
L 530.359267 400.622976 
L 541.773662 396.925632 
L 553.187998 393.2928 
L 564.60225 393.744384 
L 576.016588 391.2768 
L 587.430907 387.672192 
L 598.845217 385.426368 
L 610.259518 384.095808 
L 621.673879 375.69312 
L 633.08819 371.931264 
L 644.50247 366.274368 
L 655.916812 369.637056 
L 667.331129 372.072384 
L 678.745424 361.230336 
L 690.159756 355.307328 
L 701.574062 355.799232 
L 712.98837 357.492672 
L 724.402693 354.033216 
L 735.817012 349.944768 
L 747.231316 346.848192 
L 758.645637 345.428928 
L 770.059949 341.695296 
L 781.47426 337.598784 
" style="fill:none;stroke:#00008b;stroke-linecap:round;stroke-width:1.5;"/>
   </g>
   <g id="line2d_47">
    <path clip-path="url(#p74657c12f4)" d="M -1 491.793638 
L 5.15049 491.455872 
L 16.48549 490.980096 
L 28.057165 490.657536 
L 39.357563 490.24224 
L 50.910715 488.593152 
L 62.254135 488.83104 
L 73.7139 486.698112 
L 85.120247 486.597312 
L 96.611128 485.923968 
L 108 484.936128 
L 119.414313 485.34336 
L 130.833937 484.008768 
L 142.260504 483.472512 
L 153.661629 482.484672 
L 165.089867 483.214464 
L 176.509564 482.121792 
L 187.918549 479.73888 
L 199.325825 479.226816 
L 210.757121 480.267072 
L 222.16085 477.70272 
L 233.583434 476.860032 
L 244.993109 476.722944 
L 256.407988 476.005248 
L 267.828998 477.101952 
L 279.244208 475.388352 
L 290.656694 474.896448 
L 302.071259 473.38848 
L 313.483678 473.864256 
L 324.900016 472.190976 
L 336.315838 470.368512 
L 347.728673 470.457216 
L 359.144181 469.562112 
L 370.55822 470.610432 
L 381.973255 469.199232 
L 393.386779 468.255744 
L 404.800773 465.94944 
L 416.215286 466.517952 
L 427.630127 465.090624 
L 439.044142 464.13504 
L 450.459077 461.808576 
L 461.872999 463.961664 
L 473.287474 460.635264 
L 484.701927 460.357056 
L 496.116118 459.086976 
L 507.530673 458.014464 
L 518.944856 457.163712 
L 530.359267 457.46208 
L 541.773662 454.063104 
L 553.187998 455.071104 
L 564.60225 454.583232 
L 576.016588 450.349632 
L 587.430907 450.301248 
L 598.845217 450.260928 
L 610.259518 447.676416 
L 621.673879 446.89824 
L 633.08819 441.076032 
L 644.50247 442.334016 
L 655.916812 442.890432 
L 667.331129 442.547712 
L 678.745424 439.818048 
L 690.159756 437.92704 
L 701.574062 439.503552 
L 712.98837 438.842304 
L 724.402693 434.149056 
L 735.817012 435.173184 
L 747.231316 434.838528 
L 758.645637 431.8992 
L 770.059949 431.229888 
L 781.47426 425.242368 
" style="fill:none;stroke:#006400;stroke-linecap:round;stroke-width:1.5;"/>
   </g>
   <g id="line2d_48">
    <path clip-path="url(#p74657c12f4)" d="M -1 505.928716 
L 5.15049 505.854144 
L 16.48549 505.547712 
L 28.057165 505.713024 
L 39.357563 505.56384 
L 50.910715 505.438848 
L 62.254135 505.148544 
L 73.7139 505.386432 
L 85.120247 505.338048 
L 96.611128 505.253376 
L 108 504.930816 
L 119.414313 504.963072 
L 130.833937 504.813888 
L 142.260504 504.83808 
L 153.661629 504.842112 
L 165.089867 504.588096 
L 176.509564 504.366336 
L 187.918549 504.63648 
L 199.325825 504.285696 
L 210.757121 504.176832 
L 222.16085 503.963136 
L 233.583434 504.156672 
L 244.993109 504.100224 
L 256.407988 503.741376 
L 267.828998 503.902656 
L 279.244208 503.6688 
L 290.656694 503.773632 
L 302.071259 503.531712 
L 313.483678 503.511552 
L 324.900016 503.338176 
L 336.315838 503.330112 
L 347.728673 503.241408 
L 359.144181 503.261568 
L 370.55822 503.217216 
L 381.973255 503.221248 
L 393.386779 502.898688 
L 404.800773 503.055936 
L 416.215286 502.838208 
L 427.630127 502.84224 
L 439.044142 502.443072 
L 450.459077 502.568064 
L 461.872999 502.269696 
L 473.287474 502.209216 
L 484.701927 502.07616 
L 496.116118 501.427008 
L 507.530673 501.181056 
L 518.944856 501.402816 
L 530.359267 501.543936 
L 541.773662 500.491584 
L 553.187998 500.681088 
L 564.60225 495.407232 
L 576.016588 497.084544 
L 587.430907 497.669184 
L 598.845217 497.088576 
L 610.259518 495.701568 
L 621.673879 485.214336 
L 633.08819 486.432 
L 644.50247 470.76768 
L 655.916812 476.565696 
L 667.331129 460.973952 
L 678.745424 469.937088 
L 690.159756 463.413312 
L 701.574062 455.56704 
L 712.98837 450.48672 
L 724.402693 437.789952 
L 735.817012 440.096256 
L 747.231316 430.512192 
L 758.645637 427.863168 
L 770.059949 416.932416 
L 781.47426 409.569984 
" style="fill:none;stroke:#ffa500;stroke-linecap:round;stroke-width:1.5;"/>
   </g>
   <g id="line2d_49">
    <path clip-path="url(#p74657c12f4)" d="M -1 512.089875 
L 5.15049 512.111808 
L 16.48549 511.966656 
L 28.057165 511.970688 
L 39.357563 511.966656 
L 50.910715 511.962624 
L 62.254135 511.966656 
L 73.7139 511.970688 
L 85.120247 511.966656 
L 96.611128 511.966656 
L 108 511.966656 
L 119.414313 511.966656 
L 130.833937 511.8336 
L 142.260504 511.966656 
L 153.661629 511.966656 
L 165.089867 511.966656 
L 176.509564 511.966656 
L 187.918549 511.966656 
L 199.325825 511.966656 
L 210.757121 511.966656 
L 222.16085 511.797312 
L 233.583434 511.801344 
L 244.993109 511.801344 
L 256.407988 511.797312 
L 267.828998 511.789248 
L 279.244208 511.781184 
L 290.656694 511.769088 
L 302.071259 511.765056 
L 313.483678 511.761024 
L 324.900016 511.75296 
L 336.315838 511.748928 
L 347.728673 511.744896 
L 359.144181 511.740864 
L 370.55822 511.7328 
L 381.973255 511.728768 
L 393.386779 511.724736 
L 404.800773 511.627968 
L 416.215286 511.648128 
L 427.630127 511.313472 
L 439.044142 511.301376 
L 450.459077 511.132032 
L 461.872999 511.023168 
L 473.287474 511.00704 
L 484.701927 510.837696 
L 496.116118 510.849792 
L 507.530673 510.708672 
L 518.944856 510.398208 
L 530.359267 510.289344 
L 541.773662 510.466752 
L 553.187998 508.974912 
L 564.60225 510.349824 
L 576.016588 509.128128 
L 587.430907 509.910336 
L 598.845217 508.84992 
L 610.259518 506.132352 
L 621.673879 505.05984 
L 633.08819 505.370304 
L 644.50247 504.039744 
L 655.916812 504.680832 
L 667.331129 503.213184 
L 678.745424 501.89472 
L 690.159756 502.60032 
L 701.574062 502.523712 
L 712.98837 502.249536 
L 724.402693 501.749568 
L 735.817012 500.229504 
L 747.231316 501.459264 
L 758.645637 501.241536 
L 770.059949 501.277824 
L 781.47426 500.616576 
" style="fill:none;stroke:#800080;stroke-linecap:round;stroke-width:1.5;"/>
   </g>
   <g id="line2d_50">
    <path clip-path="url(#p74657c12f4)" d="M 260.901477 512.64 
L 260.901477 311.04 
" style="fill:none;stroke:#000000;stroke-dasharray:3.7,1.6;stroke-dashoffset:0;"/>
   </g>
   <g id="line2d_51">
    <path clip-path="url(#p74657c12f4)" d="M 462.471162 512.64 
L 462.471162 311.04 
" style="fill:none;stroke:#000000;stroke-dasharray:3.7,1.6;stroke-dashoffset:0;"/>
   </g>
   <g id="line2d_52">
    <path clip-path="url(#p74657c12f4)" d="M 613.648425 512.64 
L 613.648425 311.04 
" style="fill:none;stroke:#000000;stroke-dasharray:3.7,1.6;stroke-dashoffset:0;"/>
   </g>
   <g id="patch_9">
    <path d="M 108 512.64 
L 108 311.04 
" style="fill:none;stroke:#cccccc;stroke-linecap:square;stroke-linejoin:miter;stroke-width:1.25;"/>
   </g>
   <g id="patch_10">
    <path d="M 777.6 512.64 
L 777.6 311.04 
" style="fill:none;stroke:#cccccc;stroke-linecap:square;stroke-linejoin:miter;stroke-width:1.25;"/>
   </g>
   <g id="patch_11">
    <path d="M 108 512.64 
L 777.6 512.64 
" style="fill:none;stroke:#cccccc;stroke-linecap:square;stroke-linejoin:miter;stroke-width:1.25;"/>
   </g>
   <g id="patch_12">
    <path d="M 108 311.04 
L 777.6 311.04 
" style="fill:none;stroke:#cccccc;stroke-linecap:square;stroke-linejoin:miter;stroke-width:1.25;"/>
   </g>
  </g>
  <g id="text_28">
   <!-- All implementations (initial, not optimized) -->
   <defs>
    <path d="M 9.421875 75.984375 
L 18.40625 75.984375 
L 18.40625 0 
L 9.421875 0 
z
" id="DejaVuSans-108"/>
    <path d="M 11.71875 12.40625 
L 22.015625 12.40625 
L 22.015625 4 
L 14.015625 -11.625 
L 7.71875 -11.625 
L 11.71875 4 
z
" id="DejaVuSans-44"/>
   </defs>
   <g style="fill:#262626;" transform="translate(278.033625 39.74175)scale(0.144 -0.144)">
    <use xlink:href="#DejaVuSans-65"/>
    <use x="68.408203" xlink:href="#DejaVuSans-108"/>
    <use x="96.191406" xlink:href="#DejaVuSans-108"/>
    <use x="123.974609" xlink:href="#DejaVuSans-32"/>
    <use x="155.761719" xlink:href="#DejaVuSans-105"/>
    <use x="183.544922" xlink:href="#DejaVuSans-109"/>
    <use x="280.957031" xlink:href="#DejaVuSans-112"/>
    <use x="344.433594" xlink:href="#DejaVuSans-108"/>
    <use x="372.216797" xlink:href="#DejaVuSans-101"/>
    <use x="433.740234" xlink:href="#DejaVuSans-109"/>
    <use x="531.152344" xlink:href="#DejaVuSans-101"/>
    <use x="592.675781" xlink:href="#DejaVuSans-110"/>
    <use x="656.054688" xlink:href="#DejaVuSans-116"/>
    <use x="695.263672" xlink:href="#DejaVuSans-97"/>
    <use x="756.542969" xlink:href="#DejaVuSans-116"/>
    <use x="795.751953" xlink:href="#DejaVuSans-105"/>
    <use x="823.535156" xlink:href="#DejaVuSans-111"/>
    <use x="884.716797" xlink:href="#DejaVuSans-110"/>
    <use x="948.095703" xlink:href="#DejaVuSans-115"/>
    <use x="1000.195312" xlink:href="#DejaVuSans-32"/>
    <use x="1031.982422" xlink:href="#DejaVuSans-40"/>
    <use x="1070.996094" xlink:href="#DejaVuSans-105"/>
    <use x="1098.779297" xlink:href="#DejaVuSans-110"/>
    <use x="1162.158203" xlink:href="#DejaVuSans-105"/>
    <use x="1189.941406" xlink:href="#DejaVuSans-116"/>
    <use x="1229.150391" xlink:href="#DejaVuSans-105"/>
    <use x="1256.933594" xlink:href="#DejaVuSans-97"/>
    <use x="1318.212891" xlink:href="#DejaVuSans-108"/>
    <use x="1345.996094" xlink:href="#DejaVuSans-44"/>
    <use x="1377.783203" xlink:href="#DejaVuSans-32"/>
    <use x="1409.570312" xlink:href="#DejaVuSans-110"/>
    <use x="1472.949219" xlink:href="#DejaVuSans-111"/>
    <use x="1534.130859" xlink:href="#DejaVuSans-116"/>
    <use x="1573.339844" xlink:href="#DejaVuSans-32"/>
    <use x="1605.126953" xlink:href="#DejaVuSans-111"/>
    <use x="1666.308594" xlink:href="#DejaVuSans-112"/>
    <use x="1729.785156" xlink:href="#DejaVuSans-116"/>
    <use x="1768.994141" xlink:href="#DejaVuSans-105"/>
    <use x="1796.777344" xlink:href="#DejaVuSans-109"/>
    <use x="1894.189453" xlink:href="#DejaVuSans-105"/>
    <use x="1921.972656" xlink:href="#DejaVuSans-122"/>
    <use x="1974.462891" xlink:href="#DejaVuSans-101"/>
    <use x="2035.986328" xlink:href="#DejaVuSans-100"/>
    <use x="2099.462891" xlink:href="#DejaVuSans-41"/>
   </g>
  </g>
 </g>
 <defs>
  <clipPath id="p0fad162113">
   <rect height="201.6" width="669.6" x="108" y="69.12"/>
  </clipPath>
  <clipPath id="p74657c12f4">
   <rect height="201.6" width="669.6" x="108" y="311.04"/>
  </clipPath>
 </defs>
</svg>
