<?xml version="1.0" encoding="utf-8" standalone="no"?>
<!DOCTYPE svg PUBLIC "-//W3C//DTD SVG 1.1//EN"
  "http://www.w3.org/Graphics/SVG/1.1/DTD/svg11.dtd">
<!-- Created with matplotlib (https://matplotlib.org/) -->
<svg height="576pt" version="1.1" viewBox="0 0 864 576" width="864pt" xmlns="http://www.w3.org/2000/svg" xmlns:xlink="http://www.w3.org/1999/xlink">
 <defs>
  <style type="text/css">
*{stroke-linecap:butt;stroke-linejoin:round;}
  </style>
 </defs>
 <g id="figure_1">
  <g id="patch_1">
   <path d="M 0 576 
L 864 576 
L 864 0 
L 0 0 
z
" style="fill:#ffffff;"/>
  </g>
  <g id="axes_1">
   <g id="patch_2">
    <path d="M 108 270.72 
L 777.6 270.72 
L 777.6 69.12 
L 108 69.12 
z
" style="fill:#ffffff;"/>
   </g>
   <g id="matplotlib.axis_1">
    <g id="xtick_1">
     <g id="line2d_1">
      <path clip-path="url(#pba9f13aadf)" d="M 160.116634 270.72 
L 160.116634 69.12 
" style="fill:none;stroke:#cccccc;stroke-linecap:round;"/>
     </g>
    </g>
    <g id="xtick_2">
     <g id="line2d_2">
      <path clip-path="url(#pba9f13aadf)" d="M 260.901477 270.72 
L 260.901477 69.12 
" style="fill:none;stroke:#cccccc;stroke-linecap:round;"/>
     </g>
    </g>
    <g id="xtick_3">
     <g id="line2d_3">
      <path clip-path="url(#pba9f13aadf)" d="M 361.686319 270.72 
L 361.686319 69.12 
" style="fill:none;stroke:#cccccc;stroke-linecap:round;"/>
     </g>
    </g>
    <g id="xtick_4">
     <g id="line2d_4">
      <path clip-path="url(#pba9f13aadf)" d="M 462.471162 270.72 
L 462.471162 69.12 
" style="fill:none;stroke:#cccccc;stroke-linecap:round;"/>
     </g>
    </g>
    <g id="xtick_5">
     <g id="line2d_5">
      <path clip-path="url(#pba9f13aadf)" d="M 563.256004 270.72 
L 563.256004 69.12 
" style="fill:none;stroke:#cccccc;stroke-linecap:round;"/>
     </g>
    </g>
    <g id="xtick_6">
     <g id="line2d_6">
      <path clip-path="url(#pba9f13aadf)" d="M 664.040847 270.72 
L 664.040847 69.12 
" style="fill:none;stroke:#cccccc;stroke-linecap:round;"/>
     </g>
    </g>
    <g id="xtick_7">
     <g id="line2d_7">
      <path clip-path="url(#pba9f13aadf)" d="M 764.825689 270.72 
L 764.825689 69.12 
" style="fill:none;stroke:#cccccc;stroke-linecap:round;"/>
     </g>
    </g>
   </g>
   <g id="matplotlib.axis_2">
    <g id="ytick_1">
     <g id="line2d_8">
      <path clip-path="url(#pba9f13aadf)" d="M 108 270.72 
L 777.6 270.72 
" style="fill:none;stroke:#cccccc;stroke-linecap:round;"/>
     </g>
     <g id="text_1">
      <!-- 0 -->
      <defs>
       <path d="M 31.78125 66.40625 
Q 24.171875 66.40625 20.328125 58.90625 
Q 16.5 51.421875 16.5 36.375 
Q 16.5 21.390625 20.328125 13.890625 
Q 24.171875 6.390625 31.78125 6.390625 
Q 39.453125 6.390625 43.28125 13.890625 
Q 47.125 21.390625 47.125 36.375 
Q 47.125 51.421875 43.28125 58.90625 
Q 39.453125 66.40625 31.78125 66.40625 
z
M 31.78125 74.21875 
Q 44.046875 74.21875 50.515625 64.515625 
Q 56.984375 54.828125 56.984375 36.375 
Q 56.984375 17.96875 50.515625 8.265625 
Q 44.046875 -1.421875 31.78125 -1.421875 
Q 19.53125 -1.421875 13.0625 8.265625 
Q 6.59375 17.96875 6.59375 36.375 
Q 6.59375 54.828125 13.0625 64.515625 
Q 19.53125 74.21875 31.78125 74.21875 
z
" id="DejaVuSans-48"/>
      </defs>
      <g style="fill:#262626;" transform="translate(91.50125 274.899141)scale(0.11 -0.11)">
       <use xlink:href="#DejaVuSans-48"/>
      </g>
     </g>
    </g>
    <g id="ytick_2">
     <g id="line2d_9">
      <path clip-path="url(#pba9f13aadf)" d="M 108 238.267729 
L 777.6 238.267729 
" style="fill:none;stroke:#cccccc;stroke-linecap:round;"/>
     </g>
     <g id="text_2">
      <!-- 20 -->
      <defs>
       <path d="M 19.1875 8.296875 
L 53.609375 8.296875 
L 53.609375 0 
L 7.328125 0 
L 7.328125 8.296875 
Q 12.9375 14.109375 22.625 23.890625 
Q 32.328125 33.6875 34.8125 36.53125 
Q 39.546875 41.84375 41.421875 45.53125 
Q 43.3125 49.21875 43.3125 52.78125 
Q 43.3125 58.59375 39.234375 62.25 
Q 35.15625 65.921875 28.609375 65.921875 
Q 23.96875 65.921875 18.8125 64.3125 
Q 13.671875 62.703125 7.8125 59.421875 
L 7.8125 69.390625 
Q 13.765625 71.78125 18.9375 73 
Q 24.125 74.21875 28.421875 74.21875 
Q 39.75 74.21875 46.484375 68.546875 
Q 53.21875 62.890625 53.21875 53.421875 
Q 53.21875 48.921875 51.53125 44.890625 
Q 49.859375 40.875 45.40625 35.40625 
Q 44.1875 33.984375 37.640625 27.21875 
Q 31.109375 20.453125 19.1875 8.296875 
z
" id="DejaVuSans-50"/>
      </defs>
      <g style="fill:#262626;" transform="translate(84.5025 242.446869)scale(0.11 -0.11)">
       <use xlink:href="#DejaVuSans-50"/>
       <use x="63.623047" xlink:href="#DejaVuSans-48"/>
      </g>
     </g>
    </g>
    <g id="ytick_3">
     <g id="line2d_10">
      <path clip-path="url(#pba9f13aadf)" d="M 108 205.815457 
L 777.6 205.815457 
" style="fill:none;stroke:#cccccc;stroke-linecap:round;"/>
     </g>
     <g id="text_3">
      <!-- 40 -->
      <defs>
       <path d="M 37.796875 64.3125 
L 12.890625 25.390625 
L 37.796875 25.390625 
z
M 35.203125 72.90625 
L 47.609375 72.90625 
L 47.609375 25.390625 
L 58.015625 25.390625 
L 58.015625 17.1875 
L 47.609375 17.1875 
L 47.609375 0 
L 37.796875 0 
L 37.796875 17.1875 
L 4.890625 17.1875 
L 4.890625 26.703125 
z
" id="DejaVuSans-52"/>
      </defs>
      <g style="fill:#262626;" transform="translate(84.5025 209.994598)scale(0.11 -0.11)">
       <use xlink:href="#DejaVuSans-52"/>
       <use x="63.623047" xlink:href="#DejaVuSans-48"/>
      </g>
     </g>
    </g>
    <g id="ytick_4">
     <g id="line2d_11">
      <path clip-path="url(#pba9f13aadf)" d="M 108 173.363186 
L 777.6 173.363186 
" style="fill:none;stroke:#cccccc;stroke-linecap:round;"/>
     </g>
     <g id="text_4">
      <!-- 60 -->
      <defs>
       <path d="M 33.015625 40.375 
Q 26.375 40.375 22.484375 35.828125 
Q 18.609375 31.296875 18.609375 23.390625 
Q 18.609375 15.53125 22.484375 10.953125 
Q 26.375 6.390625 33.015625 6.390625 
Q 39.65625 6.390625 43.53125 10.953125 
Q 47.40625 15.53125 47.40625 23.390625 
Q 47.40625 31.296875 43.53125 35.828125 
Q 39.65625 40.375 33.015625 40.375 
z
M 52.59375 71.296875 
L 52.59375 62.3125 
Q 48.875 64.0625 45.09375 64.984375 
Q 41.3125 65.921875 37.59375 65.921875 
Q 27.828125 65.921875 22.671875 59.328125 
Q 17.53125 52.734375 16.796875 39.40625 
Q 19.671875 43.65625 24.015625 45.921875 
Q 28.375 48.1875 33.59375 48.1875 
Q 44.578125 48.1875 50.953125 41.515625 
Q 57.328125 34.859375 57.328125 23.390625 
Q 57.328125 12.15625 50.6875 5.359375 
Q 44.046875 -1.421875 33.015625 -1.421875 
Q 20.359375 -1.421875 13.671875 8.265625 
Q 6.984375 17.96875 6.984375 36.375 
Q 6.984375 53.65625 15.1875 63.9375 
Q 23.390625 74.21875 37.203125 74.21875 
Q 40.921875 74.21875 44.703125 73.484375 
Q 48.484375 72.75 52.59375 71.296875 
z
" id="DejaVuSans-54"/>
      </defs>
      <g style="fill:#262626;" transform="translate(84.5025 177.542327)scale(0.11 -0.11)">
       <use xlink:href="#DejaVuSans-54"/>
       <use x="63.623047" xlink:href="#DejaVuSans-48"/>
      </g>
     </g>
    </g>
    <g id="ytick_5">
     <g id="line2d_12">
      <path clip-path="url(#pba9f13aadf)" d="M 108 140.910915 
L 777.6 140.910915 
" style="fill:none;stroke:#cccccc;stroke-linecap:round;"/>
     </g>
     <g id="text_5">
      <!-- 80 -->
      <defs>
       <path d="M 31.78125 34.625 
Q 24.75 34.625 20.71875 30.859375 
Q 16.703125 27.09375 16.703125 20.515625 
Q 16.703125 13.921875 20.71875 10.15625 
Q 24.75 6.390625 31.78125 6.390625 
Q 38.8125 6.390625 42.859375 10.171875 
Q 46.921875 13.96875 46.921875 20.515625 
Q 46.921875 27.09375 42.890625 30.859375 
Q 38.875 34.625 31.78125 34.625 
z
M 21.921875 38.8125 
Q 15.578125 40.375 12.03125 44.71875 
Q 8.5 49.078125 8.5 55.328125 
Q 8.5 64.0625 14.71875 69.140625 
Q 20.953125 74.21875 31.78125 74.21875 
Q 42.671875 74.21875 48.875 69.140625 
Q 55.078125 64.0625 55.078125 55.328125 
Q 55.078125 49.078125 51.53125 44.71875 
Q 48 40.375 41.703125 38.8125 
Q 48.828125 37.15625 52.796875 32.3125 
Q 56.78125 27.484375 56.78125 20.515625 
Q 56.78125 9.90625 50.3125 4.234375 
Q 43.84375 -1.421875 31.78125 -1.421875 
Q 19.734375 -1.421875 13.25 4.234375 
Q 6.78125 9.90625 6.78125 20.515625 
Q 6.78125 27.484375 10.78125 32.3125 
Q 14.796875 37.15625 21.921875 38.8125 
z
M 18.3125 54.390625 
Q 18.3125 48.734375 21.84375 45.5625 
Q 25.390625 42.390625 31.78125 42.390625 
Q 38.140625 42.390625 41.71875 45.5625 
Q 45.3125 48.734375 45.3125 54.390625 
Q 45.3125 60.0625 41.71875 63.234375 
Q 38.140625 66.40625 31.78125 66.40625 
Q 25.390625 66.40625 21.84375 63.234375 
Q 18.3125 60.0625 18.3125 54.390625 
z
" id="DejaVuSans-56"/>
      </defs>
      <g style="fill:#262626;" transform="translate(84.5025 145.090055)scale(0.11 -0.11)">
       <use xlink:href="#DejaVuSans-56"/>
       <use x="63.623047" xlink:href="#DejaVuSans-48"/>
      </g>
     </g>
    </g>
    <g id="ytick_6">
     <g id="line2d_13">
      <path clip-path="url(#pba9f13aadf)" d="M 108 108.458643 
L 777.6 108.458643 
" style="fill:none;stroke:#cccccc;stroke-linecap:round;"/>
     </g>
     <g id="text_6">
      <!-- 100 -->
      <defs>
       <path d="M 12.40625 8.296875 
L 28.515625 8.296875 
L 28.515625 63.921875 
L 10.984375 60.40625 
L 10.984375 69.390625 
L 28.421875 72.90625 
L 38.28125 72.90625 
L 38.28125 8.296875 
L 54.390625 8.296875 
L 54.390625 0 
L 12.40625 0 
z
" id="DejaVuSans-49"/>
      </defs>
      <g style="fill:#262626;" transform="translate(77.50375 112.637784)scale(0.11 -0.11)">
       <use xlink:href="#DejaVuSans-49"/>
       <use x="63.623047" xlink:href="#DejaVuSans-48"/>
       <use x="127.246094" xlink:href="#DejaVuSans-48"/>
      </g>
     </g>
    </g>
    <g id="ytick_7">
     <g id="line2d_14">
      <path clip-path="url(#pba9f13aadf)" d="M 108 76.006372 
L 777.6 76.006372 
" style="fill:none;stroke:#cccccc;stroke-linecap:round;"/>
     </g>
     <g id="text_7">
      <!-- 120 -->
      <g style="fill:#262626;" transform="translate(77.50375 80.185513)scale(0.11 -0.11)">
       <use xlink:href="#DejaVuSans-49"/>
       <use x="63.623047" xlink:href="#DejaVuSans-50"/>
       <use x="127.246094" xlink:href="#DejaVuSans-48"/>
      </g>
     </g>
    </g>
    <g id="text_8">
     <!-- Update -->
     <defs>
      <path d="M 8.6875 72.90625 
L 18.609375 72.90625 
L 18.609375 28.609375 
Q 18.609375 16.890625 22.84375 11.734375 
Q 27.09375 6.59375 36.625 6.59375 
Q 46.09375 6.59375 50.34375 11.734375 
Q 54.59375 16.890625 54.59375 28.609375 
L 54.59375 72.90625 
L 64.5 72.90625 
L 64.5 27.390625 
Q 64.5 13.140625 57.4375 5.859375 
Q 50.390625 -1.421875 36.625 -1.421875 
Q 22.796875 -1.421875 15.734375 5.859375 
Q 8.6875 13.140625 8.6875 27.390625 
z
" id="DejaVuSans-85"/>
      <path d="M 18.109375 8.203125 
L 18.109375 -20.796875 
L 9.078125 -20.796875 
L 9.078125 54.6875 
L 18.109375 54.6875 
L 18.109375 46.390625 
Q 20.953125 51.265625 25.265625 53.625 
Q 29.59375 56 35.59375 56 
Q 45.5625 56 51.78125 48.09375 
Q 58.015625 40.1875 58.015625 27.296875 
Q 58.015625 14.40625 51.78125 6.484375 
Q 45.5625 -1.421875 35.59375 -1.421875 
Q 29.59375 -1.421875 25.265625 0.953125 
Q 20.953125 3.328125 18.109375 8.203125 
z
M 48.6875 27.296875 
Q 48.6875 37.203125 44.609375 42.84375 
Q 40.53125 48.484375 33.40625 48.484375 
Q 26.265625 48.484375 22.1875 42.84375 
Q 18.109375 37.203125 18.109375 27.296875 
Q 18.109375 17.390625 22.1875 11.75 
Q 26.265625 6.109375 33.40625 6.109375 
Q 40.53125 6.109375 44.609375 11.75 
Q 48.6875 17.390625 48.6875 27.296875 
z
" id="DejaVuSans-112"/>
      <path d="M 45.40625 46.390625 
L 45.40625 75.984375 
L 54.390625 75.984375 
L 54.390625 0 
L 45.40625 0 
L 45.40625 8.203125 
Q 42.578125 3.328125 38.25 0.953125 
Q 33.9375 -1.421875 27.875 -1.421875 
Q 17.96875 -1.421875 11.734375 6.484375 
Q 5.515625 14.40625 5.515625 27.296875 
Q 5.515625 40.1875 11.734375 48.09375 
Q 17.96875 56 27.875 56 
Q 33.9375 56 38.25 53.625 
Q 42.578125 51.265625 45.40625 46.390625 
z
M 14.796875 27.296875 
Q 14.796875 17.390625 18.875 11.75 
Q 22.953125 6.109375 30.078125 6.109375 
Q 37.203125 6.109375 41.296875 11.75 
Q 45.40625 17.390625 45.40625 27.296875 
Q 45.40625 37.203125 41.296875 42.84375 
Q 37.203125 48.484375 30.078125 48.484375 
Q 22.953125 48.484375 18.875 42.84375 
Q 14.796875 37.203125 14.796875 27.296875 
z
" id="DejaVuSans-100"/>
      <path d="M 34.28125 27.484375 
Q 23.390625 27.484375 19.1875 25 
Q 14.984375 22.515625 14.984375 16.5 
Q 14.984375 11.71875 18.140625 8.90625 
Q 21.296875 6.109375 26.703125 6.109375 
Q 34.1875 6.109375 38.703125 11.40625 
Q 43.21875 16.703125 43.21875 25.484375 
L 43.21875 27.484375 
z
M 52.203125 31.203125 
L 52.203125 0 
L 43.21875 0 
L 43.21875 8.296875 
Q 40.140625 3.328125 35.546875 0.953125 
Q 30.953125 -1.421875 24.3125 -1.421875 
Q 15.921875 -1.421875 10.953125 3.296875 
Q 6 8.015625 6 15.921875 
Q 6 25.140625 12.171875 29.828125 
Q 18.359375 34.515625 30.609375 34.515625 
L 43.21875 34.515625 
L 43.21875 35.40625 
Q 43.21875 41.609375 39.140625 45 
Q 35.0625 48.390625 27.6875 48.390625 
Q 23 48.390625 18.546875 47.265625 
Q 14.109375 46.140625 10.015625 43.890625 
L 10.015625 52.203125 
Q 14.9375 54.109375 19.578125 55.046875 
Q 24.21875 56 28.609375 56 
Q 40.484375 56 46.34375 49.84375 
Q 52.203125 43.703125 52.203125 31.203125 
z
" id="DejaVuSans-97"/>
      <path d="M 18.3125 70.21875 
L 18.3125 54.6875 
L 36.8125 54.6875 
L 36.8125 47.703125 
L 18.3125 47.703125 
L 18.3125 18.015625 
Q 18.3125 11.328125 20.140625 9.421875 
Q 21.96875 7.515625 27.59375 7.515625 
L 36.8125 7.515625 
L 36.8125 0 
L 27.59375 0 
Q 17.1875 0 13.234375 3.875 
Q 9.28125 7.765625 9.28125 18.015625 
L 9.28125 47.703125 
L 2.6875 47.703125 
L 2.6875 54.6875 
L 9.28125 54.6875 
L 9.28125 70.21875 
z
" id="DejaVuSans-116"/>
      <path d="M 56.203125 29.59375 
L 56.203125 25.203125 
L 14.890625 25.203125 
Q 15.484375 15.921875 20.484375 11.0625 
Q 25.484375 6.203125 34.421875 6.203125 
Q 39.59375 6.203125 44.453125 7.46875 
Q 49.3125 8.734375 54.109375 11.28125 
L 54.109375 2.78125 
Q 49.265625 0.734375 44.1875 -0.34375 
Q 39.109375 -1.421875 33.890625 -1.421875 
Q 20.796875 -1.421875 13.15625 6.1875 
Q 5.515625 13.8125 5.515625 26.8125 
Q 5.515625 40.234375 12.765625 48.109375 
Q 20.015625 56 32.328125 56 
Q 43.359375 56 49.78125 48.890625 
Q 56.203125 41.796875 56.203125 29.59375 
z
M 47.21875 32.234375 
Q 47.125 39.59375 43.09375 43.984375 
Q 39.0625 48.390625 32.421875 48.390625 
Q 24.90625 48.390625 20.390625 44.140625 
Q 15.875 39.890625 15.1875 32.171875 
z
" id="DejaVuSans-101"/>
     </defs>
     <g style="fill:#262626;" transform="translate(71.008125 191.650312)rotate(-90)scale(0.12 -0.12)">
      <use xlink:href="#DejaVuSans-85"/>
      <use x="73.193359" xlink:href="#DejaVuSans-112"/>
      <use x="136.669922" xlink:href="#DejaVuSans-100"/>
      <use x="200.146484" xlink:href="#DejaVuSans-97"/>
      <use x="261.425781" xlink:href="#DejaVuSans-116"/>
      <use x="300.634766" xlink:href="#DejaVuSans-101"/>
     </g>
    </g>
   </g>
   <g id="line2d_15">
    <path clip-path="url(#pba9f13aadf)" d="M -1 261.876756 
L 5.15049 261.876756 
L 16.48549 261.763173 
L 28.057165 261.746947 
L 39.357563 261.779399 
L 50.910715 261.828078 
L 62.254135 261.844304 
L 73.7139 259.21567 
L 85.120247 259.231896 
L 96.611128 259.264348 
L 108 259.231896 
L 119.414313 259.264348 
L 130.833937 259.231896 
L 142.260504 259.264348 
L 153.661629 259.264348 
L 165.089867 259.280574 
L 176.509564 259.248122 
L 187.918549 259.248122 
L 199.325825 259.231896 
L 210.757121 259.280574 
L 222.16085 256.473453 
L 233.583434 256.376096 
L 244.993109 256.424774 
L 256.407988 256.376096 
L 267.828998 256.246287 
L 279.244208 256.181382 
L 290.656694 256.100252 
L 302.071259 256.019121 
L 313.483678 255.889312 
L 324.900016 255.824407 
L 336.315838 255.791955 
L 347.728673 255.727051 
L 359.144181 255.564789 
L 370.55822 252.254658 
L 381.973255 251.946361 
L 393.386779 251.946361 
L 404.800773 251.459577 
L 416.215286 251.281089 
L 427.630127 249.479988 
L 439.044142 248.620003 
L 450.459077 246.932485 
L 461.872999 245.65062 
L 473.287474 242.486524 
L 484.701927 241.642765 
L 496.116118 240.928815 
L 507.530673 241.610313 
L 518.944856 231.663691 
L 530.359267 219.964648 
L 541.773662 215.080581 
L 553.187998 214.058334 
L 564.60225 211.478379 
L 576.016588 209.450112 
L 587.430907 201.937411 
L 598.845217 193.077941 
L 610.259518 178.798941 
L 621.673879 177.014067 
L 633.08819 167.018767 
L 644.50247 162.459223 
L 655.916812 149.137565 
L 667.331129 141.965613 
L 678.745424 144.999901 
L 690.159756 142.452398 
L 701.574062 129.877142 
L 712.98837 132.538229 
L 724.402693 119.687129 
L 735.817012 123.857246 
L 747.231316 123.354236 
L 758.645637 118.080742 
L 770.059949 103.493446 
L 781.47426 102.893079 
" style="fill:none;stroke:#8b0000;stroke-linecap:round;stroke-width:1.5;"/>
   </g>
   <g id="line2d_16">
    <path clip-path="url(#pba9f13aadf)" d="M -1 262.364967 
L 5.15049 262.347314 
L 16.48549 259.994524 
L 28.057165 260.043203 
L 39.357563 260.075655 
L 50.910715 260.026977 
L 62.254135 259.994524 
L 73.7139 260.059429 
L 85.120247 260.075655 
L 96.611128 260.075655 
L 108 260.043203 
L 119.414313 260.059429 
L 130.833937 259.588871 
L 142.260504 260.091881 
L 153.661629 260.043203 
L 165.089867 260.075655 
L 176.509564 260.108107 
L 187.918549 260.108107 
L 199.325825 260.091881 
L 210.757121 260.075655 
L 222.16085 256.749297 
L 233.583434 256.733071 
L 244.993109 256.733071 
L 256.407988 256.619488 
L 267.828998 256.57081 
L 279.244208 256.457227 
L 290.656694 256.473453 
L 302.071259 256.424774 
L 313.483678 256.392322 
L 324.900016 256.392322 
L 336.315838 256.35987 
L 347.728673 256.311192 
L 359.144181 256.246287 
L 370.55822 256.230061 
L 381.973255 256.197609 
L 393.386779 256.14893 
L 404.800773 255.548563 
L 416.215286 255.516111 
L 427.630127 250.307521 
L 439.044142 248.912074 
L 450.459077 248.00341 
L 461.872999 248.327933 
L 473.287474 245.034027 
L 484.701927 242.129549 
L 496.116118 241.691443 
L 507.530673 239.403558 
L 518.944856 235.850034 
L 530.359267 229.878817 
L 541.773662 231.971988 
L 553.187998 227.915454 
L 564.60225 229.846364 
L 576.016588 223.388362 
L 587.430907 216.93036 
L 598.845217 209.661051 
L 610.259518 192.526252 
L 621.673879 181.476254 
L 633.08819 173.687709 
L 644.50247 162.004891 
L 655.916812 169.874567 
L 667.331129 156.34197 
L 678.745424 147.644761 
L 690.159756 141.787126 
L 701.574062 145.713851 
L 712.98837 148.358711 
L 724.402693 146.0546 
L 735.817012 134.712531 
L 747.231316 140.034703 
L 758.645637 135.815908 
L 770.059949 134.306877 
L 781.47426 129.422811 
" style="fill:none;stroke:#00008b;stroke-linecap:round;stroke-width:1.5;"/>
   </g>
   <g id="line2d_17">
    <path clip-path="url(#pba9f13aadf)" d="M -1 258.842469 
L 5.15049 258.842469 
L 16.48549 258.842469 
L 28.057165 258.810016 
L 39.357563 258.891147 
L 50.910715 258.79379 
L 62.254135 258.858695 
L 73.7139 258.745112 
L 85.120247 258.777564 
L 96.611128 258.858695 
L 108 258.71266 
L 119.414313 252.968608 
L 130.833937 252.984834 
L 142.260504 252.984834 
L 153.661629 253.033512 
L 165.089867 252.968608 
L 176.509564 252.838798 
L 187.918549 252.887477 
L 199.325825 252.968608 
L 210.757121 252.936155 
L 222.16085 252.871251 
L 233.583434 252.822572 
L 244.993109 252.433145 
L 256.407988 252.416919 
L 267.828998 251.913909 
L 279.244208 251.832778 
L 290.656694 251.702969 
L 302.071259 251.654291 
L 313.483678 251.475803 
L 324.900016 251.086376 
L 336.315838 250.907888 
L 347.728673 250.972793 
L 359.144181 250.875436 
L 370.55822 247.046068 
L 381.973255 246.948711 
L 393.386779 245.812882 
L 404.800773 246.57551 
L 416.215286 245.439681 
L 427.630127 245.472133 
L 439.044142 244.563469 
L 450.459077 243.346509 
L 461.872999 241.57786 
L 473.287474 241.756348 
L 484.701927 240.3609 
L 496.116118 238.657156 
L 507.530673 238.024337 
L 518.944856 238.365085 
L 530.359267 233.43234 
L 541.773662 228.548273 
L 553.187998 228.953927 
L 564.60225 231.258038 
L 576.016588 230.982194 
L 587.430907 229.310902 
L 598.845217 218.926175 
L 610.259518 210.699524 
L 621.673879 184.721481 
L 633.08819 171.221336 
L 644.50247 164.828239 
L 655.916812 161.096227 
L 667.331129 133.349535 
L 678.745424 124.473839 
L 690.159756 136.643441 
L 701.574062 138.022663 
L 712.98837 118.34036 
L 724.402693 130.720901 
L 735.817012 126.664368 
L 747.231316 124.197995 
L 758.645637 106.219437 
L 770.059949 106.12208 
L 781.47426 104.564371 
" style="fill:none;stroke:#006400;stroke-linecap:round;stroke-width:1.5;"/>
   </g>
   <g id="line2d_18">
    <path clip-path="url(#pba9f13aadf)" d="M -1 249.917829 
L 5.15049 249.820737 
L 16.48549 249.999225 
L 28.057165 250.015451 
L 39.357563 249.739607 
L 50.910715 249.982999 
L 62.254135 250.015451 
L 73.7139 249.93432 
L 85.120247 249.966772 
L 96.611128 249.982999 
L 108 249.966772 
L 119.414313 249.966772 
L 130.833937 249.950546 
L 142.260504 249.918094 
L 153.661629 249.918094 
L 165.089867 249.804511 
L 176.509564 249.690928 
L 187.918549 249.561119 
L 199.325825 249.204144 
L 210.757121 249.025657 
L 222.16085 241.902383 
L 233.583434 241.269564 
L 244.993109 240.766554 
L 256.407988 240.263543 
L 267.828998 239.792985 
L 279.244208 239.176392 
L 290.656694 239.176392 
L 302.071259 238.916774 
L 313.483678 238.673382 
L 324.900016 238.494895 
L 336.315838 238.251503 
L 347.728673 238.089241 
L 359.144181 237.845849 
L 370.55822 237.732266 
L 381.973255 237.148125 
L 393.386779 237.196804 
L 404.800773 236.612663 
L 416.215286 235.736451 
L 427.630127 234.957597 
L 439.044142 232.848199 
L 450.459077 232.653486 
L 461.872999 228.386012 
L 473.287474 227.396218 
L 484.701927 228.126394 
L 496.116118 224.556644 
L 507.530673 219.49409 
L 518.944856 210.310097 
L 530.359267 206.35092 
L 541.773662 207.373166 
L 553.187998 205.344899 
L 564.60225 203.040788 
L 576.016588 199.941596 
L 587.430907 198.627279 
L 598.845217 183.358486 
L 610.259518 170.91304 
L 621.673879 154.638225 
L 633.08819 141.105628 
L 644.50247 133.106143 
L 655.916812 132.732942 
L 667.331129 122.429346 
L 678.745424 118.421491 
L 690.159756 107.955633 
L 701.574062 96.613564 
L 712.98837 104.434562 
L 724.402693 96.62979 
L 735.817012 92.232508 
L 747.231316 78.61878 
L 758.645637 82.074947 
L 770.059949 81.26364 
L 781.47426 78.764815 
" style="fill:none;stroke:#800080;stroke-linecap:round;stroke-width:1.5;"/>
   </g>
   <g id="line2d_19">
    <path clip-path="url(#pba9f13aadf)" d="M 260.901477 270.72 
L 260.901477 69.12 
" style="fill:none;stroke:#000000;stroke-dasharray:3.7,1.6;stroke-dashoffset:0;"/>
   </g>
   <g id="line2d_20">
    <path clip-path="url(#pba9f13aadf)" d="M 462.471162 270.72 
L 462.471162 69.12 
" style="fill:none;stroke:#000000;stroke-dasharray:3.7,1.6;stroke-dashoffset:0;"/>
   </g>
   <g id="line2d_21">
    <path clip-path="url(#pba9f13aadf)" d="M 613.648425 270.72 
L 613.648425 69.12 
" style="fill:none;stroke:#000000;stroke-dasharray:3.7,1.6;stroke-dashoffset:0;"/>
   </g>
   <g id="patch_3">
    <path d="M 108 270.72 
L 108 69.12 
" style="fill:none;stroke:#cccccc;stroke-linecap:square;stroke-linejoin:miter;stroke-width:1.25;"/>
   </g>
   <g id="patch_4">
    <path d="M 777.6 270.72 
L 777.6 69.12 
" style="fill:none;stroke:#cccccc;stroke-linecap:square;stroke-linejoin:miter;stroke-width:1.25;"/>
   </g>
   <g id="patch_5">
    <path d="M 108 270.72 
L 777.6 270.72 
" style="fill:none;stroke:#cccccc;stroke-linecap:square;stroke-linejoin:miter;stroke-width:1.25;"/>
   </g>
   <g id="patch_6">
    <path d="M 108 69.12 
L 777.6 69.12 
" style="fill:none;stroke:#cccccc;stroke-linecap:square;stroke-linejoin:miter;stroke-width:1.25;"/>
   </g>
   <g id="legend_1">
    <g id="patch_7">
     <path d="M 115.7 142.50375 
L 188.654063 142.50375 
Q 190.854062 142.50375 190.854062 140.30375 
L 190.854062 76.82 
Q 190.854062 74.62 188.654063 74.62 
L 115.7 74.62 
Q 113.5 74.62 113.5 76.82 
L 113.5 140.30375 
Q 113.5 142.50375 115.7 142.50375 
z
" style="fill:#ffffff;opacity:0.8;stroke:#cccccc;stroke-linejoin:miter;"/>
    </g>
    <g id="line2d_22">
     <path d="M 117.9 83.528281 
L 139.9 83.528281 
" style="fill:none;stroke:#8b0000;stroke-linecap:round;stroke-width:1.5;"/>
    </g>
    <g id="line2d_23"/>
    <g id="text_9">
     <!-- B = 8 -->
     <defs>
      <path d="M 19.671875 34.8125 
L 19.671875 8.109375 
L 35.5 8.109375 
Q 43.453125 8.109375 47.28125 11.40625 
Q 51.125 14.703125 51.125 21.484375 
Q 51.125 28.328125 47.28125 31.5625 
Q 43.453125 34.8125 35.5 34.8125 
z
M 19.671875 64.796875 
L 19.671875 42.828125 
L 34.28125 42.828125 
Q 41.5 42.828125 45.03125 45.53125 
Q 48.578125 48.25 48.578125 53.8125 
Q 48.578125 59.328125 45.03125 62.0625 
Q 41.5 64.796875 34.28125 64.796875 
z
M 9.8125 72.90625 
L 35.015625 72.90625 
Q 46.296875 72.90625 52.390625 68.21875 
Q 58.5 63.53125 58.5 54.890625 
Q 58.5 48.1875 55.375 44.234375 
Q 52.25 40.28125 46.1875 39.3125 
Q 53.46875 37.75 57.5 32.78125 
Q 61.53125 27.828125 61.53125 20.40625 
Q 61.53125 10.640625 54.890625 5.3125 
Q 48.25 0 35.984375 0 
L 9.8125 0 
z
" id="DejaVuSans-66"/>
      <path id="DejaVuSans-32"/>
      <path d="M 10.59375 45.40625 
L 73.1875 45.40625 
L 73.1875 37.203125 
L 10.59375 37.203125 
z
M 10.59375 25.484375 
L 73.1875 25.484375 
L 73.1875 17.1875 
L 10.59375 17.1875 
z
" id="DejaVuSans-61"/>
     </defs>
     <g style="fill:#262626;" transform="translate(148.7 87.378281)scale(0.11 -0.11)">
      <use xlink:href="#DejaVuSans-66"/>
      <use x="68.603516" xlink:href="#DejaVuSans-32"/>
      <use x="100.390625" xlink:href="#DejaVuSans-61"/>
      <use x="184.179688" xlink:href="#DejaVuSans-32"/>
      <use x="215.966797" xlink:href="#DejaVuSans-56"/>
     </g>
    </g>
    <g id="line2d_24">
     <path d="M 117.9 99.674219 
L 139.9 99.674219 
" style="fill:none;stroke:#00008b;stroke-linecap:round;stroke-width:1.5;"/>
    </g>
    <g id="line2d_25"/>
    <g id="text_10">
     <!-- B = 16 -->
     <g style="fill:#262626;" transform="translate(148.7 103.524219)scale(0.11 -0.11)">
      <use xlink:href="#DejaVuSans-66"/>
      <use x="68.603516" xlink:href="#DejaVuSans-32"/>
      <use x="100.390625" xlink:href="#DejaVuSans-61"/>
      <use x="184.179688" xlink:href="#DejaVuSans-32"/>
      <use x="215.966797" xlink:href="#DejaVuSans-49"/>
      <use x="279.589844" xlink:href="#DejaVuSans-54"/>
     </g>
    </g>
    <g id="line2d_26">
     <path d="M 117.9 115.820156 
L 139.9 115.820156 
" style="fill:none;stroke:#006400;stroke-linecap:round;stroke-width:1.5;"/>
    </g>
    <g id="line2d_27"/>
    <g id="text_11">
     <!-- B = 32 -->
     <defs>
      <path d="M 40.578125 39.3125 
Q 47.65625 37.796875 51.625 33 
Q 55.609375 28.21875 55.609375 21.1875 
Q 55.609375 10.40625 48.1875 4.484375 
Q 40.765625 -1.421875 27.09375 -1.421875 
Q 22.515625 -1.421875 17.65625 -0.515625 
Q 12.796875 0.390625 7.625 2.203125 
L 7.625 11.71875 
Q 11.71875 9.328125 16.59375 8.109375 
Q 21.484375 6.890625 26.8125 6.890625 
Q 36.078125 6.890625 40.9375 10.546875 
Q 45.796875 14.203125 45.796875 21.1875 
Q 45.796875 27.640625 41.28125 31.265625 
Q 36.765625 34.90625 28.71875 34.90625 
L 20.21875 34.90625 
L 20.21875 43.015625 
L 29.109375 43.015625 
Q 36.375 43.015625 40.234375 45.921875 
Q 44.09375 48.828125 44.09375 54.296875 
Q 44.09375 59.90625 40.109375 62.90625 
Q 36.140625 65.921875 28.71875 65.921875 
Q 24.65625 65.921875 20.015625 65.03125 
Q 15.375 64.15625 9.8125 62.3125 
L 9.8125 71.09375 
Q 15.4375 72.65625 20.34375 73.4375 
Q 25.25 74.21875 29.59375 74.21875 
Q 40.828125 74.21875 47.359375 69.109375 
Q 53.90625 64.015625 53.90625 55.328125 
Q 53.90625 49.265625 50.4375 45.09375 
Q 46.96875 40.921875 40.578125 39.3125 
z
" id="DejaVuSans-51"/>
     </defs>
     <g style="fill:#262626;" transform="translate(148.7 119.670156)scale(0.11 -0.11)">
      <use xlink:href="#DejaVuSans-66"/>
      <use x="68.603516" xlink:href="#DejaVuSans-32"/>
      <use x="100.390625" xlink:href="#DejaVuSans-61"/>
      <use x="184.179688" xlink:href="#DejaVuSans-32"/>
      <use x="215.966797" xlink:href="#DejaVuSans-51"/>
      <use x="279.589844" xlink:href="#DejaVuSans-50"/>
     </g>
    </g>
    <g id="line2d_28">
     <path d="M 117.9 131.966094 
L 139.9 131.966094 
" style="fill:none;stroke:#800080;stroke-linecap:round;stroke-width:1.5;"/>
    </g>
    <g id="line2d_29"/>
    <g id="text_12">
     <!-- B = 64 -->
     <g style="fill:#262626;" transform="translate(148.7 135.816094)scale(0.11 -0.11)">
      <use xlink:href="#DejaVuSans-66"/>
      <use x="68.603516" xlink:href="#DejaVuSans-32"/>
      <use x="100.390625" xlink:href="#DejaVuSans-61"/>
      <use x="184.179688" xlink:href="#DejaVuSans-32"/>
      <use x="215.966797" xlink:href="#DejaVuSans-54"/>
      <use x="279.589844" xlink:href="#DejaVuSans-52"/>
     </g>
    </g>
   </g>
  </g>
  <g id="axes_2">
   <g id="patch_8">
    <path d="M 108 512.64 
L 777.6 512.64 
L 777.6 311.04 
L 108 311.04 
z
" style="fill:#ffffff;"/>
   </g>
   <g id="matplotlib.axis_3">
    <g id="xtick_8">
     <g id="line2d_30">
      <path clip-path="url(#ped9063fbcf)" d="M 160.116634 512.64 
L 160.116634 311.04 
" style="fill:none;stroke:#cccccc;stroke-linecap:round;"/>
     </g>
     <g id="text_13">
      <!-- $\mathdefault{2^{11}}$ -->
      <g style="fill:#262626;" transform="translate(151.481634 530.498281)scale(0.11 -0.11)">
       <use transform="translate(0 0.684375)" xlink:href="#DejaVuSans-50"/>
       <use transform="translate(64.580078 38.965625)scale(0.7)" xlink:href="#DejaVuSans-49"/>
       <use transform="translate(109.116211 38.965625)scale(0.7)" xlink:href="#DejaVuSans-49"/>
      </g>
     </g>
    </g>
    <g id="xtick_9">
     <g id="line2d_31">
      <path clip-path="url(#ped9063fbcf)" d="M 260.901477 512.64 
L 260.901477 311.04 
" style="fill:none;stroke:#cccccc;stroke-linecap:round;"/>
     </g>
     <g id="text_14">
      <!-- $\mathdefault{2^{13}}$ -->
      <g style="fill:#262626;" transform="translate(252.266477 530.498281)scale(0.11 -0.11)">
       <use transform="translate(0 0.765625)" xlink:href="#DejaVuSans-50"/>
       <use transform="translate(64.580078 39.046875)scale(0.7)" xlink:href="#DejaVuSans-49"/>
       <use transform="translate(109.116211 39.046875)scale(0.7)" xlink:href="#DejaVuSans-51"/>
      </g>
     </g>
    </g>
    <g id="xtick_10">
     <g id="line2d_32">
      <path clip-path="url(#ped9063fbcf)" d="M 361.686319 512.64 
L 361.686319 311.04 
" style="fill:none;stroke:#cccccc;stroke-linecap:round;"/>
     </g>
     <g id="text_15">
      <!-- $\mathdefault{2^{15}}$ -->
      <defs>
       <path d="M 10.796875 72.90625 
L 49.515625 72.90625 
L 49.515625 64.59375 
L 19.828125 64.59375 
L 19.828125 46.734375 
Q 21.96875 47.46875 24.109375 47.828125 
Q 26.265625 48.1875 28.421875 48.1875 
Q 40.625 48.1875 47.75 41.5 
Q 54.890625 34.8125 54.890625 23.390625 
Q 54.890625 11.625 47.5625 5.09375 
Q 40.234375 -1.421875 26.90625 -1.421875 
Q 22.3125 -1.421875 17.546875 -0.640625 
Q 12.796875 0.140625 7.71875 1.703125 
L 7.71875 11.625 
Q 12.109375 9.234375 16.796875 8.0625 
Q 21.484375 6.890625 26.703125 6.890625 
Q 35.15625 6.890625 40.078125 11.328125 
Q 45.015625 15.765625 45.015625 23.390625 
Q 45.015625 31 40.078125 35.4375 
Q 35.15625 39.890625 26.703125 39.890625 
Q 22.75 39.890625 18.8125 39.015625 
Q 14.890625 38.140625 10.796875 36.28125 
z
" id="DejaVuSans-53"/>
      </defs>
      <g style="fill:#262626;" transform="translate(353.051319 530.498281)scale(0.11 -0.11)">
       <use transform="translate(0 0.684375)" xlink:href="#DejaVuSans-50"/>
       <use transform="translate(64.580078 38.965625)scale(0.7)" xlink:href="#DejaVuSans-49"/>
       <use transform="translate(109.116211 38.965625)scale(0.7)" xlink:href="#DejaVuSans-53"/>
      </g>
     </g>
    </g>
    <g id="xtick_11">
     <g id="line2d_33">
      <path clip-path="url(#ped9063fbcf)" d="M 462.471162 512.64 
L 462.471162 311.04 
" style="fill:none;stroke:#cccccc;stroke-linecap:round;"/>
     </g>
     <g id="text_16">
      <!-- $\mathdefault{2^{17}}$ -->
      <defs>
       <path d="M 8.203125 72.90625 
L 55.078125 72.90625 
L 55.078125 68.703125 
L 28.609375 0 
L 18.3125 0 
L 43.21875 64.59375 
L 8.203125 64.59375 
z
" id="DejaVuSans-55"/>
      </defs>
      <g style="fill:#262626;" transform="translate(453.836162 530.498281)scale(0.11 -0.11)">
       <use transform="translate(0 0.684375)" xlink:href="#DejaVuSans-50"/>
       <use transform="translate(64.580078 38.965625)scale(0.7)" xlink:href="#DejaVuSans-49"/>
       <use transform="translate(109.116211 38.965625)scale(0.7)" xlink:href="#DejaVuSans-55"/>
      </g>
     </g>
    </g>
    <g id="xtick_12">
     <g id="line2d_34">
      <path clip-path="url(#ped9063fbcf)" d="M 563.256004 512.64 
L 563.256004 311.04 
" style="fill:none;stroke:#cccccc;stroke-linecap:round;"/>
     </g>
     <g id="text_17">
      <!-- $\mathdefault{2^{19}}$ -->
      <defs>
       <path d="M 10.984375 1.515625 
L 10.984375 10.5 
Q 14.703125 8.734375 18.5 7.8125 
Q 22.3125 6.890625 25.984375 6.890625 
Q 35.75 6.890625 40.890625 13.453125 
Q 46.046875 20.015625 46.78125 33.40625 
Q 43.953125 29.203125 39.59375 26.953125 
Q 35.25 24.703125 29.984375 24.703125 
Q 19.046875 24.703125 12.671875 31.3125 
Q 6.296875 37.9375 6.296875 49.421875 
Q 6.296875 60.640625 12.9375 67.421875 
Q 19.578125 74.21875 30.609375 74.21875 
Q 43.265625 74.21875 49.921875 64.515625 
Q 56.59375 54.828125 56.59375 36.375 
Q 56.59375 19.140625 48.40625 8.859375 
Q 40.234375 -1.421875 26.421875 -1.421875 
Q 22.703125 -1.421875 18.890625 -0.6875 
Q 15.09375 0.046875 10.984375 1.515625 
z
M 30.609375 32.421875 
Q 37.25 32.421875 41.125 36.953125 
Q 45.015625 41.5 45.015625 49.421875 
Q 45.015625 57.28125 41.125 61.84375 
Q 37.25 66.40625 30.609375 66.40625 
Q 23.96875 66.40625 20.09375 61.84375 
Q 16.21875 57.28125 16.21875 49.421875 
Q 16.21875 41.5 20.09375 36.953125 
Q 23.96875 32.421875 30.609375 32.421875 
z
" id="DejaVuSans-57"/>
      </defs>
      <g style="fill:#262626;" transform="translate(554.621004 530.498281)scale(0.11 -0.11)">
       <use transform="translate(0 0.765625)" xlink:href="#DejaVuSans-50"/>
       <use transform="translate(64.580078 39.046875)scale(0.7)" xlink:href="#DejaVuSans-49"/>
       <use transform="translate(109.116211 39.046875)scale(0.7)" xlink:href="#DejaVuSans-57"/>
      </g>
     </g>
    </g>
    <g id="xtick_13">
     <g id="line2d_35">
      <path clip-path="url(#ped9063fbcf)" d="M 664.040847 512.64 
L 664.040847 311.04 
" style="fill:none;stroke:#cccccc;stroke-linecap:round;"/>
     </g>
     <g id="text_18">
      <!-- $\mathdefault{2^{21}}$ -->
      <g style="fill:#262626;" transform="translate(655.405847 530.498281)scale(0.11 -0.11)">
       <use transform="translate(0 0.765625)" xlink:href="#DejaVuSans-50"/>
       <use transform="translate(64.580078 39.046875)scale(0.7)" xlink:href="#DejaVuSans-50"/>
       <use transform="translate(109.116211 39.046875)scale(0.7)" xlink:href="#DejaVuSans-49"/>
      </g>
     </g>
    </g>
    <g id="xtick_14">
     <g id="line2d_36">
      <path clip-path="url(#ped9063fbcf)" d="M 764.825689 512.64 
L 764.825689 311.04 
" style="fill:none;stroke:#cccccc;stroke-linecap:round;"/>
     </g>
     <g id="text_19">
      <!-- $\mathdefault{2^{23}}$ -->
      <g style="fill:#262626;" transform="translate(756.190689 530.498281)scale(0.11 -0.11)">
       <use transform="translate(0 0.765625)" xlink:href="#DejaVuSans-50"/>
       <use transform="translate(64.580078 39.046875)scale(0.7)" xlink:href="#DejaVuSans-50"/>
       <use transform="translate(109.116211 39.046875)scale(0.7)" xlink:href="#DejaVuSans-51"/>
      </g>
     </g>
    </g>
    <g id="text_20">
     <!-- Array size -->
     <defs>
      <path d="M 34.1875 63.1875 
L 20.796875 26.90625 
L 47.609375 26.90625 
z
M 28.609375 72.90625 
L 39.796875 72.90625 
L 67.578125 0 
L 57.328125 0 
L 50.6875 18.703125 
L 17.828125 18.703125 
L 11.1875 0 
L 0.78125 0 
z
" id="DejaVuSans-65"/>
      <path d="M 41.109375 46.296875 
Q 39.59375 47.171875 37.8125 47.578125 
Q 36.03125 48 33.890625 48 
Q 26.265625 48 22.1875 43.046875 
Q 18.109375 38.09375 18.109375 28.8125 
L 18.109375 0 
L 9.078125 0 
L 9.078125 54.6875 
L 18.109375 54.6875 
L 18.109375 46.1875 
Q 20.953125 51.171875 25.484375 53.578125 
Q 30.03125 56 36.53125 56 
Q 37.453125 56 38.578125 55.875 
Q 39.703125 55.765625 41.0625 55.515625 
z
" id="DejaVuSans-114"/>
      <path d="M 32.171875 -5.078125 
Q 28.375 -14.84375 24.75 -17.8125 
Q 21.140625 -20.796875 15.09375 -20.796875 
L 7.90625 -20.796875 
L 7.90625 -13.28125 
L 13.1875 -13.28125 
Q 16.890625 -13.28125 18.9375 -11.515625 
Q 21 -9.765625 23.484375 -3.21875 
L 25.09375 0.875 
L 2.984375 54.6875 
L 12.5 54.6875 
L 29.59375 11.921875 
L 46.6875 54.6875 
L 56.203125 54.6875 
z
" id="DejaVuSans-121"/>
      <path d="M 44.28125 53.078125 
L 44.28125 44.578125 
Q 40.484375 46.53125 36.375 47.5 
Q 32.28125 48.484375 27.875 48.484375 
Q 21.1875 48.484375 17.84375 46.4375 
Q 14.5 44.390625 14.5 40.28125 
Q 14.5 37.15625 16.890625 35.375 
Q 19.28125 33.59375 26.515625 31.984375 
L 29.59375 31.296875 
Q 39.15625 29.25 43.1875 25.515625 
Q 47.21875 21.78125 47.21875 15.09375 
Q 47.21875 7.46875 41.1875 3.015625 
Q 35.15625 -1.421875 24.609375 -1.421875 
Q 20.21875 -1.421875 15.453125 -0.5625 
Q 10.6875 0.296875 5.421875 2 
L 5.421875 11.28125 
Q 10.40625 8.6875 15.234375 7.390625 
Q 20.0625 6.109375 24.8125 6.109375 
Q 31.15625 6.109375 34.5625 8.28125 
Q 37.984375 10.453125 37.984375 14.40625 
Q 37.984375 18.0625 35.515625 20.015625 
Q 33.0625 21.96875 24.703125 23.78125 
L 21.578125 24.515625 
Q 13.234375 26.265625 9.515625 29.90625 
Q 5.8125 33.546875 5.8125 39.890625 
Q 5.8125 47.609375 11.28125 51.796875 
Q 16.75 56 26.8125 56 
Q 31.78125 56 36.171875 55.265625 
Q 40.578125 54.546875 44.28125 53.078125 
z
" id="DejaVuSans-115"/>
      <path d="M 9.421875 54.6875 
L 18.40625 54.6875 
L 18.40625 0 
L 9.421875 0 
z
M 9.421875 75.984375 
L 18.40625 75.984375 
L 18.40625 64.59375 
L 9.421875 64.59375 
z
" id="DejaVuSans-105"/>
      <path d="M 5.515625 54.6875 
L 48.1875 54.6875 
L 48.1875 46.484375 
L 14.40625 7.171875 
L 48.1875 7.171875 
L 48.1875 0 
L 4.296875 0 
L 4.296875 8.203125 
L 38.09375 47.515625 
L 5.515625 47.515625 
z
" id="DejaVuSans-122"/>
     </defs>
     <g style="fill:#262626;" transform="translate(412.995 545.904063)scale(0.12 -0.12)">
      <use xlink:href="#DejaVuSans-65"/>
      <use x="68.408203" xlink:href="#DejaVuSans-114"/>
      <use x="109.505859" xlink:href="#DejaVuSans-114"/>
      <use x="150.619141" xlink:href="#DejaVuSans-97"/>
      <use x="211.898438" xlink:href="#DejaVuSans-121"/>
      <use x="271.078125" xlink:href="#DejaVuSans-32"/>
      <use x="302.865234" xlink:href="#DejaVuSans-115"/>
      <use x="354.964844" xlink:href="#DejaVuSans-105"/>
      <use x="382.748047" xlink:href="#DejaVuSans-122"/>
      <use x="435.238281" xlink:href="#DejaVuSans-101"/>
     </g>
    </g>
   </g>
   <g id="matplotlib.axis_4">
    <g id="ytick_8">
     <g id="line2d_37">
      <path clip-path="url(#ped9063fbcf)" d="M 108 512.64 
L 777.6 512.64 
" style="fill:none;stroke:#cccccc;stroke-linecap:round;"/>
     </g>
     <g id="text_21">
      <!-- 0 -->
      <g style="fill:#262626;" transform="translate(91.50125 516.819141)scale(0.11 -0.11)">
       <use xlink:href="#DejaVuSans-48"/>
      </g>
     </g>
    </g>
    <g id="ytick_9">
     <g id="line2d_38">
      <path clip-path="url(#ped9063fbcf)" d="M 108 480.187729 
L 777.6 480.187729 
" style="fill:none;stroke:#cccccc;stroke-linecap:round;"/>
     </g>
     <g id="text_22">
      <!-- 20 -->
      <g style="fill:#262626;" transform="translate(84.5025 484.366869)scale(0.11 -0.11)">
       <use xlink:href="#DejaVuSans-50"/>
       <use x="63.623047" xlink:href="#DejaVuSans-48"/>
      </g>
     </g>
    </g>
    <g id="ytick_10">
     <g id="line2d_39">
      <path clip-path="url(#ped9063fbcf)" d="M 108 447.735457 
L 777.6 447.735457 
" style="fill:none;stroke:#cccccc;stroke-linecap:round;"/>
     </g>
     <g id="text_23">
      <!-- 40 -->
      <g style="fill:#262626;" transform="translate(84.5025 451.914598)scale(0.11 -0.11)">
       <use xlink:href="#DejaVuSans-52"/>
       <use x="63.623047" xlink:href="#DejaVuSans-48"/>
      </g>
     </g>
    </g>
    <g id="ytick_11">
     <g id="line2d_40">
      <path clip-path="url(#ped9063fbcf)" d="M 108 415.283186 
L 777.6 415.283186 
" style="fill:none;stroke:#cccccc;stroke-linecap:round;"/>
     </g>
     <g id="text_24">
      <!-- 60 -->
      <g style="fill:#262626;" transform="translate(84.5025 419.462327)scale(0.11 -0.11)">
       <use xlink:href="#DejaVuSans-54"/>
       <use x="63.623047" xlink:href="#DejaVuSans-48"/>
      </g>
     </g>
    </g>
    <g id="ytick_12">
     <g id="line2d_41">
      <path clip-path="url(#ped9063fbcf)" d="M 108 382.830915 
L 777.6 382.830915 
" style="fill:none;stroke:#cccccc;stroke-linecap:round;"/>
     </g>
     <g id="text_25">
      <!-- 80 -->
      <g style="fill:#262626;" transform="translate(84.5025 387.010055)scale(0.11 -0.11)">
       <use xlink:href="#DejaVuSans-56"/>
       <use x="63.623047" xlink:href="#DejaVuSans-48"/>
      </g>
     </g>
    </g>
    <g id="ytick_13">
     <g id="line2d_42">
      <path clip-path="url(#ped9063fbcf)" d="M 108 350.378643 
L 777.6 350.378643 
" style="fill:none;stroke:#cccccc;stroke-linecap:round;"/>
     </g>
     <g id="text_26">
      <!-- 100 -->
      <g style="fill:#262626;" transform="translate(77.50375 354.557784)scale(0.11 -0.11)">
       <use xlink:href="#DejaVuSans-49"/>
       <use x="63.623047" xlink:href="#DejaVuSans-48"/>
       <use x="127.246094" xlink:href="#DejaVuSans-48"/>
      </g>
     </g>
    </g>
    <g id="ytick_14">
     <g id="line2d_43">
      <path clip-path="url(#ped9063fbcf)" d="M 108 317.926372 
L 777.6 317.926372 
" style="fill:none;stroke:#cccccc;stroke-linecap:round;"/>
     </g>
     <g id="text_27">
      <!-- 120 -->
      <g style="fill:#262626;" transform="translate(77.50375 322.105513)scale(0.11 -0.11)">
       <use xlink:href="#DejaVuSans-49"/>
       <use x="63.623047" xlink:href="#DejaVuSans-50"/>
       <use x="127.246094" xlink:href="#DejaVuSans-48"/>
      </g>
     </g>
    </g>
    <g id="text_28">
     <!-- Prefix sum -->
     <defs>
      <path d="M 19.671875 64.796875 
L 19.671875 37.40625 
L 32.078125 37.40625 
Q 38.96875 37.40625 42.71875 40.96875 
Q 46.484375 44.53125 46.484375 51.125 
Q 46.484375 57.671875 42.71875 61.234375 
Q 38.96875 64.796875 32.078125 64.796875 
z
M 9.8125 72.90625 
L 32.078125 72.90625 
Q 44.34375 72.90625 50.609375 67.359375 
Q 56.890625 61.8125 56.890625 51.125 
Q 56.890625 40.328125 50.609375 34.8125 
Q 44.34375 29.296875 32.078125 29.296875 
L 19.671875 29.296875 
L 19.671875 0 
L 9.8125 0 
z
" id="DejaVuSans-80"/>
      <path d="M 37.109375 75.984375 
L 37.109375 68.5 
L 28.515625 68.5 
Q 23.6875 68.5 21.796875 66.546875 
Q 19.921875 64.59375 19.921875 59.515625 
L 19.921875 54.6875 
L 34.71875 54.6875 
L 34.71875 47.703125 
L 19.921875 47.703125 
L 19.921875 0 
L 10.890625 0 
L 10.890625 47.703125 
L 2.296875 47.703125 
L 2.296875 54.6875 
L 10.890625 54.6875 
L 10.890625 58.5 
Q 10.890625 67.625 15.140625 71.796875 
Q 19.390625 75.984375 28.609375 75.984375 
z
" id="DejaVuSans-102"/>
      <path d="M 54.890625 54.6875 
L 35.109375 28.078125 
L 55.90625 0 
L 45.3125 0 
L 29.390625 21.484375 
L 13.484375 0 
L 2.875 0 
L 24.125 28.609375 
L 4.6875 54.6875 
L 15.28125 54.6875 
L 29.78125 35.203125 
L 44.28125 54.6875 
z
" id="DejaVuSans-120"/>
      <path d="M 8.5 21.578125 
L 8.5 54.6875 
L 17.484375 54.6875 
L 17.484375 21.921875 
Q 17.484375 14.15625 20.5 10.265625 
Q 23.53125 6.390625 29.59375 6.390625 
Q 36.859375 6.390625 41.078125 11.03125 
Q 45.3125 15.671875 45.3125 23.6875 
L 45.3125 54.6875 
L 54.296875 54.6875 
L 54.296875 0 
L 45.3125 0 
L 45.3125 8.40625 
Q 42.046875 3.421875 37.71875 1 
Q 33.40625 -1.421875 27.6875 -1.421875 
Q 18.265625 -1.421875 13.375 4.4375 
Q 8.5 10.296875 8.5 21.578125 
z
M 31.109375 56 
z
" id="DejaVuSans-117"/>
      <path d="M 52 44.1875 
Q 55.375 50.25 60.0625 53.125 
Q 64.75 56 71.09375 56 
Q 79.640625 56 84.28125 50.015625 
Q 88.921875 44.046875 88.921875 33.015625 
L 88.921875 0 
L 79.890625 0 
L 79.890625 32.71875 
Q 79.890625 40.578125 77.09375 44.375 
Q 74.3125 48.1875 68.609375 48.1875 
Q 61.625 48.1875 57.5625 43.546875 
Q 53.515625 38.921875 53.515625 30.90625 
L 53.515625 0 
L 44.484375 0 
L 44.484375 32.71875 
Q 44.484375 40.625 41.703125 44.40625 
Q 38.921875 48.1875 33.109375 48.1875 
Q 26.21875 48.1875 22.15625 43.53125 
Q 18.109375 38.875 18.109375 30.90625 
L 18.109375 0 
L 9.078125 0 
L 9.078125 54.6875 
L 18.109375 54.6875 
L 18.109375 46.1875 
Q 21.1875 51.21875 25.484375 53.609375 
Q 29.78125 56 35.6875 56 
Q 41.65625 56 45.828125 52.96875 
Q 50 49.953125 52 44.1875 
z
" id="DejaVuSans-109"/>
     </defs>
     <g style="fill:#262626;" transform="translate(71.008125 443.623125)rotate(-90)scale(0.12 -0.12)">
      <use xlink:href="#DejaVuSans-80"/>
      <use x="60.287109" xlink:href="#DejaVuSans-114"/>
      <use x="101.369141" xlink:href="#DejaVuSans-101"/>
      <use x="162.892578" xlink:href="#DejaVuSans-102"/>
      <use x="198.097656" xlink:href="#DejaVuSans-105"/>
      <use x="225.880859" xlink:href="#DejaVuSans-120"/>
      <use x="285.060547" xlink:href="#DejaVuSans-32"/>
      <use x="316.847656" xlink:href="#DejaVuSans-115"/>
      <use x="368.947266" xlink:href="#DejaVuSans-117"/>
      <use x="432.326172" xlink:href="#DejaVuSans-109"/>
     </g>
    </g>
   </g>
   <g id="line2d_44">
    <path clip-path="url(#ped9063fbcf)" d="M -1 509.939062 
L 5.15049 509.930235 
L 16.48549 509.914009 
L 28.057165 509.946461 
L 39.357563 509.930235 
L 50.910715 509.735522 
L 62.254135 509.930235 
L 73.7139 509.086476 
L 85.120247 509.232512 
L 96.611128 509.264964 
L 108 509.232512 
L 119.414313 509.264964 
L 130.833937 509.183833 
L 142.260504 509.200059 
L 153.661629 509.248738 
L 165.089867 509.264964 
L 176.509564 509.232512 
L 187.918549 509.248738 
L 199.325825 509.232512 
L 210.757121 509.248738 
L 222.16085 508.404979 
L 233.583434 508.323848 
L 244.993109 508.404979 
L 256.407988 508.388752 
L 267.828998 508.340074 
L 279.244208 508.340074 
L 290.656694 508.291396 
L 302.071259 508.27517 
L 313.483678 508.242717 
L 324.900016 508.226491 
L 336.315838 508.177813 
L 347.728673 508.161587 
L 359.144181 508.096682 
L 370.55822 506.766139 
L 381.973255 506.685008 
L 393.386779 506.701234 
L 404.800773 506.457842 
L 416.215286 506.344259 
L 427.630127 505.565405 
L 439.044142 504.981264 
L 450.459077 504.364671 
L 461.872999 503.99147 
L 473.287474 503.342424 
L 484.701927 503.228841 
L 496.116118 502.85564 
L 507.530673 503.099032 
L 518.944856 501.265479 
L 530.359267 501.362836 
L 541.773662 496.365186 
L 553.187998 497.436111 
L 564.60225 495.505201 
L 576.016588 493.833909 
L 587.430907 494.288241 
L 598.845217 486.515922 
L 610.259518 475.871577 
L 621.673879 479.92811 
L 633.08819 478.224366 
L 644.50247 477.104763 
L 655.916812 475.77422 
L 667.331129 474.654616 
L 678.745424 468.099258 
L 690.159756 466.833619 
L 701.574062 463.55594 
L 712.98837 460.505426 
L 724.402693 447.832814 
L 735.817012 450.656162 
L 747.231316 448.757704 
L 758.645637 448.48186 
L 770.059949 442.672903 
L 781.47426 443.046104 
" style="fill:none;stroke:#8b0000;stroke-linecap:round;stroke-width:1.5;"/>
   </g>
   <g id="line2d_45">
    <path clip-path="url(#ped9063fbcf)" d="M -1 510.426111 
L 5.15049 510.514376 
L 16.48549 509.930235 
L 28.057165 509.946461 
L 39.357563 509.930235 
L 50.910715 509.914009 
L 62.254135 509.930235 
L 73.7139 509.946461 
L 85.120247 509.930235 
L 96.611128 509.930235 
L 108 509.930235 
L 119.414313 509.930235 
L 130.833937 509.394773 
L 142.260504 509.930235 
L 153.661629 509.930235 
L 165.089867 509.930235 
L 176.509564 509.930235 
L 187.918549 509.930235 
L 199.325825 509.930235 
L 210.757121 509.930235 
L 222.16085 509.248738 
L 233.583434 509.264964 
L 244.993109 509.264964 
L 256.407988 509.248738 
L 267.828998 509.216285 
L 279.244208 509.183833 
L 290.656694 509.135155 
L 302.071259 509.118929 
L 313.483678 509.102702 
L 324.900016 509.07025 
L 336.315838 509.054024 
L 347.728673 509.037798 
L 359.144181 509.021572 
L 370.55822 508.989119 
L 381.973255 508.972893 
L 393.386779 508.956667 
L 404.800773 508.56724 
L 416.215286 508.648371 
L 427.630127 507.301601 
L 439.044142 507.252923 
L 450.459077 506.571425 
L 461.872999 506.13332 
L 473.287474 506.068415 
L 484.701927 505.386917 
L 496.116118 505.435596 
L 507.530673 504.867681 
L 518.944856 503.618269 
L 530.359267 503.180163 
L 541.773662 503.894113 
L 553.187998 497.890443 
L 564.60225 503.423555 
L 576.016588 498.507036 
L 587.430907 501.654906 
L 598.845217 497.387432 
L 610.259518 486.451017 
L 621.673879 482.134865 
L 633.08819 483.384277 
L 644.50247 478.029653 
L 655.916812 480.609608 
L 667.331129 474.703295 
L 678.745424 469.397348 
L 690.159756 472.236922 
L 701.574062 471.928626 
L 712.98837 470.825248 
L 724.402693 468.813208 
L 735.817012 462.695954 
L 747.231316 467.644926 
L 758.645637 466.768714 
L 770.059949 466.91475 
L 781.47426 464.253663 
" style="fill:none;stroke:#00008b;stroke-linecap:round;stroke-width:1.5;"/>
   </g>
   <g id="line2d_46">
    <path clip-path="url(#ped9063fbcf)" d="M -1 510.467125 
L 5.15049 510.449472 
L 16.48549 510.49815 
L 28.057165 510.465698 
L 39.357563 510.449472 
L 50.910715 510.270984 
L 62.254135 510.449472 
L 73.7139 510.270984 
L 85.120247 510.352115 
L 96.611128 510.352115 
L 108 510.481924 
L 119.414313 509.930235 
L 130.833937 509.930235 
L 142.260504 509.930235 
L 153.661629 509.914009 
L 165.089867 509.930235 
L 176.509564 509.816652 
L 187.918549 509.914009 
L 199.325825 509.914009 
L 210.757121 509.881557 
L 222.16085 509.897783 
L 233.583434 509.897783 
L 244.993109 509.7842 
L 256.407988 509.881557 
L 267.828998 509.621939 
L 279.244208 509.670617 
L 290.656694 509.7842 
L 302.071259 509.800426 
L 313.483678 509.589486 
L 324.900016 509.686843 
L 336.315838 509.670617 
L 347.728673 509.638165 
L 359.144181 509.621939 
L 370.55822 509.037798 
L 381.973255 509.021572 
L 393.386779 508.891763 
L 404.800773 508.972893 
L 416.215286 508.794406 
L 427.630127 508.729501 
L 439.044142 508.404979 
L 450.459077 507.837064 
L 461.872999 507.707255 
L 473.287474 507.382732 
L 484.701927 507.058209 
L 496.116118 506.279355 
L 507.530673 505.435596 
L 518.944856 506.63633 
L 530.359267 505.224656 
L 541.773662 505.386917 
L 553.187998 504.932586 
L 564.60225 503.456007 
L 576.016588 502.531117 
L 587.430907 504.332219 
L 598.845217 498.523262 
L 610.259518 496.949327 
L 621.673879 489.647566 
L 633.08819 488.803807 
L 644.50247 487.424585 
L 655.916812 488.641545 
L 667.331129 487.164967 
L 678.745424 480.917905 
L 690.159756 481.940151 
L 701.574062 484.92576 
L 712.98837 484.033323 
L 724.402693 484.503881 
L 735.817012 483.303147 
L 747.231316 482.134865 
L 758.645637 476.682883 
L 770.059949 482.118639 
L 781.47426 478.970768 
" style="fill:none;stroke:#006400;stroke-linecap:round;stroke-width:1.5;"/>
   </g>
   <g id="line2d_47">
    <path clip-path="url(#ped9063fbcf)" d="M -1 510.475951 
L 5.15049 510.449472 
L 16.48549 510.49815 
L 28.057165 510.49815 
L 39.357563 510.465698 
L 50.910715 510.514376 
L 62.254135 510.514376 
L 73.7139 510.49815 
L 85.120247 510.514376 
L 96.611128 510.49815 
L 108 510.49815 
L 119.414313 510.514376 
L 130.833937 510.49815 
L 142.260504 510.49815 
L 153.661629 510.465698 
L 165.089867 510.49815 
L 176.509564 510.49815 
L 187.918549 510.49815 
L 199.325825 510.481924 
L 210.757121 510.481924 
L 222.16085 509.930235 
L 233.583434 509.930235 
L 244.993109 509.914009 
L 256.407988 509.914009 
L 267.828998 509.881557 
L 279.244208 509.735522 
L 290.656694 509.849105 
L 302.071259 509.816652 
L 313.483678 509.7842 
L 324.900016 509.767974 
L 336.315838 509.735522 
L 347.728673 509.719296 
L 359.144181 509.719296 
L 370.55822 509.703069 
L 381.973255 509.670617 
L 393.386779 509.654391 
L 404.800773 509.621939 
L 416.215286 509.232512 
L 427.630127 509.49213 
L 439.044142 508.843084 
L 450.459077 508.826858 
L 461.872999 508.502335 
L 473.287474 508.210265 
L 484.701927 507.966873 
L 496.116118 507.691029 
L 507.530673 507.188018 
L 518.944856 505.549179 
L 530.359267 503.196389 
L 541.773662 505.484274 
L 553.187998 504.78655 
L 564.60225 504.348445 
L 576.016588 504.267314 
L 587.430907 503.131484 
L 598.845217 495.781045 
L 610.259518 495.975759 
L 621.673879 492.925245 
L 633.08819 492.503366 
L 644.50247 492.746758 
L 655.916812 491.708285 
L 667.331129 491.692059 
L 678.745424 489.858506 
L 690.159756 490.312837 
L 701.574062 486.402339 
L 712.98837 489.323043 
L 724.402693 488.755128 
L 735.817012 488.106083 
L 747.231316 485.039343 
L 758.645637 487.408359 
L 770.059949 488.106083 
L 781.47426 487.457037 
" style="fill:none;stroke:#800080;stroke-linecap:round;stroke-width:1.5;"/>
   </g>
   <g id="line2d_48">
    <path clip-path="url(#ped9063fbcf)" d="M 260.901477 512.64 
L 260.901477 311.04 
" style="fill:none;stroke:#000000;stroke-dasharray:3.7,1.6;stroke-dashoffset:0;"/>
   </g>
   <g id="line2d_49">
    <path clip-path="url(#ped9063fbcf)" d="M 462.471162 512.64 
L 462.471162 311.04 
" style="fill:none;stroke:#000000;stroke-dasharray:3.7,1.6;stroke-dashoffset:0;"/>
   </g>
   <g id="line2d_50">
    <path clip-path="url(#ped9063fbcf)" d="M 613.648425 512.64 
L 613.648425 311.04 
" style="fill:none;stroke:#000000;stroke-dasharray:3.7,1.6;stroke-dashoffset:0;"/>
   </g>
   <g id="patch_9">
    <path d="M 108 512.64 
L 108 311.04 
" style="fill:none;stroke:#cccccc;stroke-linecap:square;stroke-linejoin:miter;stroke-width:1.25;"/>
   </g>
   <g id="patch_10">
    <path d="M 777.6 512.64 
L 777.6 311.04 
" style="fill:none;stroke:#cccccc;stroke-linecap:square;stroke-linejoin:miter;stroke-width:1.25;"/>
   </g>
   <g id="patch_11">
    <path d="M 108 512.64 
L 777.6 512.64 
" style="fill:none;stroke:#cccccc;stroke-linecap:square;stroke-linejoin:miter;stroke-width:1.25;"/>
   </g>
   <g id="patch_12">
    <path d="M 108 311.04 
L 777.6 311.04 
" style="fill:none;stroke:#cccccc;stroke-linecap:square;stroke-linejoin:miter;stroke-width:1.25;"/>
   </g>
  </g>
  <g id="text_29">
   <!-- Other block sizes -->
   <defs>
    <path d="M 39.40625 66.21875 
Q 28.65625 66.21875 22.328125 58.203125 
Q 16.015625 50.203125 16.015625 36.375 
Q 16.015625 22.609375 22.328125 14.59375 
Q 28.65625 6.59375 39.40625 6.59375 
Q 50.140625 6.59375 56.421875 14.59375 
Q 62.703125 22.609375 62.703125 36.375 
Q 62.703125 50.203125 56.421875 58.203125 
Q 50.140625 66.21875 39.40625 66.21875 
z
M 39.40625 74.21875 
Q 54.734375 74.21875 63.90625 63.9375 
Q 73.09375 53.65625 73.09375 36.375 
Q 73.09375 19.140625 63.90625 8.859375 
Q 54.734375 -1.421875 39.40625 -1.421875 
Q 24.03125 -1.421875 14.8125 8.828125 
Q 5.609375 19.09375 5.609375 36.375 
Q 5.609375 53.65625 14.8125 63.9375 
Q 24.03125 74.21875 39.40625 74.21875 
z
" id="DejaVuSans-79"/>
    <path d="M 54.890625 33.015625 
L 54.890625 0 
L 45.90625 0 
L 45.90625 32.71875 
Q 45.90625 40.484375 42.875 44.328125 
Q 39.84375 48.1875 33.796875 48.1875 
Q 26.515625 48.1875 22.3125 43.546875 
Q 18.109375 38.921875 18.109375 30.90625 
L 18.109375 0 
L 9.078125 0 
L 9.078125 75.984375 
L 18.109375 75.984375 
L 18.109375 46.1875 
Q 21.34375 51.125 25.703125 53.5625 
Q 30.078125 56 35.796875 56 
Q 45.21875 56 50.046875 50.171875 
Q 54.890625 44.34375 54.890625 33.015625 
z
" id="DejaVuSans-104"/>
    <path d="M 48.6875 27.296875 
Q 48.6875 37.203125 44.609375 42.84375 
Q 40.53125 48.484375 33.40625 48.484375 
Q 26.265625 48.484375 22.1875 42.84375 
Q 18.109375 37.203125 18.109375 27.296875 
Q 18.109375 17.390625 22.1875 11.75 
Q 26.265625 6.109375 33.40625 6.109375 
Q 40.53125 6.109375 44.609375 11.75 
Q 48.6875 17.390625 48.6875 27.296875 
z
M 18.109375 46.390625 
Q 20.953125 51.265625 25.265625 53.625 
Q 29.59375 56 35.59375 56 
Q 45.5625 56 51.78125 48.09375 
Q 58.015625 40.1875 58.015625 27.296875 
Q 58.015625 14.40625 51.78125 6.484375 
Q 45.5625 -1.421875 35.59375 -1.421875 
Q 29.59375 -1.421875 25.265625 0.953125 
Q 20.953125 3.328125 18.109375 8.203125 
L 18.109375 0 
L 9.078125 0 
L 9.078125 75.984375 
L 18.109375 75.984375 
z
" id="DejaVuSans-98"/>
    <path d="M 9.421875 75.984375 
L 18.40625 75.984375 
L 18.40625 0 
L 9.421875 0 
z
" id="DejaVuSans-108"/>
    <path d="M 30.609375 48.390625 
Q 23.390625 48.390625 19.1875 42.75 
Q 14.984375 37.109375 14.984375 27.296875 
Q 14.984375 17.484375 19.15625 11.84375 
Q 23.34375 6.203125 30.609375 6.203125 
Q 37.796875 6.203125 41.984375 11.859375 
Q 46.1875 17.53125 46.1875 27.296875 
Q 46.1875 37.015625 41.984375 42.703125 
Q 37.796875 48.390625 30.609375 48.390625 
z
M 30.609375 56 
Q 42.328125 56 49.015625 48.375 
Q 55.71875 40.765625 55.71875 27.296875 
Q 55.71875 13.875 49.015625 6.21875 
Q 42.328125 -1.421875 30.609375 -1.421875 
Q 18.84375 -1.421875 12.171875 6.21875 
Q 5.515625 13.875 5.515625 27.296875 
Q 5.515625 40.765625 12.171875 48.375 
Q 18.84375 56 30.609375 56 
z
" id="DejaVuSans-111"/>
    <path d="M 48.78125 52.59375 
L 48.78125 44.1875 
Q 44.96875 46.296875 41.140625 47.34375 
Q 37.3125 48.390625 33.40625 48.390625 
Q 24.65625 48.390625 19.8125 42.84375 
Q 14.984375 37.3125 14.984375 27.296875 
Q 14.984375 17.28125 19.8125 11.734375 
Q 24.65625 6.203125 33.40625 6.203125 
Q 37.3125 6.203125 41.140625 7.25 
Q 44.96875 8.296875 48.78125 10.40625 
L 48.78125 2.09375 
Q 45.015625 0.34375 40.984375 -0.53125 
Q 36.96875 -1.421875 32.421875 -1.421875 
Q 20.0625 -1.421875 12.78125 6.34375 
Q 5.515625 14.109375 5.515625 27.296875 
Q 5.515625 40.671875 12.859375 48.328125 
Q 20.21875 56 33.015625 56 
Q 37.15625 56 41.109375 55.140625 
Q 45.0625 54.296875 48.78125 52.59375 
z
" id="DejaVuSans-99"/>
    <path d="M 9.078125 75.984375 
L 18.109375 75.984375 
L 18.109375 31.109375 
L 44.921875 54.6875 
L 56.390625 54.6875 
L 27.390625 29.109375 
L 57.625 0 
L 45.90625 0 
L 18.109375 26.703125 
L 18.109375 0 
L 9.078125 0 
z
" id="DejaVuSans-107"/>
   </defs>
   <g style="fill:#262626;" transform="translate(370.164375 39.74175)scale(0.144 -0.144)">
    <use xlink:href="#DejaVuSans-79"/>
    <use x="78.710938" xlink:href="#DejaVuSans-116"/>
    <use x="117.919922" xlink:href="#DejaVuSans-104"/>
    <use x="181.298828" xlink:href="#DejaVuSans-101"/>
    <use x="242.822266" xlink:href="#DejaVuSans-114"/>
    <use x="283.935547" xlink:href="#DejaVuSans-32"/>
    <use x="315.722656" xlink:href="#DejaVuSans-98"/>
    <use x="379.199219" xlink:href="#DejaVuSans-108"/>
    <use x="406.982422" xlink:href="#DejaVuSans-111"/>
    <use x="468.164062" xlink:href="#DejaVuSans-99"/>
    <use x="523.144531" xlink:href="#DejaVuSans-107"/>
    <use x="581.054688" xlink:href="#DejaVuSans-32"/>
    <use x="612.841797" xlink:href="#DejaVuSans-115"/>
    <use x="664.941406" xlink:href="#DejaVuSans-105"/>
    <use x="692.724609" xlink:href="#DejaVuSans-122"/>
    <use x="745.214844" xlink:href="#DejaVuSans-101"/>
    <use x="806.738281" xlink:href="#DejaVuSans-115"/>
   </g>
  </g>
 </g>
 <defs>
  <clipPath id="pba9f13aadf">
   <rect height="201.6" width="669.6" x="108" y="69.12"/>
  </clipPath>
  <clipPath id="ped9063fbcf">
   <rect height="201.6" width="669.6" x="108" y="311.04"/>
  </clipPath>
 </defs>
</svg>
