<?xml version="1.0" encoding="utf-8" standalone="no"?>
<!DOCTYPE svg PUBLIC "-//W3C//DTD SVG 1.1//EN"
  "http://www.w3.org/Graphics/SVG/1.1/DTD/svg11.dtd">
<!-- Created with matplotlib (https://matplotlib.org/) -->
<svg height="576pt" version="1.1" viewBox="0 0 864 576" width="864pt" xmlns="http://www.w3.org/2000/svg" xmlns:xlink="http://www.w3.org/1999/xlink">
 <defs>
  <style type="text/css">
*{stroke-linecap:butt;stroke-linejoin:round;}
  </style>
 </defs>
 <g id="figure_1">
  <g id="patch_1">
   <path d="M 0 576 
L 864 576 
L 864 0 
L 0 0 
z
" style="fill:#ffffff;"/>
  </g>
  <g id="axes_1">
   <g id="patch_2">
    <path d="M 108 270.72 
L 777.6 270.72 
L 777.6 69.12 
L 108 69.12 
z
" style="fill:#ffffff;"/>
   </g>
   <g id="matplotlib.axis_1">
    <g id="xtick_1">
     <g id="line2d_1">
      <path clip-path="url(#p0598dbf3a4)" d="M 160.116634 270.72 
L 160.116634 69.12 
" style="fill:none;stroke:#cccccc;stroke-linecap:round;"/>
     </g>
    </g>
    <g id="xtick_2">
     <g id="line2d_2">
      <path clip-path="url(#p0598dbf3a4)" d="M 260.901477 270.72 
L 260.901477 69.12 
" style="fill:none;stroke:#cccccc;stroke-linecap:round;"/>
     </g>
    </g>
    <g id="xtick_3">
     <g id="line2d_3">
      <path clip-path="url(#p0598dbf3a4)" d="M 361.686319 270.72 
L 361.686319 69.12 
" style="fill:none;stroke:#cccccc;stroke-linecap:round;"/>
     </g>
    </g>
    <g id="xtick_4">
     <g id="line2d_4">
      <path clip-path="url(#p0598dbf3a4)" d="M 462.471162 270.72 
L 462.471162 69.12 
" style="fill:none;stroke:#cccccc;stroke-linecap:round;"/>
     </g>
    </g>
    <g id="xtick_5">
     <g id="line2d_5">
      <path clip-path="url(#p0598dbf3a4)" d="M 563.256004 270.72 
L 563.256004 69.12 
" style="fill:none;stroke:#cccccc;stroke-linecap:round;"/>
     </g>
    </g>
    <g id="xtick_6">
     <g id="line2d_6">
      <path clip-path="url(#p0598dbf3a4)" d="M 664.040847 270.72 
L 664.040847 69.12 
" style="fill:none;stroke:#cccccc;stroke-linecap:round;"/>
     </g>
    </g>
    <g id="xtick_7">
     <g id="line2d_7">
      <path clip-path="url(#p0598dbf3a4)" d="M 764.825689 270.72 
L 764.825689 69.12 
" style="fill:none;stroke:#cccccc;stroke-linecap:round;"/>
     </g>
    </g>
   </g>
   <g id="matplotlib.axis_2">
    <g id="ytick_1">
     <g id="line2d_8">
      <path clip-path="url(#p0598dbf3a4)" d="M 108 268.953762 
L 777.6 268.953762 
" style="fill:none;stroke:#cccccc;stroke-linecap:round;"/>
     </g>
     <g id="text_1">
      <!-- 0 -->
      <defs>
       <path d="M 31.78125 66.40625 
Q 24.171875 66.40625 20.328125 58.90625 
Q 16.5 51.421875 16.5 36.375 
Q 16.5 21.390625 20.328125 13.890625 
Q 24.171875 6.390625 31.78125 6.390625 
Q 39.453125 6.390625 43.28125 13.890625 
Q 47.125 21.390625 47.125 36.375 
Q 47.125 51.421875 43.28125 58.90625 
Q 39.453125 66.40625 31.78125 66.40625 
z
M 31.78125 74.21875 
Q 44.046875 74.21875 50.515625 64.515625 
Q 56.984375 54.828125 56.984375 36.375 
Q 56.984375 17.96875 50.515625 8.265625 
Q 44.046875 -1.421875 31.78125 -1.421875 
Q 19.53125 -1.421875 13.0625 8.265625 
Q 6.59375 17.96875 6.59375 36.375 
Q 6.59375 54.828125 13.0625 64.515625 
Q 19.53125 74.21875 31.78125 74.21875 
z
" id="DejaVuSans-48"/>
      </defs>
      <g style="fill:#262626;" transform="translate(91.50125 273.132902)scale(0.11 -0.11)">
       <use xlink:href="#DejaVuSans-48"/>
      </g>
     </g>
    </g>
    <g id="ytick_2">
     <g id="line2d_9">
      <path clip-path="url(#p0598dbf3a4)" d="M 108 226.454315 
L 777.6 226.454315 
" style="fill:none;stroke:#cccccc;stroke-linecap:round;"/>
     </g>
     <g id="text_2">
      <!-- 10 -->
      <defs>
       <path d="M 12.40625 8.296875 
L 28.515625 8.296875 
L 28.515625 63.921875 
L 10.984375 60.40625 
L 10.984375 69.390625 
L 28.421875 72.90625 
L 38.28125 72.90625 
L 38.28125 8.296875 
L 54.390625 8.296875 
L 54.390625 0 
L 12.40625 0 
z
" id="DejaVuSans-49"/>
      </defs>
      <g style="fill:#262626;" transform="translate(84.5025 230.633455)scale(0.11 -0.11)">
       <use xlink:href="#DejaVuSans-49"/>
       <use x="63.623047" xlink:href="#DejaVuSans-48"/>
      </g>
     </g>
    </g>
    <g id="ytick_3">
     <g id="line2d_10">
      <path clip-path="url(#p0598dbf3a4)" d="M 108 183.954868 
L 777.6 183.954868 
" style="fill:none;stroke:#cccccc;stroke-linecap:round;"/>
     </g>
     <g id="text_3">
      <!-- 20 -->
      <defs>
       <path d="M 19.1875 8.296875 
L 53.609375 8.296875 
L 53.609375 0 
L 7.328125 0 
L 7.328125 8.296875 
Q 12.9375 14.109375 22.625 23.890625 
Q 32.328125 33.6875 34.8125 36.53125 
Q 39.546875 41.84375 41.421875 45.53125 
Q 43.3125 49.21875 43.3125 52.78125 
Q 43.3125 58.59375 39.234375 62.25 
Q 35.15625 65.921875 28.609375 65.921875 
Q 23.96875 65.921875 18.8125 64.3125 
Q 13.671875 62.703125 7.8125 59.421875 
L 7.8125 69.390625 
Q 13.765625 71.78125 18.9375 73 
Q 24.125 74.21875 28.421875 74.21875 
Q 39.75 74.21875 46.484375 68.546875 
Q 53.21875 62.890625 53.21875 53.421875 
Q 53.21875 48.921875 51.53125 44.890625 
Q 49.859375 40.875 45.40625 35.40625 
Q 44.1875 33.984375 37.640625 27.21875 
Q 31.109375 20.453125 19.1875 8.296875 
z
" id="DejaVuSans-50"/>
      </defs>
      <g style="fill:#262626;" transform="translate(84.5025 188.134008)scale(0.11 -0.11)">
       <use xlink:href="#DejaVuSans-50"/>
       <use x="63.623047" xlink:href="#DejaVuSans-48"/>
      </g>
     </g>
    </g>
    <g id="ytick_4">
     <g id="line2d_11">
      <path clip-path="url(#p0598dbf3a4)" d="M 108 141.45542 
L 777.6 141.45542 
" style="fill:none;stroke:#cccccc;stroke-linecap:round;"/>
     </g>
     <g id="text_4">
      <!-- 30 -->
      <defs>
       <path d="M 40.578125 39.3125 
Q 47.65625 37.796875 51.625 33 
Q 55.609375 28.21875 55.609375 21.1875 
Q 55.609375 10.40625 48.1875 4.484375 
Q 40.765625 -1.421875 27.09375 -1.421875 
Q 22.515625 -1.421875 17.65625 -0.515625 
Q 12.796875 0.390625 7.625 2.203125 
L 7.625 11.71875 
Q 11.71875 9.328125 16.59375 8.109375 
Q 21.484375 6.890625 26.8125 6.890625 
Q 36.078125 6.890625 40.9375 10.546875 
Q 45.796875 14.203125 45.796875 21.1875 
Q 45.796875 27.640625 41.28125 31.265625 
Q 36.765625 34.90625 28.71875 34.90625 
L 20.21875 34.90625 
L 20.21875 43.015625 
L 29.109375 43.015625 
Q 36.375 43.015625 40.234375 45.921875 
Q 44.09375 48.828125 44.09375 54.296875 
Q 44.09375 59.90625 40.109375 62.90625 
Q 36.140625 65.921875 28.71875 65.921875 
Q 24.65625 65.921875 20.015625 65.03125 
Q 15.375 64.15625 9.8125 62.3125 
L 9.8125 71.09375 
Q 15.4375 72.65625 20.34375 73.4375 
Q 25.25 74.21875 29.59375 74.21875 
Q 40.828125 74.21875 47.359375 69.109375 
Q 53.90625 64.015625 53.90625 55.328125 
Q 53.90625 49.265625 50.4375 45.09375 
Q 46.96875 40.921875 40.578125 39.3125 
z
" id="DejaVuSans-51"/>
      </defs>
      <g style="fill:#262626;" transform="translate(84.5025 145.634561)scale(0.11 -0.11)">
       <use xlink:href="#DejaVuSans-51"/>
       <use x="63.623047" xlink:href="#DejaVuSans-48"/>
      </g>
     </g>
    </g>
    <g id="ytick_5">
     <g id="line2d_12">
      <path clip-path="url(#p0598dbf3a4)" d="M 108 98.955973 
L 777.6 98.955973 
" style="fill:none;stroke:#cccccc;stroke-linecap:round;"/>
     </g>
     <g id="text_5">
      <!-- 40 -->
      <defs>
       <path d="M 37.796875 64.3125 
L 12.890625 25.390625 
L 37.796875 25.390625 
z
M 35.203125 72.90625 
L 47.609375 72.90625 
L 47.609375 25.390625 
L 58.015625 25.390625 
L 58.015625 17.1875 
L 47.609375 17.1875 
L 47.609375 0 
L 37.796875 0 
L 37.796875 17.1875 
L 4.890625 17.1875 
L 4.890625 26.703125 
z
" id="DejaVuSans-52"/>
      </defs>
      <g style="fill:#262626;" transform="translate(84.5025 103.135114)scale(0.11 -0.11)">
       <use xlink:href="#DejaVuSans-52"/>
       <use x="63.623047" xlink:href="#DejaVuSans-48"/>
      </g>
     </g>
    </g>
    <g id="text_6">
     <!-- Update -->
     <defs>
      <path d="M 8.6875 72.90625 
L 18.609375 72.90625 
L 18.609375 28.609375 
Q 18.609375 16.890625 22.84375 11.734375 
Q 27.09375 6.59375 36.625 6.59375 
Q 46.09375 6.59375 50.34375 11.734375 
Q 54.59375 16.890625 54.59375 28.609375 
L 54.59375 72.90625 
L 64.5 72.90625 
L 64.5 27.390625 
Q 64.5 13.140625 57.4375 5.859375 
Q 50.390625 -1.421875 36.625 -1.421875 
Q 22.796875 -1.421875 15.734375 5.859375 
Q 8.6875 13.140625 8.6875 27.390625 
z
" id="DejaVuSans-85"/>
      <path d="M 18.109375 8.203125 
L 18.109375 -20.796875 
L 9.078125 -20.796875 
L 9.078125 54.6875 
L 18.109375 54.6875 
L 18.109375 46.390625 
Q 20.953125 51.265625 25.265625 53.625 
Q 29.59375 56 35.59375 56 
Q 45.5625 56 51.78125 48.09375 
Q 58.015625 40.1875 58.015625 27.296875 
Q 58.015625 14.40625 51.78125 6.484375 
Q 45.5625 -1.421875 35.59375 -1.421875 
Q 29.59375 -1.421875 25.265625 0.953125 
Q 20.953125 3.328125 18.109375 8.203125 
z
M 48.6875 27.296875 
Q 48.6875 37.203125 44.609375 42.84375 
Q 40.53125 48.484375 33.40625 48.484375 
Q 26.265625 48.484375 22.1875 42.84375 
Q 18.109375 37.203125 18.109375 27.296875 
Q 18.109375 17.390625 22.1875 11.75 
Q 26.265625 6.109375 33.40625 6.109375 
Q 40.53125 6.109375 44.609375 11.75 
Q 48.6875 17.390625 48.6875 27.296875 
z
" id="DejaVuSans-112"/>
      <path d="M 45.40625 46.390625 
L 45.40625 75.984375 
L 54.390625 75.984375 
L 54.390625 0 
L 45.40625 0 
L 45.40625 8.203125 
Q 42.578125 3.328125 38.25 0.953125 
Q 33.9375 -1.421875 27.875 -1.421875 
Q 17.96875 -1.421875 11.734375 6.484375 
Q 5.515625 14.40625 5.515625 27.296875 
Q 5.515625 40.1875 11.734375 48.09375 
Q 17.96875 56 27.875 56 
Q 33.9375 56 38.25 53.625 
Q 42.578125 51.265625 45.40625 46.390625 
z
M 14.796875 27.296875 
Q 14.796875 17.390625 18.875 11.75 
Q 22.953125 6.109375 30.078125 6.109375 
Q 37.203125 6.109375 41.296875 11.75 
Q 45.40625 17.390625 45.40625 27.296875 
Q 45.40625 37.203125 41.296875 42.84375 
Q 37.203125 48.484375 30.078125 48.484375 
Q 22.953125 48.484375 18.875 42.84375 
Q 14.796875 37.203125 14.796875 27.296875 
z
" id="DejaVuSans-100"/>
      <path d="M 34.28125 27.484375 
Q 23.390625 27.484375 19.1875 25 
Q 14.984375 22.515625 14.984375 16.5 
Q 14.984375 11.71875 18.140625 8.90625 
Q 21.296875 6.109375 26.703125 6.109375 
Q 34.1875 6.109375 38.703125 11.40625 
Q 43.21875 16.703125 43.21875 25.484375 
L 43.21875 27.484375 
z
M 52.203125 31.203125 
L 52.203125 0 
L 43.21875 0 
L 43.21875 8.296875 
Q 40.140625 3.328125 35.546875 0.953125 
Q 30.953125 -1.421875 24.3125 -1.421875 
Q 15.921875 -1.421875 10.953125 3.296875 
Q 6 8.015625 6 15.921875 
Q 6 25.140625 12.171875 29.828125 
Q 18.359375 34.515625 30.609375 34.515625 
L 43.21875 34.515625 
L 43.21875 35.40625 
Q 43.21875 41.609375 39.140625 45 
Q 35.0625 48.390625 27.6875 48.390625 
Q 23 48.390625 18.546875 47.265625 
Q 14.109375 46.140625 10.015625 43.890625 
L 10.015625 52.203125 
Q 14.9375 54.109375 19.578125 55.046875 
Q 24.21875 56 28.609375 56 
Q 40.484375 56 46.34375 49.84375 
Q 52.203125 43.703125 52.203125 31.203125 
z
" id="DejaVuSans-97"/>
      <path d="M 18.3125 70.21875 
L 18.3125 54.6875 
L 36.8125 54.6875 
L 36.8125 47.703125 
L 18.3125 47.703125 
L 18.3125 18.015625 
Q 18.3125 11.328125 20.140625 9.421875 
Q 21.96875 7.515625 27.59375 7.515625 
L 36.8125 7.515625 
L 36.8125 0 
L 27.59375 0 
Q 17.1875 0 13.234375 3.875 
Q 9.28125 7.765625 9.28125 18.015625 
L 9.28125 47.703125 
L 2.6875 47.703125 
L 2.6875 54.6875 
L 9.28125 54.6875 
L 9.28125 70.21875 
z
" id="DejaVuSans-116"/>
      <path d="M 56.203125 29.59375 
L 56.203125 25.203125 
L 14.890625 25.203125 
Q 15.484375 15.921875 20.484375 11.0625 
Q 25.484375 6.203125 34.421875 6.203125 
Q 39.59375 6.203125 44.453125 7.46875 
Q 49.3125 8.734375 54.109375 11.28125 
L 54.109375 2.78125 
Q 49.265625 0.734375 44.1875 -0.34375 
Q 39.109375 -1.421875 33.890625 -1.421875 
Q 20.796875 -1.421875 13.15625 6.1875 
Q 5.515625 13.8125 5.515625 26.8125 
Q 5.515625 40.234375 12.765625 48.109375 
Q 20.015625 56 32.328125 56 
Q 43.359375 56 49.78125 48.890625 
Q 56.203125 41.796875 56.203125 29.59375 
z
M 47.21875 32.234375 
Q 47.125 39.59375 43.09375 43.984375 
Q 39.0625 48.390625 32.421875 48.390625 
Q 24.90625 48.390625 20.390625 44.140625 
Q 15.875 39.890625 15.1875 32.171875 
z
" id="DejaVuSans-101"/>
     </defs>
     <g style="fill:#262626;" transform="translate(78.006875 191.650312)rotate(-90)scale(0.12 -0.12)">
      <use xlink:href="#DejaVuSans-85"/>
      <use x="73.193359" xlink:href="#DejaVuSans-112"/>
      <use x="136.669922" xlink:href="#DejaVuSans-100"/>
      <use x="200.146484" xlink:href="#DejaVuSans-97"/>
      <use x="261.425781" xlink:href="#DejaVuSans-116"/>
      <use x="300.634766" xlink:href="#DejaVuSans-101"/>
     </g>
    </g>
   </g>
   <g id="line2d_13">
    <path clip-path="url(#p0598dbf3a4)" d="M -1 259.787686 
L 5.15049 259.176441 
L 16.48549 260.022516 
L 28.057165 261.191466 
L 39.357563 260.440518 
L 50.910715 259.086032 
L 62.254135 258.625436 
L 73.7139 259.808609 
L 85.120247 259.958603 
L 96.611128 258.720246 
L 108 257.355656 
L 119.414313 258.740201 
L 130.833937 259.267249 
L 142.260504 258.972707 
L 153.661629 257.885364 
L 165.089867 257.944552 
L 176.509564 259.178241 
L 187.918549 259.136944 
L 199.325825 257.7952 
L 210.757121 256.527829 
L 222.16085 257.948005 
L 233.583434 258.34805 
L 244.993109 257.081734 
L 256.407988 255.740031 
L 267.828998 255.798038 
L 279.244208 256.103301 
L 290.656694 255.350379 
L 302.071259 253.833264 
L 313.483678 251.247259 
L 324.900016 253.644189 
L 336.315838 253.847906 
L 347.728673 251.008453 
L 359.144181 249.287431 
L 370.55822 248.862889 
L 381.973255 247.074169 
L 393.386779 247.59376 
L 404.800773 248.118194 
L 416.215286 250.871592 
L 427.630127 249.257822 
L 439.044142 248.485665 
L 450.459077 247.332739 
L 461.872999 245.300781 
L 473.287474 249.161946 
L 484.701927 249.004983 
L 496.116118 249.532057 
L 507.530673 247.724572 
L 518.944856 250.813136 
L 530.359267 249.857646 
L 541.773662 248.192496 
L 553.187998 249.074202 
L 564.60225 248.590633 
L 576.016588 249.849109 
L 587.430907 251.474806 
L 598.845217 249.965594 
L 610.259518 250.357583 
L 621.673879 252.53307 
L 633.08819 252.746237 
L 644.50247 251.253303 
L 655.916812 249.539524 
L 667.331129 248.387702 
L 678.745424 249.143885 
L 690.159756 250.234518 
L 701.574062 248.924582 
L 712.98837 249.608265 
L 724.402693 248.513634 
L 735.817012 249.016792 
L 747.231316 247.440765 
L 758.645637 246.771671 
L 770.059949 247.166923 
L 781.47426 247.918683 
" style="fill:none;stroke:#8b0000;stroke-linecap:round;stroke-width:1.5;"/>
   </g>
   <g id="line2d_14">
    <path clip-path="url(#p0598dbf3a4)" d="M -1 241.773022 
L 5.15049 235.636355 
L 16.48549 242.151999 
L 28.057165 248.892372 
L 39.357563 244.959609 
L 50.910715 236.376224 
L 62.254135 233.028247 
L 73.7139 243.462645 
L 85.120247 243.743497 
L 96.611128 235.896011 
L 108 224.77828 
L 119.414313 237.255759 
L 130.833937 242.363647 
L 142.260504 238.502756 
L 153.661629 230.017677 
L 165.089867 230.012021 
L 176.509564 240.458579 
L 187.918549 238.915976 
L 199.325825 230.121342 
L 210.757121 220.068629 
L 222.16085 233.44939 
L 233.583434 237.324863 
L 244.993109 229.618731 
L 256.407988 219.525322 
L 267.828998 224.221072 
L 279.244208 229.849338 
L 290.656694 225.053865 
L 302.071259 214.49025 
L 313.483678 203.168788 
L 324.900016 219.407398 
L 336.315838 221.967723 
L 347.728673 207.711834 
L 359.144181 194.671897 
L 370.55822 200.020593 
L 381.973255 200.19836 
L 393.386779 192.753596 
L 404.800773 181.819499 
L 416.215286 187.99687 
L 427.630127 194.309538 
L 439.044142 192.867256 
L 450.459077 179.93946 
L 461.872999 169.958204 
L 473.287474 186.410169 
L 484.701927 189.997974 
L 496.116118 189.804072 
L 507.530673 180.725067 
L 518.944856 172.927078 
L 530.359267 193.444831 
L 541.773662 203.03345 
L 553.187998 203.634149 
L 564.60225 188.822024 
L 576.016588 212.862317 
L 587.430907 222.873292 
L 598.845217 212.669414 
L 610.259518 220.051571 
L 621.673879 222.213449 
L 633.08819 229.815213 
L 644.50247 226.368391 
L 655.916812 219.658581 
L 667.331129 219.830941 
L 678.745424 222.50556 
L 690.159756 219.649954 
L 701.574062 219.056668 
L 712.98837 223.366767 
L 724.402693 220.997668 
L 735.817012 224.209372 
L 747.231316 218.734331 
L 758.645637 219.26378 
L 770.059949 224.349689 
L 781.47426 227.35895 
" style="fill:none;stroke:#00008b;stroke-linecap:round;stroke-width:1.5;"/>
   </g>
   <g id="line2d_15">
    <path clip-path="url(#p0598dbf3a4)" d="M -1 254.49673 
L 5.15049 254.111748 
L 16.48549 254.955469 
L 28.057165 254.236361 
L 39.357563 253.610639 
L 50.910715 252.437999 
L 62.254135 253.40952 
L 73.7139 252.136392 
L 85.120247 250.951295 
L 96.611128 250.206145 
L 108 249.218738 
L 119.414313 250.284677 
L 130.833937 248.854148 
L 142.260504 249.687814 
L 153.661629 248.632146 
L 165.089867 249.790524 
L 176.509564 248.952656 
L 187.918549 248.051179 
L 199.325825 247.132477 
L 210.757121 247.713396 
L 222.16085 247.003917 
L 233.583434 245.461412 
L 244.993109 244.634898 
L 256.407988 242.93487 
L 267.828998 243.095156 
L 279.244208 240.051708 
L 290.656694 239.055213 
L 302.071259 237.275807 
L 313.483678 234.838956 
L 324.900016 235.559076 
L 336.315838 234.056673 
L 347.728673 229.610715 
L 359.144181 227.097721 
L 370.55822 225.651533 
L 381.973255 215.218498 
L 393.386779 214.127706 
L 404.800773 211.352716 
L 416.215286 216.115109 
L 427.630127 207.670786 
L 439.044142 203.726855 
L 450.459077 200.491528 
L 461.872999 193.335468 
L 473.287474 200.505224 
L 484.701927 195.239852 
L 496.116118 200.184704 
L 507.530673 193.915327 
L 518.944856 196.624752 
L 530.359267 193.313609 
L 541.773662 189.053613 
L 553.187998 190.596535 
L 564.60225 199.918348 
L 576.016588 193.764218 
L 587.430907 199.503588 
L 598.845217 200.176869 
L 610.259518 210.223806 
L 621.673879 220.416188 
L 633.08819 222.6104 
L 644.50247 230.839327 
L 655.916812 223.443494 
L 667.331129 233.695969 
L 678.745424 230.005125 
L 690.159756 232.143647 
L 701.574062 233.539035 
L 712.98837 237.67819 
L 724.402693 241.025309 
L 735.817012 240.299498 
L 747.231316 239.314873 
L 758.645637 239.746491 
L 770.059949 242.524133 
L 781.47426 243.853087 
" style="fill:none;stroke:#006400;stroke-linecap:round;stroke-width:1.5;"/>
   </g>
   <g id="line2d_16">
    <path clip-path="url(#p0598dbf3a4)" d="M -1 213.836524 
L 5.15049 213.037338 
L 16.48549 223.824621 
L 28.057165 221.849131 
L 39.357563 219.392669 
L 50.910715 216.80004 
L 62.254135 214.983965 
L 73.7139 211.104058 
L 85.120247 208.003335 
L 96.611128 205.509084 
L 108 202.220587 
L 119.414313 200.443618 
L 130.833937 198.253515 
L 142.260504 197.68446 
L 153.661629 195.697116 
L 165.089867 193.147964 
L 176.509564 190.570225 
L 187.918549 188.347777 
L 199.325825 184.233872 
L 210.757121 180.722059 
L 222.16085 200.707844 
L 233.583434 196.596234 
L 244.993109 193.204167 
L 256.407988 189.549731 
L 267.828998 185.387762 
L 279.244208 176.953821 
L 290.656694 172.753988 
L 302.071259 168.310633 
L 313.483678 153.550676 
L 324.900016 157.348192 
L 336.315838 152.630134 
L 347.728673 138.607766 
L 359.144181 130.71621 
L 370.55822 114.413779 
L 381.973255 82.891657 
L 393.386779 78.283636 
L 404.800773 78.469876 
L 416.215286 83.539151 
L 427.630127 110.290285 
L 439.044142 109.138132 
L 450.459077 106.502661 
L 461.872999 87.031491 
L 473.287474 113.982468 
L 484.701927 117.718924 
L 496.116118 124.458017 
L 507.530673 120.976412 
L 518.944856 132.979263 
L 530.359267 147.905476 
L 541.773662 125.38109 
L 553.187998 136.209848 
L 564.60225 123.291504 
L 576.016588 141.541381 
L 587.430907 162.002589 
L 598.845217 162.891496 
L 610.259518 188.360029 
L 621.673879 197.347602 
L 633.08819 202.437863 
L 644.50247 207.02065 
L 655.916812 189.891114 
L 667.331129 199.398524 
L 678.745424 204.838709 
L 690.159756 202.574182 
L 701.574062 198.505853 
L 712.98837 200.745559 
L 724.402693 196.847971 
L 735.817012 204.185963 
L 747.231316 195.220862 
L 758.645637 195.644005 
L 770.059949 195.810934 
L 781.47426 199.410942 
" style="fill:none;stroke:#800080;stroke-linecap:round;stroke-width:1.5;"/>
   </g>
   <g id="line2d_17">
    <path clip-path="url(#p0598dbf3a4)" d="M 260.901477 270.72 
L 260.901477 69.12 
" style="fill:none;stroke:#000000;stroke-dasharray:3.7,1.6;stroke-dashoffset:0;"/>
   </g>
   <g id="line2d_18">
    <path clip-path="url(#p0598dbf3a4)" d="M 462.471162 270.72 
L 462.471162 69.12 
" style="fill:none;stroke:#000000;stroke-dasharray:3.7,1.6;stroke-dashoffset:0;"/>
   </g>
   <g id="line2d_19">
    <path clip-path="url(#p0598dbf3a4)" d="M 613.648425 270.72 
L 613.648425 69.12 
" style="fill:none;stroke:#000000;stroke-dasharray:3.7,1.6;stroke-dashoffset:0;"/>
   </g>
   <g id="patch_3">
    <path d="M 108 270.72 
L 108 69.12 
" style="fill:none;stroke:#cccccc;stroke-linecap:square;stroke-linejoin:miter;stroke-width:1.25;"/>
   </g>
   <g id="patch_4">
    <path d="M 777.6 270.72 
L 777.6 69.12 
" style="fill:none;stroke:#cccccc;stroke-linecap:square;stroke-linejoin:miter;stroke-width:1.25;"/>
   </g>
   <g id="patch_5">
    <path d="M 108 270.72 
L 777.6 270.72 
" style="fill:none;stroke:#cccccc;stroke-linecap:square;stroke-linejoin:miter;stroke-width:1.25;"/>
   </g>
   <g id="patch_6">
    <path d="M 108 69.12 
L 777.6 69.12 
" style="fill:none;stroke:#cccccc;stroke-linecap:square;stroke-linejoin:miter;stroke-width:1.25;"/>
   </g>
   <g id="legend_1">
    <g id="patch_7">
     <path d="M 115.7 142.50375 
L 296.051875 142.50375 
Q 298.251875 142.50375 298.251875 140.30375 
L 298.251875 76.82 
Q 298.251875 74.62 296.051875 74.62 
L 115.7 74.62 
Q 113.5 74.62 113.5 76.82 
L 113.5 140.30375 
Q 113.5 142.50375 115.7 142.50375 
z
" style="fill:#ffffff;opacity:0.8;stroke:#cccccc;stroke-linejoin:miter;"/>
    </g>
    <g id="line2d_20">
     <path d="M 117.9 83.528281 
L 139.9 83.528281 
" style="fill:none;stroke:#8b0000;stroke-linecap:round;stroke-width:1.5;"/>
    </g>
    <g id="line2d_21"/>
    <g id="text_7">
     <!-- Segment tree (top-down) -->
     <defs>
      <path d="M 53.515625 70.515625 
L 53.515625 60.890625 
Q 47.90625 63.578125 42.921875 64.890625 
Q 37.9375 66.21875 33.296875 66.21875 
Q 25.25 66.21875 20.875 63.09375 
Q 16.5 59.96875 16.5 54.203125 
Q 16.5 49.359375 19.40625 46.890625 
Q 22.3125 44.4375 30.421875 42.921875 
L 36.375 41.703125 
Q 47.40625 39.59375 52.65625 34.296875 
Q 57.90625 29 57.90625 20.125 
Q 57.90625 9.515625 50.796875 4.046875 
Q 43.703125 -1.421875 29.984375 -1.421875 
Q 24.8125 -1.421875 18.96875 -0.25 
Q 13.140625 0.921875 6.890625 3.21875 
L 6.890625 13.375 
Q 12.890625 10.015625 18.65625 8.296875 
Q 24.421875 6.59375 29.984375 6.59375 
Q 38.421875 6.59375 43.015625 9.90625 
Q 47.609375 13.234375 47.609375 19.390625 
Q 47.609375 24.75 44.3125 27.78125 
Q 41.015625 30.8125 33.5 32.328125 
L 27.484375 33.5 
Q 16.453125 35.6875 11.515625 40.375 
Q 6.59375 45.0625 6.59375 53.421875 
Q 6.59375 63.09375 13.40625 68.65625 
Q 20.21875 74.21875 32.171875 74.21875 
Q 37.3125 74.21875 42.625 73.28125 
Q 47.953125 72.359375 53.515625 70.515625 
z
" id="DejaVuSans-83"/>
      <path d="M 45.40625 27.984375 
Q 45.40625 37.75 41.375 43.109375 
Q 37.359375 48.484375 30.078125 48.484375 
Q 22.859375 48.484375 18.828125 43.109375 
Q 14.796875 37.75 14.796875 27.984375 
Q 14.796875 18.265625 18.828125 12.890625 
Q 22.859375 7.515625 30.078125 7.515625 
Q 37.359375 7.515625 41.375 12.890625 
Q 45.40625 18.265625 45.40625 27.984375 
z
M 54.390625 6.78125 
Q 54.390625 -7.171875 48.1875 -13.984375 
Q 42 -20.796875 29.203125 -20.796875 
Q 24.46875 -20.796875 20.265625 -20.09375 
Q 16.0625 -19.390625 12.109375 -17.921875 
L 12.109375 -9.1875 
Q 16.0625 -11.328125 19.921875 -12.34375 
Q 23.78125 -13.375 27.78125 -13.375 
Q 36.625 -13.375 41.015625 -8.765625 
Q 45.40625 -4.15625 45.40625 5.171875 
L 45.40625 9.625 
Q 42.625 4.78125 38.28125 2.390625 
Q 33.9375 0 27.875 0 
Q 17.828125 0 11.671875 7.65625 
Q 5.515625 15.328125 5.515625 27.984375 
Q 5.515625 40.671875 11.671875 48.328125 
Q 17.828125 56 27.875 56 
Q 33.9375 56 38.28125 53.609375 
Q 42.625 51.21875 45.40625 46.390625 
L 45.40625 54.6875 
L 54.390625 54.6875 
z
" id="DejaVuSans-103"/>
      <path d="M 52 44.1875 
Q 55.375 50.25 60.0625 53.125 
Q 64.75 56 71.09375 56 
Q 79.640625 56 84.28125 50.015625 
Q 88.921875 44.046875 88.921875 33.015625 
L 88.921875 0 
L 79.890625 0 
L 79.890625 32.71875 
Q 79.890625 40.578125 77.09375 44.375 
Q 74.3125 48.1875 68.609375 48.1875 
Q 61.625 48.1875 57.5625 43.546875 
Q 53.515625 38.921875 53.515625 30.90625 
L 53.515625 0 
L 44.484375 0 
L 44.484375 32.71875 
Q 44.484375 40.625 41.703125 44.40625 
Q 38.921875 48.1875 33.109375 48.1875 
Q 26.21875 48.1875 22.15625 43.53125 
Q 18.109375 38.875 18.109375 30.90625 
L 18.109375 0 
L 9.078125 0 
L 9.078125 54.6875 
L 18.109375 54.6875 
L 18.109375 46.1875 
Q 21.1875 51.21875 25.484375 53.609375 
Q 29.78125 56 35.6875 56 
Q 41.65625 56 45.828125 52.96875 
Q 50 49.953125 52 44.1875 
z
" id="DejaVuSans-109"/>
      <path d="M 54.890625 33.015625 
L 54.890625 0 
L 45.90625 0 
L 45.90625 32.71875 
Q 45.90625 40.484375 42.875 44.328125 
Q 39.84375 48.1875 33.796875 48.1875 
Q 26.515625 48.1875 22.3125 43.546875 
Q 18.109375 38.921875 18.109375 30.90625 
L 18.109375 0 
L 9.078125 0 
L 9.078125 54.6875 
L 18.109375 54.6875 
L 18.109375 46.1875 
Q 21.34375 51.125 25.703125 53.5625 
Q 30.078125 56 35.796875 56 
Q 45.21875 56 50.046875 50.171875 
Q 54.890625 44.34375 54.890625 33.015625 
z
" id="DejaVuSans-110"/>
      <path id="DejaVuSans-32"/>
      <path d="M 41.109375 46.296875 
Q 39.59375 47.171875 37.8125 47.578125 
Q 36.03125 48 33.890625 48 
Q 26.265625 48 22.1875 43.046875 
Q 18.109375 38.09375 18.109375 28.8125 
L 18.109375 0 
L 9.078125 0 
L 9.078125 54.6875 
L 18.109375 54.6875 
L 18.109375 46.1875 
Q 20.953125 51.171875 25.484375 53.578125 
Q 30.03125 56 36.53125 56 
Q 37.453125 56 38.578125 55.875 
Q 39.703125 55.765625 41.0625 55.515625 
z
" id="DejaVuSans-114"/>
      <path d="M 31 75.875 
Q 24.46875 64.65625 21.28125 53.65625 
Q 18.109375 42.671875 18.109375 31.390625 
Q 18.109375 20.125 21.3125 9.0625 
Q 24.515625 -2 31 -13.1875 
L 23.1875 -13.1875 
Q 15.875 -1.703125 12.234375 9.375 
Q 8.59375 20.453125 8.59375 31.390625 
Q 8.59375 42.28125 12.203125 53.3125 
Q 15.828125 64.359375 23.1875 75.875 
z
" id="DejaVuSans-40"/>
      <path d="M 30.609375 48.390625 
Q 23.390625 48.390625 19.1875 42.75 
Q 14.984375 37.109375 14.984375 27.296875 
Q 14.984375 17.484375 19.15625 11.84375 
Q 23.34375 6.203125 30.609375 6.203125 
Q 37.796875 6.203125 41.984375 11.859375 
Q 46.1875 17.53125 46.1875 27.296875 
Q 46.1875 37.015625 41.984375 42.703125 
Q 37.796875 48.390625 30.609375 48.390625 
z
M 30.609375 56 
Q 42.328125 56 49.015625 48.375 
Q 55.71875 40.765625 55.71875 27.296875 
Q 55.71875 13.875 49.015625 6.21875 
Q 42.328125 -1.421875 30.609375 -1.421875 
Q 18.84375 -1.421875 12.171875 6.21875 
Q 5.515625 13.875 5.515625 27.296875 
Q 5.515625 40.765625 12.171875 48.375 
Q 18.84375 56 30.609375 56 
z
" id="DejaVuSans-111"/>
      <path d="M 4.890625 31.390625 
L 31.203125 31.390625 
L 31.203125 23.390625 
L 4.890625 23.390625 
z
" id="DejaVuSans-45"/>
      <path d="M 4.203125 54.6875 
L 13.1875 54.6875 
L 24.421875 12.015625 
L 35.59375 54.6875 
L 46.1875 54.6875 
L 57.421875 12.015625 
L 68.609375 54.6875 
L 77.59375 54.6875 
L 63.28125 0 
L 52.6875 0 
L 40.921875 44.828125 
L 29.109375 0 
L 18.5 0 
z
" id="DejaVuSans-119"/>
      <path d="M 8.015625 75.875 
L 15.828125 75.875 
Q 23.140625 64.359375 26.78125 53.3125 
Q 30.421875 42.28125 30.421875 31.390625 
Q 30.421875 20.453125 26.78125 9.375 
Q 23.140625 -1.703125 15.828125 -13.1875 
L 8.015625 -13.1875 
Q 14.5 -2 17.703125 9.0625 
Q 20.90625 20.125 20.90625 31.390625 
Q 20.90625 42.671875 17.703125 53.65625 
Q 14.5 64.65625 8.015625 75.875 
z
" id="DejaVuSans-41"/>
     </defs>
     <g style="fill:#262626;" transform="translate(148.7 87.378281)scale(0.11 -0.11)">
      <use xlink:href="#DejaVuSans-83"/>
      <use x="63.476562" xlink:href="#DejaVuSans-101"/>
      <use x="125" xlink:href="#DejaVuSans-103"/>
      <use x="188.476562" xlink:href="#DejaVuSans-109"/>
      <use x="285.888672" xlink:href="#DejaVuSans-101"/>
      <use x="347.412109" xlink:href="#DejaVuSans-110"/>
      <use x="410.791016" xlink:href="#DejaVuSans-116"/>
      <use x="450" xlink:href="#DejaVuSans-32"/>
      <use x="481.787109" xlink:href="#DejaVuSans-116"/>
      <use x="520.996094" xlink:href="#DejaVuSans-114"/>
      <use x="562.078125" xlink:href="#DejaVuSans-101"/>
      <use x="623.601562" xlink:href="#DejaVuSans-101"/>
      <use x="685.125" xlink:href="#DejaVuSans-32"/>
      <use x="716.912109" xlink:href="#DejaVuSans-40"/>
      <use x="755.925781" xlink:href="#DejaVuSans-116"/>
      <use x="795.134766" xlink:href="#DejaVuSans-111"/>
      <use x="856.316406" xlink:href="#DejaVuSans-112"/>
      <use x="919.792969" xlink:href="#DejaVuSans-45"/>
      <use x="955.876953" xlink:href="#DejaVuSans-100"/>
      <use x="1019.353516" xlink:href="#DejaVuSans-111"/>
      <use x="1080.535156" xlink:href="#DejaVuSans-119"/>
      <use x="1162.322266" xlink:href="#DejaVuSans-110"/>
      <use x="1225.701172" xlink:href="#DejaVuSans-41"/>
     </g>
    </g>
    <g id="line2d_22">
     <path d="M 117.9 99.674219 
L 139.9 99.674219 
" style="fill:none;stroke:#00008b;stroke-linecap:round;stroke-width:1.5;"/>
    </g>
    <g id="line2d_23"/>
    <g id="text_8">
     <!-- Segment tree (bottom-up) -->
     <defs>
      <path d="M 48.6875 27.296875 
Q 48.6875 37.203125 44.609375 42.84375 
Q 40.53125 48.484375 33.40625 48.484375 
Q 26.265625 48.484375 22.1875 42.84375 
Q 18.109375 37.203125 18.109375 27.296875 
Q 18.109375 17.390625 22.1875 11.75 
Q 26.265625 6.109375 33.40625 6.109375 
Q 40.53125 6.109375 44.609375 11.75 
Q 48.6875 17.390625 48.6875 27.296875 
z
M 18.109375 46.390625 
Q 20.953125 51.265625 25.265625 53.625 
Q 29.59375 56 35.59375 56 
Q 45.5625 56 51.78125 48.09375 
Q 58.015625 40.1875 58.015625 27.296875 
Q 58.015625 14.40625 51.78125 6.484375 
Q 45.5625 -1.421875 35.59375 -1.421875 
Q 29.59375 -1.421875 25.265625 0.953125 
Q 20.953125 3.328125 18.109375 8.203125 
L 18.109375 0 
L 9.078125 0 
L 9.078125 75.984375 
L 18.109375 75.984375 
z
" id="DejaVuSans-98"/>
      <path d="M 8.5 21.578125 
L 8.5 54.6875 
L 17.484375 54.6875 
L 17.484375 21.921875 
Q 17.484375 14.15625 20.5 10.265625 
Q 23.53125 6.390625 29.59375 6.390625 
Q 36.859375 6.390625 41.078125 11.03125 
Q 45.3125 15.671875 45.3125 23.6875 
L 45.3125 54.6875 
L 54.296875 54.6875 
L 54.296875 0 
L 45.3125 0 
L 45.3125 8.40625 
Q 42.046875 3.421875 37.71875 1 
Q 33.40625 -1.421875 27.6875 -1.421875 
Q 18.265625 -1.421875 13.375 4.4375 
Q 8.5 10.296875 8.5 21.578125 
z
M 31.109375 56 
z
" id="DejaVuSans-117"/>
     </defs>
     <g style="fill:#262626;" transform="translate(148.7 103.524219)scale(0.11 -0.11)">
      <use xlink:href="#DejaVuSans-83"/>
      <use x="63.476562" xlink:href="#DejaVuSans-101"/>
      <use x="125" xlink:href="#DejaVuSans-103"/>
      <use x="188.476562" xlink:href="#DejaVuSans-109"/>
      <use x="285.888672" xlink:href="#DejaVuSans-101"/>
      <use x="347.412109" xlink:href="#DejaVuSans-110"/>
      <use x="410.791016" xlink:href="#DejaVuSans-116"/>
      <use x="450" xlink:href="#DejaVuSans-32"/>
      <use x="481.787109" xlink:href="#DejaVuSans-116"/>
      <use x="520.996094" xlink:href="#DejaVuSans-114"/>
      <use x="562.078125" xlink:href="#DejaVuSans-101"/>
      <use x="623.601562" xlink:href="#DejaVuSans-101"/>
      <use x="685.125" xlink:href="#DejaVuSans-32"/>
      <use x="716.912109" xlink:href="#DejaVuSans-40"/>
      <use x="755.925781" xlink:href="#DejaVuSans-98"/>
      <use x="819.402344" xlink:href="#DejaVuSans-111"/>
      <use x="880.583984" xlink:href="#DejaVuSans-116"/>
      <use x="919.792969" xlink:href="#DejaVuSans-116"/>
      <use x="959.001953" xlink:href="#DejaVuSans-111"/>
      <use x="1020.183594" xlink:href="#DejaVuSans-109"/>
      <use x="1117.595703" xlink:href="#DejaVuSans-45"/>
      <use x="1153.679688" xlink:href="#DejaVuSans-117"/>
      <use x="1217.058594" xlink:href="#DejaVuSans-112"/>
      <use x="1280.535156" xlink:href="#DejaVuSans-41"/>
     </g>
    </g>
    <g id="line2d_24">
     <path d="M 117.9 115.820156 
L 139.9 115.820156 
" style="fill:none;stroke:#006400;stroke-linecap:round;stroke-width:1.5;"/>
    </g>
    <g id="line2d_25"/>
    <g id="text_9">
     <!-- Fenwick tree -->
     <defs>
      <path d="M 9.8125 72.90625 
L 51.703125 72.90625 
L 51.703125 64.59375 
L 19.671875 64.59375 
L 19.671875 43.109375 
L 48.578125 43.109375 
L 48.578125 34.8125 
L 19.671875 34.8125 
L 19.671875 0 
L 9.8125 0 
z
" id="DejaVuSans-70"/>
      <path d="M 9.421875 54.6875 
L 18.40625 54.6875 
L 18.40625 0 
L 9.421875 0 
z
M 9.421875 75.984375 
L 18.40625 75.984375 
L 18.40625 64.59375 
L 9.421875 64.59375 
z
" id="DejaVuSans-105"/>
      <path d="M 48.78125 52.59375 
L 48.78125 44.1875 
Q 44.96875 46.296875 41.140625 47.34375 
Q 37.3125 48.390625 33.40625 48.390625 
Q 24.65625 48.390625 19.8125 42.84375 
Q 14.984375 37.3125 14.984375 27.296875 
Q 14.984375 17.28125 19.8125 11.734375 
Q 24.65625 6.203125 33.40625 6.203125 
Q 37.3125 6.203125 41.140625 7.25 
Q 44.96875 8.296875 48.78125 10.40625 
L 48.78125 2.09375 
Q 45.015625 0.34375 40.984375 -0.53125 
Q 36.96875 -1.421875 32.421875 -1.421875 
Q 20.0625 -1.421875 12.78125 6.34375 
Q 5.515625 14.109375 5.515625 27.296875 
Q 5.515625 40.671875 12.859375 48.328125 
Q 20.21875 56 33.015625 56 
Q 37.15625 56 41.109375 55.140625 
Q 45.0625 54.296875 48.78125 52.59375 
z
" id="DejaVuSans-99"/>
      <path d="M 9.078125 75.984375 
L 18.109375 75.984375 
L 18.109375 31.109375 
L 44.921875 54.6875 
L 56.390625 54.6875 
L 27.390625 29.109375 
L 57.625 0 
L 45.90625 0 
L 18.109375 26.703125 
L 18.109375 0 
L 9.078125 0 
z
" id="DejaVuSans-107"/>
     </defs>
     <g style="fill:#262626;" transform="translate(148.7 119.670156)scale(0.11 -0.11)">
      <use xlink:href="#DejaVuSans-70"/>
      <use x="57.441406" xlink:href="#DejaVuSans-101"/>
      <use x="118.964844" xlink:href="#DejaVuSans-110"/>
      <use x="182.34375" xlink:href="#DejaVuSans-119"/>
      <use x="264.130859" xlink:href="#DejaVuSans-105"/>
      <use x="291.914062" xlink:href="#DejaVuSans-99"/>
      <use x="346.894531" xlink:href="#DejaVuSans-107"/>
      <use x="404.804688" xlink:href="#DejaVuSans-32"/>
      <use x="436.591797" xlink:href="#DejaVuSans-116"/>
      <use x="475.800781" xlink:href="#DejaVuSans-114"/>
      <use x="516.882812" xlink:href="#DejaVuSans-101"/>
      <use x="578.40625" xlink:href="#DejaVuSans-101"/>
     </g>
    </g>
    <g id="line2d_26">
     <path d="M 117.9 131.966094 
L 139.9 131.966094 
" style="fill:none;stroke:#800080;stroke-linecap:round;stroke-width:1.5;"/>
    </g>
    <g id="line2d_27"/>
    <g id="text_10">
     <!-- Wide segment tree -->
     <defs>
      <path d="M 3.328125 72.90625 
L 13.28125 72.90625 
L 28.609375 11.28125 
L 43.890625 72.90625 
L 54.984375 72.90625 
L 70.3125 11.28125 
L 85.59375 72.90625 
L 95.609375 72.90625 
L 77.296875 0 
L 64.890625 0 
L 49.515625 63.28125 
L 33.984375 0 
L 21.578125 0 
z
" id="DejaVuSans-87"/>
      <path d="M 44.28125 53.078125 
L 44.28125 44.578125 
Q 40.484375 46.53125 36.375 47.5 
Q 32.28125 48.484375 27.875 48.484375 
Q 21.1875 48.484375 17.84375 46.4375 
Q 14.5 44.390625 14.5 40.28125 
Q 14.5 37.15625 16.890625 35.375 
Q 19.28125 33.59375 26.515625 31.984375 
L 29.59375 31.296875 
Q 39.15625 29.25 43.1875 25.515625 
Q 47.21875 21.78125 47.21875 15.09375 
Q 47.21875 7.46875 41.1875 3.015625 
Q 35.15625 -1.421875 24.609375 -1.421875 
Q 20.21875 -1.421875 15.453125 -0.5625 
Q 10.6875 0.296875 5.421875 2 
L 5.421875 11.28125 
Q 10.40625 8.6875 15.234375 7.390625 
Q 20.0625 6.109375 24.8125 6.109375 
Q 31.15625 6.109375 34.5625 8.28125 
Q 37.984375 10.453125 37.984375 14.40625 
Q 37.984375 18.0625 35.515625 20.015625 
Q 33.0625 21.96875 24.703125 23.78125 
L 21.578125 24.515625 
Q 13.234375 26.265625 9.515625 29.90625 
Q 5.8125 33.546875 5.8125 39.890625 
Q 5.8125 47.609375 11.28125 51.796875 
Q 16.75 56 26.8125 56 
Q 31.78125 56 36.171875 55.265625 
Q 40.578125 54.546875 44.28125 53.078125 
z
" id="DejaVuSans-115"/>
     </defs>
     <g style="fill:#262626;" transform="translate(148.7 135.816094)scale(0.11 -0.11)">
      <use xlink:href="#DejaVuSans-87"/>
      <use x="98.845703" xlink:href="#DejaVuSans-105"/>
      <use x="126.628906" xlink:href="#DejaVuSans-100"/>
      <use x="190.105469" xlink:href="#DejaVuSans-101"/>
      <use x="251.628906" xlink:href="#DejaVuSans-32"/>
      <use x="283.416016" xlink:href="#DejaVuSans-115"/>
      <use x="335.515625" xlink:href="#DejaVuSans-101"/>
      <use x="397.039062" xlink:href="#DejaVuSans-103"/>
      <use x="460.515625" xlink:href="#DejaVuSans-109"/>
      <use x="557.927734" xlink:href="#DejaVuSans-101"/>
      <use x="619.451172" xlink:href="#DejaVuSans-110"/>
      <use x="682.830078" xlink:href="#DejaVuSans-116"/>
      <use x="722.039062" xlink:href="#DejaVuSans-32"/>
      <use x="753.826172" xlink:href="#DejaVuSans-116"/>
      <use x="793.035156" xlink:href="#DejaVuSans-114"/>
      <use x="834.117188" xlink:href="#DejaVuSans-101"/>
      <use x="895.640625" xlink:href="#DejaVuSans-101"/>
     </g>
    </g>
   </g>
  </g>
  <g id="axes_2">
   <g id="patch_8">
    <path d="M 108 512.64 
L 777.6 512.64 
L 777.6 311.04 
L 108 311.04 
z
" style="fill:#ffffff;"/>
   </g>
   <g id="matplotlib.axis_3">
    <g id="xtick_8">
     <g id="line2d_28">
      <path clip-path="url(#p47940dd31b)" d="M 160.116634 512.64 
L 160.116634 311.04 
" style="fill:none;stroke:#cccccc;stroke-linecap:round;"/>
     </g>
     <g id="text_11">
      <!-- $\mathdefault{2^{11}}$ -->
      <g style="fill:#262626;" transform="translate(151.481634 530.498281)scale(0.11 -0.11)">
       <use transform="translate(0 0.684375)" xlink:href="#DejaVuSans-50"/>
       <use transform="translate(64.580078 38.965625)scale(0.7)" xlink:href="#DejaVuSans-49"/>
       <use transform="translate(109.116211 38.965625)scale(0.7)" xlink:href="#DejaVuSans-49"/>
      </g>
     </g>
    </g>
    <g id="xtick_9">
     <g id="line2d_29">
      <path clip-path="url(#p47940dd31b)" d="M 260.901477 512.64 
L 260.901477 311.04 
" style="fill:none;stroke:#cccccc;stroke-linecap:round;"/>
     </g>
     <g id="text_12">
      <!-- $\mathdefault{2^{13}}$ -->
      <g style="fill:#262626;" transform="translate(252.266477 530.498281)scale(0.11 -0.11)">
       <use transform="translate(0 0.765625)" xlink:href="#DejaVuSans-50"/>
       <use transform="translate(64.580078 39.046875)scale(0.7)" xlink:href="#DejaVuSans-49"/>
       <use transform="translate(109.116211 39.046875)scale(0.7)" xlink:href="#DejaVuSans-51"/>
      </g>
     </g>
    </g>
    <g id="xtick_10">
     <g id="line2d_30">
      <path clip-path="url(#p47940dd31b)" d="M 361.686319 512.64 
L 361.686319 311.04 
" style="fill:none;stroke:#cccccc;stroke-linecap:round;"/>
     </g>
     <g id="text_13">
      <!-- $\mathdefault{2^{15}}$ -->
      <defs>
       <path d="M 10.796875 72.90625 
L 49.515625 72.90625 
L 49.515625 64.59375 
L 19.828125 64.59375 
L 19.828125 46.734375 
Q 21.96875 47.46875 24.109375 47.828125 
Q 26.265625 48.1875 28.421875 48.1875 
Q 40.625 48.1875 47.75 41.5 
Q 54.890625 34.8125 54.890625 23.390625 
Q 54.890625 11.625 47.5625 5.09375 
Q 40.234375 -1.421875 26.90625 -1.421875 
Q 22.3125 -1.421875 17.546875 -0.640625 
Q 12.796875 0.140625 7.71875 1.703125 
L 7.71875 11.625 
Q 12.109375 9.234375 16.796875 8.0625 
Q 21.484375 6.890625 26.703125 6.890625 
Q 35.15625 6.890625 40.078125 11.328125 
Q 45.015625 15.765625 45.015625 23.390625 
Q 45.015625 31 40.078125 35.4375 
Q 35.15625 39.890625 26.703125 39.890625 
Q 22.75 39.890625 18.8125 39.015625 
Q 14.890625 38.140625 10.796875 36.28125 
z
" id="DejaVuSans-53"/>
      </defs>
      <g style="fill:#262626;" transform="translate(353.051319 530.498281)scale(0.11 -0.11)">
       <use transform="translate(0 0.684375)" xlink:href="#DejaVuSans-50"/>
       <use transform="translate(64.580078 38.965625)scale(0.7)" xlink:href="#DejaVuSans-49"/>
       <use transform="translate(109.116211 38.965625)scale(0.7)" xlink:href="#DejaVuSans-53"/>
      </g>
     </g>
    </g>
    <g id="xtick_11">
     <g id="line2d_31">
      <path clip-path="url(#p47940dd31b)" d="M 462.471162 512.64 
L 462.471162 311.04 
" style="fill:none;stroke:#cccccc;stroke-linecap:round;"/>
     </g>
     <g id="text_14">
      <!-- $\mathdefault{2^{17}}$ -->
      <defs>
       <path d="M 8.203125 72.90625 
L 55.078125 72.90625 
L 55.078125 68.703125 
L 28.609375 0 
L 18.3125 0 
L 43.21875 64.59375 
L 8.203125 64.59375 
z
" id="DejaVuSans-55"/>
      </defs>
      <g style="fill:#262626;" transform="translate(453.836162 530.498281)scale(0.11 -0.11)">
       <use transform="translate(0 0.684375)" xlink:href="#DejaVuSans-50"/>
       <use transform="translate(64.580078 38.965625)scale(0.7)" xlink:href="#DejaVuSans-49"/>
       <use transform="translate(109.116211 38.965625)scale(0.7)" xlink:href="#DejaVuSans-55"/>
      </g>
     </g>
    </g>
    <g id="xtick_12">
     <g id="line2d_32">
      <path clip-path="url(#p47940dd31b)" d="M 563.256004 512.64 
L 563.256004 311.04 
" style="fill:none;stroke:#cccccc;stroke-linecap:round;"/>
     </g>
     <g id="text_15">
      <!-- $\mathdefault{2^{19}}$ -->
      <defs>
       <path d="M 10.984375 1.515625 
L 10.984375 10.5 
Q 14.703125 8.734375 18.5 7.8125 
Q 22.3125 6.890625 25.984375 6.890625 
Q 35.75 6.890625 40.890625 13.453125 
Q 46.046875 20.015625 46.78125 33.40625 
Q 43.953125 29.203125 39.59375 26.953125 
Q 35.25 24.703125 29.984375 24.703125 
Q 19.046875 24.703125 12.671875 31.3125 
Q 6.296875 37.9375 6.296875 49.421875 
Q 6.296875 60.640625 12.9375 67.421875 
Q 19.578125 74.21875 30.609375 74.21875 
Q 43.265625 74.21875 49.921875 64.515625 
Q 56.59375 54.828125 56.59375 36.375 
Q 56.59375 19.140625 48.40625 8.859375 
Q 40.234375 -1.421875 26.421875 -1.421875 
Q 22.703125 -1.421875 18.890625 -0.6875 
Q 15.09375 0.046875 10.984375 1.515625 
z
M 30.609375 32.421875 
Q 37.25 32.421875 41.125 36.953125 
Q 45.015625 41.5 45.015625 49.421875 
Q 45.015625 57.28125 41.125 61.84375 
Q 37.25 66.40625 30.609375 66.40625 
Q 23.96875 66.40625 20.09375 61.84375 
Q 16.21875 57.28125 16.21875 49.421875 
Q 16.21875 41.5 20.09375 36.953125 
Q 23.96875 32.421875 30.609375 32.421875 
z
" id="DejaVuSans-57"/>
      </defs>
      <g style="fill:#262626;" transform="translate(554.621004 530.498281)scale(0.11 -0.11)">
       <use transform="translate(0 0.765625)" xlink:href="#DejaVuSans-50"/>
       <use transform="translate(64.580078 39.046875)scale(0.7)" xlink:href="#DejaVuSans-49"/>
       <use transform="translate(109.116211 39.046875)scale(0.7)" xlink:href="#DejaVuSans-57"/>
      </g>
     </g>
    </g>
    <g id="xtick_13">
     <g id="line2d_33">
      <path clip-path="url(#p47940dd31b)" d="M 664.040847 512.64 
L 664.040847 311.04 
" style="fill:none;stroke:#cccccc;stroke-linecap:round;"/>
     </g>
     <g id="text_16">
      <!-- $\mathdefault{2^{21}}$ -->
      <g style="fill:#262626;" transform="translate(655.405847 530.498281)scale(0.11 -0.11)">
       <use transform="translate(0 0.765625)" xlink:href="#DejaVuSans-50"/>
       <use transform="translate(64.580078 39.046875)scale(0.7)" xlink:href="#DejaVuSans-50"/>
       <use transform="translate(109.116211 39.046875)scale(0.7)" xlink:href="#DejaVuSans-49"/>
      </g>
     </g>
    </g>
    <g id="xtick_14">
     <g id="line2d_34">
      <path clip-path="url(#p47940dd31b)" d="M 764.825689 512.64 
L 764.825689 311.04 
" style="fill:none;stroke:#cccccc;stroke-linecap:round;"/>
     </g>
     <g id="text_17">
      <!-- $\mathdefault{2^{23}}$ -->
      <g style="fill:#262626;" transform="translate(756.190689 530.498281)scale(0.11 -0.11)">
       <use transform="translate(0 0.765625)" xlink:href="#DejaVuSans-50"/>
       <use transform="translate(64.580078 39.046875)scale(0.7)" xlink:href="#DejaVuSans-50"/>
       <use transform="translate(109.116211 39.046875)scale(0.7)" xlink:href="#DejaVuSans-51"/>
      </g>
     </g>
    </g>
    <g id="text_18">
     <!-- Array size -->
     <defs>
      <path d="M 34.1875 63.1875 
L 20.796875 26.90625 
L 47.609375 26.90625 
z
M 28.609375 72.90625 
L 39.796875 72.90625 
L 67.578125 0 
L 57.328125 0 
L 50.6875 18.703125 
L 17.828125 18.703125 
L 11.1875 0 
L 0.78125 0 
z
" id="DejaVuSans-65"/>
      <path d="M 32.171875 -5.078125 
Q 28.375 -14.84375 24.75 -17.8125 
Q 21.140625 -20.796875 15.09375 -20.796875 
L 7.90625 -20.796875 
L 7.90625 -13.28125 
L 13.1875 -13.28125 
Q 16.890625 -13.28125 18.9375 -11.515625 
Q 21 -9.765625 23.484375 -3.21875 
L 25.09375 0.875 
L 2.984375 54.6875 
L 12.5 54.6875 
L 29.59375 11.921875 
L 46.6875 54.6875 
L 56.203125 54.6875 
z
" id="DejaVuSans-121"/>
      <path d="M 5.515625 54.6875 
L 48.1875 54.6875 
L 48.1875 46.484375 
L 14.40625 7.171875 
L 48.1875 7.171875 
L 48.1875 0 
L 4.296875 0 
L 4.296875 8.203125 
L 38.09375 47.515625 
L 5.515625 47.515625 
z
" id="DejaVuSans-122"/>
     </defs>
     <g style="fill:#262626;" transform="translate(412.995 545.904063)scale(0.12 -0.12)">
      <use xlink:href="#DejaVuSans-65"/>
      <use x="68.408203" xlink:href="#DejaVuSans-114"/>
      <use x="109.505859" xlink:href="#DejaVuSans-114"/>
      <use x="150.619141" xlink:href="#DejaVuSans-97"/>
      <use x="211.898438" xlink:href="#DejaVuSans-121"/>
      <use x="271.078125" xlink:href="#DejaVuSans-32"/>
      <use x="302.865234" xlink:href="#DejaVuSans-115"/>
      <use x="354.964844" xlink:href="#DejaVuSans-105"/>
      <use x="382.748047" xlink:href="#DejaVuSans-122"/>
      <use x="435.238281" xlink:href="#DejaVuSans-101"/>
     </g>
    </g>
   </g>
   <g id="matplotlib.axis_4">
    <g id="ytick_6">
     <g id="line2d_35">
      <path clip-path="url(#p47940dd31b)" d="M 108 512.64 
L 777.6 512.64 
" style="fill:none;stroke:#cccccc;stroke-linecap:round;"/>
     </g>
     <g id="text_19">
      <!-- 0 -->
      <g style="fill:#262626;" transform="translate(91.50125 516.819141)scale(0.11 -0.11)">
       <use xlink:href="#DejaVuSans-48"/>
      </g>
     </g>
    </g>
    <g id="ytick_7">
     <g id="line2d_36">
      <path clip-path="url(#p47940dd31b)" d="M 108 489.74218 
L 777.6 489.74218 
" style="fill:none;stroke:#cccccc;stroke-linecap:round;"/>
     </g>
     <g id="text_20">
      <!-- 25 -->
      <g style="fill:#262626;" transform="translate(84.5025 493.92132)scale(0.11 -0.11)">
       <use xlink:href="#DejaVuSans-50"/>
       <use x="63.623047" xlink:href="#DejaVuSans-53"/>
      </g>
     </g>
    </g>
    <g id="ytick_8">
     <g id="line2d_37">
      <path clip-path="url(#p47940dd31b)" d="M 108 466.844359 
L 777.6 466.844359 
" style="fill:none;stroke:#cccccc;stroke-linecap:round;"/>
     </g>
     <g id="text_21">
      <!-- 50 -->
      <g style="fill:#262626;" transform="translate(84.5025 471.0235)scale(0.11 -0.11)">
       <use xlink:href="#DejaVuSans-53"/>
       <use x="63.623047" xlink:href="#DejaVuSans-48"/>
      </g>
     </g>
    </g>
    <g id="ytick_9">
     <g id="line2d_38">
      <path clip-path="url(#p47940dd31b)" d="M 108 443.946539 
L 777.6 443.946539 
" style="fill:none;stroke:#cccccc;stroke-linecap:round;"/>
     </g>
     <g id="text_22">
      <!-- 75 -->
      <g style="fill:#262626;" transform="translate(84.5025 448.12568)scale(0.11 -0.11)">
       <use xlink:href="#DejaVuSans-55"/>
       <use x="63.623047" xlink:href="#DejaVuSans-53"/>
      </g>
     </g>
    </g>
    <g id="ytick_10">
     <g id="line2d_39">
      <path clip-path="url(#p47940dd31b)" d="M 108 421.048719 
L 777.6 421.048719 
" style="fill:none;stroke:#cccccc;stroke-linecap:round;"/>
     </g>
     <g id="text_23">
      <!-- 100 -->
      <g style="fill:#262626;" transform="translate(77.50375 425.227859)scale(0.11 -0.11)">
       <use xlink:href="#DejaVuSans-49"/>
       <use x="63.623047" xlink:href="#DejaVuSans-48"/>
       <use x="127.246094" xlink:href="#DejaVuSans-48"/>
      </g>
     </g>
    </g>
    <g id="ytick_11">
     <g id="line2d_40">
      <path clip-path="url(#p47940dd31b)" d="M 108 398.150898 
L 777.6 398.150898 
" style="fill:none;stroke:#cccccc;stroke-linecap:round;"/>
     </g>
     <g id="text_24">
      <!-- 125 -->
      <g style="fill:#262626;" transform="translate(77.50375 402.330039)scale(0.11 -0.11)">
       <use xlink:href="#DejaVuSans-49"/>
       <use x="63.623047" xlink:href="#DejaVuSans-50"/>
       <use x="127.246094" xlink:href="#DejaVuSans-53"/>
      </g>
     </g>
    </g>
    <g id="ytick_12">
     <g id="line2d_41">
      <path clip-path="url(#p47940dd31b)" d="M 108 375.253078 
L 777.6 375.253078 
" style="fill:none;stroke:#cccccc;stroke-linecap:round;"/>
     </g>
     <g id="text_25">
      <!-- 150 -->
      <g style="fill:#262626;" transform="translate(77.50375 379.432219)scale(0.11 -0.11)">
       <use xlink:href="#DejaVuSans-49"/>
       <use x="63.623047" xlink:href="#DejaVuSans-53"/>
       <use x="127.246094" xlink:href="#DejaVuSans-48"/>
      </g>
     </g>
    </g>
    <g id="ytick_13">
     <g id="line2d_42">
      <path clip-path="url(#p47940dd31b)" d="M 108 352.355258 
L 777.6 352.355258 
" style="fill:none;stroke:#cccccc;stroke-linecap:round;"/>
     </g>
     <g id="text_26">
      <!-- 175 -->
      <g style="fill:#262626;" transform="translate(77.50375 356.534398)scale(0.11 -0.11)">
       <use xlink:href="#DejaVuSans-49"/>
       <use x="63.623047" xlink:href="#DejaVuSans-55"/>
       <use x="127.246094" xlink:href="#DejaVuSans-53"/>
      </g>
     </g>
    </g>
    <g id="ytick_14">
     <g id="line2d_43">
      <path clip-path="url(#p47940dd31b)" d="M 108 329.457437 
L 777.6 329.457437 
" style="fill:none;stroke:#cccccc;stroke-linecap:round;"/>
     </g>
     <g id="text_27">
      <!-- 200 -->
      <g style="fill:#262626;" transform="translate(77.50375 333.636578)scale(0.11 -0.11)">
       <use xlink:href="#DejaVuSans-50"/>
       <use x="63.623047" xlink:href="#DejaVuSans-48"/>
       <use x="127.246094" xlink:href="#DejaVuSans-48"/>
      </g>
     </g>
    </g>
    <g id="text_28">
     <!-- Prefix sum -->
     <defs>
      <path d="M 19.671875 64.796875 
L 19.671875 37.40625 
L 32.078125 37.40625 
Q 38.96875 37.40625 42.71875 40.96875 
Q 46.484375 44.53125 46.484375 51.125 
Q 46.484375 57.671875 42.71875 61.234375 
Q 38.96875 64.796875 32.078125 64.796875 
z
M 9.8125 72.90625 
L 32.078125 72.90625 
Q 44.34375 72.90625 50.609375 67.359375 
Q 56.890625 61.8125 56.890625 51.125 
Q 56.890625 40.328125 50.609375 34.8125 
Q 44.34375 29.296875 32.078125 29.296875 
L 19.671875 29.296875 
L 19.671875 0 
L 9.8125 0 
z
" id="DejaVuSans-80"/>
      <path d="M 37.109375 75.984375 
L 37.109375 68.5 
L 28.515625 68.5 
Q 23.6875 68.5 21.796875 66.546875 
Q 19.921875 64.59375 19.921875 59.515625 
L 19.921875 54.6875 
L 34.71875 54.6875 
L 34.71875 47.703125 
L 19.921875 47.703125 
L 19.921875 0 
L 10.890625 0 
L 10.890625 47.703125 
L 2.296875 47.703125 
L 2.296875 54.6875 
L 10.890625 54.6875 
L 10.890625 58.5 
Q 10.890625 67.625 15.140625 71.796875 
Q 19.390625 75.984375 28.609375 75.984375 
z
" id="DejaVuSans-102"/>
      <path d="M 54.890625 54.6875 
L 35.109375 28.078125 
L 55.90625 0 
L 45.3125 0 
L 29.390625 21.484375 
L 13.484375 0 
L 2.875 0 
L 24.125 28.609375 
L 4.6875 54.6875 
L 15.28125 54.6875 
L 29.78125 35.203125 
L 44.28125 54.6875 
z
" id="DejaVuSans-120"/>
     </defs>
     <g style="fill:#262626;" transform="translate(71.008125 443.623125)rotate(-90)scale(0.12 -0.12)">
      <use xlink:href="#DejaVuSans-80"/>
      <use x="60.287109" xlink:href="#DejaVuSans-114"/>
      <use x="101.369141" xlink:href="#DejaVuSans-101"/>
      <use x="162.892578" xlink:href="#DejaVuSans-102"/>
      <use x="198.097656" xlink:href="#DejaVuSans-105"/>
      <use x="225.880859" xlink:href="#DejaVuSans-120"/>
      <use x="285.060547" xlink:href="#DejaVuSans-32"/>
      <use x="316.847656" xlink:href="#DejaVuSans-115"/>
      <use x="368.947266" xlink:href="#DejaVuSans-117"/>
      <use x="432.326172" xlink:href="#DejaVuSans-109"/>
     </g>
    </g>
   </g>
   <g id="line2d_44">
    <path clip-path="url(#p47940dd31b)" d="M -1 511.666406 
L 5.15049 511.666364 
L 16.48549 511.66094 
L 28.057165 511.645617 
L 39.357563 511.658906 
L 50.910715 511.638088 
L 62.254135 511.651281 
L 73.7139 511.638391 
L 85.120247 511.616594 
L 96.611128 511.617881 
L 108 511.60853 
L 119.414313 511.610838 
L 130.833937 511.555971 
L 142.260504 511.60426 
L 153.661629 511.592123 
L 165.089867 511.57843 
L 176.509564 511.584594 
L 187.918549 511.576143 
L 199.325825 511.544271 
L 210.757121 511.530549 
L 222.16085 511.539199 
L 233.583434 511.50543 
L 244.993109 511.411293 
L 256.407988 511.383235 
L 267.828998 511.380627 
L 279.244208 511.317578 
L 290.656694 511.209121 
L 302.071259 511.18735 
L 313.483678 511.193371 
L 324.900016 511.122686 
L 336.315838 511.080383 
L 347.728673 510.792249 
L 359.144181 510.868768 
L 370.55822 510.823533 
L 381.973255 510.420498 
L 393.386779 510.484135 
L 404.800773 510.482005 
L 416.215286 510.566567 
L 427.630127 510.4005 
L 439.044142 510.190629 
L 450.459077 509.77296 
L 461.872999 509.795359 
L 473.287474 509.602134 
L 484.701927 510.116845 
L 496.116118 510.056188 
L 507.530673 509.821955 
L 518.944856 510.061608 
L 530.359267 509.670355 
L 541.773662 509.78822 
L 553.187998 509.797576 
L 564.60225 509.495308 
L 576.016588 509.529761 
L 587.430907 509.675237 
L 598.845217 509.6811 
L 610.259518 509.545932 
L 621.673879 509.723857 
L 633.08819 509.823157 
L 644.50247 509.702448 
L 655.916812 509.128583 
L 667.331129 509.151003 
L 678.745424 509.285157 
L 690.159756 509.357257 
L 701.574062 509.334341 
L 712.98837 509.283454 
L 724.402693 509.156681 
L 735.817012 509.250072 
L 747.231316 508.931888 
L 758.645637 509.06383 
L 770.059949 509.07689 
L 781.47426 508.861219 
" style="fill:none;stroke:#8b0000;stroke-linecap:round;stroke-width:1.5;"/>
   </g>
   <g id="line2d_45">
    <path clip-path="url(#p47940dd31b)" d="M -1 510.89513 
L 5.15049 510.890457 
L 16.48549 510.884728 
L 28.057165 510.82195 
L 39.357563 510.815924 
L 50.910715 510.86515 
L 62.254135 510.813758 
L 73.7139 510.91793 
L 85.120247 510.840364 
L 96.611128 510.857384 
L 108 510.837367 
L 119.414313 510.772458 
L 130.833937 510.733751 
L 142.260504 510.818936 
L 153.661629 510.80597 
L 165.089867 510.697231 
L 176.509564 510.739321 
L 187.918549 510.826358 
L 199.325825 510.769049 
L 210.757121 510.625882 
L 222.16085 510.757649 
L 233.583434 510.708264 
L 244.993109 510.526039 
L 256.407988 510.466043 
L 267.828998 510.351153 
L 279.244208 510.313488 
L 290.656694 510.11055 
L 302.071259 510.143561 
L 313.483678 510.051501 
L 324.900016 510.006933 
L 336.315838 510.021646 
L 347.728673 509.470812 
L 359.144181 509.582785 
L 370.55822 509.356105 
L 381.973255 508.611565 
L 393.386779 508.803783 
L 404.800773 508.928734 
L 416.215286 508.860729 
L 427.630127 508.565108 
L 439.044142 508.087997 
L 450.459077 507.538365 
L 461.872999 507.223802 
L 473.287474 506.973384 
L 484.701927 507.784186 
L 496.116118 507.693367 
L 507.530673 507.217739 
L 518.944856 507.293569 
L 530.359267 506.611306 
L 541.773662 507.006518 
L 553.187998 506.747315 
L 564.60225 506.199922 
L 576.016588 506.580178 
L 587.430907 506.696667 
L 598.845217 506.605726 
L 610.259518 506.517732 
L 621.673879 506.565372 
L 633.08819 507.101537 
L 644.50247 506.524495 
L 655.916812 505.440774 
L 667.331129 505.64294 
L 678.745424 505.664691 
L 690.159756 505.727107 
L 701.574062 505.55103 
L 712.98837 505.583423 
L 724.402693 505.601252 
L 735.817012 505.520498 
L 747.231316 504.738163 
L 758.645637 505.23389 
L 770.059949 505.158193 
L 781.47426 505.071803 
" style="fill:none;stroke:#00008b;stroke-linecap:round;stroke-width:1.5;"/>
   </g>
   <g id="line2d_46">
    <path clip-path="url(#p47940dd31b)" d="M -1 507.220338 
L 5.15049 507.178264 
L 16.48549 507.279385 
L 28.057165 506.870496 
L 39.357563 506.866357 
L 50.910715 506.713234 
L 62.254135 506.835932 
L 73.7139 506.481135 
L 85.120247 506.22153 
L 96.611128 506.192614 
L 108 506.162025 
L 119.414313 505.999632 
L 130.833937 505.666133 
L 142.260504 505.831951 
L 153.661629 505.547596 
L 165.089867 505.540185 
L 176.509564 505.629161 
L 187.918549 505.184424 
L 199.325825 505.157098 
L 210.757121 504.935685 
L 222.16085 505.060736 
L 233.583434 504.492555 
L 244.993109 503.748986 
L 256.407988 503.690034 
L 267.828998 503.330403 
L 279.244208 502.979487 
L 290.656694 501.872297 
L 302.071259 501.881775 
L 313.483678 501.644596 
L 324.900016 501.190097 
L 336.315838 500.75138 
L 347.728673 498.416043 
L 359.144181 498.597316 
L 370.55822 497.99245 
L 381.973255 494.060222 
L 393.386779 495.161078 
L 404.800773 494.559873 
L 416.215286 494.856748 
L 427.630127 492.864199 
L 439.044142 490.986937 
L 450.459077 486.892877 
L 461.872999 487.216297 
L 473.287474 484.387966 
L 484.701927 488.607427 
L 496.116118 489.014982 
L 507.530673 486.791729 
L 518.944856 486.245476 
L 530.359267 482.660829 
L 541.773662 485.476634 
L 553.187998 484.27326 
L 564.60225 490.943538 
L 576.016588 488.374008 
L 587.430907 487.891853 
L 598.845217 488.435633 
L 610.259518 489.159405 
L 621.673879 498.078575 
L 633.08819 497.516589 
L 644.50247 502.371722 
L 655.916812 498.720316 
L 667.331129 503.147501 
L 678.745424 500.744895 
L 690.159756 502.148076 
L 701.574062 503.555801 
L 712.98837 504.261373 
L 724.402693 505.25887 
L 735.817012 505.037343 
L 747.231316 505.154417 
L 758.645637 505.586478 
L 770.059949 506.275878 
L 781.47426 506.222591 
" style="fill:none;stroke:#006400;stroke-linecap:round;stroke-width:1.5;"/>
   </g>
   <g id="line2d_47">
    <path clip-path="url(#p47940dd31b)" d="M -1 446.386824 
L 5.15049 442.47129 
L 16.48549 456.176992 
L 28.057165 452.929106 
L 39.357563 451.964889 
L 50.910715 449.632831 
L 62.254135 448.065404 
L 73.7139 445.894233 
L 85.120247 443.036111 
L 96.611128 441.911787 
L 108 438.473 
L 119.414313 436.931853 
L 130.833937 444.958623 
L 142.260504 433.756323 
L 153.661629 430.50401 
L 165.089867 427.739818 
L 176.509564 426.494835 
L 187.918549 424.021322 
L 199.325825 419.798251 
L 210.757121 415.805529 
L 222.16085 434.598969 
L 233.583434 430.22546 
L 244.993109 422.105541 
L 256.407988 418.130068 
L 267.828998 417.02912 
L 279.244208 411.726188 
L 290.656694 403.018805 
L 302.071259 400.645389 
L 313.483678 398.4492 
L 324.900016 392.572157 
L 336.315838 388.428132 
L 347.728673 363.288451 
L 359.144181 366.16788 
L 370.55822 360.500776 
L 381.973255 320.594157 
L 393.386779 326.608827 
L 404.800773 341.41904 
L 416.215286 336.903883 
L 427.630127 366.57557 
L 439.044142 347.698448 
L 450.459077 340.671247 
L 461.872999 349.573258 
L 473.287474 332.175776 
L 484.701927 371.777937 
L 496.116118 364.664383 
L 507.530673 359.277187 
L 518.944856 380.335076 
L 530.359267 371.125972 
L 541.773662 360.797289 
L 553.187998 420.081418 
L 564.60225 349.381766 
L 576.016588 405.156422 
L 587.430907 376.909027 
L 598.845217 413.324845 
L 610.259518 451.523533 
L 621.673879 459.955526 
L 633.08819 458.11855 
L 644.50247 462.646533 
L 655.916812 449.550125 
L 667.331129 460.613958 
L 678.745424 465.367557 
L 690.159756 461.195862 
L 701.574062 461.389768 
L 712.98837 462.521052 
L 724.402693 461.909417 
L 735.817012 468.199779 
L 747.231316 457.654844 
L 758.645637 460.178963 
L 770.059949 459.032774 
L 781.47426 457.62718 
" style="fill:none;stroke:#800080;stroke-linecap:round;stroke-width:1.5;"/>
   </g>
   <g id="line2d_48">
    <path clip-path="url(#p47940dd31b)" d="M 260.901477 512.64 
L 260.901477 311.04 
" style="fill:none;stroke:#000000;stroke-dasharray:3.7,1.6;stroke-dashoffset:0;"/>
   </g>
   <g id="line2d_49">
    <path clip-path="url(#p47940dd31b)" d="M 462.471162 512.64 
L 462.471162 311.04 
" style="fill:none;stroke:#000000;stroke-dasharray:3.7,1.6;stroke-dashoffset:0;"/>
   </g>
   <g id="line2d_50">
    <path clip-path="url(#p47940dd31b)" d="M 613.648425 512.64 
L 613.648425 311.04 
" style="fill:none;stroke:#000000;stroke-dasharray:3.7,1.6;stroke-dashoffset:0;"/>
   </g>
   <g id="patch_9">
    <path d="M 108 512.64 
L 108 311.04 
" style="fill:none;stroke:#cccccc;stroke-linecap:square;stroke-linejoin:miter;stroke-width:1.25;"/>
   </g>
   <g id="patch_10">
    <path d="M 777.6 512.64 
L 777.6 311.04 
" style="fill:none;stroke:#cccccc;stroke-linecap:square;stroke-linejoin:miter;stroke-width:1.25;"/>
   </g>
   <g id="patch_11">
    <path d="M 108 512.64 
L 777.6 512.64 
" style="fill:none;stroke:#cccccc;stroke-linecap:square;stroke-linejoin:miter;stroke-width:1.25;"/>
   </g>
   <g id="patch_12">
    <path d="M 108 311.04 
L 777.6 311.04 
" style="fill:none;stroke:#cccccc;stroke-linecap:square;stroke-linejoin:miter;stroke-width:1.25;"/>
   </g>
  </g>
  <g id="text_29">
   <!-- * vs. pointer-based segment tree -->
   <defs>
    <path d="M 47.015625 60.890625 
L 29.5 51.421875 
L 47.015625 41.890625 
L 44.1875 37.109375 
L 27.78125 47.015625 
L 27.78125 28.609375 
L 22.21875 28.609375 
L 22.21875 47.015625 
L 5.8125 37.109375 
L 2.984375 41.890625 
L 20.515625 51.421875 
L 2.984375 60.890625 
L 5.8125 65.71875 
L 22.21875 55.8125 
L 22.21875 74.21875 
L 27.78125 74.21875 
L 27.78125 55.8125 
L 44.1875 65.71875 
z
" id="DejaVuSans-42"/>
    <path d="M 2.984375 54.6875 
L 12.5 54.6875 
L 29.59375 8.796875 
L 46.6875 54.6875 
L 56.203125 54.6875 
L 35.6875 0 
L 23.484375 0 
z
" id="DejaVuSans-118"/>
    <path d="M 10.6875 12.40625 
L 21 12.40625 
L 21 0 
L 10.6875 0 
z
" id="DejaVuSans-46"/>
   </defs>
   <g style="fill:#262626;" transform="translate(312.6465 39.74175)scale(0.144 -0.144)">
    <use xlink:href="#DejaVuSans-42"/>
    <use x="50" xlink:href="#DejaVuSans-32"/>
    <use x="81.787109" xlink:href="#DejaVuSans-118"/>
    <use x="140.966797" xlink:href="#DejaVuSans-115"/>
    <use x="193.066406" xlink:href="#DejaVuSans-46"/>
    <use x="224.853516" xlink:href="#DejaVuSans-32"/>
    <use x="256.640625" xlink:href="#DejaVuSans-112"/>
    <use x="320.117188" xlink:href="#DejaVuSans-111"/>
    <use x="381.298828" xlink:href="#DejaVuSans-105"/>
    <use x="409.082031" xlink:href="#DejaVuSans-110"/>
    <use x="472.460938" xlink:href="#DejaVuSans-116"/>
    <use x="511.669922" xlink:href="#DejaVuSans-101"/>
    <use x="573.193359" xlink:href="#DejaVuSans-114"/>
    <use x="614.212891" xlink:href="#DejaVuSans-45"/>
    <use x="650.296875" xlink:href="#DejaVuSans-98"/>
    <use x="713.773438" xlink:href="#DejaVuSans-97"/>
    <use x="775.052734" xlink:href="#DejaVuSans-115"/>
    <use x="827.152344" xlink:href="#DejaVuSans-101"/>
    <use x="888.675781" xlink:href="#DejaVuSans-100"/>
    <use x="952.152344" xlink:href="#DejaVuSans-32"/>
    <use x="983.939453" xlink:href="#DejaVuSans-115"/>
    <use x="1036.039062" xlink:href="#DejaVuSans-101"/>
    <use x="1097.5625" xlink:href="#DejaVuSans-103"/>
    <use x="1161.039062" xlink:href="#DejaVuSans-109"/>
    <use x="1258.451172" xlink:href="#DejaVuSans-101"/>
    <use x="1319.974609" xlink:href="#DejaVuSans-110"/>
    <use x="1383.353516" xlink:href="#DejaVuSans-116"/>
    <use x="1422.5625" xlink:href="#DejaVuSans-32"/>
    <use x="1454.349609" xlink:href="#DejaVuSans-116"/>
    <use x="1493.558594" xlink:href="#DejaVuSans-114"/>
    <use x="1534.640625" xlink:href="#DejaVuSans-101"/>
    <use x="1596.164062" xlink:href="#DejaVuSans-101"/>
   </g>
  </g>
 </g>
 <defs>
  <clipPath id="p0598dbf3a4">
   <rect height="201.6" width="669.6" x="108" y="69.12"/>
  </clipPath>
  <clipPath id="p47940dd31b">
   <rect height="201.6" width="669.6" x="108" y="311.04"/>
  </clipPath>
 </defs>
</svg>
