<?xml version="1.0" encoding="utf-8" standalone="no"?>
<!DOCTYPE svg PUBLIC "-//W3C//DTD SVG 1.1//EN"
  "http://www.w3.org/Graphics/SVG/1.1/DTD/svg11.dtd">
<!-- Created with matplotlib (https://matplotlib.org/) -->
<svg height="345.6pt" version="1.1" viewBox="0 0 460.8 345.6" width="460.8pt" xmlns="http://www.w3.org/2000/svg" xmlns:xlink="http://www.w3.org/1999/xlink">
 <defs>
  <style type="text/css">
*{stroke-linecap:butt;stroke-linejoin:round;}
  </style>
 </defs>
 <g id="figure_1">
  <g id="patch_1">
   <path d="M 0 345.6 
L 460.8 345.6 
L 460.8 0 
L 0 0 
z
" style="fill:#ffffff;"/>
  </g>
  <g id="axes_1">
   <g id="patch_2">
    <path d="M 57.6 307.584 
L 414.72 307.584 
L 414.72 41.472 
L 57.6 41.472 
z
" style="fill:#ffffff;"/>
   </g>
   <g id="matplotlib.axis_1">
    <g id="xtick_1">
     <g id="line2d_1">
      <path clip-path="url(#pc6f59f9c42)" d="M 78.607059 307.584 
L 78.607059 41.472 
" style="fill:none;stroke:#cccccc;stroke-linecap:round;"/>
     </g>
     <g id="text_1">
      <!-- 16 -->
      <defs>
       <path d="M 12.40625 8.296875 
L 28.515625 8.296875 
L 28.515625 63.921875 
L 10.984375 60.40625 
L 10.984375 69.390625 
L 28.421875 72.90625 
L 38.28125 72.90625 
L 38.28125 8.296875 
L 54.390625 8.296875 
L 54.390625 0 
L 12.40625 0 
z
" id="DejaVuSans-49"/>
       <path d="M 33.015625 40.375 
Q 26.375 40.375 22.484375 35.828125 
Q 18.609375 31.296875 18.609375 23.390625 
Q 18.609375 15.53125 22.484375 10.953125 
Q 26.375 6.390625 33.015625 6.390625 
Q 39.65625 6.390625 43.53125 10.953125 
Q 47.40625 15.53125 47.40625 23.390625 
Q 47.40625 31.296875 43.53125 35.828125 
Q 39.65625 40.375 33.015625 40.375 
z
M 52.59375 71.296875 
L 52.59375 62.3125 
Q 48.875 64.0625 45.09375 64.984375 
Q 41.3125 65.921875 37.59375 65.921875 
Q 27.828125 65.921875 22.671875 59.328125 
Q 17.53125 52.734375 16.796875 39.40625 
Q 19.671875 43.65625 24.015625 45.921875 
Q 28.375 48.1875 33.59375 48.1875 
Q 44.578125 48.1875 50.953125 41.515625 
Q 57.328125 34.859375 57.328125 23.390625 
Q 57.328125 12.15625 50.6875 5.359375 
Q 44.046875 -1.421875 33.015625 -1.421875 
Q 20.359375 -1.421875 13.671875 8.265625 
Q 6.984375 17.96875 6.984375 36.375 
Q 6.984375 53.65625 15.1875 63.9375 
Q 23.390625 74.21875 37.203125 74.21875 
Q 40.921875 74.21875 44.703125 73.484375 
Q 48.484375 72.75 52.59375 71.296875 
z
" id="DejaVuSans-54"/>
      </defs>
      <g style="fill:#262626;" transform="translate(72.880809 323.922594)scale(0.09 -0.09)">
       <use xlink:href="#DejaVuSans-49"/>
       <use x="63.623047" xlink:href="#DejaVuSans-54"/>
      </g>
     </g>
    </g>
    <g id="xtick_2">
     <g id="line2d_2">
      <path clip-path="url(#pc6f59f9c42)" d="M 99.614118 307.584 
L 99.614118 41.472 
" style="fill:none;stroke:#cccccc;stroke-linecap:round;"/>
     </g>
     <g id="text_2">
      <!-- 32 -->
      <defs>
       <path d="M 40.578125 39.3125 
Q 47.65625 37.796875 51.625 33 
Q 55.609375 28.21875 55.609375 21.1875 
Q 55.609375 10.40625 48.1875 4.484375 
Q 40.765625 -1.421875 27.09375 -1.421875 
Q 22.515625 -1.421875 17.65625 -0.515625 
Q 12.796875 0.390625 7.625 2.203125 
L 7.625 11.71875 
Q 11.71875 9.328125 16.59375 8.109375 
Q 21.484375 6.890625 26.8125 6.890625 
Q 36.078125 6.890625 40.9375 10.546875 
Q 45.796875 14.203125 45.796875 21.1875 
Q 45.796875 27.640625 41.28125 31.265625 
Q 36.765625 34.90625 28.71875 34.90625 
L 20.21875 34.90625 
L 20.21875 43.015625 
L 29.109375 43.015625 
Q 36.375 43.015625 40.234375 45.921875 
Q 44.09375 48.828125 44.09375 54.296875 
Q 44.09375 59.90625 40.109375 62.90625 
Q 36.140625 65.921875 28.71875 65.921875 
Q 24.65625 65.921875 20.015625 65.03125 
Q 15.375 64.15625 9.8125 62.3125 
L 9.8125 71.09375 
Q 15.4375 72.65625 20.34375 73.4375 
Q 25.25 74.21875 29.59375 74.21875 
Q 40.828125 74.21875 47.359375 69.109375 
Q 53.90625 64.015625 53.90625 55.328125 
Q 53.90625 49.265625 50.4375 45.09375 
Q 46.96875 40.921875 40.578125 39.3125 
z
" id="DejaVuSans-51"/>
       <path d="M 19.1875 8.296875 
L 53.609375 8.296875 
L 53.609375 0 
L 7.328125 0 
L 7.328125 8.296875 
Q 12.9375 14.109375 22.625 23.890625 
Q 32.328125 33.6875 34.8125 36.53125 
Q 39.546875 41.84375 41.421875 45.53125 
Q 43.3125 49.21875 43.3125 52.78125 
Q 43.3125 58.59375 39.234375 62.25 
Q 35.15625 65.921875 28.609375 65.921875 
Q 23.96875 65.921875 18.8125 64.3125 
Q 13.671875 62.703125 7.8125 59.421875 
L 7.8125 69.390625 
Q 13.765625 71.78125 18.9375 73 
Q 24.125 74.21875 28.421875 74.21875 
Q 39.75 74.21875 46.484375 68.546875 
Q 53.21875 62.890625 53.21875 53.421875 
Q 53.21875 48.921875 51.53125 44.890625 
Q 49.859375 40.875 45.40625 35.40625 
Q 44.1875 33.984375 37.640625 27.21875 
Q 31.109375 20.453125 19.1875 8.296875 
z
" id="DejaVuSans-50"/>
      </defs>
      <g style="fill:#262626;" transform="translate(93.887868 323.922594)scale(0.09 -0.09)">
       <use xlink:href="#DejaVuSans-51"/>
       <use x="63.623047" xlink:href="#DejaVuSans-50"/>
      </g>
     </g>
    </g>
    <g id="xtick_3">
     <g id="line2d_3">
      <path clip-path="url(#pc6f59f9c42)" d="M 120.621176 307.584 
L 120.621176 41.472 
" style="fill:none;stroke:#cccccc;stroke-linecap:round;"/>
     </g>
     <g id="text_3">
      <!-- 48 -->
      <defs>
       <path d="M 37.796875 64.3125 
L 12.890625 25.390625 
L 37.796875 25.390625 
z
M 35.203125 72.90625 
L 47.609375 72.90625 
L 47.609375 25.390625 
L 58.015625 25.390625 
L 58.015625 17.1875 
L 47.609375 17.1875 
L 47.609375 0 
L 37.796875 0 
L 37.796875 17.1875 
L 4.890625 17.1875 
L 4.890625 26.703125 
z
" id="DejaVuSans-52"/>
       <path d="M 31.78125 34.625 
Q 24.75 34.625 20.71875 30.859375 
Q 16.703125 27.09375 16.703125 20.515625 
Q 16.703125 13.921875 20.71875 10.15625 
Q 24.75 6.390625 31.78125 6.390625 
Q 38.8125 6.390625 42.859375 10.171875 
Q 46.921875 13.96875 46.921875 20.515625 
Q 46.921875 27.09375 42.890625 30.859375 
Q 38.875 34.625 31.78125 34.625 
z
M 21.921875 38.8125 
Q 15.578125 40.375 12.03125 44.71875 
Q 8.5 49.078125 8.5 55.328125 
Q 8.5 64.0625 14.71875 69.140625 
Q 20.953125 74.21875 31.78125 74.21875 
Q 42.671875 74.21875 48.875 69.140625 
Q 55.078125 64.0625 55.078125 55.328125 
Q 55.078125 49.078125 51.53125 44.71875 
Q 48 40.375 41.703125 38.8125 
Q 48.828125 37.15625 52.796875 32.3125 
Q 56.78125 27.484375 56.78125 20.515625 
Q 56.78125 9.90625 50.3125 4.234375 
Q 43.84375 -1.421875 31.78125 -1.421875 
Q 19.734375 -1.421875 13.25 4.234375 
Q 6.78125 9.90625 6.78125 20.515625 
Q 6.78125 27.484375 10.78125 32.3125 
Q 14.796875 37.15625 21.921875 38.8125 
z
M 18.3125 54.390625 
Q 18.3125 48.734375 21.84375 45.5625 
Q 25.390625 42.390625 31.78125 42.390625 
Q 38.140625 42.390625 41.71875 45.5625 
Q 45.3125 48.734375 45.3125 54.390625 
Q 45.3125 60.0625 41.71875 63.234375 
Q 38.140625 66.40625 31.78125 66.40625 
Q 25.390625 66.40625 21.84375 63.234375 
Q 18.3125 60.0625 18.3125 54.390625 
z
" id="DejaVuSans-56"/>
      </defs>
      <g style="fill:#262626;" transform="translate(114.894926 323.922594)scale(0.09 -0.09)">
       <use xlink:href="#DejaVuSans-52"/>
       <use x="63.623047" xlink:href="#DejaVuSans-56"/>
      </g>
     </g>
    </g>
    <g id="xtick_4">
     <g id="line2d_4">
      <path clip-path="url(#pc6f59f9c42)" d="M 141.628235 307.584 
L 141.628235 41.472 
" style="fill:none;stroke:#cccccc;stroke-linecap:round;"/>
     </g>
     <g id="text_4">
      <!-- 64 -->
      <g style="fill:#262626;" transform="translate(135.901985 323.922594)scale(0.09 -0.09)">
       <use xlink:href="#DejaVuSans-54"/>
       <use x="63.623047" xlink:href="#DejaVuSans-52"/>
      </g>
     </g>
    </g>
    <g id="xtick_5">
     <g id="line2d_5">
      <path clip-path="url(#pc6f59f9c42)" d="M 162.635294 307.584 
L 162.635294 41.472 
" style="fill:none;stroke:#cccccc;stroke-linecap:round;"/>
     </g>
     <g id="text_5">
      <!-- 80 -->
      <defs>
       <path d="M 31.78125 66.40625 
Q 24.171875 66.40625 20.328125 58.90625 
Q 16.5 51.421875 16.5 36.375 
Q 16.5 21.390625 20.328125 13.890625 
Q 24.171875 6.390625 31.78125 6.390625 
Q 39.453125 6.390625 43.28125 13.890625 
Q 47.125 21.390625 47.125 36.375 
Q 47.125 51.421875 43.28125 58.90625 
Q 39.453125 66.40625 31.78125 66.40625 
z
M 31.78125 74.21875 
Q 44.046875 74.21875 50.515625 64.515625 
Q 56.984375 54.828125 56.984375 36.375 
Q 56.984375 17.96875 50.515625 8.265625 
Q 44.046875 -1.421875 31.78125 -1.421875 
Q 19.53125 -1.421875 13.0625 8.265625 
Q 6.59375 17.96875 6.59375 36.375 
Q 6.59375 54.828125 13.0625 64.515625 
Q 19.53125 74.21875 31.78125 74.21875 
z
" id="DejaVuSans-48"/>
      </defs>
      <g style="fill:#262626;" transform="translate(156.909044 323.922594)scale(0.09 -0.09)">
       <use xlink:href="#DejaVuSans-56"/>
       <use x="63.623047" xlink:href="#DejaVuSans-48"/>
      </g>
     </g>
    </g>
    <g id="xtick_6">
     <g id="line2d_6">
      <path clip-path="url(#pc6f59f9c42)" d="M 183.642353 307.584 
L 183.642353 41.472 
" style="fill:none;stroke:#cccccc;stroke-linecap:round;"/>
     </g>
     <g id="text_6">
      <!-- 96 -->
      <defs>
       <path d="M 10.984375 1.515625 
L 10.984375 10.5 
Q 14.703125 8.734375 18.5 7.8125 
Q 22.3125 6.890625 25.984375 6.890625 
Q 35.75 6.890625 40.890625 13.453125 
Q 46.046875 20.015625 46.78125 33.40625 
Q 43.953125 29.203125 39.59375 26.953125 
Q 35.25 24.703125 29.984375 24.703125 
Q 19.046875 24.703125 12.671875 31.3125 
Q 6.296875 37.9375 6.296875 49.421875 
Q 6.296875 60.640625 12.9375 67.421875 
Q 19.578125 74.21875 30.609375 74.21875 
Q 43.265625 74.21875 49.921875 64.515625 
Q 56.59375 54.828125 56.59375 36.375 
Q 56.59375 19.140625 48.40625 8.859375 
Q 40.234375 -1.421875 26.421875 -1.421875 
Q 22.703125 -1.421875 18.890625 -0.6875 
Q 15.09375 0.046875 10.984375 1.515625 
z
M 30.609375 32.421875 
Q 37.25 32.421875 41.125 36.953125 
Q 45.015625 41.5 45.015625 49.421875 
Q 45.015625 57.28125 41.125 61.84375 
Q 37.25 66.40625 30.609375 66.40625 
Q 23.96875 66.40625 20.09375 61.84375 
Q 16.21875 57.28125 16.21875 49.421875 
Q 16.21875 41.5 20.09375 36.953125 
Q 23.96875 32.421875 30.609375 32.421875 
z
" id="DejaVuSans-57"/>
      </defs>
      <g style="fill:#262626;" transform="translate(177.916103 323.922594)scale(0.09 -0.09)">
       <use xlink:href="#DejaVuSans-57"/>
       <use x="63.623047" xlink:href="#DejaVuSans-54"/>
      </g>
     </g>
    </g>
    <g id="xtick_7">
     <g id="line2d_7">
      <path clip-path="url(#pc6f59f9c42)" d="M 204.649412 307.584 
L 204.649412 41.472 
" style="fill:none;stroke:#cccccc;stroke-linecap:round;"/>
     </g>
     <g id="text_7">
      <!-- 112 -->
      <g style="fill:#262626;" transform="translate(196.060037 323.922594)scale(0.09 -0.09)">
       <use xlink:href="#DejaVuSans-49"/>
       <use x="63.623047" xlink:href="#DejaVuSans-49"/>
       <use x="127.246094" xlink:href="#DejaVuSans-50"/>
      </g>
     </g>
    </g>
    <g id="xtick_8">
     <g id="line2d_8">
      <path clip-path="url(#pc6f59f9c42)" d="M 225.656471 307.584 
L 225.656471 41.472 
" style="fill:none;stroke:#cccccc;stroke-linecap:round;"/>
     </g>
     <g id="text_8">
      <!-- 128 -->
      <g style="fill:#262626;" transform="translate(217.067096 323.922594)scale(0.09 -0.09)">
       <use xlink:href="#DejaVuSans-49"/>
       <use x="63.623047" xlink:href="#DejaVuSans-50"/>
       <use x="127.246094" xlink:href="#DejaVuSans-56"/>
      </g>
     </g>
    </g>
    <g id="xtick_9">
     <g id="line2d_9">
      <path clip-path="url(#pc6f59f9c42)" d="M 246.663529 307.584 
L 246.663529 41.472 
" style="fill:none;stroke:#cccccc;stroke-linecap:round;"/>
     </g>
     <g id="text_9">
      <!-- 144 -->
      <g style="fill:#262626;" transform="translate(238.074154 323.922594)scale(0.09 -0.09)">
       <use xlink:href="#DejaVuSans-49"/>
       <use x="63.623047" xlink:href="#DejaVuSans-52"/>
       <use x="127.246094" xlink:href="#DejaVuSans-52"/>
      </g>
     </g>
    </g>
    <g id="xtick_10">
     <g id="line2d_10">
      <path clip-path="url(#pc6f59f9c42)" d="M 267.670588 307.584 
L 267.670588 41.472 
" style="fill:none;stroke:#cccccc;stroke-linecap:round;"/>
     </g>
     <g id="text_10">
      <!-- 160 -->
      <g style="fill:#262626;" transform="translate(259.081213 323.922594)scale(0.09 -0.09)">
       <use xlink:href="#DejaVuSans-49"/>
       <use x="63.623047" xlink:href="#DejaVuSans-54"/>
       <use x="127.246094" xlink:href="#DejaVuSans-48"/>
      </g>
     </g>
    </g>
    <g id="xtick_11">
     <g id="line2d_11">
      <path clip-path="url(#pc6f59f9c42)" d="M 288.677647 307.584 
L 288.677647 41.472 
" style="fill:none;stroke:#cccccc;stroke-linecap:round;"/>
     </g>
     <g id="text_11">
      <!-- 176 -->
      <defs>
       <path d="M 8.203125 72.90625 
L 55.078125 72.90625 
L 55.078125 68.703125 
L 28.609375 0 
L 18.3125 0 
L 43.21875 64.59375 
L 8.203125 64.59375 
z
" id="DejaVuSans-55"/>
      </defs>
      <g style="fill:#262626;" transform="translate(280.088272 323.922594)scale(0.09 -0.09)">
       <use xlink:href="#DejaVuSans-49"/>
       <use x="63.623047" xlink:href="#DejaVuSans-55"/>
       <use x="127.246094" xlink:href="#DejaVuSans-54"/>
      </g>
     </g>
    </g>
    <g id="xtick_12">
     <g id="line2d_12">
      <path clip-path="url(#pc6f59f9c42)" d="M 309.684706 307.584 
L 309.684706 41.472 
" style="fill:none;stroke:#cccccc;stroke-linecap:round;"/>
     </g>
     <g id="text_12">
      <!-- 192 -->
      <g style="fill:#262626;" transform="translate(301.095331 323.922594)scale(0.09 -0.09)">
       <use xlink:href="#DejaVuSans-49"/>
       <use x="63.623047" xlink:href="#DejaVuSans-57"/>
       <use x="127.246094" xlink:href="#DejaVuSans-50"/>
      </g>
     </g>
    </g>
    <g id="xtick_13">
     <g id="line2d_13">
      <path clip-path="url(#pc6f59f9c42)" d="M 330.691765 307.584 
L 330.691765 41.472 
" style="fill:none;stroke:#cccccc;stroke-linecap:round;"/>
     </g>
     <g id="text_13">
      <!-- 208 -->
      <g style="fill:#262626;" transform="translate(322.10239 323.922594)scale(0.09 -0.09)">
       <use xlink:href="#DejaVuSans-50"/>
       <use x="63.623047" xlink:href="#DejaVuSans-48"/>
       <use x="127.246094" xlink:href="#DejaVuSans-56"/>
      </g>
     </g>
    </g>
    <g id="xtick_14">
     <g id="line2d_14">
      <path clip-path="url(#pc6f59f9c42)" d="M 351.698824 307.584 
L 351.698824 41.472 
" style="fill:none;stroke:#cccccc;stroke-linecap:round;"/>
     </g>
     <g id="text_14">
      <!-- 224 -->
      <g style="fill:#262626;" transform="translate(343.109449 323.922594)scale(0.09 -0.09)">
       <use xlink:href="#DejaVuSans-50"/>
       <use x="63.623047" xlink:href="#DejaVuSans-50"/>
       <use x="127.246094" xlink:href="#DejaVuSans-52"/>
      </g>
     </g>
    </g>
    <g id="xtick_15">
     <g id="line2d_15">
      <path clip-path="url(#pc6f59f9c42)" d="M 372.705882 307.584 
L 372.705882 41.472 
" style="fill:none;stroke:#cccccc;stroke-linecap:round;"/>
     </g>
     <g id="text_15">
      <!-- 240 -->
      <g style="fill:#262626;" transform="translate(364.116507 323.922594)scale(0.09 -0.09)">
       <use xlink:href="#DejaVuSans-50"/>
       <use x="63.623047" xlink:href="#DejaVuSans-52"/>
       <use x="127.246094" xlink:href="#DejaVuSans-48"/>
      </g>
     </g>
    </g>
    <g id="xtick_16">
     <g id="line2d_16">
      <path clip-path="url(#pc6f59f9c42)" d="M 393.712941 307.584 
L 393.712941 41.472 
" style="fill:none;stroke:#cccccc;stroke-linecap:round;"/>
     </g>
     <g id="text_16">
      <!-- 256 -->
      <defs>
       <path d="M 10.796875 72.90625 
L 49.515625 72.90625 
L 49.515625 64.59375 
L 19.828125 64.59375 
L 19.828125 46.734375 
Q 21.96875 47.46875 24.109375 47.828125 
Q 26.265625 48.1875 28.421875 48.1875 
Q 40.625 48.1875 47.75 41.5 
Q 54.890625 34.8125 54.890625 23.390625 
Q 54.890625 11.625 47.5625 5.09375 
Q 40.234375 -1.421875 26.90625 -1.421875 
Q 22.3125 -1.421875 17.546875 -0.640625 
Q 12.796875 0.140625 7.71875 1.703125 
L 7.71875 11.625 
Q 12.109375 9.234375 16.796875 8.0625 
Q 21.484375 6.890625 26.703125 6.890625 
Q 35.15625 6.890625 40.078125 11.328125 
Q 45.015625 15.765625 45.015625 23.390625 
Q 45.015625 31 40.078125 35.4375 
Q 35.15625 39.890625 26.703125 39.890625 
Q 22.75 39.890625 18.8125 39.015625 
Q 14.890625 38.140625 10.796875 36.28125 
z
" id="DejaVuSans-53"/>
      </defs>
      <g style="fill:#262626;" transform="translate(385.123566 323.922594)scale(0.09 -0.09)">
       <use xlink:href="#DejaVuSans-50"/>
       <use x="63.623047" xlink:href="#DejaVuSans-53"/>
       <use x="127.246094" xlink:href="#DejaVuSans-54"/>
      </g>
     </g>
    </g>
    <g id="text_17">
     <!-- Step size -->
     <defs>
      <path d="M 53.515625 70.515625 
L 53.515625 60.890625 
Q 47.90625 63.578125 42.921875 64.890625 
Q 37.9375 66.21875 33.296875 66.21875 
Q 25.25 66.21875 20.875 63.09375 
Q 16.5 59.96875 16.5 54.203125 
Q 16.5 49.359375 19.40625 46.890625 
Q 22.3125 44.4375 30.421875 42.921875 
L 36.375 41.703125 
Q 47.40625 39.59375 52.65625 34.296875 
Q 57.90625 29 57.90625 20.125 
Q 57.90625 9.515625 50.796875 4.046875 
Q 43.703125 -1.421875 29.984375 -1.421875 
Q 24.8125 -1.421875 18.96875 -0.25 
Q 13.140625 0.921875 6.890625 3.21875 
L 6.890625 13.375 
Q 12.890625 10.015625 18.65625 8.296875 
Q 24.421875 6.59375 29.984375 6.59375 
Q 38.421875 6.59375 43.015625 9.90625 
Q 47.609375 13.234375 47.609375 19.390625 
Q 47.609375 24.75 44.3125 27.78125 
Q 41.015625 30.8125 33.5 32.328125 
L 27.484375 33.5 
Q 16.453125 35.6875 11.515625 40.375 
Q 6.59375 45.0625 6.59375 53.421875 
Q 6.59375 63.09375 13.40625 68.65625 
Q 20.21875 74.21875 32.171875 74.21875 
Q 37.3125 74.21875 42.625 73.28125 
Q 47.953125 72.359375 53.515625 70.515625 
z
" id="DejaVuSans-83"/>
      <path d="M 18.3125 70.21875 
L 18.3125 54.6875 
L 36.8125 54.6875 
L 36.8125 47.703125 
L 18.3125 47.703125 
L 18.3125 18.015625 
Q 18.3125 11.328125 20.140625 9.421875 
Q 21.96875 7.515625 27.59375 7.515625 
L 36.8125 7.515625 
L 36.8125 0 
L 27.59375 0 
Q 17.1875 0 13.234375 3.875 
Q 9.28125 7.765625 9.28125 18.015625 
L 9.28125 47.703125 
L 2.6875 47.703125 
L 2.6875 54.6875 
L 9.28125 54.6875 
L 9.28125 70.21875 
z
" id="DejaVuSans-116"/>
      <path d="M 56.203125 29.59375 
L 56.203125 25.203125 
L 14.890625 25.203125 
Q 15.484375 15.921875 20.484375 11.0625 
Q 25.484375 6.203125 34.421875 6.203125 
Q 39.59375 6.203125 44.453125 7.46875 
Q 49.3125 8.734375 54.109375 11.28125 
L 54.109375 2.78125 
Q 49.265625 0.734375 44.1875 -0.34375 
Q 39.109375 -1.421875 33.890625 -1.421875 
Q 20.796875 -1.421875 13.15625 6.1875 
Q 5.515625 13.8125 5.515625 26.8125 
Q 5.515625 40.234375 12.765625 48.109375 
Q 20.015625 56 32.328125 56 
Q 43.359375 56 49.78125 48.890625 
Q 56.203125 41.796875 56.203125 29.59375 
z
M 47.21875 32.234375 
Q 47.125 39.59375 43.09375 43.984375 
Q 39.0625 48.390625 32.421875 48.390625 
Q 24.90625 48.390625 20.390625 44.140625 
Q 15.875 39.890625 15.1875 32.171875 
z
" id="DejaVuSans-101"/>
      <path d="M 18.109375 8.203125 
L 18.109375 -20.796875 
L 9.078125 -20.796875 
L 9.078125 54.6875 
L 18.109375 54.6875 
L 18.109375 46.390625 
Q 20.953125 51.265625 25.265625 53.625 
Q 29.59375 56 35.59375 56 
Q 45.5625 56 51.78125 48.09375 
Q 58.015625 40.1875 58.015625 27.296875 
Q 58.015625 14.40625 51.78125 6.484375 
Q 45.5625 -1.421875 35.59375 -1.421875 
Q 29.59375 -1.421875 25.265625 0.953125 
Q 20.953125 3.328125 18.109375 8.203125 
z
M 48.6875 27.296875 
Q 48.6875 37.203125 44.609375 42.84375 
Q 40.53125 48.484375 33.40625 48.484375 
Q 26.265625 48.484375 22.1875 42.84375 
Q 18.109375 37.203125 18.109375 27.296875 
Q 18.109375 17.390625 22.1875 11.75 
Q 26.265625 6.109375 33.40625 6.109375 
Q 40.53125 6.109375 44.609375 11.75 
Q 48.6875 17.390625 48.6875 27.296875 
z
" id="DejaVuSans-112"/>
      <path id="DejaVuSans-32"/>
      <path d="M 44.28125 53.078125 
L 44.28125 44.578125 
Q 40.484375 46.53125 36.375 47.5 
Q 32.28125 48.484375 27.875 48.484375 
Q 21.1875 48.484375 17.84375 46.4375 
Q 14.5 44.390625 14.5 40.28125 
Q 14.5 37.15625 16.890625 35.375 
Q 19.28125 33.59375 26.515625 31.984375 
L 29.59375 31.296875 
Q 39.15625 29.25 43.1875 25.515625 
Q 47.21875 21.78125 47.21875 15.09375 
Q 47.21875 7.46875 41.1875 3.015625 
Q 35.15625 -1.421875 24.609375 -1.421875 
Q 20.21875 -1.421875 15.453125 -0.5625 
Q 10.6875 0.296875 5.421875 2 
L 5.421875 11.28125 
Q 10.40625 8.6875 15.234375 7.390625 
Q 20.0625 6.109375 24.8125 6.109375 
Q 31.15625 6.109375 34.5625 8.28125 
Q 37.984375 10.453125 37.984375 14.40625 
Q 37.984375 18.0625 35.515625 20.015625 
Q 33.0625 21.96875 24.703125 23.78125 
L 21.578125 24.515625 
Q 13.234375 26.265625 9.515625 29.90625 
Q 5.8125 33.546875 5.8125 39.890625 
Q 5.8125 47.609375 11.28125 51.796875 
Q 16.75 56 26.8125 56 
Q 31.78125 56 36.171875 55.265625 
Q 40.578125 54.546875 44.28125 53.078125 
z
" id="DejaVuSans-115"/>
      <path d="M 9.421875 54.6875 
L 18.40625 54.6875 
L 18.40625 0 
L 9.421875 0 
z
M 9.421875 75.984375 
L 18.40625 75.984375 
L 18.40625 64.59375 
L 9.421875 64.59375 
z
" id="DejaVuSans-105"/>
      <path d="M 5.515625 54.6875 
L 48.1875 54.6875 
L 48.1875 46.484375 
L 14.40625 7.171875 
L 48.1875 7.171875 
L 48.1875 0 
L 4.296875 0 
L 4.296875 8.203125 
L 38.09375 47.515625 
L 5.515625 47.515625 
z
" id="DejaVuSans-122"/>
     </defs>
     <g style="fill:#262626;" transform="translate(208.9575 338.912437)scale(0.12 -0.12)">
      <use xlink:href="#DejaVuSans-83"/>
      <use x="63.476562" xlink:href="#DejaVuSans-116"/>
      <use x="102.685547" xlink:href="#DejaVuSans-101"/>
      <use x="164.208984" xlink:href="#DejaVuSans-112"/>
      <use x="227.685547" xlink:href="#DejaVuSans-32"/>
      <use x="259.472656" xlink:href="#DejaVuSans-115"/>
      <use x="311.572266" xlink:href="#DejaVuSans-105"/>
      <use x="339.355469" xlink:href="#DejaVuSans-122"/>
      <use x="391.845703" xlink:href="#DejaVuSans-101"/>
     </g>
    </g>
   </g>
   <g id="matplotlib.axis_2">
    <g id="ytick_1">
     <g id="line2d_17">
      <path clip-path="url(#pc6f59f9c42)" d="M 57.6 307.584 
L 414.72 307.584 
" style="fill:none;stroke:#cccccc;stroke-linecap:round;"/>
     </g>
     <g id="text_18">
      <!-- 0.0 -->
      <defs>
       <path d="M 10.6875 12.40625 
L 21 12.40625 
L 21 0 
L 10.6875 0 
z
" id="DejaVuSans-46"/>
      </defs>
      <g style="fill:#262626;" transform="translate(30.606563 311.763141)scale(0.11 -0.11)">
       <use xlink:href="#DejaVuSans-48"/>
       <use x="63.623047" xlink:href="#DejaVuSans-46"/>
       <use x="95.410156" xlink:href="#DejaVuSans-48"/>
      </g>
     </g>
    </g>
    <g id="ytick_2">
     <g id="line2d_18">
      <path clip-path="url(#pc6f59f9c42)" d="M 57.6 250.59925 
L 414.72 250.59925 
" style="fill:none;stroke:#cccccc;stroke-linecap:round;"/>
     </g>
     <g id="text_19">
      <!-- 0.2 -->
      <g style="fill:#262626;" transform="translate(30.606563 254.77839)scale(0.11 -0.11)">
       <use xlink:href="#DejaVuSans-48"/>
       <use x="63.623047" xlink:href="#DejaVuSans-46"/>
       <use x="95.410156" xlink:href="#DejaVuSans-50"/>
      </g>
     </g>
    </g>
    <g id="ytick_3">
     <g id="line2d_19">
      <path clip-path="url(#pc6f59f9c42)" d="M 57.6 193.614499 
L 414.72 193.614499 
" style="fill:none;stroke:#cccccc;stroke-linecap:round;"/>
     </g>
     <g id="text_20">
      <!-- 0.4 -->
      <g style="fill:#262626;" transform="translate(30.606563 197.79364)scale(0.11 -0.11)">
       <use xlink:href="#DejaVuSans-48"/>
       <use x="63.623047" xlink:href="#DejaVuSans-46"/>
       <use x="95.410156" xlink:href="#DejaVuSans-52"/>
      </g>
     </g>
    </g>
    <g id="ytick_4">
     <g id="line2d_20">
      <path clip-path="url(#pc6f59f9c42)" d="M 57.6 136.629749 
L 414.72 136.629749 
" style="fill:none;stroke:#cccccc;stroke-linecap:round;"/>
     </g>
     <g id="text_21">
      <!-- 0.6 -->
      <g style="fill:#262626;" transform="translate(30.606563 140.80889)scale(0.11 -0.11)">
       <use xlink:href="#DejaVuSans-48"/>
       <use x="63.623047" xlink:href="#DejaVuSans-46"/>
       <use x="95.410156" xlink:href="#DejaVuSans-54"/>
      </g>
     </g>
    </g>
    <g id="ytick_5">
     <g id="line2d_21">
      <path clip-path="url(#pc6f59f9c42)" d="M 57.6 79.644999 
L 414.72 79.644999 
" style="fill:none;stroke:#cccccc;stroke-linecap:round;"/>
     </g>
     <g id="text_22">
      <!-- 0.8 -->
      <g style="fill:#262626;" transform="translate(30.606563 83.824139)scale(0.11 -0.11)">
       <use xlink:href="#DejaVuSans-48"/>
       <use x="63.623047" xlink:href="#DejaVuSans-46"/>
       <use x="95.410156" xlink:href="#DejaVuSans-56"/>
      </g>
     </g>
    </g>
    <g id="text_23">
     <!-- Increments per second ($10^9$) -->
     <defs>
      <path d="M 9.8125 72.90625 
L 19.671875 72.90625 
L 19.671875 0 
L 9.8125 0 
z
" id="DejaVuSans-73"/>
      <path d="M 54.890625 33.015625 
L 54.890625 0 
L 45.90625 0 
L 45.90625 32.71875 
Q 45.90625 40.484375 42.875 44.328125 
Q 39.84375 48.1875 33.796875 48.1875 
Q 26.515625 48.1875 22.3125 43.546875 
Q 18.109375 38.921875 18.109375 30.90625 
L 18.109375 0 
L 9.078125 0 
L 9.078125 54.6875 
L 18.109375 54.6875 
L 18.109375 46.1875 
Q 21.34375 51.125 25.703125 53.5625 
Q 30.078125 56 35.796875 56 
Q 45.21875 56 50.046875 50.171875 
Q 54.890625 44.34375 54.890625 33.015625 
z
" id="DejaVuSans-110"/>
      <path d="M 48.78125 52.59375 
L 48.78125 44.1875 
Q 44.96875 46.296875 41.140625 47.34375 
Q 37.3125 48.390625 33.40625 48.390625 
Q 24.65625 48.390625 19.8125 42.84375 
Q 14.984375 37.3125 14.984375 27.296875 
Q 14.984375 17.28125 19.8125 11.734375 
Q 24.65625 6.203125 33.40625 6.203125 
Q 37.3125 6.203125 41.140625 7.25 
Q 44.96875 8.296875 48.78125 10.40625 
L 48.78125 2.09375 
Q 45.015625 0.34375 40.984375 -0.53125 
Q 36.96875 -1.421875 32.421875 -1.421875 
Q 20.0625 -1.421875 12.78125 6.34375 
Q 5.515625 14.109375 5.515625 27.296875 
Q 5.515625 40.671875 12.859375 48.328125 
Q 20.21875 56 33.015625 56 
Q 37.15625 56 41.109375 55.140625 
Q 45.0625 54.296875 48.78125 52.59375 
z
" id="DejaVuSans-99"/>
      <path d="M 41.109375 46.296875 
Q 39.59375 47.171875 37.8125 47.578125 
Q 36.03125 48 33.890625 48 
Q 26.265625 48 22.1875 43.046875 
Q 18.109375 38.09375 18.109375 28.8125 
L 18.109375 0 
L 9.078125 0 
L 9.078125 54.6875 
L 18.109375 54.6875 
L 18.109375 46.1875 
Q 20.953125 51.171875 25.484375 53.578125 
Q 30.03125 56 36.53125 56 
Q 37.453125 56 38.578125 55.875 
Q 39.703125 55.765625 41.0625 55.515625 
z
" id="DejaVuSans-114"/>
      <path d="M 52 44.1875 
Q 55.375 50.25 60.0625 53.125 
Q 64.75 56 71.09375 56 
Q 79.640625 56 84.28125 50.015625 
Q 88.921875 44.046875 88.921875 33.015625 
L 88.921875 0 
L 79.890625 0 
L 79.890625 32.71875 
Q 79.890625 40.578125 77.09375 44.375 
Q 74.3125 48.1875 68.609375 48.1875 
Q 61.625 48.1875 57.5625 43.546875 
Q 53.515625 38.921875 53.515625 30.90625 
L 53.515625 0 
L 44.484375 0 
L 44.484375 32.71875 
Q 44.484375 40.625 41.703125 44.40625 
Q 38.921875 48.1875 33.109375 48.1875 
Q 26.21875 48.1875 22.15625 43.53125 
Q 18.109375 38.875 18.109375 30.90625 
L 18.109375 0 
L 9.078125 0 
L 9.078125 54.6875 
L 18.109375 54.6875 
L 18.109375 46.1875 
Q 21.1875 51.21875 25.484375 53.609375 
Q 29.78125 56 35.6875 56 
Q 41.65625 56 45.828125 52.96875 
Q 50 49.953125 52 44.1875 
z
" id="DejaVuSans-109"/>
      <path d="M 30.609375 48.390625 
Q 23.390625 48.390625 19.1875 42.75 
Q 14.984375 37.109375 14.984375 27.296875 
Q 14.984375 17.484375 19.15625 11.84375 
Q 23.34375 6.203125 30.609375 6.203125 
Q 37.796875 6.203125 41.984375 11.859375 
Q 46.1875 17.53125 46.1875 27.296875 
Q 46.1875 37.015625 41.984375 42.703125 
Q 37.796875 48.390625 30.609375 48.390625 
z
M 30.609375 56 
Q 42.328125 56 49.015625 48.375 
Q 55.71875 40.765625 55.71875 27.296875 
Q 55.71875 13.875 49.015625 6.21875 
Q 42.328125 -1.421875 30.609375 -1.421875 
Q 18.84375 -1.421875 12.171875 6.21875 
Q 5.515625 13.875 5.515625 27.296875 
Q 5.515625 40.765625 12.171875 48.375 
Q 18.84375 56 30.609375 56 
z
" id="DejaVuSans-111"/>
      <path d="M 45.40625 46.390625 
L 45.40625 75.984375 
L 54.390625 75.984375 
L 54.390625 0 
L 45.40625 0 
L 45.40625 8.203125 
Q 42.578125 3.328125 38.25 0.953125 
Q 33.9375 -1.421875 27.875 -1.421875 
Q 17.96875 -1.421875 11.734375 6.484375 
Q 5.515625 14.40625 5.515625 27.296875 
Q 5.515625 40.1875 11.734375 48.09375 
Q 17.96875 56 27.875 56 
Q 33.9375 56 38.25 53.625 
Q 42.578125 51.265625 45.40625 46.390625 
z
M 14.796875 27.296875 
Q 14.796875 17.390625 18.875 11.75 
Q 22.953125 6.109375 30.078125 6.109375 
Q 37.203125 6.109375 41.296875 11.75 
Q 45.40625 17.390625 45.40625 27.296875 
Q 45.40625 37.203125 41.296875 42.84375 
Q 37.203125 48.484375 30.078125 48.484375 
Q 22.953125 48.484375 18.875 42.84375 
Q 14.796875 37.203125 14.796875 27.296875 
z
" id="DejaVuSans-100"/>
      <path d="M 31 75.875 
Q 24.46875 64.65625 21.28125 53.65625 
Q 18.109375 42.671875 18.109375 31.390625 
Q 18.109375 20.125 21.3125 9.0625 
Q 24.515625 -2 31 -13.1875 
L 23.1875 -13.1875 
Q 15.875 -1.703125 12.234375 9.375 
Q 8.59375 20.453125 8.59375 31.390625 
Q 8.59375 42.28125 12.203125 53.3125 
Q 15.828125 64.359375 23.1875 75.875 
z
" id="DejaVuSans-40"/>
      <path d="M 8.015625 75.875 
L 15.828125 75.875 
Q 23.140625 64.359375 26.78125 53.3125 
Q 30.421875 42.28125 30.421875 31.390625 
Q 30.421875 20.453125 26.78125 9.375 
Q 23.140625 -1.703125 15.828125 -13.1875 
L 8.015625 -13.1875 
Q 14.5 -2 17.703125 9.0625 
Q 20.90625 20.125 20.90625 31.390625 
Q 20.90625 42.671875 17.703125 53.65625 
Q 14.5 64.65625 8.015625 75.875 
z
" id="DejaVuSans-41"/>
     </defs>
     <g style="fill:#262626;" transform="translate(24.086562 260.688)rotate(-90)scale(0.12 -0.12)">
      <use transform="translate(0 0.765625)" xlink:href="#DejaVuSans-73"/>
      <use transform="translate(29.492188 0.765625)" xlink:href="#DejaVuSans-110"/>
      <use transform="translate(92.871094 0.765625)" xlink:href="#DejaVuSans-99"/>
      <use transform="translate(147.851562 0.765625)" xlink:href="#DejaVuSans-114"/>
      <use transform="translate(188.964844 0.765625)" xlink:href="#DejaVuSans-101"/>
      <use transform="translate(250.488281 0.765625)" xlink:href="#DejaVuSans-109"/>
      <use transform="translate(347.900391 0.765625)" xlink:href="#DejaVuSans-101"/>
      <use transform="translate(409.423828 0.765625)" xlink:href="#DejaVuSans-110"/>
      <use transform="translate(472.802734 0.765625)" xlink:href="#DejaVuSans-116"/>
      <use transform="translate(512.011719 0.765625)" xlink:href="#DejaVuSans-115"/>
      <use transform="translate(564.111328 0.765625)" xlink:href="#DejaVuSans-32"/>
      <use transform="translate(595.898438 0.765625)" xlink:href="#DejaVuSans-112"/>
      <use transform="translate(659.375 0.765625)" xlink:href="#DejaVuSans-101"/>
      <use transform="translate(720.898438 0.765625)" xlink:href="#DejaVuSans-114"/>
      <use transform="translate(762.011719 0.765625)" xlink:href="#DejaVuSans-32"/>
      <use transform="translate(793.798828 0.765625)" xlink:href="#DejaVuSans-115"/>
      <use transform="translate(845.898438 0.765625)" xlink:href="#DejaVuSans-101"/>
      <use transform="translate(907.421875 0.765625)" xlink:href="#DejaVuSans-99"/>
      <use transform="translate(962.402344 0.765625)" xlink:href="#DejaVuSans-111"/>
      <use transform="translate(1023.583984 0.765625)" xlink:href="#DejaVuSans-110"/>
      <use transform="translate(1086.962891 0.765625)" xlink:href="#DejaVuSans-100"/>
      <use transform="translate(1150.439453 0.765625)" xlink:href="#DejaVuSans-32"/>
      <use transform="translate(1182.226562 0.765625)" xlink:href="#DejaVuSans-40"/>
      <use transform="translate(1221.240234 0.765625)" xlink:href="#DejaVuSans-49"/>
      <use transform="translate(1284.863281 0.765625)" xlink:href="#DejaVuSans-48"/>
      <use transform="translate(1349.443359 39.046875)scale(0.7)" xlink:href="#DejaVuSans-57"/>
      <use transform="translate(1396.713867 0.765625)" xlink:href="#DejaVuSans-41"/>
     </g>
    </g>
   </g>
   <g id="PathCollection_1">
    <defs>
     <path d="M 0 1 
C 0.265203 1 0.51958 0.894634 0.707107 0.707107 
C 0.894634 0.51958 1 0.265203 1 0 
C 1 -0.265203 0.894634 -0.51958 0.707107 -0.707107 
C 0.51958 -0.894634 0.265203 -1 0 -1 
C -0.265203 -1 -0.51958 -0.894634 -0.707107 -0.707107 
C -0.894634 -0.51958 -1 -0.265203 -1 0 
C -1 0.265203 -0.894634 0.51958 -0.707107 0.707107 
C -0.51958 0.894634 -0.265203 1 0 1 
z
" id="mdb9a5739ac" style="stroke:#8b0000;"/>
    </defs>
    <g clip-path="url(#pc6f59f9c42)">
     <use style="fill:#8b0000;stroke:#8b0000;" x="78.607059" xlink:href="#mdb9a5739ac" y="79.644999"/>
     <use style="fill:#8b0000;stroke:#8b0000;" x="79.92" xlink:href="#mdb9a5739ac" y="85.343474"/>
     <use style="fill:#8b0000;stroke:#8b0000;" x="81.232941" xlink:href="#mdb9a5739ac" y="85.343474"/>
     <use style="fill:#8b0000;stroke:#8b0000;" x="82.545882" xlink:href="#mdb9a5739ac" y="79.644999"/>
     <use style="fill:#8b0000;stroke:#8b0000;" x="83.858824" xlink:href="#mdb9a5739ac" y="82.494236"/>
     <use style="fill:#8b0000;stroke:#8b0000;" x="85.171765" xlink:href="#mdb9a5739ac" y="82.494236"/>
     <use style="fill:#8b0000;stroke:#8b0000;" x="86.484706" xlink:href="#mdb9a5739ac" y="88.192711"/>
     <use style="fill:#8b0000;stroke:#8b0000;" x="87.797647" xlink:href="#mdb9a5739ac" y="93.891186"/>
     <use style="fill:#8b0000;stroke:#8b0000;" x="89.110588" xlink:href="#mdb9a5739ac" y="93.891186"/>
     <use style="fill:#8b0000;stroke:#8b0000;" x="90.423529" xlink:href="#mdb9a5739ac" y="93.891186"/>
     <use style="fill:#8b0000;stroke:#8b0000;" x="91.736471" xlink:href="#mdb9a5739ac" y="91.041949"/>
     <use style="fill:#8b0000;stroke:#8b0000;" x="93.049412" xlink:href="#mdb9a5739ac" y="93.891186"/>
     <use style="fill:#8b0000;stroke:#8b0000;" x="94.362353" xlink:href="#mdb9a5739ac" y="93.891186"/>
     <use style="fill:#8b0000;stroke:#8b0000;" x="95.675294" xlink:href="#mdb9a5739ac" y="93.891186"/>
     <use style="fill:#8b0000;stroke:#8b0000;" x="96.988235" xlink:href="#mdb9a5739ac" y="96.740424"/>
     <use style="fill:#8b0000;stroke:#8b0000;" x="98.301176" xlink:href="#mdb9a5739ac" y="99.589661"/>
     <use style="fill:#8b0000;stroke:#8b0000;" x="99.614118" xlink:href="#mdb9a5739ac" y="108.137374"/>
     <use style="fill:#8b0000;stroke:#8b0000;" x="100.927059" xlink:href="#mdb9a5739ac" y="93.891186"/>
     <use style="fill:#8b0000;stroke:#8b0000;" x="102.24" xlink:href="#mdb9a5739ac" y="85.343474"/>
     <use style="fill:#8b0000;stroke:#8b0000;" x="103.552941" xlink:href="#mdb9a5739ac" y="85.343474"/>
     <use style="fill:#8b0000;stroke:#8b0000;" x="104.865882" xlink:href="#mdb9a5739ac" y="73.946524"/>
     <use style="fill:#8b0000;stroke:#8b0000;" x="106.178824" xlink:href="#mdb9a5739ac" y="82.494236"/>
     <use style="fill:#8b0000;stroke:#8b0000;" x="107.491765" xlink:href="#mdb9a5739ac" y="76.795761"/>
     <use style="fill:#8b0000;stroke:#8b0000;" x="108.804706" xlink:href="#mdb9a5739ac" y="76.795761"/>
     <use style="fill:#8b0000;stroke:#8b0000;" x="110.117647" xlink:href="#mdb9a5739ac" y="71.097286"/>
     <use style="fill:#8b0000;stroke:#8b0000;" x="111.430588" xlink:href="#mdb9a5739ac" y="73.946524"/>
     <use style="fill:#8b0000;stroke:#8b0000;" x="112.743529" xlink:href="#mdb9a5739ac" y="65.398811"/>
     <use style="fill:#8b0000;stroke:#8b0000;" x="114.056471" xlink:href="#mdb9a5739ac" y="68.248049"/>
     <use style="fill:#8b0000;stroke:#8b0000;" x="115.369412" xlink:href="#mdb9a5739ac" y="62.549574"/>
     <use style="fill:#8b0000;stroke:#8b0000;" x="116.682353" xlink:href="#mdb9a5739ac" y="65.398811"/>
     <use style="fill:#8b0000;stroke:#8b0000;" x="117.995294" xlink:href="#mdb9a5739ac" y="62.549574"/>
     <use style="fill:#8b0000;stroke:#8b0000;" x="119.308235" xlink:href="#mdb9a5739ac" y="59.700336"/>
     <use style="fill:#8b0000;stroke:#8b0000;" x="120.621176" xlink:href="#mdb9a5739ac" y="65.398811"/>
     <use style="fill:#8b0000;stroke:#8b0000;" x="121.934118" xlink:href="#mdb9a5739ac" y="65.398811"/>
     <use style="fill:#8b0000;stroke:#8b0000;" x="123.247059" xlink:href="#mdb9a5739ac" y="59.700336"/>
     <use style="fill:#8b0000;stroke:#8b0000;" x="124.56" xlink:href="#mdb9a5739ac" y="62.549574"/>
     <use style="fill:#8b0000;stroke:#8b0000;" x="125.872941" xlink:href="#mdb9a5739ac" y="56.851099"/>
     <use style="fill:#8b0000;stroke:#8b0000;" x="127.185882" xlink:href="#mdb9a5739ac" y="62.549574"/>
     <use style="fill:#8b0000;stroke:#8b0000;" x="128.498824" xlink:href="#mdb9a5739ac" y="65.398811"/>
     <use style="fill:#8b0000;stroke:#8b0000;" x="129.811765" xlink:href="#mdb9a5739ac" y="59.700336"/>
     <use style="fill:#8b0000;stroke:#8b0000;" x="131.124706" xlink:href="#mdb9a5739ac" y="62.549574"/>
     <use style="fill:#8b0000;stroke:#8b0000;" x="132.437647" xlink:href="#mdb9a5739ac" y="65.398811"/>
     <use style="fill:#8b0000;stroke:#8b0000;" x="133.750588" xlink:href="#mdb9a5739ac" y="62.549574"/>
     <use style="fill:#8b0000;stroke:#8b0000;" x="135.063529" xlink:href="#mdb9a5739ac" y="62.549574"/>
     <use style="fill:#8b0000;stroke:#8b0000;" x="136.376471" xlink:href="#mdb9a5739ac" y="65.398811"/>
     <use style="fill:#8b0000;stroke:#8b0000;" x="137.689412" xlink:href="#mdb9a5739ac" y="62.549574"/>
     <use style="fill:#8b0000;stroke:#8b0000;" x="139.002353" xlink:href="#mdb9a5739ac" y="62.549574"/>
     <use style="fill:#8b0000;stroke:#8b0000;" x="140.315294" xlink:href="#mdb9a5739ac" y="65.398811"/>
     <use style="fill:#8b0000;stroke:#8b0000;" x="141.628235" xlink:href="#mdb9a5739ac" y="173.669837"/>
     <use style="fill:#8b0000;stroke:#8b0000;" x="142.941176" xlink:href="#mdb9a5739ac" y="65.398811"/>
     <use style="fill:#8b0000;stroke:#8b0000;" x="144.254118" xlink:href="#mdb9a5739ac" y="62.549574"/>
     <use style="fill:#8b0000;stroke:#8b0000;" x="145.567059" xlink:href="#mdb9a5739ac" y="71.097286"/>
     <use style="fill:#8b0000;stroke:#8b0000;" x="146.88" xlink:href="#mdb9a5739ac" y="59.700336"/>
     <use style="fill:#8b0000;stroke:#8b0000;" x="148.192941" xlink:href="#mdb9a5739ac" y="62.549574"/>
     <use style="fill:#8b0000;stroke:#8b0000;" x="149.505882" xlink:href="#mdb9a5739ac" y="62.549574"/>
     <use style="fill:#8b0000;stroke:#8b0000;" x="150.818824" xlink:href="#mdb9a5739ac" y="62.549574"/>
     <use style="fill:#8b0000;stroke:#8b0000;" x="152.131765" xlink:href="#mdb9a5739ac" y="59.700336"/>
     <use style="fill:#8b0000;stroke:#8b0000;" x="153.444706" xlink:href="#mdb9a5739ac" y="65.398811"/>
     <use style="fill:#8b0000;stroke:#8b0000;" x="154.757647" xlink:href="#mdb9a5739ac" y="59.700336"/>
     <use style="fill:#8b0000;stroke:#8b0000;" x="156.070588" xlink:href="#mdb9a5739ac" y="62.549574"/>
     <use style="fill:#8b0000;stroke:#8b0000;" x="157.383529" xlink:href="#mdb9a5739ac" y="65.398811"/>
     <use style="fill:#8b0000;stroke:#8b0000;" x="158.696471" xlink:href="#mdb9a5739ac" y="59.700336"/>
     <use style="fill:#8b0000;stroke:#8b0000;" x="160.009412" xlink:href="#mdb9a5739ac" y="59.700336"/>
     <use style="fill:#8b0000;stroke:#8b0000;" x="161.322353" xlink:href="#mdb9a5739ac" y="62.549574"/>
     <use style="fill:#8b0000;stroke:#8b0000;" x="162.635294" xlink:href="#mdb9a5739ac" y="65.398811"/>
     <use style="fill:#8b0000;stroke:#8b0000;" x="163.948235" xlink:href="#mdb9a5739ac" y="59.700336"/>
     <use style="fill:#8b0000;stroke:#8b0000;" x="165.261176" xlink:href="#mdb9a5739ac" y="59.700336"/>
     <use style="fill:#8b0000;stroke:#8b0000;" x="166.574118" xlink:href="#mdb9a5739ac" y="62.549574"/>
     <use style="fill:#8b0000;stroke:#8b0000;" x="167.887059" xlink:href="#mdb9a5739ac" y="56.851099"/>
     <use style="fill:#8b0000;stroke:#8b0000;" x="169.2" xlink:href="#mdb9a5739ac" y="65.398811"/>
     <use style="fill:#8b0000;stroke:#8b0000;" x="170.512941" xlink:href="#mdb9a5739ac" y="68.248049"/>
     <use style="fill:#8b0000;stroke:#8b0000;" x="171.825882" xlink:href="#mdb9a5739ac" y="62.549574"/>
     <use style="fill:#8b0000;stroke:#8b0000;" x="173.138824" xlink:href="#mdb9a5739ac" y="59.700336"/>
     <use style="fill:#8b0000;stroke:#8b0000;" x="174.451765" xlink:href="#mdb9a5739ac" y="65.398811"/>
     <use style="fill:#8b0000;stroke:#8b0000;" x="175.764706" xlink:href="#mdb9a5739ac" y="59.700336"/>
     <use style="fill:#8b0000;stroke:#8b0000;" x="177.077647" xlink:href="#mdb9a5739ac" y="62.549574"/>
     <use style="fill:#8b0000;stroke:#8b0000;" x="178.390588" xlink:href="#mdb9a5739ac" y="62.549574"/>
     <use style="fill:#8b0000;stroke:#8b0000;" x="179.703529" xlink:href="#mdb9a5739ac" y="59.700336"/>
     <use style="fill:#8b0000;stroke:#8b0000;" x="181.016471" xlink:href="#mdb9a5739ac" y="59.700336"/>
     <use style="fill:#8b0000;stroke:#8b0000;" x="182.329412" xlink:href="#mdb9a5739ac" y="59.700336"/>
     <use style="fill:#8b0000;stroke:#8b0000;" x="183.642353" xlink:href="#mdb9a5739ac" y="82.494236"/>
     <use style="fill:#8b0000;stroke:#8b0000;" x="184.955294" xlink:href="#mdb9a5739ac" y="62.549574"/>
     <use style="fill:#8b0000;stroke:#8b0000;" x="186.268235" xlink:href="#mdb9a5739ac" y="62.549574"/>
     <use style="fill:#8b0000;stroke:#8b0000;" x="187.581176" xlink:href="#mdb9a5739ac" y="59.700336"/>
     <use style="fill:#8b0000;stroke:#8b0000;" x="188.894118" xlink:href="#mdb9a5739ac" y="59.700336"/>
     <use style="fill:#8b0000;stroke:#8b0000;" x="190.207059" xlink:href="#mdb9a5739ac" y="62.549574"/>
     <use style="fill:#8b0000;stroke:#8b0000;" x="191.52" xlink:href="#mdb9a5739ac" y="65.398811"/>
     <use style="fill:#8b0000;stroke:#8b0000;" x="192.832941" xlink:href="#mdb9a5739ac" y="65.398811"/>
     <use style="fill:#8b0000;stroke:#8b0000;" x="194.145882" xlink:href="#mdb9a5739ac" y="62.549574"/>
     <use style="fill:#8b0000;stroke:#8b0000;" x="195.458824" xlink:href="#mdb9a5739ac" y="59.700336"/>
     <use style="fill:#8b0000;stroke:#8b0000;" x="196.771765" xlink:href="#mdb9a5739ac" y="59.700336"/>
     <use style="fill:#8b0000;stroke:#8b0000;" x="198.084706" xlink:href="#mdb9a5739ac" y="62.549574"/>
     <use style="fill:#8b0000;stroke:#8b0000;" x="199.397647" xlink:href="#mdb9a5739ac" y="59.700336"/>
     <use style="fill:#8b0000;stroke:#8b0000;" x="200.710588" xlink:href="#mdb9a5739ac" y="56.851099"/>
     <use style="fill:#8b0000;stroke:#8b0000;" x="202.023529" xlink:href="#mdb9a5739ac" y="59.700336"/>
     <use style="fill:#8b0000;stroke:#8b0000;" x="203.336471" xlink:href="#mdb9a5739ac" y="56.851099"/>
     <use style="fill:#8b0000;stroke:#8b0000;" x="204.649412" xlink:href="#mdb9a5739ac" y="62.549574"/>
     <use style="fill:#8b0000;stroke:#8b0000;" x="205.962353" xlink:href="#mdb9a5739ac" y="62.549574"/>
     <use style="fill:#8b0000;stroke:#8b0000;" x="207.275294" xlink:href="#mdb9a5739ac" y="62.549574"/>
     <use style="fill:#8b0000;stroke:#8b0000;" x="208.588235" xlink:href="#mdb9a5739ac" y="59.700336"/>
     <use style="fill:#8b0000;stroke:#8b0000;" x="209.901176" xlink:href="#mdb9a5739ac" y="62.549574"/>
     <use style="fill:#8b0000;stroke:#8b0000;" x="211.214118" xlink:href="#mdb9a5739ac" y="56.851099"/>
     <use style="fill:#8b0000;stroke:#8b0000;" x="212.527059" xlink:href="#mdb9a5739ac" y="56.851099"/>
     <use style="fill:#8b0000;stroke:#8b0000;" x="213.84" xlink:href="#mdb9a5739ac" y="62.549574"/>
     <use style="fill:#8b0000;stroke:#8b0000;" x="215.152941" xlink:href="#mdb9a5739ac" y="56.851099"/>
     <use style="fill:#8b0000;stroke:#8b0000;" x="216.465882" xlink:href="#mdb9a5739ac" y="56.851099"/>
     <use style="fill:#8b0000;stroke:#8b0000;" x="217.778824" xlink:href="#mdb9a5739ac" y="59.700336"/>
     <use style="fill:#8b0000;stroke:#8b0000;" x="219.091765" xlink:href="#mdb9a5739ac" y="59.700336"/>
     <use style="fill:#8b0000;stroke:#8b0000;" x="220.404706" xlink:href="#mdb9a5739ac" y="59.700336"/>
     <use style="fill:#8b0000;stroke:#8b0000;" x="221.717647" xlink:href="#mdb9a5739ac" y="59.700336"/>
     <use style="fill:#8b0000;stroke:#8b0000;" x="223.030588" xlink:href="#mdb9a5739ac" y="59.700336"/>
     <use style="fill:#8b0000;stroke:#8b0000;" x="224.343529" xlink:href="#mdb9a5739ac" y="79.644999"/>
     <use style="fill:#8b0000;stroke:#8b0000;" x="225.656471" xlink:href="#mdb9a5739ac" y="253.448487"/>
     <use style="fill:#8b0000;stroke:#8b0000;" x="226.969412" xlink:href="#mdb9a5739ac" y="85.343474"/>
     <use style="fill:#8b0000;stroke:#8b0000;" x="228.282353" xlink:href="#mdb9a5739ac" y="59.700336"/>
     <use style="fill:#8b0000;stroke:#8b0000;" x="229.595294" xlink:href="#mdb9a5739ac" y="54.001861"/>
     <use style="fill:#8b0000;stroke:#8b0000;" x="230.908235" xlink:href="#mdb9a5739ac" y="56.851099"/>
     <use style="fill:#8b0000;stroke:#8b0000;" x="232.221176" xlink:href="#mdb9a5739ac" y="56.851099"/>
     <use style="fill:#8b0000;stroke:#8b0000;" x="233.534118" xlink:href="#mdb9a5739ac" y="56.851099"/>
     <use style="fill:#8b0000;stroke:#8b0000;" x="234.847059" xlink:href="#mdb9a5739ac" y="56.851099"/>
     <use style="fill:#8b0000;stroke:#8b0000;" x="236.16" xlink:href="#mdb9a5739ac" y="56.851099"/>
     <use style="fill:#8b0000;stroke:#8b0000;" x="237.472941" xlink:href="#mdb9a5739ac" y="56.851099"/>
     <use style="fill:#8b0000;stroke:#8b0000;" x="238.785882" xlink:href="#mdb9a5739ac" y="59.700336"/>
     <use style="fill:#8b0000;stroke:#8b0000;" x="240.098824" xlink:href="#mdb9a5739ac" y="59.700336"/>
     <use style="fill:#8b0000;stroke:#8b0000;" x="241.411765" xlink:href="#mdb9a5739ac" y="56.851099"/>
     <use style="fill:#8b0000;stroke:#8b0000;" x="242.724706" xlink:href="#mdb9a5739ac" y="56.851099"/>
     <use style="fill:#8b0000;stroke:#8b0000;" x="244.037647" xlink:href="#mdb9a5739ac" y="56.851099"/>
     <use style="fill:#8b0000;stroke:#8b0000;" x="245.350588" xlink:href="#mdb9a5739ac" y="56.851099"/>
     <use style="fill:#8b0000;stroke:#8b0000;" x="246.663529" xlink:href="#mdb9a5739ac" y="62.549574"/>
     <use style="fill:#8b0000;stroke:#8b0000;" x="247.976471" xlink:href="#mdb9a5739ac" y="62.549574"/>
     <use style="fill:#8b0000;stroke:#8b0000;" x="249.289412" xlink:href="#mdb9a5739ac" y="65.398811"/>
     <use style="fill:#8b0000;stroke:#8b0000;" x="250.602353" xlink:href="#mdb9a5739ac" y="62.549574"/>
     <use style="fill:#8b0000;stroke:#8b0000;" x="251.915294" xlink:href="#mdb9a5739ac" y="59.700336"/>
     <use style="fill:#8b0000;stroke:#8b0000;" x="253.228235" xlink:href="#mdb9a5739ac" y="54.001861"/>
     <use style="fill:#8b0000;stroke:#8b0000;" x="254.541176" xlink:href="#mdb9a5739ac" y="54.001861"/>
     <use style="fill:#8b0000;stroke:#8b0000;" x="255.854118" xlink:href="#mdb9a5739ac" y="56.851099"/>
     <use style="fill:#8b0000;stroke:#8b0000;" x="257.167059" xlink:href="#mdb9a5739ac" y="59.700336"/>
     <use style="fill:#8b0000;stroke:#8b0000;" x="258.48" xlink:href="#mdb9a5739ac" y="56.851099"/>
     <use style="fill:#8b0000;stroke:#8b0000;" x="259.792941" xlink:href="#mdb9a5739ac" y="56.851099"/>
     <use style="fill:#8b0000;stroke:#8b0000;" x="261.105882" xlink:href="#mdb9a5739ac" y="54.001861"/>
     <use style="fill:#8b0000;stroke:#8b0000;" x="262.418824" xlink:href="#mdb9a5739ac" y="59.700336"/>
     <use style="fill:#8b0000;stroke:#8b0000;" x="263.731765" xlink:href="#mdb9a5739ac" y="56.851099"/>
     <use style="fill:#8b0000;stroke:#8b0000;" x="265.044706" xlink:href="#mdb9a5739ac" y="59.700336"/>
     <use style="fill:#8b0000;stroke:#8b0000;" x="266.357647" xlink:href="#mdb9a5739ac" y="59.700336"/>
     <use style="fill:#8b0000;stroke:#8b0000;" x="267.670588" xlink:href="#mdb9a5739ac" y="79.644999"/>
     <use style="fill:#8b0000;stroke:#8b0000;" x="268.983529" xlink:href="#mdb9a5739ac" y="59.700336"/>
     <use style="fill:#8b0000;stroke:#8b0000;" x="270.296471" xlink:href="#mdb9a5739ac" y="56.851099"/>
     <use style="fill:#8b0000;stroke:#8b0000;" x="271.609412" xlink:href="#mdb9a5739ac" y="56.851099"/>
     <use style="fill:#8b0000;stroke:#8b0000;" x="272.922353" xlink:href="#mdb9a5739ac" y="56.851099"/>
     <use style="fill:#8b0000;stroke:#8b0000;" x="274.235294" xlink:href="#mdb9a5739ac" y="56.851099"/>
     <use style="fill:#8b0000;stroke:#8b0000;" x="275.548235" xlink:href="#mdb9a5739ac" y="59.700336"/>
     <use style="fill:#8b0000;stroke:#8b0000;" x="276.861176" xlink:href="#mdb9a5739ac" y="56.851099"/>
     <use style="fill:#8b0000;stroke:#8b0000;" x="278.174118" xlink:href="#mdb9a5739ac" y="56.851099"/>
     <use style="fill:#8b0000;stroke:#8b0000;" x="279.487059" xlink:href="#mdb9a5739ac" y="59.700336"/>
     <use style="fill:#8b0000;stroke:#8b0000;" x="280.8" xlink:href="#mdb9a5739ac" y="65.398811"/>
     <use style="fill:#8b0000;stroke:#8b0000;" x="282.112941" xlink:href="#mdb9a5739ac" y="65.398811"/>
     <use style="fill:#8b0000;stroke:#8b0000;" x="283.425882" xlink:href="#mdb9a5739ac" y="59.700336"/>
     <use style="fill:#8b0000;stroke:#8b0000;" x="284.738824" xlink:href="#mdb9a5739ac" y="59.700336"/>
     <use style="fill:#8b0000;stroke:#8b0000;" x="286.051765" xlink:href="#mdb9a5739ac" y="56.851099"/>
     <use style="fill:#8b0000;stroke:#8b0000;" x="287.364706" xlink:href="#mdb9a5739ac" y="56.851099"/>
     <use style="fill:#8b0000;stroke:#8b0000;" x="288.677647" xlink:href="#mdb9a5739ac" y="62.549574"/>
     <use style="fill:#8b0000;stroke:#8b0000;" x="289.990588" xlink:href="#mdb9a5739ac" y="56.851099"/>
     <use style="fill:#8b0000;stroke:#8b0000;" x="291.303529" xlink:href="#mdb9a5739ac" y="56.851099"/>
     <use style="fill:#8b0000;stroke:#8b0000;" x="292.616471" xlink:href="#mdb9a5739ac" y="56.851099"/>
     <use style="fill:#8b0000;stroke:#8b0000;" x="293.929412" xlink:href="#mdb9a5739ac" y="56.851099"/>
     <use style="fill:#8b0000;stroke:#8b0000;" x="295.242353" xlink:href="#mdb9a5739ac" y="59.700336"/>
     <use style="fill:#8b0000;stroke:#8b0000;" x="296.555294" xlink:href="#mdb9a5739ac" y="59.700336"/>
     <use style="fill:#8b0000;stroke:#8b0000;" x="297.868235" xlink:href="#mdb9a5739ac" y="56.851099"/>
     <use style="fill:#8b0000;stroke:#8b0000;" x="299.181176" xlink:href="#mdb9a5739ac" y="56.851099"/>
     <use style="fill:#8b0000;stroke:#8b0000;" x="300.494118" xlink:href="#mdb9a5739ac" y="56.851099"/>
     <use style="fill:#8b0000;stroke:#8b0000;" x="301.807059" xlink:href="#mdb9a5739ac" y="59.700336"/>
     <use style="fill:#8b0000;stroke:#8b0000;" x="303.12" xlink:href="#mdb9a5739ac" y="59.700336"/>
     <use style="fill:#8b0000;stroke:#8b0000;" x="304.432941" xlink:href="#mdb9a5739ac" y="59.700336"/>
     <use style="fill:#8b0000;stroke:#8b0000;" x="305.745882" xlink:href="#mdb9a5739ac" y="54.001861"/>
     <use style="fill:#8b0000;stroke:#8b0000;" x="307.058824" xlink:href="#mdb9a5739ac" y="62.549574"/>
     <use style="fill:#8b0000;stroke:#8b0000;" x="308.371765" xlink:href="#mdb9a5739ac" y="59.700336"/>
     <use style="fill:#8b0000;stroke:#8b0000;" x="309.684706" xlink:href="#mdb9a5739ac" y="179.368312"/>
     <use style="fill:#8b0000;stroke:#8b0000;" x="310.997647" xlink:href="#mdb9a5739ac" y="59.700336"/>
     <use style="fill:#8b0000;stroke:#8b0000;" x="312.310588" xlink:href="#mdb9a5739ac" y="59.700336"/>
     <use style="fill:#8b0000;stroke:#8b0000;" x="313.623529" xlink:href="#mdb9a5739ac" y="59.700336"/>
     <use style="fill:#8b0000;stroke:#8b0000;" x="314.936471" xlink:href="#mdb9a5739ac" y="56.851099"/>
     <use style="fill:#8b0000;stroke:#8b0000;" x="316.249412" xlink:href="#mdb9a5739ac" y="62.549574"/>
     <use style="fill:#8b0000;stroke:#8b0000;" x="317.562353" xlink:href="#mdb9a5739ac" y="59.700336"/>
     <use style="fill:#8b0000;stroke:#8b0000;" x="318.875294" xlink:href="#mdb9a5739ac" y="59.700336"/>
     <use style="fill:#8b0000;stroke:#8b0000;" x="320.188235" xlink:href="#mdb9a5739ac" y="62.549574"/>
     <use style="fill:#8b0000;stroke:#8b0000;" x="321.501176" xlink:href="#mdb9a5739ac" y="59.700336"/>
     <use style="fill:#8b0000;stroke:#8b0000;" x="322.814118" xlink:href="#mdb9a5739ac" y="65.398811"/>
     <use style="fill:#8b0000;stroke:#8b0000;" x="324.127059" xlink:href="#mdb9a5739ac" y="59.700336"/>
     <use style="fill:#8b0000;stroke:#8b0000;" x="325.44" xlink:href="#mdb9a5739ac" y="62.549574"/>
     <use style="fill:#8b0000;stroke:#8b0000;" x="326.752941" xlink:href="#mdb9a5739ac" y="185.066787"/>
     <use style="fill:#8b0000;stroke:#8b0000;" x="328.065882" xlink:href="#mdb9a5739ac" y="65.398811"/>
     <use style="fill:#8b0000;stroke:#8b0000;" x="329.378824" xlink:href="#mdb9a5739ac" y="65.398811"/>
     <use style="fill:#8b0000;stroke:#8b0000;" x="330.691765" xlink:href="#mdb9a5739ac" y="62.549574"/>
     <use style="fill:#8b0000;stroke:#8b0000;" x="332.004706" xlink:href="#mdb9a5739ac" y="62.549574"/>
     <use style="fill:#8b0000;stroke:#8b0000;" x="333.317647" xlink:href="#mdb9a5739ac" y="59.700336"/>
     <use style="fill:#8b0000;stroke:#8b0000;" x="334.630588" xlink:href="#mdb9a5739ac" y="59.700336"/>
     <use style="fill:#8b0000;stroke:#8b0000;" x="335.943529" xlink:href="#mdb9a5739ac" y="59.700336"/>
     <use style="fill:#8b0000;stroke:#8b0000;" x="337.256471" xlink:href="#mdb9a5739ac" y="56.851099"/>
     <use style="fill:#8b0000;stroke:#8b0000;" x="338.569412" xlink:href="#mdb9a5739ac" y="56.851099"/>
     <use style="fill:#8b0000;stroke:#8b0000;" x="339.882353" xlink:href="#mdb9a5739ac" y="56.851099"/>
     <use style="fill:#8b0000;stroke:#8b0000;" x="341.195294" xlink:href="#mdb9a5739ac" y="59.700336"/>
     <use style="fill:#8b0000;stroke:#8b0000;" x="342.508235" xlink:href="#mdb9a5739ac" y="59.700336"/>
     <use style="fill:#8b0000;stroke:#8b0000;" x="343.821176" xlink:href="#mdb9a5739ac" y="56.851099"/>
     <use style="fill:#8b0000;stroke:#8b0000;" x="345.134118" xlink:href="#mdb9a5739ac" y="59.700336"/>
     <use style="fill:#8b0000;stroke:#8b0000;" x="346.447059" xlink:href="#mdb9a5739ac" y="59.700336"/>
     <use style="fill:#8b0000;stroke:#8b0000;" x="347.76" xlink:href="#mdb9a5739ac" y="56.851099"/>
     <use style="fill:#8b0000;stroke:#8b0000;" x="349.072941" xlink:href="#mdb9a5739ac" y="59.700336"/>
     <use style="fill:#8b0000;stroke:#8b0000;" x="350.385882" xlink:href="#mdb9a5739ac" y="65.398811"/>
     <use style="fill:#8b0000;stroke:#8b0000;" x="351.698824" xlink:href="#mdb9a5739ac" y="93.891186"/>
     <use style="fill:#8b0000;stroke:#8b0000;" x="353.011765" xlink:href="#mdb9a5739ac" y="59.700336"/>
     <use style="fill:#8b0000;stroke:#8b0000;" x="354.324706" xlink:href="#mdb9a5739ac" y="59.700336"/>
     <use style="fill:#8b0000;stroke:#8b0000;" x="355.637647" xlink:href="#mdb9a5739ac" y="59.700336"/>
     <use style="fill:#8b0000;stroke:#8b0000;" x="356.950588" xlink:href="#mdb9a5739ac" y="65.398811"/>
     <use style="fill:#8b0000;stroke:#8b0000;" x="358.263529" xlink:href="#mdb9a5739ac" y="62.549574"/>
     <use style="fill:#8b0000;stroke:#8b0000;" x="359.576471" xlink:href="#mdb9a5739ac" y="59.700336"/>
     <use style="fill:#8b0000;stroke:#8b0000;" x="360.889412" xlink:href="#mdb9a5739ac" y="62.549574"/>
     <use style="fill:#8b0000;stroke:#8b0000;" x="362.202353" xlink:href="#mdb9a5739ac" y="56.851099"/>
     <use style="fill:#8b0000;stroke:#8b0000;" x="363.515294" xlink:href="#mdb9a5739ac" y="56.851099"/>
     <use style="fill:#8b0000;stroke:#8b0000;" x="364.828235" xlink:href="#mdb9a5739ac" y="56.851099"/>
     <use style="fill:#8b0000;stroke:#8b0000;" x="366.141176" xlink:href="#mdb9a5739ac" y="59.700336"/>
     <use style="fill:#8b0000;stroke:#8b0000;" x="367.454118" xlink:href="#mdb9a5739ac" y="56.851099"/>
     <use style="fill:#8b0000;stroke:#8b0000;" x="368.767059" xlink:href="#mdb9a5739ac" y="65.398811"/>
     <use style="fill:#8b0000;stroke:#8b0000;" x="370.08" xlink:href="#mdb9a5739ac" y="56.851099"/>
     <use style="fill:#8b0000;stroke:#8b0000;" x="371.392941" xlink:href="#mdb9a5739ac" y="62.549574"/>
     <use style="fill:#8b0000;stroke:#8b0000;" x="372.705882" xlink:href="#mdb9a5739ac" y="65.398811"/>
     <use style="fill:#8b0000;stroke:#8b0000;" x="374.018824" xlink:href="#mdb9a5739ac" y="62.549574"/>
     <use style="fill:#8b0000;stroke:#8b0000;" x="375.331765" xlink:href="#mdb9a5739ac" y="59.700336"/>
     <use style="fill:#8b0000;stroke:#8b0000;" x="376.644706" xlink:href="#mdb9a5739ac" y="62.549574"/>
     <use style="fill:#8b0000;stroke:#8b0000;" x="377.957647" xlink:href="#mdb9a5739ac" y="62.549574"/>
     <use style="fill:#8b0000;stroke:#8b0000;" x="379.270588" xlink:href="#mdb9a5739ac" y="62.549574"/>
     <use style="fill:#8b0000;stroke:#8b0000;" x="380.583529" xlink:href="#mdb9a5739ac" y="65.398811"/>
     <use style="fill:#8b0000;stroke:#8b0000;" x="381.896471" xlink:href="#mdb9a5739ac" y="62.549574"/>
     <use style="fill:#8b0000;stroke:#8b0000;" x="383.209412" xlink:href="#mdb9a5739ac" y="59.700336"/>
     <use style="fill:#8b0000;stroke:#8b0000;" x="384.522353" xlink:href="#mdb9a5739ac" y="65.398811"/>
     <use style="fill:#8b0000;stroke:#8b0000;" x="385.835294" xlink:href="#mdb9a5739ac" y="65.398811"/>
     <use style="fill:#8b0000;stroke:#8b0000;" x="387.148235" xlink:href="#mdb9a5739ac" y="65.398811"/>
     <use style="fill:#8b0000;stroke:#8b0000;" x="388.461176" xlink:href="#mdb9a5739ac" y="62.549574"/>
     <use style="fill:#8b0000;stroke:#8b0000;" x="389.774118" xlink:href="#mdb9a5739ac" y="65.398811"/>
     <use style="fill:#8b0000;stroke:#8b0000;" x="391.087059" xlink:href="#mdb9a5739ac" y="68.248049"/>
     <use style="fill:#8b0000;stroke:#8b0000;" x="392.4" xlink:href="#mdb9a5739ac" y="88.192711"/>
     <use style="fill:#8b0000;stroke:#8b0000;" x="393.712941" xlink:href="#mdb9a5739ac" y="287.639337"/>
    </g>
   </g>
   <g id="patch_3">
    <path d="M 57.6 307.584 
L 57.6 41.472 
" style="fill:none;stroke:#cccccc;stroke-linecap:square;stroke-linejoin:miter;stroke-width:1.25;"/>
   </g>
   <g id="patch_4">
    <path d="M 414.72 307.584 
L 414.72 41.472 
" style="fill:none;stroke:#cccccc;stroke-linecap:square;stroke-linejoin:miter;stroke-width:1.25;"/>
   </g>
   <g id="patch_5">
    <path d="M 57.6 307.584 
L 414.72 307.584 
" style="fill:none;stroke:#cccccc;stroke-linecap:square;stroke-linejoin:miter;stroke-width:1.25;"/>
   </g>
   <g id="patch_6">
    <path d="M 57.6 41.472 
L 414.72 41.472 
" style="fill:none;stroke:#cccccc;stroke-linecap:square;stroke-linejoin:miter;stroke-width:1.25;"/>
   </g>
   <g id="text_24">
    <!-- for (int i = 0; i &lt; N * step; i += step) a[i]++ -->
    <defs>
     <path d="M 37.109375 75.984375 
L 37.109375 68.5 
L 28.515625 68.5 
Q 23.6875 68.5 21.796875 66.546875 
Q 19.921875 64.59375 19.921875 59.515625 
L 19.921875 54.6875 
L 34.71875 54.6875 
L 34.71875 47.703125 
L 19.921875 47.703125 
L 19.921875 0 
L 10.890625 0 
L 10.890625 47.703125 
L 2.296875 47.703125 
L 2.296875 54.6875 
L 10.890625 54.6875 
L 10.890625 58.5 
Q 10.890625 67.625 15.140625 71.796875 
Q 19.390625 75.984375 28.609375 75.984375 
z
" id="DejaVuSans-102"/>
     <path d="M 10.59375 45.40625 
L 73.1875 45.40625 
L 73.1875 37.203125 
L 10.59375 37.203125 
z
M 10.59375 25.484375 
L 73.1875 25.484375 
L 73.1875 17.1875 
L 10.59375 17.1875 
z
" id="DejaVuSans-61"/>
     <path d="M 11.71875 51.703125 
L 22.015625 51.703125 
L 22.015625 39.3125 
L 11.71875 39.3125 
z
M 11.71875 12.40625 
L 22.015625 12.40625 
L 22.015625 4 
L 14.015625 -11.625 
L 7.71875 -11.625 
L 11.71875 4 
z
" id="DejaVuSans-59"/>
     <path d="M 73.1875 49.21875 
L 22.796875 31.296875 
L 73.1875 13.484375 
L 73.1875 4.59375 
L 10.59375 27.296875 
L 10.59375 35.40625 
L 73.1875 58.109375 
z
" id="DejaVuSans-60"/>
     <path d="M 9.8125 72.90625 
L 23.09375 72.90625 
L 55.421875 11.921875 
L 55.421875 72.90625 
L 64.984375 72.90625 
L 64.984375 0 
L 51.703125 0 
L 19.390625 60.984375 
L 19.390625 0 
L 9.8125 0 
z
" id="DejaVuSans-78"/>
     <path d="M 47.015625 60.890625 
L 29.5 51.421875 
L 47.015625 41.890625 
L 44.1875 37.109375 
L 27.78125 47.015625 
L 27.78125 28.609375 
L 22.21875 28.609375 
L 22.21875 47.015625 
L 5.8125 37.109375 
L 2.984375 41.890625 
L 20.515625 51.421875 
L 2.984375 60.890625 
L 5.8125 65.71875 
L 22.21875 55.8125 
L 22.21875 74.21875 
L 27.78125 74.21875 
L 27.78125 55.8125 
L 44.1875 65.71875 
z
" id="DejaVuSans-42"/>
     <path d="M 46 62.703125 
L 46 35.5 
L 73.1875 35.5 
L 73.1875 27.203125 
L 46 27.203125 
L 46 0 
L 37.796875 0 
L 37.796875 27.203125 
L 10.59375 27.203125 
L 10.59375 35.5 
L 37.796875 35.5 
L 37.796875 62.703125 
z
" id="DejaVuSans-43"/>
     <path d="M 34.28125 27.484375 
Q 23.390625 27.484375 19.1875 25 
Q 14.984375 22.515625 14.984375 16.5 
Q 14.984375 11.71875 18.140625 8.90625 
Q 21.296875 6.109375 26.703125 6.109375 
Q 34.1875 6.109375 38.703125 11.40625 
Q 43.21875 16.703125 43.21875 25.484375 
L 43.21875 27.484375 
z
M 52.203125 31.203125 
L 52.203125 0 
L 43.21875 0 
L 43.21875 8.296875 
Q 40.140625 3.328125 35.546875 0.953125 
Q 30.953125 -1.421875 24.3125 -1.421875 
Q 15.921875 -1.421875 10.953125 3.296875 
Q 6 8.015625 6 15.921875 
Q 6 25.140625 12.171875 29.828125 
Q 18.359375 34.515625 30.609375 34.515625 
L 43.21875 34.515625 
L 43.21875 35.40625 
Q 43.21875 41.609375 39.140625 45 
Q 35.0625 48.390625 27.6875 48.390625 
Q 23 48.390625 18.546875 47.265625 
Q 14.109375 46.140625 10.015625 43.890625 
L 10.015625 52.203125 
Q 14.9375 54.109375 19.578125 55.046875 
Q 24.21875 56 28.609375 56 
Q 40.484375 56 46.34375 49.84375 
Q 52.203125 43.703125 52.203125 31.203125 
z
" id="DejaVuSans-97"/>
     <path d="M 8.59375 75.984375 
L 29.296875 75.984375 
L 29.296875 69 
L 17.578125 69 
L 17.578125 -6.203125 
L 29.296875 -6.203125 
L 29.296875 -13.1875 
L 8.59375 -13.1875 
z
" id="DejaVuSans-91"/>
     <path d="M 30.421875 75.984375 
L 30.421875 -13.1875 
L 9.71875 -13.1875 
L 9.71875 -6.203125 
L 21.390625 -6.203125 
L 21.390625 69 
L 9.71875 69 
L 9.71875 75.984375 
z
" id="DejaVuSans-93"/>
    </defs>
    <g style="fill:#262626;" transform="translate(104.117813 29.472)scale(0.12 -0.12)">
     <use xlink:href="#DejaVuSans-102"/>
     <use x="35.205078" xlink:href="#DejaVuSans-111"/>
     <use x="96.386719" xlink:href="#DejaVuSans-114"/>
     <use x="137.5" xlink:href="#DejaVuSans-32"/>
     <use x="169.287109" xlink:href="#DejaVuSans-40"/>
     <use x="208.300781" xlink:href="#DejaVuSans-105"/>
     <use x="236.083984" xlink:href="#DejaVuSans-110"/>
     <use x="299.462891" xlink:href="#DejaVuSans-116"/>
     <use x="338.671875" xlink:href="#DejaVuSans-32"/>
     <use x="370.458984" xlink:href="#DejaVuSans-105"/>
     <use x="398.242188" xlink:href="#DejaVuSans-32"/>
     <use x="430.029297" xlink:href="#DejaVuSans-61"/>
     <use x="513.818359" xlink:href="#DejaVuSans-32"/>
     <use x="545.605469" xlink:href="#DejaVuSans-48"/>
     <use x="609.228516" xlink:href="#DejaVuSans-59"/>
     <use x="642.919922" xlink:href="#DejaVuSans-32"/>
     <use x="674.707031" xlink:href="#DejaVuSans-105"/>
     <use x="702.490234" xlink:href="#DejaVuSans-32"/>
     <use x="734.277344" xlink:href="#DejaVuSans-60"/>
     <use x="818.066406" xlink:href="#DejaVuSans-32"/>
     <use x="849.853516" xlink:href="#DejaVuSans-78"/>
     <use x="924.658203" xlink:href="#DejaVuSans-32"/>
     <use x="956.445312" xlink:href="#DejaVuSans-42"/>
     <use x="1006.445312" xlink:href="#DejaVuSans-32"/>
     <use x="1038.232422" xlink:href="#DejaVuSans-115"/>
     <use x="1090.332031" xlink:href="#DejaVuSans-116"/>
     <use x="1129.541016" xlink:href="#DejaVuSans-101"/>
     <use x="1191.064453" xlink:href="#DejaVuSans-112"/>
     <use x="1254.541016" xlink:href="#DejaVuSans-59"/>
     <use x="1288.232422" xlink:href="#DejaVuSans-32"/>
     <use x="1320.019531" xlink:href="#DejaVuSans-105"/>
     <use x="1347.802734" xlink:href="#DejaVuSans-32"/>
     <use x="1379.589844" xlink:href="#DejaVuSans-43"/>
     <use x="1463.378906" xlink:href="#DejaVuSans-61"/>
     <use x="1547.167969" xlink:href="#DejaVuSans-32"/>
     <use x="1578.955078" xlink:href="#DejaVuSans-115"/>
     <use x="1631.054688" xlink:href="#DejaVuSans-116"/>
     <use x="1670.263672" xlink:href="#DejaVuSans-101"/>
     <use x="1731.787109" xlink:href="#DejaVuSans-112"/>
     <use x="1795.263672" xlink:href="#DejaVuSans-41"/>
     <use x="1834.277344" xlink:href="#DejaVuSans-32"/>
     <use x="1866.064453" xlink:href="#DejaVuSans-97"/>
     <use x="1927.34375" xlink:href="#DejaVuSans-91"/>
     <use x="1966.357422" xlink:href="#DejaVuSans-105"/>
     <use x="1994.140625" xlink:href="#DejaVuSans-93"/>
     <use x="2033.154297" xlink:href="#DejaVuSans-43"/>
     <use x="2116.943359" xlink:href="#DejaVuSans-43"/>
    </g>
   </g>
  </g>
 </g>
 <defs>
  <clipPath id="pc6f59f9c42">
   <rect height="266.112" width="357.12" x="57.6" y="41.472"/>
  </clipPath>
 </defs>
</svg>
