<?xml version="1.0" encoding="utf-8" standalone="no"?>
<!DOCTYPE svg PUBLIC "-//W3C//DTD SVG 1.1//EN"
  "http://www.w3.org/Graphics/SVG/1.1/DTD/svg11.dtd">
<!-- Created with matplotlib (https://matplotlib.org/) -->
<svg height="345.6pt" version="1.1" viewBox="0 0 460.8 345.6" width="460.8pt" xmlns="http://www.w3.org/2000/svg" xmlns:xlink="http://www.w3.org/1999/xlink">
 <defs>
  <style type="text/css">
*{stroke-linecap:butt;stroke-linejoin:round;}
  </style>
 </defs>
 <g id="figure_1">
  <g id="patch_1">
   <path d="M 0 345.6 
L 460.8 345.6 
L 460.8 0 
L 0 0 
z
" style="fill:#ffffff;"/>
  </g>
  <g id="axes_1">
   <g id="patch_2">
    <path d="M 57.6 307.584 
L 414.72 307.584 
L 414.72 41.472 
L 57.6 41.472 
z
" style="fill:#ffffff;"/>
   </g>
   <g id="matplotlib.axis_1">
    <g id="xtick_1">
     <g id="line2d_1">
      <path clip-path="url(#pdc8afd0604)" d="M 111.484568 307.584 
L 111.484568 41.472 
" style="fill:none;stroke:#cccccc;stroke-linecap:round;"/>
     </g>
     <g id="text_1">
      <!-- $\mathdefault{2^{13}}$ -->
      <defs>
       <path d="M 19.1875 8.296875 
L 53.609375 8.296875 
L 53.609375 0 
L 7.328125 0 
L 7.328125 8.296875 
Q 12.9375 14.109375 22.625 23.890625 
Q 32.328125 33.6875 34.8125 36.53125 
Q 39.546875 41.84375 41.421875 45.53125 
Q 43.3125 49.21875 43.3125 52.78125 
Q 43.3125 58.59375 39.234375 62.25 
Q 35.15625 65.921875 28.609375 65.921875 
Q 23.96875 65.921875 18.8125 64.3125 
Q 13.671875 62.703125 7.8125 59.421875 
L 7.8125 69.390625 
Q 13.765625 71.78125 18.9375 73 
Q 24.125 74.21875 28.421875 74.21875 
Q 39.75 74.21875 46.484375 68.546875 
Q 53.21875 62.890625 53.21875 53.421875 
Q 53.21875 48.921875 51.53125 44.890625 
Q 49.859375 40.875 45.40625 35.40625 
Q 44.1875 33.984375 37.640625 27.21875 
Q 31.109375 20.453125 19.1875 8.296875 
z
" id="DejaVuSans-50"/>
       <path d="M 12.40625 8.296875 
L 28.515625 8.296875 
L 28.515625 63.921875 
L 10.984375 60.40625 
L 10.984375 69.390625 
L 28.421875 72.90625 
L 38.28125 72.90625 
L 38.28125 8.296875 
L 54.390625 8.296875 
L 54.390625 0 
L 12.40625 0 
z
" id="DejaVuSans-49"/>
       <path d="M 40.578125 39.3125 
Q 47.65625 37.796875 51.625 33 
Q 55.609375 28.21875 55.609375 21.1875 
Q 55.609375 10.40625 48.1875 4.484375 
Q 40.765625 -1.421875 27.09375 -1.421875 
Q 22.515625 -1.421875 17.65625 -0.515625 
Q 12.796875 0.390625 7.625 2.203125 
L 7.625 11.71875 
Q 11.71875 9.328125 16.59375 8.109375 
Q 21.484375 6.890625 26.8125 6.890625 
Q 36.078125 6.890625 40.9375 10.546875 
Q 45.796875 14.203125 45.796875 21.1875 
Q 45.796875 27.640625 41.28125 31.265625 
Q 36.765625 34.90625 28.71875 34.90625 
L 20.21875 34.90625 
L 20.21875 43.015625 
L 29.109375 43.015625 
Q 36.375 43.015625 40.234375 45.921875 
Q 44.09375 48.828125 44.09375 54.296875 
Q 44.09375 59.90625 40.109375 62.90625 
Q 36.140625 65.921875 28.71875 65.921875 
Q 24.65625 65.921875 20.015625 65.03125 
Q 15.375 64.15625 9.8125 62.3125 
L 9.8125 71.09375 
Q 15.4375 72.65625 20.34375 73.4375 
Q 25.25 74.21875 29.59375 74.21875 
Q 40.828125 74.21875 47.359375 69.109375 
Q 53.90625 64.015625 53.90625 55.328125 
Q 53.90625 49.265625 50.4375 45.09375 
Q 46.96875 40.921875 40.578125 39.3125 
z
" id="DejaVuSans-51"/>
      </defs>
      <g style="fill:#262626;" transform="translate(102.849568 325.442281)scale(0.11 -0.11)">
       <use transform="translate(0 0.765625)" xlink:href="#DejaVuSans-50"/>
       <use transform="translate(64.580078 39.046875)scale(0.7)" xlink:href="#DejaVuSans-49"/>
       <use transform="translate(109.116211 39.046875)scale(0.7)" xlink:href="#DejaVuSans-51"/>
      </g>
     </g>
    </g>
    <g id="xtick_2">
     <g id="line2d_2">
      <path clip-path="url(#pdc8afd0604)" d="M 175.836085 307.584 
L 175.836085 41.472 
" style="fill:none;stroke:#cccccc;stroke-linecap:round;"/>
     </g>
     <g id="text_2">
      <!-- $\mathdefault{2^{15}}$ -->
      <defs>
       <path d="M 10.796875 72.90625 
L 49.515625 72.90625 
L 49.515625 64.59375 
L 19.828125 64.59375 
L 19.828125 46.734375 
Q 21.96875 47.46875 24.109375 47.828125 
Q 26.265625 48.1875 28.421875 48.1875 
Q 40.625 48.1875 47.75 41.5 
Q 54.890625 34.8125 54.890625 23.390625 
Q 54.890625 11.625 47.5625 5.09375 
Q 40.234375 -1.421875 26.90625 -1.421875 
Q 22.3125 -1.421875 17.546875 -0.640625 
Q 12.796875 0.140625 7.71875 1.703125 
L 7.71875 11.625 
Q 12.109375 9.234375 16.796875 8.0625 
Q 21.484375 6.890625 26.703125 6.890625 
Q 35.15625 6.890625 40.078125 11.328125 
Q 45.015625 15.765625 45.015625 23.390625 
Q 45.015625 31 40.078125 35.4375 
Q 35.15625 39.890625 26.703125 39.890625 
Q 22.75 39.890625 18.8125 39.015625 
Q 14.890625 38.140625 10.796875 36.28125 
z
" id="DejaVuSans-53"/>
      </defs>
      <g style="fill:#262626;" transform="translate(167.201085 325.442281)scale(0.11 -0.11)">
       <use transform="translate(0 0.684375)" xlink:href="#DejaVuSans-50"/>
       <use transform="translate(64.580078 38.965625)scale(0.7)" xlink:href="#DejaVuSans-49"/>
       <use transform="translate(109.116211 38.965625)scale(0.7)" xlink:href="#DejaVuSans-53"/>
      </g>
     </g>
    </g>
    <g id="xtick_3">
     <g id="line2d_3">
      <path clip-path="url(#pdc8afd0604)" d="M 240.187602 307.584 
L 240.187602 41.472 
" style="fill:none;stroke:#cccccc;stroke-linecap:round;"/>
     </g>
     <g id="text_3">
      <!-- $\mathdefault{2^{17}}$ -->
      <defs>
       <path d="M 8.203125 72.90625 
L 55.078125 72.90625 
L 55.078125 68.703125 
L 28.609375 0 
L 18.3125 0 
L 43.21875 64.59375 
L 8.203125 64.59375 
z
" id="DejaVuSans-55"/>
      </defs>
      <g style="fill:#262626;" transform="translate(231.552602 325.442281)scale(0.11 -0.11)">
       <use transform="translate(0 0.684375)" xlink:href="#DejaVuSans-50"/>
       <use transform="translate(64.580078 38.965625)scale(0.7)" xlink:href="#DejaVuSans-49"/>
       <use transform="translate(109.116211 38.965625)scale(0.7)" xlink:href="#DejaVuSans-55"/>
      </g>
     </g>
    </g>
    <g id="xtick_4">
     <g id="line2d_4">
      <path clip-path="url(#pdc8afd0604)" d="M 304.53912 307.584 
L 304.53912 41.472 
" style="fill:none;stroke:#cccccc;stroke-linecap:round;"/>
     </g>
     <g id="text_4">
      <!-- $\mathdefault{2^{19}}$ -->
      <defs>
       <path d="M 10.984375 1.515625 
L 10.984375 10.5 
Q 14.703125 8.734375 18.5 7.8125 
Q 22.3125 6.890625 25.984375 6.890625 
Q 35.75 6.890625 40.890625 13.453125 
Q 46.046875 20.015625 46.78125 33.40625 
Q 43.953125 29.203125 39.59375 26.953125 
Q 35.25 24.703125 29.984375 24.703125 
Q 19.046875 24.703125 12.671875 31.3125 
Q 6.296875 37.9375 6.296875 49.421875 
Q 6.296875 60.640625 12.9375 67.421875 
Q 19.578125 74.21875 30.609375 74.21875 
Q 43.265625 74.21875 49.921875 64.515625 
Q 56.59375 54.828125 56.59375 36.375 
Q 56.59375 19.140625 48.40625 8.859375 
Q 40.234375 -1.421875 26.421875 -1.421875 
Q 22.703125 -1.421875 18.890625 -0.6875 
Q 15.09375 0.046875 10.984375 1.515625 
z
M 30.609375 32.421875 
Q 37.25 32.421875 41.125 36.953125 
Q 45.015625 41.5 45.015625 49.421875 
Q 45.015625 57.28125 41.125 61.84375 
Q 37.25 66.40625 30.609375 66.40625 
Q 23.96875 66.40625 20.09375 61.84375 
Q 16.21875 57.28125 16.21875 49.421875 
Q 16.21875 41.5 20.09375 36.953125 
Q 23.96875 32.421875 30.609375 32.421875 
z
" id="DejaVuSans-57"/>
      </defs>
      <g style="fill:#262626;" transform="translate(295.90412 325.442281)scale(0.11 -0.11)">
       <use transform="translate(0 0.765625)" xlink:href="#DejaVuSans-50"/>
       <use transform="translate(64.580078 39.046875)scale(0.7)" xlink:href="#DejaVuSans-49"/>
       <use transform="translate(109.116211 39.046875)scale(0.7)" xlink:href="#DejaVuSans-57"/>
      </g>
     </g>
    </g>
    <g id="xtick_5">
     <g id="line2d_5">
      <path clip-path="url(#pdc8afd0604)" d="M 368.890637 307.584 
L 368.890637 41.472 
" style="fill:none;stroke:#cccccc;stroke-linecap:round;"/>
     </g>
     <g id="text_5">
      <!-- $\mathdefault{2^{21}}$ -->
      <g style="fill:#262626;" transform="translate(360.255637 325.442281)scale(0.11 -0.11)">
       <use transform="translate(0 0.765625)" xlink:href="#DejaVuSans-50"/>
       <use transform="translate(64.580078 39.046875)scale(0.7)" xlink:href="#DejaVuSans-50"/>
       <use transform="translate(109.116211 39.046875)scale(0.7)" xlink:href="#DejaVuSans-49"/>
      </g>
     </g>
    </g>
    <g id="text_6">
     <!-- Array size -->
     <defs>
      <path d="M 34.1875 63.1875 
L 20.796875 26.90625 
L 47.609375 26.90625 
z
M 28.609375 72.90625 
L 39.796875 72.90625 
L 67.578125 0 
L 57.328125 0 
L 50.6875 18.703125 
L 17.828125 18.703125 
L 11.1875 0 
L 0.78125 0 
z
" id="DejaVuSans-65"/>
      <path d="M 41.109375 46.296875 
Q 39.59375 47.171875 37.8125 47.578125 
Q 36.03125 48 33.890625 48 
Q 26.265625 48 22.1875 43.046875 
Q 18.109375 38.09375 18.109375 28.8125 
L 18.109375 0 
L 9.078125 0 
L 9.078125 54.6875 
L 18.109375 54.6875 
L 18.109375 46.1875 
Q 20.953125 51.171875 25.484375 53.578125 
Q 30.03125 56 36.53125 56 
Q 37.453125 56 38.578125 55.875 
Q 39.703125 55.765625 41.0625 55.515625 
z
" id="DejaVuSans-114"/>
      <path d="M 34.28125 27.484375 
Q 23.390625 27.484375 19.1875 25 
Q 14.984375 22.515625 14.984375 16.5 
Q 14.984375 11.71875 18.140625 8.90625 
Q 21.296875 6.109375 26.703125 6.109375 
Q 34.1875 6.109375 38.703125 11.40625 
Q 43.21875 16.703125 43.21875 25.484375 
L 43.21875 27.484375 
z
M 52.203125 31.203125 
L 52.203125 0 
L 43.21875 0 
L 43.21875 8.296875 
Q 40.140625 3.328125 35.546875 0.953125 
Q 30.953125 -1.421875 24.3125 -1.421875 
Q 15.921875 -1.421875 10.953125 3.296875 
Q 6 8.015625 6 15.921875 
Q 6 25.140625 12.171875 29.828125 
Q 18.359375 34.515625 30.609375 34.515625 
L 43.21875 34.515625 
L 43.21875 35.40625 
Q 43.21875 41.609375 39.140625 45 
Q 35.0625 48.390625 27.6875 48.390625 
Q 23 48.390625 18.546875 47.265625 
Q 14.109375 46.140625 10.015625 43.890625 
L 10.015625 52.203125 
Q 14.9375 54.109375 19.578125 55.046875 
Q 24.21875 56 28.609375 56 
Q 40.484375 56 46.34375 49.84375 
Q 52.203125 43.703125 52.203125 31.203125 
z
" id="DejaVuSans-97"/>
      <path d="M 32.171875 -5.078125 
Q 28.375 -14.84375 24.75 -17.8125 
Q 21.140625 -20.796875 15.09375 -20.796875 
L 7.90625 -20.796875 
L 7.90625 -13.28125 
L 13.1875 -13.28125 
Q 16.890625 -13.28125 18.9375 -11.515625 
Q 21 -9.765625 23.484375 -3.21875 
L 25.09375 0.875 
L 2.984375 54.6875 
L 12.5 54.6875 
L 29.59375 11.921875 
L 46.6875 54.6875 
L 56.203125 54.6875 
z
" id="DejaVuSans-121"/>
      <path id="DejaVuSans-32"/>
      <path d="M 44.28125 53.078125 
L 44.28125 44.578125 
Q 40.484375 46.53125 36.375 47.5 
Q 32.28125 48.484375 27.875 48.484375 
Q 21.1875 48.484375 17.84375 46.4375 
Q 14.5 44.390625 14.5 40.28125 
Q 14.5 37.15625 16.890625 35.375 
Q 19.28125 33.59375 26.515625 31.984375 
L 29.59375 31.296875 
Q 39.15625 29.25 43.1875 25.515625 
Q 47.21875 21.78125 47.21875 15.09375 
Q 47.21875 7.46875 41.1875 3.015625 
Q 35.15625 -1.421875 24.609375 -1.421875 
Q 20.21875 -1.421875 15.453125 -0.5625 
Q 10.6875 0.296875 5.421875 2 
L 5.421875 11.28125 
Q 10.40625 8.6875 15.234375 7.390625 
Q 20.0625 6.109375 24.8125 6.109375 
Q 31.15625 6.109375 34.5625 8.28125 
Q 37.984375 10.453125 37.984375 14.40625 
Q 37.984375 18.0625 35.515625 20.015625 
Q 33.0625 21.96875 24.703125 23.78125 
L 21.578125 24.515625 
Q 13.234375 26.265625 9.515625 29.90625 
Q 5.8125 33.546875 5.8125 39.890625 
Q 5.8125 47.609375 11.28125 51.796875 
Q 16.75 56 26.8125 56 
Q 31.78125 56 36.171875 55.265625 
Q 40.578125 54.546875 44.28125 53.078125 
z
" id="DejaVuSans-115"/>
      <path d="M 9.421875 54.6875 
L 18.40625 54.6875 
L 18.40625 0 
L 9.421875 0 
z
M 9.421875 75.984375 
L 18.40625 75.984375 
L 18.40625 64.59375 
L 9.421875 64.59375 
z
" id="DejaVuSans-105"/>
      <path d="M 5.515625 54.6875 
L 48.1875 54.6875 
L 48.1875 46.484375 
L 14.40625 7.171875 
L 48.1875 7.171875 
L 48.1875 0 
L 4.296875 0 
L 4.296875 8.203125 
L 38.09375 47.515625 
L 5.515625 47.515625 
z
" id="DejaVuSans-122"/>
      <path d="M 56.203125 29.59375 
L 56.203125 25.203125 
L 14.890625 25.203125 
Q 15.484375 15.921875 20.484375 11.0625 
Q 25.484375 6.203125 34.421875 6.203125 
Q 39.59375 6.203125 44.453125 7.46875 
Q 49.3125 8.734375 54.109375 11.28125 
L 54.109375 2.78125 
Q 49.265625 0.734375 44.1875 -0.34375 
Q 39.109375 -1.421875 33.890625 -1.421875 
Q 20.796875 -1.421875 13.15625 6.1875 
Q 5.515625 13.8125 5.515625 26.8125 
Q 5.515625 40.234375 12.765625 48.109375 
Q 20.015625 56 32.328125 56 
Q 43.359375 56 49.78125 48.890625 
Q 56.203125 41.796875 56.203125 29.59375 
z
M 47.21875 32.234375 
Q 47.125 39.59375 43.09375 43.984375 
Q 39.0625 48.390625 32.421875 48.390625 
Q 24.90625 48.390625 20.390625 44.140625 
Q 15.875 39.890625 15.1875 32.171875 
z
" id="DejaVuSans-101"/>
     </defs>
     <g style="fill:#262626;" transform="translate(206.355 340.848062)scale(0.12 -0.12)">
      <use xlink:href="#DejaVuSans-65"/>
      <use x="68.408203" xlink:href="#DejaVuSans-114"/>
      <use x="109.505859" xlink:href="#DejaVuSans-114"/>
      <use x="150.619141" xlink:href="#DejaVuSans-97"/>
      <use x="211.898438" xlink:href="#DejaVuSans-121"/>
      <use x="271.078125" xlink:href="#DejaVuSans-32"/>
      <use x="302.865234" xlink:href="#DejaVuSans-115"/>
      <use x="354.964844" xlink:href="#DejaVuSans-105"/>
      <use x="382.748047" xlink:href="#DejaVuSans-122"/>
      <use x="435.238281" xlink:href="#DejaVuSans-101"/>
     </g>
    </g>
   </g>
   <g id="matplotlib.axis_2">
    <g id="ytick_1">
     <g id="line2d_6">
      <path clip-path="url(#pdc8afd0604)" d="M 57.6 307.584 
L 414.72 307.584 
" style="fill:none;stroke:#cccccc;stroke-linecap:round;"/>
     </g>
     <g id="text_7">
      <!-- 0 -->
      <defs>
       <path d="M 31.78125 66.40625 
Q 24.171875 66.40625 20.328125 58.90625 
Q 16.5 51.421875 16.5 36.375 
Q 16.5 21.390625 20.328125 13.890625 
Q 24.171875 6.390625 31.78125 6.390625 
Q 39.453125 6.390625 43.28125 13.890625 
Q 47.125 21.390625 47.125 36.375 
Q 47.125 51.421875 43.28125 58.90625 
Q 39.453125 66.40625 31.78125 66.40625 
z
M 31.78125 74.21875 
Q 44.046875 74.21875 50.515625 64.515625 
Q 56.984375 54.828125 56.984375 36.375 
Q 56.984375 17.96875 50.515625 8.265625 
Q 44.046875 -1.421875 31.78125 -1.421875 
Q 19.53125 -1.421875 13.0625 8.265625 
Q 6.59375 17.96875 6.59375 36.375 
Q 6.59375 54.828125 13.0625 64.515625 
Q 19.53125 74.21875 31.78125 74.21875 
z
" id="DejaVuSans-48"/>
      </defs>
      <g style="fill:#262626;" transform="translate(41.10125 311.763141)scale(0.11 -0.11)">
       <use xlink:href="#DejaVuSans-48"/>
      </g>
     </g>
    </g>
    <g id="ytick_2">
     <g id="line2d_7">
      <path clip-path="url(#pdc8afd0604)" d="M 57.6 263.371454 
L 414.72 263.371454 
" style="fill:none;stroke:#cccccc;stroke-linecap:round;"/>
     </g>
     <g id="text_8">
      <!-- 20 -->
      <g style="fill:#262626;" transform="translate(34.1025 267.550594)scale(0.11 -0.11)">
       <use xlink:href="#DejaVuSans-50"/>
       <use x="63.623047" xlink:href="#DejaVuSans-48"/>
      </g>
     </g>
    </g>
    <g id="ytick_3">
     <g id="line2d_8">
      <path clip-path="url(#pdc8afd0604)" d="M 57.6 219.158907 
L 414.72 219.158907 
" style="fill:none;stroke:#cccccc;stroke-linecap:round;"/>
     </g>
     <g id="text_9">
      <!-- 40 -->
      <defs>
       <path d="M 37.796875 64.3125 
L 12.890625 25.390625 
L 37.796875 25.390625 
z
M 35.203125 72.90625 
L 47.609375 72.90625 
L 47.609375 25.390625 
L 58.015625 25.390625 
L 58.015625 17.1875 
L 47.609375 17.1875 
L 47.609375 0 
L 37.796875 0 
L 37.796875 17.1875 
L 4.890625 17.1875 
L 4.890625 26.703125 
z
" id="DejaVuSans-52"/>
      </defs>
      <g style="fill:#262626;" transform="translate(34.1025 223.338048)scale(0.11 -0.11)">
       <use xlink:href="#DejaVuSans-52"/>
       <use x="63.623047" xlink:href="#DejaVuSans-48"/>
      </g>
     </g>
    </g>
    <g id="ytick_4">
     <g id="line2d_9">
      <path clip-path="url(#pdc8afd0604)" d="M 57.6 174.946361 
L 414.72 174.946361 
" style="fill:none;stroke:#cccccc;stroke-linecap:round;"/>
     </g>
     <g id="text_10">
      <!-- 60 -->
      <defs>
       <path d="M 33.015625 40.375 
Q 26.375 40.375 22.484375 35.828125 
Q 18.609375 31.296875 18.609375 23.390625 
Q 18.609375 15.53125 22.484375 10.953125 
Q 26.375 6.390625 33.015625 6.390625 
Q 39.65625 6.390625 43.53125 10.953125 
Q 47.40625 15.53125 47.40625 23.390625 
Q 47.40625 31.296875 43.53125 35.828125 
Q 39.65625 40.375 33.015625 40.375 
z
M 52.59375 71.296875 
L 52.59375 62.3125 
Q 48.875 64.0625 45.09375 64.984375 
Q 41.3125 65.921875 37.59375 65.921875 
Q 27.828125 65.921875 22.671875 59.328125 
Q 17.53125 52.734375 16.796875 39.40625 
Q 19.671875 43.65625 24.015625 45.921875 
Q 28.375 48.1875 33.59375 48.1875 
Q 44.578125 48.1875 50.953125 41.515625 
Q 57.328125 34.859375 57.328125 23.390625 
Q 57.328125 12.15625 50.6875 5.359375 
Q 44.046875 -1.421875 33.015625 -1.421875 
Q 20.359375 -1.421875 13.671875 8.265625 
Q 6.984375 17.96875 6.984375 36.375 
Q 6.984375 53.65625 15.1875 63.9375 
Q 23.390625 74.21875 37.203125 74.21875 
Q 40.921875 74.21875 44.703125 73.484375 
Q 48.484375 72.75 52.59375 71.296875 
z
" id="DejaVuSans-54"/>
      </defs>
      <g style="fill:#262626;" transform="translate(34.1025 179.125502)scale(0.11 -0.11)">
       <use xlink:href="#DejaVuSans-54"/>
       <use x="63.623047" xlink:href="#DejaVuSans-48"/>
      </g>
     </g>
    </g>
    <g id="ytick_5">
     <g id="line2d_10">
      <path clip-path="url(#pdc8afd0604)" d="M 57.6 130.733815 
L 414.72 130.733815 
" style="fill:none;stroke:#cccccc;stroke-linecap:round;"/>
     </g>
     <g id="text_11">
      <!-- 80 -->
      <defs>
       <path d="M 31.78125 34.625 
Q 24.75 34.625 20.71875 30.859375 
Q 16.703125 27.09375 16.703125 20.515625 
Q 16.703125 13.921875 20.71875 10.15625 
Q 24.75 6.390625 31.78125 6.390625 
Q 38.8125 6.390625 42.859375 10.171875 
Q 46.921875 13.96875 46.921875 20.515625 
Q 46.921875 27.09375 42.890625 30.859375 
Q 38.875 34.625 31.78125 34.625 
z
M 21.921875 38.8125 
Q 15.578125 40.375 12.03125 44.71875 
Q 8.5 49.078125 8.5 55.328125 
Q 8.5 64.0625 14.71875 69.140625 
Q 20.953125 74.21875 31.78125 74.21875 
Q 42.671875 74.21875 48.875 69.140625 
Q 55.078125 64.0625 55.078125 55.328125 
Q 55.078125 49.078125 51.53125 44.71875 
Q 48 40.375 41.703125 38.8125 
Q 48.828125 37.15625 52.796875 32.3125 
Q 56.78125 27.484375 56.78125 20.515625 
Q 56.78125 9.90625 50.3125 4.234375 
Q 43.84375 -1.421875 31.78125 -1.421875 
Q 19.734375 -1.421875 13.25 4.234375 
Q 6.78125 9.90625 6.78125 20.515625 
Q 6.78125 27.484375 10.78125 32.3125 
Q 14.796875 37.15625 21.921875 38.8125 
z
M 18.3125 54.390625 
Q 18.3125 48.734375 21.84375 45.5625 
Q 25.390625 42.390625 31.78125 42.390625 
Q 38.140625 42.390625 41.71875 45.5625 
Q 45.3125 48.734375 45.3125 54.390625 
Q 45.3125 60.0625 41.71875 63.234375 
Q 38.140625 66.40625 31.78125 66.40625 
Q 25.390625 66.40625 21.84375 63.234375 
Q 18.3125 60.0625 18.3125 54.390625 
z
" id="DejaVuSans-56"/>
      </defs>
      <g style="fill:#262626;" transform="translate(34.1025 134.912956)scale(0.11 -0.11)">
       <use xlink:href="#DejaVuSans-56"/>
       <use x="63.623047" xlink:href="#DejaVuSans-48"/>
      </g>
     </g>
    </g>
    <g id="ytick_6">
     <g id="line2d_11">
      <path clip-path="url(#pdc8afd0604)" d="M 57.6 86.521269 
L 414.72 86.521269 
" style="fill:none;stroke:#cccccc;stroke-linecap:round;"/>
     </g>
     <g id="text_12">
      <!-- 100 -->
      <g style="fill:#262626;" transform="translate(27.10375 90.700409)scale(0.11 -0.11)">
       <use xlink:href="#DejaVuSans-49"/>
       <use x="63.623047" xlink:href="#DejaVuSans-48"/>
       <use x="127.246094" xlink:href="#DejaVuSans-48"/>
      </g>
     </g>
    </g>
    <g id="ytick_7">
     <g id="line2d_12">
      <path clip-path="url(#pdc8afd0604)" d="M 57.6 42.308722 
L 414.72 42.308722 
" style="fill:none;stroke:#cccccc;stroke-linecap:round;"/>
     </g>
     <g id="text_13">
      <!-- 120 -->
      <g style="fill:#262626;" transform="translate(27.10375 46.487863)scale(0.11 -0.11)">
       <use xlink:href="#DejaVuSans-49"/>
       <use x="63.623047" xlink:href="#DejaVuSans-50"/>
       <use x="127.246094" xlink:href="#DejaVuSans-48"/>
      </g>
     </g>
    </g>
    <g id="text_14">
     <!-- Latency (ns) -->
     <defs>
      <path d="M 9.8125 72.90625 
L 19.671875 72.90625 
L 19.671875 8.296875 
L 55.171875 8.296875 
L 55.171875 0 
L 9.8125 0 
z
" id="DejaVuSans-76"/>
      <path d="M 18.3125 70.21875 
L 18.3125 54.6875 
L 36.8125 54.6875 
L 36.8125 47.703125 
L 18.3125 47.703125 
L 18.3125 18.015625 
Q 18.3125 11.328125 20.140625 9.421875 
Q 21.96875 7.515625 27.59375 7.515625 
L 36.8125 7.515625 
L 36.8125 0 
L 27.59375 0 
Q 17.1875 0 13.234375 3.875 
Q 9.28125 7.765625 9.28125 18.015625 
L 9.28125 47.703125 
L 2.6875 47.703125 
L 2.6875 54.6875 
L 9.28125 54.6875 
L 9.28125 70.21875 
z
" id="DejaVuSans-116"/>
      <path d="M 54.890625 33.015625 
L 54.890625 0 
L 45.90625 0 
L 45.90625 32.71875 
Q 45.90625 40.484375 42.875 44.328125 
Q 39.84375 48.1875 33.796875 48.1875 
Q 26.515625 48.1875 22.3125 43.546875 
Q 18.109375 38.921875 18.109375 30.90625 
L 18.109375 0 
L 9.078125 0 
L 9.078125 54.6875 
L 18.109375 54.6875 
L 18.109375 46.1875 
Q 21.34375 51.125 25.703125 53.5625 
Q 30.078125 56 35.796875 56 
Q 45.21875 56 50.046875 50.171875 
Q 54.890625 44.34375 54.890625 33.015625 
z
" id="DejaVuSans-110"/>
      <path d="M 48.78125 52.59375 
L 48.78125 44.1875 
Q 44.96875 46.296875 41.140625 47.34375 
Q 37.3125 48.390625 33.40625 48.390625 
Q 24.65625 48.390625 19.8125 42.84375 
Q 14.984375 37.3125 14.984375 27.296875 
Q 14.984375 17.28125 19.8125 11.734375 
Q 24.65625 6.203125 33.40625 6.203125 
Q 37.3125 6.203125 41.140625 7.25 
Q 44.96875 8.296875 48.78125 10.40625 
L 48.78125 2.09375 
Q 45.015625 0.34375 40.984375 -0.53125 
Q 36.96875 -1.421875 32.421875 -1.421875 
Q 20.0625 -1.421875 12.78125 6.34375 
Q 5.515625 14.109375 5.515625 27.296875 
Q 5.515625 40.671875 12.859375 48.328125 
Q 20.21875 56 33.015625 56 
Q 37.15625 56 41.109375 55.140625 
Q 45.0625 54.296875 48.78125 52.59375 
z
" id="DejaVuSans-99"/>
      <path d="M 31 75.875 
Q 24.46875 64.65625 21.28125 53.65625 
Q 18.109375 42.671875 18.109375 31.390625 
Q 18.109375 20.125 21.3125 9.0625 
Q 24.515625 -2 31 -13.1875 
L 23.1875 -13.1875 
Q 15.875 -1.703125 12.234375 9.375 
Q 8.59375 20.453125 8.59375 31.390625 
Q 8.59375 42.28125 12.203125 53.3125 
Q 15.828125 64.359375 23.1875 75.875 
z
" id="DejaVuSans-40"/>
      <path d="M 8.015625 75.875 
L 15.828125 75.875 
Q 23.140625 64.359375 26.78125 53.3125 
Q 30.421875 42.28125 30.421875 31.390625 
Q 30.421875 20.453125 26.78125 9.375 
Q 23.140625 -1.703125 15.828125 -13.1875 
L 8.015625 -13.1875 
Q 14.5 -2 17.703125 9.0625 
Q 20.90625 20.125 20.90625 31.390625 
Q 20.90625 42.671875 17.703125 53.65625 
Q 14.5 64.65625 8.015625 75.875 
z
" id="DejaVuSans-41"/>
     </defs>
     <g style="fill:#262626;" transform="translate(20.608125 211.76175)rotate(-90)scale(0.12 -0.12)">
      <use xlink:href="#DejaVuSans-76"/>
      <use x="55.712891" xlink:href="#DejaVuSans-97"/>
      <use x="116.992188" xlink:href="#DejaVuSans-116"/>
      <use x="156.201172" xlink:href="#DejaVuSans-101"/>
      <use x="217.724609" xlink:href="#DejaVuSans-110"/>
      <use x="281.103516" xlink:href="#DejaVuSans-99"/>
      <use x="336.083984" xlink:href="#DejaVuSans-121"/>
      <use x="395.263672" xlink:href="#DejaVuSans-32"/>
      <use x="427.050781" xlink:href="#DejaVuSans-40"/>
      <use x="466.064453" xlink:href="#DejaVuSans-110"/>
      <use x="529.443359" xlink:href="#DejaVuSans-115"/>
      <use x="581.542969" xlink:href="#DejaVuSans-41"/>
     </g>
    </g>
   </g>
   <g id="line2d_13">
    <path clip-path="url(#pdc8afd0604)" d="M 57.6 300.907906 
L 64.884682 299.935229 
L 72.168272 300.598418 
L 79.4672 300.64263 
L 86.748526 300.64263 
L 94.04189 300.487886 
L 101.327012 300.775268 
L 108.615458 300.355249 
L 115.907817 300.001548 
L 123.196474 298.432003 
L 130.483391 297.393008 
L 137.771635 296.508757 
L 145.05851 295.867675 
L 152.347886 295.2487 
L 159.636934 294.231811 
L 166.924073 294.12128 
L 174.21292 293.303348 
L 181.500828 293.126497 
L 188.789373 293.015966 
L 196.076953 292.706478 
L 203.364833 292.485415 
L 210.653044 291.976971 
L 217.941465 290.871658 
L 225.229358 288.439967 
L 232.517839 284.062925 
L 239.805673 282.49338 
L 247.09386 279.398502 
L 254.382033 275.308841 
L 261.670039 270.224398 
L 268.958277 260.210257 
L 276.246278 249.93084 
L 283.534424 242.613663 
L 290.82256 236.755501 
L 298.110658 222.607486 
L 305.398703 208.105771 
L 312.686802 206.889926 
L 319.97489 177.134882 
L 327.262972 172.779946 
L 334.551047 149.590466 
L 341.839162 145.677656 
L 349.127245 133.07708 
L 356.415307 123.836658 
L 363.703409 102.592529 
L 370.991495 108.671754 
L 378.279567 86.963394 
L 385.567663 78.717754 
L 392.855742 73.34593 
L 400.143823 59.220021 
L 407.431913 63.97287 
L 414.72 53.826091 
" style="fill:none;stroke:#8b0000;stroke-linecap:round;stroke-width:1.5;"/>
   </g>
   <g id="line2d_14">
    <path clip-path="url(#pdc8afd0604)" d="M 57.6 291.86644 
L 64.884682 291.86644 
L 72.168272 291.932759 
L 79.4672 292.065396 
L 86.748526 292.021184 
L 94.04189 291.645377 
L 101.327012 292.04329 
L 108.615458 291.800121 
L 115.907817 291.844334 
L 123.196474 292.04329 
L 130.483391 291.755908 
L 137.771635 291.711696 
L 145.05851 291.733802 
L 152.347886 291.601165 
L 159.636934 291.667483 
L 166.924073 291.822227 
L 174.21292 291.822227 
L 181.500828 291.733802 
L 188.789373 291.203252 
L 196.076953 291.579058 
L 203.364833 291.446421 
L 210.653044 291.68959 
L 217.941465 289.412643 
L 225.229358 289.921088 
L 232.517839 286.737784 
L 239.805673 286.804103 
L 247.09386 282.648124 
L 254.382033 284.659795 
L 261.670039 280.990153 
L 268.958277 274.645653 
L 276.246278 270.003336 
L 283.534424 283.554481 
L 290.82256 282.581805 
L 298.110658 259.038624 
L 305.398703 249.908733 
L 312.686802 241.906263 
L 319.97489 219.247333 
L 327.262972 235.495443 
L 334.551047 217.434618 
L 341.839162 199.771706 
L 349.127245 198.356904 
L 356.415307 191.923979 
L 363.703409 190.73024 
L 370.991495 180.671886 
L 378.279567 179.036022 
L 385.567663 170.989338 
L 392.855742 166.612296 
L 400.143823 165.484876 
L 407.431913 163.163718 
L 414.72 160.975197 
" style="fill:none;stroke:#00008b;stroke-linecap:round;stroke-width:1.5;"/>
   </g>
   <g id="line2d_15">
    <path clip-path="url(#pdc8afd0604)" d="M 57.6 291.446421 
L 64.884682 291.446421 
L 72.168272 291.136933 
L 79.4672 291.800121 
L 86.748526 291.579058 
L 94.04189 291.623271 
L 101.327012 291.291677 
L 108.615458 291.534846 
L 115.907817 291.932759 
L 123.196474 291.778015 
L 130.483391 291.490633 
L 137.771635 291.247464 
L 145.05851 291.68959 
L 152.347886 291.446421 
L 159.636934 291.26957 
L 166.924073 291.26957 
L 174.21292 291.225358 
L 181.500828 291.645377 
L 188.789373 291.468527 
L 196.076953 291.181145 
L 203.364833 291.490633 
L 210.653044 291.512739 
L 217.941465 290.893764 
L 225.229358 291.026401 
L 232.517839 290.230576 
L 239.805673 289.766344 
L 247.09386 287.445185 
L 254.382033 286.914635 
L 261.670039 284.991389 
L 268.958277 278.602676 
L 276.246278 279.685883 
L 283.534424 286.781997 
L 290.82256 287.224122 
L 298.110658 272.788726 
L 305.398703 267.461114 
L 312.686802 267.615858 
L 319.97489 263.813579 
L 327.262972 255.74479 
L 334.551047 243.232639 
L 341.839162 238.170302 
L 349.127245 231.449995 
L 356.415307 228.642499 
L 363.703409 222.916974 
L 370.991495 220.883197 
L 378.279567 215.887179 
L 385.567663 214.605015 
L 392.855742 210.139548 
L 400.143823 204.259279 
L 407.431913 202.490778 
L 414.72 200.147513 
" style="fill:none;stroke:#006400;stroke-linecap:round;stroke-width:1.5;"/>
   </g>
   <g id="line2d_16">
    <path clip-path="url(#pdc8afd0604)" d="M 57.6 291.26957 
L 64.884682 291.004295 
L 72.168272 291.26957 
L 79.4672 291.357996 
L 86.748526 291.424314 
L 94.04189 291.048508 
L 101.327012 290.73902 
L 108.615458 291.004295 
L 115.907817 291.203252 
L 123.196474 291.357996 
L 130.483391 290.960083 
L 137.771635 290.937976 
L 145.05851 291.313783 
L 152.347886 291.159039 
L 159.636934 291.291677 
L 166.924073 290.849551 
L 174.21292 291.159039 
L 181.500828 291.114827 
L 188.789373 291.136933 
L 196.076953 291.247464 
L 203.364833 290.982189 
L 210.653044 290.186363 
L 217.941465 291.247464 
L 225.229358 290.871658 
L 232.517839 289.898981 
L 239.805673 289.810556 
L 247.09386 288.83788 
L 254.382033 289.412643 
L 261.670039 289.324218 
L 268.958277 286.140915 
L 276.246278 285.676683 
L 283.534424 289.700025 
L 290.82256 289.700025 
L 298.110658 282.051255 
L 305.398703 281.785979 
L 312.686802 277.585787 
L 319.97489 272.810832 
L 327.262972 266.665288 
L 334.551047 256.385871 
L 341.839162 246.150667 
L 349.127245 248.184444 
L 356.415307 233.749048 
L 363.703409 242.304175 
L 370.991495 238.65664 
L 378.279567 237.330264 
L 385.567663 236.313375 
L 392.855742 231.825802 
L 400.143823 231.671058 
L 407.431913 230.720488 
L 414.72 229.372006 
" style="fill:none;stroke:#ffa500;stroke-linecap:round;stroke-width:1.5;"/>
   </g>
   <g id="line2d_17">
    <path clip-path="url(#pdc8afd0604)" d="M 57.6 290.805339 
L 64.884682 290.783232 
L 72.168272 290.495851 
L 79.4672 291.070614 
L 86.748526 291.004295 
L 94.04189 290.672701 
L 101.327012 290.296894 
L 108.615458 290.252682 
L 115.907817 290.694807 
L 123.196474 290.56217 
L 130.483391 290.274788 
L 137.771635 290.296894 
L 145.05851 291.048508 
L 152.347886 290.716914 
L 159.636934 290.495851 
L 166.924073 290.451638 
L 174.21292 290.230576 
L 181.500828 290.805339 
L 188.789373 290.716914 
L 196.076953 290.38532 
L 203.364833 290.252682 
L 210.653044 290.805339 
L 217.941465 289.987407 
L 225.229358 290.120044 
L 232.517839 289.766344 
L 239.805673 289.147368 
L 247.09386 289.456856 
L 254.382033 289.235793 
L 261.670039 288.970518 
L 268.958277 287.069379 
L 276.246278 286.538828 
L 283.534424 290.031619 
L 290.82256 289.832663 
L 298.110658 283.44395 
L 305.398703 280.945941 
L 312.686802 279.553246 
L 319.97489 275.994136 
L 327.262972 272.810832 
L 334.551047 254.816326 
L 341.839162 247.189662 
L 349.127245 255.258452 
L 356.415307 254.241563 
L 363.703409 252.473061 
L 370.991495 246.769643 
L 378.279567 230.322575 
L 385.567663 233.572198 
L 392.855742 236.777607 
L 400.143823 232.776372 
L 407.431913 244.11689 
L 414.72 244.337953 
" style="fill:none;stroke:#800080;stroke-linecap:round;stroke-width:1.5;"/>
   </g>
   <g id="line2d_18">
    <path clip-path="url(#pdc8afd0604)" d="M 57.6 288.815774 
L 64.884682 288.373649 
L 72.168272 288.241011 
L 79.4672 288.749455 
L 86.748526 288.904199 
L 94.04189 288.196798 
L 101.327012 288.218905 
L 108.615458 287.953629 
L 115.907817 288.749455 
L 123.196474 288.506286 
L 130.483391 288.152586 
L 137.771635 288.241011 
L 145.05851 288.616818 
L 152.347886 288.594711 
L 159.636934 288.196798 
L 166.924073 288.108373 
L 174.21292 288.086267 
L 181.500828 288.683136 
L 188.789373 288.373649 
L 196.076953 288.462074 
L 203.364833 287.909417 
L 210.653044 288.572605 
L 217.941465 288.462074 
L 225.229358 288.351542 
L 232.517839 287.843098 
L 239.805673 287.71046 
L 247.09386 287.820992 
L 254.382033 287.688354 
L 261.670039 287.489398 
L 268.958277 285.743002 
L 276.246278 286.317765 
L 283.534424 288.019948 
L 290.82256 287.688354 
L 298.110658 283.79765 
L 305.398703 283.731331 
L 312.686802 283.001824 
L 319.97489 281.144897 
L 327.262972 280.680666 
L 334.551047 277.099449 
L 341.839162 275.131991 
L 349.127245 274.42459 
L 356.415307 270.533886 
L 363.703409 266.709501 
L 370.991495 272.280282 
L 378.279567 266.930564 
L 385.567663 265.913675 
L 392.855742 266.643182 
L 400.143823 265.206274 
L 407.431913 268.500109 
L 414.72 266.930564 
" style="fill:none;stroke:#00ffff;stroke-linecap:round;stroke-width:1.5;"/>
   </g>
   <g id="line2d_19">
    <path clip-path="url(#pdc8afd0604)" d="M 111.484568 307.584 
L 111.484568 41.472 
" style="fill:none;stroke:#000000;stroke-dasharray:5.55,2.4;stroke-dashoffset:0;stroke-width:1.5;"/>
   </g>
   <g id="line2d_20">
    <path clip-path="url(#pdc8afd0604)" d="M 240.187602 307.584 
L 240.187602 41.472 
" style="fill:none;stroke:#000000;stroke-dasharray:5.55,2.4;stroke-dashoffset:0;stroke-width:1.5;"/>
   </g>
   <g id="line2d_21">
    <path clip-path="url(#pdc8afd0604)" d="M 336.714878 307.584 
L 336.714878 41.472 
" style="fill:none;stroke:#000000;stroke-dasharray:5.55,2.4;stroke-dashoffset:0;stroke-width:1.5;"/>
   </g>
   <g id="patch_3">
    <path d="M 57.6 307.584 
L 57.6 41.472 
" style="fill:none;stroke:#cccccc;stroke-linecap:square;stroke-linejoin:miter;stroke-width:1.25;"/>
   </g>
   <g id="patch_4">
    <path d="M 414.72 307.584 
L 414.72 41.472 
" style="fill:none;stroke:#cccccc;stroke-linecap:square;stroke-linejoin:miter;stroke-width:1.25;"/>
   </g>
   <g id="patch_5">
    <path d="M 57.6 307.584 
L 414.72 307.584 
" style="fill:none;stroke:#cccccc;stroke-linecap:square;stroke-linejoin:miter;stroke-width:1.25;"/>
   </g>
   <g id="patch_6">
    <path d="M 57.6 41.472 
L 414.72 41.472 
" style="fill:none;stroke:#cccccc;stroke-linecap:square;stroke-linejoin:miter;stroke-width:1.25;"/>
   </g>
   <g id="text_15">
    <!-- 32K -->
    <defs>
     <path d="M 9.8125 72.90625 
L 19.671875 72.90625 
L 19.671875 42.09375 
L 52.390625 72.90625 
L 65.09375 72.90625 
L 28.90625 38.921875 
L 67.671875 0 
L 54.6875 0 
L 19.671875 35.109375 
L 19.671875 0 
L 9.8125 0 
z
" id="DejaVuSans-75"/>
    </defs>
    <g style="fill:#262626;" transform="translate(119.947899 285.477727)scale(0.12 -0.12)">
     <use xlink:href="#DejaVuSans-51"/>
     <use x="63.623047" xlink:href="#DejaVuSans-50"/>
     <use x="127.246094" xlink:href="#DejaVuSans-75"/>
    </g>
   </g>
   <g id="text_16">
    <!-- 512K -->
    <g style="fill:#262626;" transform="translate(248.650934 285.477727)scale(0.12 -0.12)">
     <use xlink:href="#DejaVuSans-53"/>
     <use x="63.623047" xlink:href="#DejaVuSans-49"/>
     <use x="127.246094" xlink:href="#DejaVuSans-50"/>
     <use x="190.869141" xlink:href="#DejaVuSans-75"/>
    </g>
   </g>
   <g id="text_17">
    <!-- 4M -->
    <defs>
     <path d="M 9.8125 72.90625 
L 24.515625 72.90625 
L 43.109375 23.296875 
L 61.8125 72.90625 
L 76.515625 72.90625 
L 76.515625 0 
L 66.890625 0 
L 66.890625 64.015625 
L 48.09375 14.015625 
L 38.1875 14.015625 
L 19.390625 64.015625 
L 19.390625 0 
L 9.8125 0 
z
" id="DejaVuSans-77"/>
    </defs>
    <g style="fill:#262626;" transform="translate(345.17821 285.477727)scale(0.12 -0.12)">
     <use xlink:href="#DejaVuSans-52"/>
     <use x="63.623047" xlink:href="#DejaVuSans-77"/>
    </g>
   </g>
   <g id="text_18">
    <!-- Software prefetching -->
    <defs>
     <path d="M 53.515625 70.515625 
L 53.515625 60.890625 
Q 47.90625 63.578125 42.921875 64.890625 
Q 37.9375 66.21875 33.296875 66.21875 
Q 25.25 66.21875 20.875 63.09375 
Q 16.5 59.96875 16.5 54.203125 
Q 16.5 49.359375 19.40625 46.890625 
Q 22.3125 44.4375 30.421875 42.921875 
L 36.375 41.703125 
Q 47.40625 39.59375 52.65625 34.296875 
Q 57.90625 29 57.90625 20.125 
Q 57.90625 9.515625 50.796875 4.046875 
Q 43.703125 -1.421875 29.984375 -1.421875 
Q 24.8125 -1.421875 18.96875 -0.25 
Q 13.140625 0.921875 6.890625 3.21875 
L 6.890625 13.375 
Q 12.890625 10.015625 18.65625 8.296875 
Q 24.421875 6.59375 29.984375 6.59375 
Q 38.421875 6.59375 43.015625 9.90625 
Q 47.609375 13.234375 47.609375 19.390625 
Q 47.609375 24.75 44.3125 27.78125 
Q 41.015625 30.8125 33.5 32.328125 
L 27.484375 33.5 
Q 16.453125 35.6875 11.515625 40.375 
Q 6.59375 45.0625 6.59375 53.421875 
Q 6.59375 63.09375 13.40625 68.65625 
Q 20.21875 74.21875 32.171875 74.21875 
Q 37.3125 74.21875 42.625 73.28125 
Q 47.953125 72.359375 53.515625 70.515625 
z
" id="DejaVuSans-83"/>
     <path d="M 30.609375 48.390625 
Q 23.390625 48.390625 19.1875 42.75 
Q 14.984375 37.109375 14.984375 27.296875 
Q 14.984375 17.484375 19.15625 11.84375 
Q 23.34375 6.203125 30.609375 6.203125 
Q 37.796875 6.203125 41.984375 11.859375 
Q 46.1875 17.53125 46.1875 27.296875 
Q 46.1875 37.015625 41.984375 42.703125 
Q 37.796875 48.390625 30.609375 48.390625 
z
M 30.609375 56 
Q 42.328125 56 49.015625 48.375 
Q 55.71875 40.765625 55.71875 27.296875 
Q 55.71875 13.875 49.015625 6.21875 
Q 42.328125 -1.421875 30.609375 -1.421875 
Q 18.84375 -1.421875 12.171875 6.21875 
Q 5.515625 13.875 5.515625 27.296875 
Q 5.515625 40.765625 12.171875 48.375 
Q 18.84375 56 30.609375 56 
z
" id="DejaVuSans-111"/>
     <path d="M 37.109375 75.984375 
L 37.109375 68.5 
L 28.515625 68.5 
Q 23.6875 68.5 21.796875 66.546875 
Q 19.921875 64.59375 19.921875 59.515625 
L 19.921875 54.6875 
L 34.71875 54.6875 
L 34.71875 47.703125 
L 19.921875 47.703125 
L 19.921875 0 
L 10.890625 0 
L 10.890625 47.703125 
L 2.296875 47.703125 
L 2.296875 54.6875 
L 10.890625 54.6875 
L 10.890625 58.5 
Q 10.890625 67.625 15.140625 71.796875 
Q 19.390625 75.984375 28.609375 75.984375 
z
" id="DejaVuSans-102"/>
     <path d="M 4.203125 54.6875 
L 13.1875 54.6875 
L 24.421875 12.015625 
L 35.59375 54.6875 
L 46.1875 54.6875 
L 57.421875 12.015625 
L 68.609375 54.6875 
L 77.59375 54.6875 
L 63.28125 0 
L 52.6875 0 
L 40.921875 44.828125 
L 29.109375 0 
L 18.5 0 
z
" id="DejaVuSans-119"/>
     <path d="M 18.109375 8.203125 
L 18.109375 -20.796875 
L 9.078125 -20.796875 
L 9.078125 54.6875 
L 18.109375 54.6875 
L 18.109375 46.390625 
Q 20.953125 51.265625 25.265625 53.625 
Q 29.59375 56 35.59375 56 
Q 45.5625 56 51.78125 48.09375 
Q 58.015625 40.1875 58.015625 27.296875 
Q 58.015625 14.40625 51.78125 6.484375 
Q 45.5625 -1.421875 35.59375 -1.421875 
Q 29.59375 -1.421875 25.265625 0.953125 
Q 20.953125 3.328125 18.109375 8.203125 
z
M 48.6875 27.296875 
Q 48.6875 37.203125 44.609375 42.84375 
Q 40.53125 48.484375 33.40625 48.484375 
Q 26.265625 48.484375 22.1875 42.84375 
Q 18.109375 37.203125 18.109375 27.296875 
Q 18.109375 17.390625 22.1875 11.75 
Q 26.265625 6.109375 33.40625 6.109375 
Q 40.53125 6.109375 44.609375 11.75 
Q 48.6875 17.390625 48.6875 27.296875 
z
" id="DejaVuSans-112"/>
     <path d="M 54.890625 33.015625 
L 54.890625 0 
L 45.90625 0 
L 45.90625 32.71875 
Q 45.90625 40.484375 42.875 44.328125 
Q 39.84375 48.1875 33.796875 48.1875 
Q 26.515625 48.1875 22.3125 43.546875 
Q 18.109375 38.921875 18.109375 30.90625 
L 18.109375 0 
L 9.078125 0 
L 9.078125 75.984375 
L 18.109375 75.984375 
L 18.109375 46.1875 
Q 21.34375 51.125 25.703125 53.5625 
Q 30.078125 56 35.796875 56 
Q 45.21875 56 50.046875 50.171875 
Q 54.890625 44.34375 54.890625 33.015625 
z
" id="DejaVuSans-104"/>
     <path d="M 45.40625 27.984375 
Q 45.40625 37.75 41.375 43.109375 
Q 37.359375 48.484375 30.078125 48.484375 
Q 22.859375 48.484375 18.828125 43.109375 
Q 14.796875 37.75 14.796875 27.984375 
Q 14.796875 18.265625 18.828125 12.890625 
Q 22.859375 7.515625 30.078125 7.515625 
Q 37.359375 7.515625 41.375 12.890625 
Q 45.40625 18.265625 45.40625 27.984375 
z
M 54.390625 6.78125 
Q 54.390625 -7.171875 48.1875 -13.984375 
Q 42 -20.796875 29.203125 -20.796875 
Q 24.46875 -20.796875 20.265625 -20.09375 
Q 16.0625 -19.390625 12.109375 -17.921875 
L 12.109375 -9.1875 
Q 16.0625 -11.328125 19.921875 -12.34375 
Q 23.78125 -13.375 27.78125 -13.375 
Q 36.625 -13.375 41.015625 -8.765625 
Q 45.40625 -4.15625 45.40625 5.171875 
L 45.40625 9.625 
Q 42.625 4.78125 38.28125 2.390625 
Q 33.9375 0 27.875 0 
Q 17.828125 0 11.671875 7.65625 
Q 5.515625 15.328125 5.515625 27.984375 
Q 5.515625 40.671875 11.671875 48.328125 
Q 17.828125 56 27.875 56 
Q 33.9375 56 38.28125 53.609375 
Q 42.625 51.21875 45.40625 46.390625 
L 45.40625 54.6875 
L 54.390625 54.6875 
z
" id="DejaVuSans-103"/>
    </defs>
    <g style="fill:#262626;" transform="translate(173.067187 29.472)scale(0.12 -0.12)">
     <use xlink:href="#DejaVuSans-83"/>
     <use x="63.476562" xlink:href="#DejaVuSans-111"/>
     <use x="124.658203" xlink:href="#DejaVuSans-102"/>
     <use x="159.847656" xlink:href="#DejaVuSans-116"/>
     <use x="199.056641" xlink:href="#DejaVuSans-119"/>
     <use x="280.84375" xlink:href="#DejaVuSans-97"/>
     <use x="342.123047" xlink:href="#DejaVuSans-114"/>
     <use x="383.205078" xlink:href="#DejaVuSans-101"/>
     <use x="444.728516" xlink:href="#DejaVuSans-32"/>
     <use x="476.515625" xlink:href="#DejaVuSans-112"/>
     <use x="539.992188" xlink:href="#DejaVuSans-114"/>
     <use x="581.074219" xlink:href="#DejaVuSans-101"/>
     <use x="642.597656" xlink:href="#DejaVuSans-102"/>
     <use x="677.802734" xlink:href="#DejaVuSans-101"/>
     <use x="739.326172" xlink:href="#DejaVuSans-116"/>
     <use x="778.535156" xlink:href="#DejaVuSans-99"/>
     <use x="833.515625" xlink:href="#DejaVuSans-104"/>
     <use x="896.894531" xlink:href="#DejaVuSans-105"/>
     <use x="924.677734" xlink:href="#DejaVuSans-110"/>
     <use x="988.056641" xlink:href="#DejaVuSans-103"/>
    </g>
   </g>
   <g id="legend_1">
    <g id="patch_7">
     <path d="M 65.3 147.147625 
L 233.995313 147.147625 
Q 236.195313 147.147625 236.195313 144.947625 
L 236.195313 49.172 
Q 236.195313 46.972 233.995313 46.972 
L 65.3 46.972 
Q 63.1 46.972 63.1 49.172 
L 63.1 144.947625 
Q 63.1 147.147625 65.3 147.147625 
z
" style="fill:#ffffff;opacity:0.8;stroke:#cccccc;stroke-linejoin:miter;"/>
    </g>
    <g id="line2d_22">
     <path d="M 67.5 55.880281 
L 89.5 55.880281 
" style="fill:none;stroke:#8b0000;stroke-linecap:round;stroke-width:1.5;"/>
    </g>
    <g id="line2d_23"/>
    <g id="text_19">
     <!-- no prefetching -->
     <g style="fill:#262626;" transform="translate(98.3 59.730281)scale(0.11 -0.11)">
      <use xlink:href="#DejaVuSans-110"/>
      <use x="63.378906" xlink:href="#DejaVuSans-111"/>
      <use x="124.560547" xlink:href="#DejaVuSans-32"/>
      <use x="156.347656" xlink:href="#DejaVuSans-112"/>
      <use x="219.824219" xlink:href="#DejaVuSans-114"/>
      <use x="260.90625" xlink:href="#DejaVuSans-101"/>
      <use x="322.429688" xlink:href="#DejaVuSans-102"/>
      <use x="357.634766" xlink:href="#DejaVuSans-101"/>
      <use x="419.158203" xlink:href="#DejaVuSans-116"/>
      <use x="458.367188" xlink:href="#DejaVuSans-99"/>
      <use x="513.347656" xlink:href="#DejaVuSans-104"/>
      <use x="576.726562" xlink:href="#DejaVuSans-105"/>
      <use x="604.509766" xlink:href="#DejaVuSans-110"/>
      <use x="667.888672" xlink:href="#DejaVuSans-103"/>
     </g>
    </g>
    <g id="line2d_24">
     <path d="M 67.5 72.026219 
L 89.5 72.026219 
" style="fill:none;stroke:#00008b;stroke-linecap:round;stroke-width:1.5;"/>
    </g>
    <g id="line2d_25"/>
    <g id="text_20">
     <!-- software prefetching (1) -->
     <g style="fill:#262626;" transform="translate(98.3 75.876219)scale(0.11 -0.11)">
      <use xlink:href="#DejaVuSans-115"/>
      <use x="52.099609" xlink:href="#DejaVuSans-111"/>
      <use x="113.28125" xlink:href="#DejaVuSans-102"/>
      <use x="148.470703" xlink:href="#DejaVuSans-116"/>
      <use x="187.679688" xlink:href="#DejaVuSans-119"/>
      <use x="269.466797" xlink:href="#DejaVuSans-97"/>
      <use x="330.746094" xlink:href="#DejaVuSans-114"/>
      <use x="371.828125" xlink:href="#DejaVuSans-101"/>
      <use x="433.351562" xlink:href="#DejaVuSans-32"/>
      <use x="465.138672" xlink:href="#DejaVuSans-112"/>
      <use x="528.615234" xlink:href="#DejaVuSans-114"/>
      <use x="569.697266" xlink:href="#DejaVuSans-101"/>
      <use x="631.220703" xlink:href="#DejaVuSans-102"/>
      <use x="666.425781" xlink:href="#DejaVuSans-101"/>
      <use x="727.949219" xlink:href="#DejaVuSans-116"/>
      <use x="767.158203" xlink:href="#DejaVuSans-99"/>
      <use x="822.138672" xlink:href="#DejaVuSans-104"/>
      <use x="885.517578" xlink:href="#DejaVuSans-105"/>
      <use x="913.300781" xlink:href="#DejaVuSans-110"/>
      <use x="976.679688" xlink:href="#DejaVuSans-103"/>
      <use x="1040.15625" xlink:href="#DejaVuSans-32"/>
      <use x="1071.943359" xlink:href="#DejaVuSans-40"/>
      <use x="1110.957031" xlink:href="#DejaVuSans-49"/>
      <use x="1174.580078" xlink:href="#DejaVuSans-41"/>
     </g>
    </g>
    <g id="line2d_26">
     <path d="M 67.5 88.172156 
L 89.5 88.172156 
" style="fill:none;stroke:#006400;stroke-linecap:round;stroke-width:1.5;"/>
    </g>
    <g id="line2d_27"/>
    <g id="text_21">
     <!-- software prefetching (2) -->
     <g style="fill:#262626;" transform="translate(98.3 92.022156)scale(0.11 -0.11)">
      <use xlink:href="#DejaVuSans-115"/>
      <use x="52.099609" xlink:href="#DejaVuSans-111"/>
      <use x="113.28125" xlink:href="#DejaVuSans-102"/>
      <use x="148.470703" xlink:href="#DejaVuSans-116"/>
      <use x="187.679688" xlink:href="#DejaVuSans-119"/>
      <use x="269.466797" xlink:href="#DejaVuSans-97"/>
      <use x="330.746094" xlink:href="#DejaVuSans-114"/>
      <use x="371.828125" xlink:href="#DejaVuSans-101"/>
      <use x="433.351562" xlink:href="#DejaVuSans-32"/>
      <use x="465.138672" xlink:href="#DejaVuSans-112"/>
      <use x="528.615234" xlink:href="#DejaVuSans-114"/>
      <use x="569.697266" xlink:href="#DejaVuSans-101"/>
      <use x="631.220703" xlink:href="#DejaVuSans-102"/>
      <use x="666.425781" xlink:href="#DejaVuSans-101"/>
      <use x="727.949219" xlink:href="#DejaVuSans-116"/>
      <use x="767.158203" xlink:href="#DejaVuSans-99"/>
      <use x="822.138672" xlink:href="#DejaVuSans-104"/>
      <use x="885.517578" xlink:href="#DejaVuSans-105"/>
      <use x="913.300781" xlink:href="#DejaVuSans-110"/>
      <use x="976.679688" xlink:href="#DejaVuSans-103"/>
      <use x="1040.15625" xlink:href="#DejaVuSans-32"/>
      <use x="1071.943359" xlink:href="#DejaVuSans-40"/>
      <use x="1110.957031" xlink:href="#DejaVuSans-50"/>
      <use x="1174.580078" xlink:href="#DejaVuSans-41"/>
     </g>
    </g>
    <g id="line2d_28">
     <path d="M 67.5 104.318094 
L 89.5 104.318094 
" style="fill:none;stroke:#ffa500;stroke-linecap:round;stroke-width:1.5;"/>
    </g>
    <g id="line2d_29"/>
    <g id="text_22">
     <!-- software prefetching (3) -->
     <g style="fill:#262626;" transform="translate(98.3 108.168094)scale(0.11 -0.11)">
      <use xlink:href="#DejaVuSans-115"/>
      <use x="52.099609" xlink:href="#DejaVuSans-111"/>
      <use x="113.28125" xlink:href="#DejaVuSans-102"/>
      <use x="148.470703" xlink:href="#DejaVuSans-116"/>
      <use x="187.679688" xlink:href="#DejaVuSans-119"/>
      <use x="269.466797" xlink:href="#DejaVuSans-97"/>
      <use x="330.746094" xlink:href="#DejaVuSans-114"/>
      <use x="371.828125" xlink:href="#DejaVuSans-101"/>
      <use x="433.351562" xlink:href="#DejaVuSans-32"/>
      <use x="465.138672" xlink:href="#DejaVuSans-112"/>
      <use x="528.615234" xlink:href="#DejaVuSans-114"/>
      <use x="569.697266" xlink:href="#DejaVuSans-101"/>
      <use x="631.220703" xlink:href="#DejaVuSans-102"/>
      <use x="666.425781" xlink:href="#DejaVuSans-101"/>
      <use x="727.949219" xlink:href="#DejaVuSans-116"/>
      <use x="767.158203" xlink:href="#DejaVuSans-99"/>
      <use x="822.138672" xlink:href="#DejaVuSans-104"/>
      <use x="885.517578" xlink:href="#DejaVuSans-105"/>
      <use x="913.300781" xlink:href="#DejaVuSans-110"/>
      <use x="976.679688" xlink:href="#DejaVuSans-103"/>
      <use x="1040.15625" xlink:href="#DejaVuSans-32"/>
      <use x="1071.943359" xlink:href="#DejaVuSans-40"/>
      <use x="1110.957031" xlink:href="#DejaVuSans-51"/>
      <use x="1174.580078" xlink:href="#DejaVuSans-41"/>
     </g>
    </g>
    <g id="line2d_30">
     <path d="M 67.5 120.464031 
L 89.5 120.464031 
" style="fill:none;stroke:#800080;stroke-linecap:round;stroke-width:1.5;"/>
    </g>
    <g id="line2d_31"/>
    <g id="text_23">
     <!-- software prefetching (4) -->
     <g style="fill:#262626;" transform="translate(98.3 124.314031)scale(0.11 -0.11)">
      <use xlink:href="#DejaVuSans-115"/>
      <use x="52.099609" xlink:href="#DejaVuSans-111"/>
      <use x="113.28125" xlink:href="#DejaVuSans-102"/>
      <use x="148.470703" xlink:href="#DejaVuSans-116"/>
      <use x="187.679688" xlink:href="#DejaVuSans-119"/>
      <use x="269.466797" xlink:href="#DejaVuSans-97"/>
      <use x="330.746094" xlink:href="#DejaVuSans-114"/>
      <use x="371.828125" xlink:href="#DejaVuSans-101"/>
      <use x="433.351562" xlink:href="#DejaVuSans-32"/>
      <use x="465.138672" xlink:href="#DejaVuSans-112"/>
      <use x="528.615234" xlink:href="#DejaVuSans-114"/>
      <use x="569.697266" xlink:href="#DejaVuSans-101"/>
      <use x="631.220703" xlink:href="#DejaVuSans-102"/>
      <use x="666.425781" xlink:href="#DejaVuSans-101"/>
      <use x="727.949219" xlink:href="#DejaVuSans-116"/>
      <use x="767.158203" xlink:href="#DejaVuSans-99"/>
      <use x="822.138672" xlink:href="#DejaVuSans-104"/>
      <use x="885.517578" xlink:href="#DejaVuSans-105"/>
      <use x="913.300781" xlink:href="#DejaVuSans-110"/>
      <use x="976.679688" xlink:href="#DejaVuSans-103"/>
      <use x="1040.15625" xlink:href="#DejaVuSans-32"/>
      <use x="1071.943359" xlink:href="#DejaVuSans-40"/>
      <use x="1110.957031" xlink:href="#DejaVuSans-52"/>
      <use x="1174.580078" xlink:href="#DejaVuSans-41"/>
     </g>
    </g>
    <g id="line2d_32">
     <path d="M 67.5 136.609969 
L 89.5 136.609969 
" style="fill:none;stroke:#00ffff;stroke-linecap:round;stroke-width:1.5;"/>
    </g>
    <g id="line2d_33"/>
    <g id="text_24">
     <!-- software prefetching (8) -->
     <g style="fill:#262626;" transform="translate(98.3 140.459969)scale(0.11 -0.11)">
      <use xlink:href="#DejaVuSans-115"/>
      <use x="52.099609" xlink:href="#DejaVuSans-111"/>
      <use x="113.28125" xlink:href="#DejaVuSans-102"/>
      <use x="148.470703" xlink:href="#DejaVuSans-116"/>
      <use x="187.679688" xlink:href="#DejaVuSans-119"/>
      <use x="269.466797" xlink:href="#DejaVuSans-97"/>
      <use x="330.746094" xlink:href="#DejaVuSans-114"/>
      <use x="371.828125" xlink:href="#DejaVuSans-101"/>
      <use x="433.351562" xlink:href="#DejaVuSans-32"/>
      <use x="465.138672" xlink:href="#DejaVuSans-112"/>
      <use x="528.615234" xlink:href="#DejaVuSans-114"/>
      <use x="569.697266" xlink:href="#DejaVuSans-101"/>
      <use x="631.220703" xlink:href="#DejaVuSans-102"/>
      <use x="666.425781" xlink:href="#DejaVuSans-101"/>
      <use x="727.949219" xlink:href="#DejaVuSans-116"/>
      <use x="767.158203" xlink:href="#DejaVuSans-99"/>
      <use x="822.138672" xlink:href="#DejaVuSans-104"/>
      <use x="885.517578" xlink:href="#DejaVuSans-105"/>
      <use x="913.300781" xlink:href="#DejaVuSans-110"/>
      <use x="976.679688" xlink:href="#DejaVuSans-103"/>
      <use x="1040.15625" xlink:href="#DejaVuSans-32"/>
      <use x="1071.943359" xlink:href="#DejaVuSans-40"/>
      <use x="1110.957031" xlink:href="#DejaVuSans-56"/>
      <use x="1174.580078" xlink:href="#DejaVuSans-41"/>
     </g>
    </g>
   </g>
  </g>
 </g>
 <defs>
  <clipPath id="pdc8afd0604">
   <rect height="266.112" width="357.12" x="57.6" y="41.472"/>
  </clipPath>
 </defs>
</svg>
