<?xml version="1.0" encoding="utf-8"?>
<!-- Generator: Adobe Illustrator 19.1.0, SVG Export Plug-In . SVG Version: 6.00 Build 0)  -->
<svg version="1.1" xmlns="http://www.w3.org/2000/svg" xmlns:xlink="http://www.w3.org/1999/xlink" x="0px" y="0px"
	 viewBox="0 0 207.041 210.714" style="enable-background:new 0 0 207.041 210.714;" xml:space="preserve">
<style type="text/css">
	.st0{fill:none;stroke:#000000;stroke-width:0.25;}
	.st1{fill:none;stroke:#19619C;}
	.st2{fill:none;stroke:#131312;stroke-width:0.25;stroke-dasharray:4,2;}
	.st3{fill:none;stroke:#131312;stroke-width:0.25;}
	.st4{fill:#19619C;stroke:#19619C;stroke-width:0.5;}
	.st5{fill:#FFFFFF;}
	.st6{fill:none;stroke:#131312;stroke-width:0.5;}
	.st7{fill:#131312;}
	.st8{fill:none;stroke:#19619C;stroke-width:0.5;}
</style>
<g>
	<g>
		<path d="M88.168,12.697l0.064-0.996c0.219,0.062,0.432,0.094,0.639,0.094c0.215,0,0.389-0.049,0.521-0.146
			c0.172-0.129,0.359-0.371,0.562-0.727l0.34-0.609l-1.037-6.24h1.043l0.469,3.146c0.094,0.621,0.174,1.242,0.24,1.863l2.783-5.01
			H94.9l-3.967,7.049c-0.383,0.688-0.723,1.143-1.02,1.365s-0.639,0.334-1.025,0.334C88.643,12.82,88.402,12.779,88.168,12.697z"/>
	</g>
	<g>
		<g>
			<line class="st0" x1="99.083" y1="112.131" x2="99.083" y2="9.661"/>
			<g>
				<path d="M99.083,11.007l-2.702,1.644l-0.061-0.092l1.75-4.406c0.338-1.535,0.675-3.07,1.013-4.605
					c0.338,1.535,0.675,3.07,1.013,4.605l1.75,4.406L101.8,12.65L99.083,11.007z"/>
			</g>
		</g>
	</g>
	<line class="st0" x1="99.084" y1="210.714" x2="99.084" y2="111.797"/>
	<g>
		<g>
			<line class="st0" x1="99.001" y1="111.878" x2="200.636" y2="111.878"/>
			<g>
				<path d="M199.29,111.878l-1.644-2.702l0.092-0.061l4.406,1.75c1.535,0.338,3.07,0.675,4.605,1.013
					c-1.535,0.338-3.07,0.675-4.605,1.013l-4.406,1.75l-0.092-0.046L199.29,111.878z"/>
			</g>
		</g>
	</g>
	<line class="st0" x1="0" y1="111.878" x2="99.084" y2="111.878"/>
	<path class="st1" d="M135.213,66.399"/>
	<g>
		<path d="M200.567,123.057l2.707-3.158l-1.553-3.064h1.172l0.527,1.107c0.195,0.414,0.371,0.811,0.527,1.189l1.793-2.297h1.295
			l-2.613,3.146l1.57,3.076h-1.172l-0.621-1.266c-0.133-0.27-0.283-0.604-0.451-1.002l-1.852,2.268H200.567z"/>
	</g>
	<g>
		<path d="M141.611,59.264l1.793-8.59h1.412l0.867,5.566c0.113,0.73,0.188,1.432,0.223,2.104c0.238-0.578,0.637-1.361,1.195-2.35
			l3.012-5.32h1.436l-1.793,8.59h-1.131l0.896-4.178c0.207-0.965,0.504-2.047,0.891-3.246c-0.246,0.559-0.551,1.16-0.914,1.805
			l-3.199,5.619h-1.107l-0.861-5.508c-0.078-0.504-0.135-1.092-0.17-1.764c-0.098,0.754-0.193,1.352-0.287,1.793l-1.143,5.479
			H141.611z"/>
		<path d="M153.887,61.789c-0.582-0.734-1.074-1.594-1.477-2.578s-0.604-2.004-0.604-3.059c0-0.93,0.15-1.82,0.451-2.672
			c0.352-0.988,0.895-1.973,1.629-2.953h0.756c-0.473,0.812-0.785,1.393-0.938,1.74c-0.238,0.539-0.426,1.102-0.562,1.688
			c-0.168,0.73-0.252,1.465-0.252,2.203c0,1.879,0.584,3.756,1.752,5.631H153.887z"/>
		<path d="M155.059,59.264l2.707-3.158l-1.553-3.064h1.172l0.527,1.107c0.195,0.414,0.371,0.811,0.527,1.189l1.793-2.297h1.295
			l-2.613,3.146l1.57,3.076h-1.172l-0.621-1.266c-0.133-0.27-0.283-0.604-0.451-1.002l-1.852,2.268H155.059z"/>
		<path d="M161.727,59.264l0.252-1.201h1.207l-0.217,1.049c-0.133,0.629-0.339,1.09-0.618,1.383s-0.608,0.461-0.987,0.504l0.1-0.463
			c0.465-0.129,0.771-0.553,0.92-1.271H161.727z"/>
		<path d="M164.41,61.666l0.064-0.996c0.219,0.062,0.432,0.094,0.639,0.094c0.215,0,0.389-0.049,0.521-0.146
			c0.172-0.129,0.359-0.371,0.562-0.727l0.34-0.609l-1.037-6.24h1.043l0.469,3.146c0.094,0.621,0.174,1.242,0.24,1.863l2.783-5.01
			h1.107l-3.967,7.049c-0.383,0.688-0.723,1.143-1.02,1.365s-0.639,0.334-1.025,0.334C164.885,61.789,164.645,61.748,164.41,61.666z
			"/>
		<path d="M171.893,61.789h-0.756c1.168-1.875,1.752-3.752,1.752-5.631c0-0.734-0.084-1.463-0.252-2.186
			c-0.133-0.586-0.318-1.148-0.557-1.688c-0.152-0.352-0.467-0.938-0.943-1.758h0.756c0.734,0.98,1.277,1.965,1.629,2.953
			c0.301,0.852,0.451,1.742,0.451,2.672c0,1.055-0.202,2.074-0.606,3.059S172.471,61.055,171.893,61.789z"/>
	</g>
	<circle class="st1" cx="99.084" cy="111.878" r="63.292"/>
	<line class="st2" x1="135.667" y1="111.63" x2="135.667" y2="59.878"/>
	<line class="st2" x1="99.334" y1="60.629" x2="136.126" y2="60.629"/>
	<g>
		<path class="st1" d="M139.318,110.836"/>
		<path class="st3" d="M136.817,60.296c1.422,0,2.672,2.478,2.672,5.4"/>
		<line class="st3" x1="139.514" y1="65.648" x2="139.514" y2="80.711"/>
		<path class="st3" d="M142.198,86.062c-1.421,0-2.672-2.478-2.672-5.4"/>
		<path class="st3" d="M142.101,86.062c-1.422,0-2.672,2.477-2.672,5.401"/>
		<line class="st3" x1="139.416" y1="91.463" x2="139.416" y2="106.527"/>
		<path class="st3" d="M136.732,111.827c1.422,0,2.672-2.478,2.672-5.4"/>
	</g>
	<g>
		<path class="st1" d="M100.424,115.644"/>
		<path class="st3" d="M135.599,113.144c0,1.422-1.725,2.672-3.758,2.672"/>
		<line class="st3" x1="131.874" y1="115.84" x2="121.392" y2="115.84"/>
		<path class="st3" d="M117.667,118.524c0-1.421,1.724-2.672,3.758-2.672"/>
		<path class="st3" d="M117.666,118.427c0-1.422-1.724-2.672-3.758-2.672"/>
		<line class="st3" x1="113.908" y1="115.742" x2="103.424" y2="115.742"/>
		<path class="st3" d="M99.735,113.058c0,1.422,1.724,2.672,3.758,2.672"/>
	</g>
	<g>
		<path d="M142.334,98.417l0.064-0.996c0.219,0.062,0.432,0.094,0.639,0.094c0.215,0,0.389-0.049,0.521-0.146
			c0.172-0.129,0.359-0.371,0.562-0.727l0.34-0.609l-1.037-6.24h1.043l0.469,3.146c0.094,0.621,0.174,1.242,0.24,1.863l2.783-5.01
			h1.107l-3.967,7.049c-0.383,0.688-0.723,1.143-1.02,1.365s-0.639,0.334-1.025,0.334C142.809,98.54,142.568,98.499,142.334,98.417z
			"/>
		<path d="M158.418,90.964h-5.672v-0.984h5.672V90.964z M158.418,93.571h-5.672v-0.984h5.672V93.571z"/>
		<path d="M162.508,93.888l1.061-0.064c0,0.305,0.047,0.564,0.141,0.779s0.267,0.391,0.519,0.527s0.546,0.205,0.882,0.205
			c0.469,0,0.82-0.094,1.055-0.281s0.352-0.408,0.352-0.662c0-0.184-0.07-0.357-0.211-0.521c-0.145-0.164-0.497-0.366-1.058-0.606
			s-0.919-0.409-1.075-0.507c-0.262-0.16-0.459-0.349-0.592-0.565s-0.199-0.466-0.199-0.747c0-0.492,0.195-0.914,0.586-1.266
			s0.938-0.527,1.641-0.527c0.781,0,1.376,0.181,1.784,0.542s0.62,0.837,0.636,1.427l-1.037,0.07
			c-0.016-0.375-0.148-0.672-0.398-0.891s-0.604-0.328-1.061-0.328c-0.367,0-0.652,0.084-0.855,0.252s-0.305,0.35-0.305,0.545
			s0.088,0.367,0.264,0.516c0.117,0.102,0.42,0.258,0.908,0.469c0.812,0.352,1.324,0.629,1.535,0.832
			c0.336,0.324,0.504,0.719,0.504,1.184c0,0.309-0.095,0.611-0.284,0.908s-0.479,0.534-0.867,0.712s-0.847,0.267-1.374,0.267
			c-0.719,0-1.33-0.178-1.834-0.533S162.48,94.688,162.508,93.888z"/>
		<path d="M168.367,96.015l1.301-6.223h1.061l-1.301,6.223H168.367z M169.914,88.626l0.252-1.201h1.055l-0.252,1.201H169.914z"/>
		<path d="M171.074,96.015l1.301-6.223h0.961l-0.229,1.084c0.418-0.426,0.809-0.736,1.172-0.932s0.734-0.293,1.113-0.293
			c0.504,0,0.899,0.137,1.187,0.41s0.431,0.639,0.431,1.096c0,0.23-0.051,0.594-0.152,1.09l-0.791,3.768h-1.061l0.826-3.943
			c0.082-0.383,0.123-0.666,0.123-0.85c0-0.207-0.071-0.375-0.214-0.504s-0.349-0.193-0.618-0.193c-0.543,0-1.026,0.195-1.45,0.586
			s-0.735,1.061-0.935,2.01l-0.604,2.895H171.074z"/>
		<path d="M185.881,92.306l0.791-2.133h1.055l-1.377,3.803c0.05,0.289,0.112,0.518,0.188,0.686c0.094,0.188,0.177,0.318,0.252,0.393
			c0.112,0.105,0.196,0.174,0.252,0.205c0.082,0.055,0.161,0.082,0.24,0.082c0.117,0,0.234-0.055,0.352-0.164
			c0.108-0.117,0.182-0.23,0.217-0.34c0.003-0.023,0.03-0.18,0.082-0.469h0.217l-0.023,0.709c0,0.156-0.038,0.32-0.111,0.492
			c-0.075,0.191-0.182,0.344-0.322,0.457c-0.157,0.121-0.298,0.182-0.422,0.182c-0.129,0-0.29-0.092-0.48-0.275
			c-0.192-0.199-0.422-0.668-0.691-1.406c-0.141,0.223-0.29,0.475-0.445,0.756c-0.267,0.359-0.551,0.592-0.855,0.697
			c-0.243,0.078-0.478,0.143-0.703,0.193c-0.204,0.039-0.368,0.059-0.492,0.059c-0.321,0-0.674-0.088-1.061-0.264
			c-0.384-0.176-0.667-0.416-0.85-0.721c-0.173-0.281-0.305-0.59-0.398-0.926c-0.079-0.285-0.117-0.629-0.117-1.031
			c0-0.176,0.003-0.316,0.012-0.422c0.015-0.207,0.042-0.43,0.082-0.668c0.035-0.301,0.152-0.617,0.352-0.949
			c0.194-0.324,0.478-0.613,0.85-0.867c0.366-0.246,0.815-0.369,1.348-0.369c0.07,0,0.124,0.004,0.164,0.012
			c0.026,0.004,0.062,0.009,0.107,0.015s0.122,0.017,0.232,0.032c0.136,0.02,0.319,0.111,0.551,0.275
			c0.19,0.141,0.398,0.385,0.621,0.732C185.697,91.437,185.826,91.845,185.881,92.306z M185.208,94.321l0.363-0.984
			c-0.067-0.457-0.135-0.873-0.205-1.248c-0.067-0.297-0.163-0.545-0.287-0.744c-0.152-0.223-0.29-0.391-0.41-0.504
			c-0.152-0.125-0.321-0.217-0.504-0.275c-0.169-0.055-0.328-0.082-0.48-0.082c-0.141,0-0.264,0.035-0.369,0.105
			c-0.082,0.059-0.199,0.176-0.352,0.352c-0.117,0.141-0.222,0.34-0.311,0.598c-0.079,0.238-0.135,0.51-0.17,0.814
			c-0.04,0.34-0.059,0.609-0.059,0.809c0,0.352,0.015,0.619,0.047,0.803c0.007,0.031,0.015,0.073,0.023,0.126
			c0.007,0.053,0.015,0.105,0.023,0.158c0.007,0.053,0.014,0.1,0.02,0.141s0.011,0.083,0.016,0.126
			c0.026,0.152,0.076,0.312,0.146,0.48c0.065,0.172,0.199,0.352,0.398,0.539c0.176,0.191,0.394,0.287,0.656,0.287
			c0.117,0,0.237-0.027,0.363-0.082c0.117-0.047,0.24-0.123,0.369-0.229c0.12-0.105,0.253-0.281,0.398-0.527
			C185.041,94.702,185.149,94.481,185.208,94.321z"/>
	</g>
	<g>
		<path d="M107.022,128.681l2.707-3.158l-1.553-3.064h1.172l0.527,1.107c0.195,0.414,0.371,0.811,0.527,1.189l1.793-2.297h1.295
			l-2.613,3.146l1.57,3.076h-1.172l-0.621-1.266c-0.133-0.27-0.283-0.604-0.451-1.002l-1.852,2.268H107.022z"/>
		<path d="M123.124,123.63h-5.672v-0.984h5.672V123.63z M123.124,126.238h-5.672v-0.984h5.672V126.238z"/>
		<path d="M131.409,126.414l1.061,0.111c-0.266,0.777-0.644,1.354-1.134,1.731s-1.048,0.565-1.673,0.565
			c-0.676,0-1.224-0.219-1.644-0.656s-0.63-1.049-0.63-1.834c0-0.68,0.135-1.348,0.404-2.004s0.655-1.155,1.157-1.497
			s1.075-0.513,1.72-0.513c0.668,0,1.197,0.188,1.588,0.565s0.586,0.876,0.586,1.497l-1.043,0.07
			c-0.004-0.395-0.118-0.703-0.343-0.926s-0.521-0.334-0.888-0.334c-0.426,0-0.795,0.135-1.107,0.404s-0.558,0.679-0.735,1.228
			s-0.267,1.077-0.267,1.585c0,0.531,0.117,0.93,0.352,1.195s0.523,0.398,0.867,0.398s0.673-0.131,0.987-0.393
			S131.229,126.949,131.409,126.414z"/>
		<path d="M133.301,126.32c0-1.215,0.357-2.221,1.072-3.018c0.59-0.656,1.363-0.984,2.32-0.984c0.75,0,1.354,0.234,1.813,0.703
			s0.688,1.102,0.688,1.898c0,0.715-0.145,1.38-0.434,1.995s-0.7,1.087-1.233,1.415s-1.095,0.492-1.685,0.492
			c-0.484,0-0.925-0.104-1.321-0.311s-0.699-0.5-0.908-0.879S133.301,126.816,133.301,126.32z M134.362,126.214
			c0,0.586,0.141,1.03,0.422,1.333s0.639,0.454,1.072,0.454c0.227,0,0.451-0.046,0.674-0.138s0.43-0.231,0.621-0.419
			s0.354-0.401,0.489-0.642s0.243-0.499,0.325-0.776c0.121-0.387,0.182-0.758,0.182-1.113c0-0.562-0.142-0.999-0.425-1.31
			s-0.64-0.466-1.069-0.466c-0.332,0-0.635,0.079-0.908,0.237s-0.521,0.39-0.741,0.694s-0.383,0.659-0.486,1.063
			S134.362,125.898,134.362,126.214z"/>
		<path d="M139.887,126.554l1.061-0.064c0,0.305,0.047,0.564,0.141,0.779s0.267,0.391,0.519,0.527s0.546,0.205,0.882,0.205
			c0.469,0,0.82-0.094,1.055-0.281s0.352-0.408,0.352-0.662c0-0.184-0.07-0.357-0.211-0.521c-0.145-0.164-0.497-0.366-1.058-0.606
			s-0.919-0.409-1.075-0.507c-0.262-0.16-0.459-0.349-0.592-0.565s-0.199-0.466-0.199-0.747c0-0.492,0.195-0.914,0.586-1.266
			s0.938-0.527,1.641-0.527c0.781,0,1.376,0.181,1.784,0.542s0.62,0.837,0.636,1.427l-1.037,0.07
			c-0.016-0.375-0.148-0.672-0.398-0.891s-0.604-0.328-1.061-0.328c-0.367,0-0.652,0.084-0.855,0.252s-0.305,0.35-0.305,0.545
			s0.088,0.367,0.264,0.516c0.117,0.102,0.42,0.258,0.908,0.469c0.812,0.352,1.324,0.629,1.535,0.832
			c0.336,0.324,0.504,0.719,0.504,1.184c0,0.309-0.095,0.611-0.284,0.908s-0.479,0.534-0.867,0.712s-0.847,0.267-1.374,0.267
			c-0.719,0-1.33-0.178-1.834-0.533S139.86,127.355,139.887,126.554z"/>
		<path d="M153.92,124.972l0.791-2.133h1.055l-1.377,3.803c0.051,0.289,0.113,0.518,0.188,0.686
			c0.094,0.188,0.178,0.318,0.252,0.393c0.113,0.105,0.197,0.174,0.252,0.205c0.082,0.055,0.162,0.082,0.24,0.082
			c0.117,0,0.234-0.055,0.352-0.164c0.109-0.117,0.182-0.23,0.217-0.34c0.004-0.023,0.031-0.18,0.082-0.469h0.217l-0.023,0.709
			c0,0.156-0.037,0.32-0.111,0.492c-0.074,0.191-0.182,0.344-0.322,0.457c-0.156,0.121-0.297,0.182-0.422,0.182
			c-0.129,0-0.289-0.092-0.48-0.275c-0.191-0.199-0.422-0.668-0.691-1.406c-0.141,0.223-0.289,0.475-0.445,0.756
			c-0.266,0.359-0.551,0.592-0.855,0.697c-0.242,0.078-0.477,0.143-0.703,0.193c-0.203,0.039-0.367,0.059-0.492,0.059
			c-0.32,0-0.674-0.088-1.061-0.264c-0.383-0.176-0.666-0.416-0.85-0.721c-0.172-0.281-0.305-0.59-0.398-0.926
			c-0.078-0.285-0.117-0.629-0.117-1.031c0-0.176,0.004-0.316,0.012-0.422c0.016-0.207,0.043-0.43,0.082-0.668
			c0.035-0.301,0.152-0.617,0.352-0.949c0.195-0.324,0.479-0.613,0.85-0.867c0.367-0.246,0.816-0.369,1.348-0.369
			c0.07,0,0.125,0.004,0.164,0.012c0.027,0.004,0.063,0.009,0.108,0.015s0.122,0.017,0.231,0.032c0.137,0.02,0.32,0.111,0.551,0.275
			c0.191,0.141,0.398,0.385,0.621,0.732C153.737,124.103,153.866,124.511,153.92,124.972z M153.247,126.988l0.363-0.984
			c-0.066-0.457-0.135-0.873-0.205-1.248c-0.066-0.297-0.162-0.545-0.287-0.744c-0.152-0.223-0.289-0.391-0.41-0.504
			c-0.152-0.125-0.32-0.217-0.504-0.275c-0.168-0.055-0.328-0.082-0.48-0.082c-0.141,0-0.264,0.035-0.369,0.105
			c-0.082,0.059-0.199,0.176-0.352,0.352c-0.117,0.141-0.221,0.34-0.311,0.598c-0.078,0.238-0.135,0.51-0.17,0.814
			c-0.039,0.34-0.059,0.609-0.059,0.809c0,0.352,0.016,0.619,0.047,0.803c0.008,0.031,0.016,0.073,0.023,0.126
			s0.016,0.105,0.023,0.158s0.015,0.1,0.021,0.141s0.011,0.083,0.015,0.126c0.027,0.152,0.076,0.312,0.146,0.48
			c0.066,0.172,0.199,0.352,0.398,0.539c0.176,0.191,0.395,0.287,0.656,0.287c0.117,0,0.238-0.027,0.363-0.082
			c0.117-0.047,0.24-0.123,0.369-0.229c0.121-0.105,0.254-0.281,0.398-0.527C153.081,127.369,153.188,127.148,153.247,126.988z"/>
	</g>
	<circle class="st4" cx="135.743" cy="60.296" r="1.074"/>
	<g>
		<path d="M122.198,100.514l0.791-2.133h1.055l-1.377,3.803c0.051,0.289,0.113,0.518,0.188,0.686
			c0.094,0.188,0.178,0.318,0.252,0.393c0.113,0.105,0.197,0.174,0.252,0.205c0.082,0.055,0.162,0.082,0.24,0.082
			c0.117,0,0.234-0.055,0.352-0.164c0.109-0.117,0.182-0.23,0.217-0.34c0.004-0.023,0.031-0.18,0.082-0.469h0.217l-0.023,0.709
			c0,0.156-0.037,0.32-0.111,0.492c-0.074,0.191-0.182,0.344-0.322,0.457c-0.156,0.121-0.297,0.182-0.422,0.182
			c-0.129,0-0.289-0.092-0.48-0.275c-0.191-0.199-0.422-0.668-0.691-1.406c-0.141,0.223-0.289,0.475-0.445,0.756
			c-0.266,0.359-0.551,0.592-0.855,0.697c-0.242,0.078-0.477,0.143-0.703,0.193c-0.203,0.039-0.367,0.059-0.492,0.059
			c-0.32,0-0.674-0.088-1.061-0.264c-0.383-0.176-0.666-0.416-0.85-0.721c-0.172-0.281-0.305-0.59-0.398-0.926
			c-0.078-0.285-0.117-0.629-0.117-1.031c0-0.176,0.004-0.316,0.012-0.422c0.016-0.207,0.043-0.43,0.082-0.668
			c0.035-0.301,0.152-0.617,0.352-0.949c0.195-0.324,0.479-0.613,0.85-0.867c0.367-0.246,0.816-0.369,1.348-0.369
			c0.07,0,0.125,0.004,0.164,0.012c0.027,0.004,0.063,0.009,0.108,0.015s0.122,0.017,0.231,0.032c0.137,0.02,0.32,0.111,0.551,0.275
			c0.191,0.141,0.398,0.385,0.621,0.732C122.014,99.645,122.143,100.053,122.198,100.514z M121.524,102.53l0.363-0.984
			c-0.066-0.457-0.135-0.873-0.205-1.248c-0.066-0.297-0.162-0.545-0.287-0.744c-0.152-0.223-0.289-0.391-0.41-0.504
			c-0.152-0.125-0.32-0.217-0.504-0.275c-0.168-0.055-0.328-0.082-0.48-0.082c-0.141,0-0.264,0.035-0.369,0.105
			c-0.082,0.059-0.199,0.176-0.352,0.352c-0.117,0.141-0.221,0.34-0.311,0.598c-0.078,0.238-0.135,0.51-0.17,0.814
			c-0.039,0.34-0.059,0.609-0.059,0.809c0,0.352,0.016,0.619,0.047,0.803c0.008,0.031,0.016,0.073,0.023,0.126
			s0.016,0.105,0.023,0.158s0.015,0.1,0.021,0.141s0.011,0.083,0.015,0.126c0.027,0.152,0.076,0.312,0.146,0.48
			c0.066,0.172,0.199,0.352,0.398,0.539c0.176,0.191,0.395,0.287,0.656,0.287c0.117,0,0.238-0.027,0.363-0.082
			c0.117-0.047,0.24-0.123,0.369-0.229c0.121-0.105,0.254-0.281,0.398-0.527C121.358,102.911,121.465,102.69,121.524,102.53z"/>
	</g>
	<g>
		<g>
			<path class="st5" d="M110.848,100.098l-0.057,2.108l-0.074,0.001l-1.835-2.573c-0.738-0.744-1.476-1.489-2.213-2.233
				c0.982,0.366,1.964,0.732,2.946,1.098l3.101,0.613l0.035,0.059L110.848,100.098z"/>
		</g>
		<g>
			<path class="st6" d="M110.419,99.821c4.021,2.595,6.664,6.99,6.664,11.975"/>
			<path class="st7" d="M110.634,99.96l-0.028,1.054l-0.037,0l-0.918-1.287c-0.369-0.372-0.738-0.744-1.107-1.116
				c0.491,0.183,0.982,0.366,1.473,0.549l1.55,0.306l0.018,0.03L110.634,99.96z"/>
		</g>
	</g>
	<line class="st8" x1="99.334" y1="111.796" x2="135.667" y2="60.463"/>
	<g>
		<path d="M114.899,80.223L116.2,74h0.938l-0.264,1.271c0.32-0.48,0.634-0.836,0.94-1.066s0.62-0.346,0.94-0.346
			c0.211,0,0.471,0.076,0.779,0.229l-0.434,0.984c-0.184-0.133-0.385-0.199-0.604-0.199c-0.371,0-0.752,0.207-1.143,0.621
			s-0.697,1.158-0.92,2.232l-0.527,2.496H114.899z"/>
	</g>
	<g>
		<path d="M88.849,119.736c0-1.531,0.442-2.771,1.327-3.718s1.958-1.421,3.22-1.421c1.07,0,1.942,0.349,2.616,1.046
			s1.011,1.632,1.011,2.804c0,0.836-0.17,1.611-0.51,2.326c-0.254,0.535-0.574,0.997-0.961,1.386s-0.801,0.688-1.242,0.899
			c-0.586,0.281-1.207,0.422-1.863,0.422c-0.688,0-1.313-0.164-1.878-0.492s-0.992-0.786-1.283-1.374S88.849,120.4,88.849,119.736z
			 M89.98,119.794c0,0.504,0.104,0.967,0.313,1.389s0.521,0.752,0.935,0.99s0.85,0.357,1.307,0.357c0.441,0,0.861-0.104,1.26-0.313
			s0.755-0.5,1.069-0.873s0.562-0.832,0.744-1.377s0.272-1.081,0.272-1.608c0-0.855-0.239-1.537-0.718-2.045
			s-1.069-0.762-1.772-0.762c-0.898,0-1.691,0.384-2.379,1.151S89.98,118.501,89.98,119.794z"/>
	</g>
	<circle class="st4" cx="99.085" cy="111.878" r="1.074"/>
	<g>
		<path d="M169.054,123.333H168v-6.721c-0.254,0.242-0.587,0.484-0.999,0.727s-0.782,0.424-1.11,0.545v-1.02
			c0.59-0.277,1.105-0.613,1.547-1.008s0.754-0.777,0.938-1.148h0.68V123.333z"/>
	</g>
	<g>
		<path d="M94.884,46.098H93.83v-6.721c-0.254,0.242-0.587,0.484-0.999,0.727s-0.782,0.424-1.11,0.545v-1.02
			c0.59-0.277,1.105-0.613,1.547-1.008s0.754-0.777,0.938-1.148h0.68V46.098z"/>
	</g>
</g>
<g>
	<g>
	</g>
</g>
</svg>
