<?xml version="1.0" standalone="yes"?>

<svg version="1.1" viewBox="0.0 0.0 671.0 361.0" fill="none" stroke="none" stroke-linecap="square" stroke-miterlimit="10" xmlns="http://www.w3.org/2000/svg" xmlns:xlink="http://www.w3.org/1999/xlink"><clipPath id="p.0"><path d="m0 0l671.0 0l0 361.0l-671.0 0l0 -361.0z" clip-rule="nonzero"></path></clipPath><g clip-path="url(#p.0)"><path fill="#000000" fill-opacity="0.0" d="m0 0l671.81104 0l0 361.45407l-671.81104 0z" fill-rule="nonzero"></path><path fill="#a4c2f4" d="m5.71916 197.3412l0 0c0 -29.658127 24.042662 -53.700775 53.70079 -53.700775l0 0c14.242336 0 27.90134 5.6577454 37.972187 15.728592c10.070854 10.070847 15.7286 23.729858 15.7286 37.972183l0 0c0 29.658127 -24.042664 53.70079 -53.700787 53.70079l0 0c-29.658127 0 -53.70079 -24.042664 -53.70079 -53.70079z" fill-rule="nonzero"></path><path stroke="#000000" stroke-width="2.0" stroke-linejoin="round" stroke-linecap="butt" d="m5.71916 197.3412l0 0c0 -29.658127 24.042662 -53.700775 53.70079 -53.700775l0 0c14.242336 0 27.90134 5.6577454 37.972187 15.728592c10.070854 10.070847 15.7286 23.729858 15.7286 37.972183l0 0c0 29.658127 -24.042664 53.70079 -53.700787 53.70079l0 0c-29.658127 0 -53.70079 -24.042664 -53.70079 -53.70079z" fill-rule="nonzero"></path><path fill="#000000" d="m43.33401 214.4212l13.203125 -34.359375l4.90625 0l14.062496 34.359375l-5.1875 0l-4.0 -10.40625l-14.374996 0l-3.765625 10.40625l-4.84375 0zm9.921875 -14.109375l11.656246 0l-3.5937462 -9.515625q-1.640625 -4.34375 -2.4375 -7.125q-0.65625 3.296875 -1.84375 6.5625l-3.78125 10.078125z" fill-rule="nonzero"></path><path fill="#a4c2f4" d="m163.16273 59.09974l0 0c0 -29.658127 24.042664 -53.70079 53.700775 -53.70079l0 0c14.24234 0 27.901352 5.657745 37.9722 15.728596c10.070847 10.070852 15.728592 23.729856 15.728592 37.97219l0 0c0 29.658127 -24.042664 53.700783 -53.70079 53.700783l0 0c-29.658112 0 -53.700775 -24.042656 -53.700775 -53.700783z" fill-rule="nonzero"></path><path stroke="#000000" stroke-width="2.0" stroke-linejoin="round" stroke-linecap="butt" d="m163.16273 59.09974l0 0c0 -29.658127 24.042664 -53.70079 53.700775 -53.70079l0 0c14.24234 0 27.901352 5.657745 37.9722 15.728596c10.070847 10.070852 15.728592 23.729856 15.728592 37.97219l0 0c0 29.658127 -24.042664 53.700783 -53.70079 53.700783l0 0c-29.658112 0 -53.700775 -24.042656 -53.700775 -53.700783z" fill-rule="nonzero"></path><path fill="#000000" d="m204.37132 76.17973l0 -34.35937l12.890625 0q3.9375 0 6.3125 1.046875q2.390625 1.03125 3.734375 3.203125q1.34375 2.171875 1.34375 4.53125q0 2.203125 -1.203125 4.15625q-1.1875 1.9375 -3.59375 3.140625q3.109375 0.90625 4.78125 3.109375q1.6875 2.203125 1.6875 5.203121q0 2.421875 -1.03125 4.5q-1.015625 2.0625 -2.515625 3.1875q-1.5 1.125 -3.765625 1.703125q-2.25 0.578125 -5.53125 0.578125l-13.109375 0zm4.546875 -19.921871l7.4375 0q3.015625 0 4.328125 -0.40625q1.734375 -0.515625 2.609375 -1.703125q0.890625 -1.203125 0.890625 -3.0q0 -1.71875 -0.828125 -3.015625q-0.8125 -1.296875 -2.34375 -1.78125q-1.515625 -0.484375 -5.21875 -0.484375l-6.875 0l0 10.390625zm0 15.859371l8.5625 0q2.203125 0 3.09375 -0.15625q1.5625 -0.28125 2.609375 -0.9375q1.0625 -0.65625 1.734375 -1.90625q0.6875 -1.265625 0.6875 -2.90625q0 -1.921875 -0.984375 -3.3281212q-0.984375 -1.421875 -2.734375 -2.0q-1.734375 -0.578125 -5.015625 -0.578125l-7.953125 0l0 11.812496z" fill-rule="nonzero"></path><path fill="#ffffff" d="m171.72179 298.38058l0 0c0 -29.658142 24.042664 -53.70079 53.70079 -53.70079l0 0c14.242325 0 27.901337 5.6577454 37.9722 15.728592c10.070831 10.070862 15.728577 23.729858 15.728577 37.9722l0 0c0 29.658112 -24.042648 53.700775 -53.700775 53.700775l0 0c-29.658127 0 -53.70079 -24.042664 -53.70079 -53.700775z" fill-rule="nonzero"></path><path stroke="#000000" stroke-width="2.0" stroke-linejoin="round" stroke-linecap="butt" d="m171.72179 298.38058l0 0c0 -29.658142 24.042664 -53.70079 53.70079 -53.70079l0 0c14.242325 0 27.901337 5.6577454 37.9722 15.728592c10.070831 10.070862 15.728577 23.729858 15.728577 37.9722l0 0c0 29.658112 -24.042648 53.700775 -53.700775 53.700775l0 0c-29.658127 0 -53.70079 -24.042664 -53.70079 -53.700775z" fill-rule="nonzero"></path><path fill="#000000" d="m236.3093 303.4137l4.546875 1.140625q-1.421875 5.609375 -5.140625 8.5625q-3.71875 2.9375 -9.078125 2.9375q-5.5625 0 -9.046875 -2.265625q-3.46875 -2.265625 -5.296875 -6.546875q-1.8125 -4.296875 -1.8125 -9.21875q0 -5.375 2.046875 -9.359375q2.0625 -4.0 5.84375 -6.078125q3.78125 -2.078125 8.328125 -2.078125q5.15625 0 8.671875 2.625q3.515625 2.625 4.90625 7.390625l-4.484375 1.046875q-1.1875 -3.75 -3.46875 -5.453125q-2.265625 -1.71875 -5.71875 -1.71875q-3.953125 0 -6.625 1.90625q-2.65625 1.890625 -3.734375 5.09375q-1.078125 3.203125 -1.078125 6.59375q0 4.390625 1.28125 7.65625q1.28125 3.265625 3.96875 4.890625q2.703125 1.609375 5.84375 1.609375q3.8125 0 6.453125 -2.203125q2.65625 -2.203125 3.59375 -6.53125z" fill-rule="nonzero"></path><path fill="#a4c2f4" d="m357.88452 59.09974l0 0c0 -29.658127 24.042664 -53.70079 53.700775 -53.70079l0 0c14.24234 0 27.901337 5.657745 37.9722 15.728596c10.070862 10.070852 15.728607 23.729856 15.728607 37.97219l0 0c0 29.658127 -24.042664 53.700783 -53.700806 53.700783l0 0c-29.658112 0 -53.700775 -24.042656 -53.700775 -53.700783z" fill-rule="nonzero"></path><path stroke="#000000" stroke-width="2.0" stroke-linejoin="round" stroke-linecap="butt" d="m357.88452 59.09974l0 0c0 -29.658127 24.042664 -53.70079 53.700775 -53.70079l0 0c14.24234 0 27.901337 5.657745 37.9722 15.728596c10.070862 10.070852 15.728607 23.729856 15.728607 37.97219l0 0c0 29.658127 -24.042664 53.700783 -53.700806 53.700783l0 0c-29.658112 0 -53.700775 -24.042656 -53.700775 -53.700783z" fill-rule="nonzero"></path><path fill="#000000" d="m397.9564 76.17973l0 -34.35937l11.84375 0q4.0 0 6.109375 0.484375q2.953125 0.6875 5.046875 2.46875q2.71875 2.296875 4.0625 5.875q1.34375 3.5625 1.34375 8.15625q0 3.921875 -0.921875 6.953121q-0.90625 3.015625 -2.34375 5.0q-1.421875 1.96875 -3.125 3.109375q-1.6875 1.140625 -4.09375 1.734375q-2.40625 0.578125 -5.515625 0.578125l-12.40625 0zm4.546875 -4.0625l7.34375 0q3.390625 0 5.328125 -0.625q1.9375 -0.640625 3.078125 -1.78125q1.625 -1.625 2.515625 -4.34375q0.90625 -2.7343712 0.90625 -6.624996q0 -5.390625 -1.765625 -8.28125q-1.765625 -2.90625 -4.296875 -3.890625q-1.828125 -0.703125 -5.890625 -0.703125l-7.21875 0l0 26.249996z" fill-rule="nonzero"></path><path fill="#ffffff" d="m349.0656 269.84778l0 0c0 -29.658142 24.042664 -53.70079 53.700806 -53.70079l0 0c14.24231 0 27.901337 5.6577454 37.972168 15.728592c10.070862 10.070847 15.728607 23.729858 15.728607 37.9722l0 0c0 29.658112 -24.042664 53.700775 -53.700775 53.700775l0 0c-29.658142 0 -53.700806 -24.042664 -53.700806 -53.700775z" fill-rule="nonzero"></path><path stroke="#000000" stroke-width="2.0" stroke-linejoin="round" stroke-linecap="butt" d="m349.0656 269.84778l0 0c0 -29.658142 24.042664 -53.70079 53.700806 -53.70079l0 0c14.24231 0 27.901337 5.6577454 37.972168 15.728592c10.070862 10.070847 15.728607 23.729858 15.728607 37.9722l0 0c0 29.658112 -24.042664 53.700775 -53.700775 53.700775l0 0c-29.658142 0 -53.700806 -24.042664 -53.700806 -53.700775z" fill-rule="nonzero"></path><path fill="#000000" d="m390.55548 286.92776l0 -34.359375l24.84375 0l0 4.046875l-20.296875 0l0 10.53125l19.015625 0l0 4.03125l-19.015625 0l0 11.6875l21.09375 0l0 4.0625l-25.640625 0z" fill-rule="nonzero"></path><path fill="#a4c2f4" d="m555.7953 173.11548l0 0c0 -29.658112 24.042664 -53.700783 53.700745 -53.700783l0 0c14.242371 0 27.901367 5.6577454 37.97223 15.7286c10.070862 10.070847 15.728577 23.729858 15.728577 37.972183l0 0c0 29.658127 -24.042664 53.70079 -53.700806 53.70079l0 0c-29.658081 0 -53.700745 -24.042664 -53.700745 -53.70079z" fill-rule="nonzero"></path><path stroke="#000000" stroke-width="2.0" stroke-linejoin="round" stroke-linecap="butt" d="m555.7953 173.11548l0 0c0 -29.658112 24.042664 -53.700783 53.700745 -53.700783l0 0c14.242371 0 27.901367 5.6577454 37.97223 15.7286c10.070862 10.070847 15.728577 23.729858 15.728577 37.972183l0 0c0 29.658127 -24.042664 53.70079 -53.700806 53.70079l0 0c-29.658081 0 -53.700745 -24.042664 -53.700745 -53.70079z" fill-rule="nonzero"></path><path fill="#000000" d="m598.7734 190.19548l0 -34.359375l23.1875 0l0 4.046875l-18.640625 0l0 10.640625l16.125 0l0 4.0625l-16.125 0l0 15.609375l-4.546875 0z" fill-rule="nonzero"></path><path fill="#000000" fill-opacity="0.0" d="m97.392136 159.36902l81.49919 -62.29709" fill-rule="nonzero"></path><path stroke="#1155cc" stroke-width="2.0" stroke-linejoin="round" stroke-linecap="butt" d="m97.392136 159.36902l81.49919 -62.29709" fill-rule="nonzero"></path><path fill="#000000" fill-opacity="0.0" d="m270.5643 59.09974l87.32022 0" fill-rule="nonzero"></path><path stroke="#1155cc" stroke-width="2.0" stroke-linejoin="round" stroke-linecap="butt" d="m270.5643 59.09974l87.32022 0" fill-rule="nonzero"></path><path fill="#000000" fill-opacity="0.0" d="m465.2861 59.09974l106.23776 76.04356" fill-rule="nonzero"></path><path stroke="#1155cc" stroke-width="2.0" stroke-linejoin="round" stroke-linecap="butt" d="m465.2861 59.09974l106.23776 76.04356" fill-rule="nonzero"></path><path fill="#000000" fill-opacity="0.0" d="m97.392136 235.3134l74.32965 63.067184" fill-rule="nonzero"></path><path stroke="#000000" stroke-width="2.0" stroke-linejoin="round" stroke-linecap="butt" d="m97.392136 235.3134l74.32965 63.067184" fill-rule="nonzero"></path><path fill="#000000" fill-opacity="0.0" d="m216.86351 112.80052l8.559067 131.87927" fill-rule="nonzero"></path><path stroke="#000000" stroke-width="2.0" stroke-linejoin="round" stroke-linecap="butt" d="m216.86351 112.80052l8.559067 131.87927" fill-rule="nonzero"></path><path fill="#000000" fill-opacity="0.0" d="m279.12335 298.38058l69.94226 -28.532806" fill-rule="nonzero"></path><path stroke="#000000" stroke-width="2.0" stroke-linejoin="round" stroke-linecap="butt" d="m279.12335 298.38058l69.94226 -28.532806" fill-rule="nonzero"></path><path fill="#000000" fill-opacity="0.0" d="m402.76642 216.14699l8.818878 -103.346466" fill-rule="nonzero"></path><path stroke="#000000" stroke-width="2.0" stroke-linejoin="round" stroke-linecap="butt" d="m402.76642 216.14699l8.818878 -103.346466" fill-rule="nonzero"></path></g></svg>

