<?xml version="1.0" standalone="yes"?>

<svg version="1.1" viewBox="0.0 0.0 732.0 401.0" fill="none" stroke="none" stroke-linecap="square" stroke-miterlimit="10" xmlns="http://www.w3.org/2000/svg" xmlns:xlink="http://www.w3.org/1999/xlink"><clipPath id="p.0"><path d="m0 0l732.0 0l0 401.0l-732.0 0l0 -401.0z" clip-rule="nonzero"></path></clipPath><g clip-path="url(#p.0)"><path fill="#000000" fill-opacity="0.0" d="m0 0l732.0945 0l0 401.53543l-732.0945 0z" fill-rule="nonzero"></path><path fill="#a4c2f4" d="m5.503822 220.63068l0 0c0 -33.502365 26.36232 -60.661407 58.88189 -60.661407l0 0c15.616447 0 30.593285 6.391083 41.63578 17.767319c11.042496 11.376221 17.246109 26.80568 17.246109 42.89409l0 0c0 33.50238 -26.36232 60.661407 -58.88189 60.661407l0 0c-32.51957 0 -58.88189 -27.159027 -58.88189 -60.661407z" fill-rule="nonzero"></path><path stroke="#000000" stroke-width="2.0" stroke-linejoin="round" stroke-linecap="butt" d="m5.503822 220.63068l0 0c0 -33.502365 26.36232 -60.661407 58.88189 -60.661407l0 0c15.616447 0 30.593285 6.391083 41.63578 17.767319c11.042496 11.376221 17.246109 26.80568 17.246109 42.89409l0 0c0 33.50238 -26.36232 60.661407 -58.88189 60.661407l0 0c-32.51957 0 -58.88189 -27.159027 -58.88189 -60.661407z" fill-rule="nonzero"></path><path fill="#000000" d="m48.299774 237.71068l13.203125 -34.359375l4.90625 0l14.0625 34.359375l-5.1875 0l-4.0 -10.40625l-14.375 0l-3.765625 10.40625l-4.84375 0zm9.921875 -14.109375l11.65625 0l-3.59375 -9.515625q-1.640625 -4.34375 -2.4375 -7.125q-0.65625 3.296875 -1.84375 6.5625l-3.78125 10.078125z" fill-rule="nonzero"></path><path fill="#ffffff" d="m178.1157 64.4748l0 0c0 -33.502377 26.36232 -60.66142 58.881897 -60.66142l0 0c15.61644 0 30.593277 6.3910956 41.635788 17.767319c11.04248 11.376221 17.246094 26.80569 17.246094 42.8941l0 0c0 33.502373 -26.362305 60.661415 -58.88188 60.661415l0 0c-32.519577 0 -58.881897 -27.159042 -58.881897 -60.661415z" fill-rule="nonzero"></path><path stroke="#000000" stroke-width="2.0" stroke-linejoin="round" stroke-linecap="butt" d="m178.1157 64.4748l0 0c0 -33.502377 26.36232 -60.66142 58.881897 -60.66142l0 0c15.61644 0 30.593277 6.3910956 41.635788 17.767319c11.04248 11.376221 17.246094 26.80569 17.246094 42.8941l0 0c0 33.502373 -26.362305 60.661415 -58.88188 60.661415l0 0c-32.519577 0 -58.881897 -27.159042 -58.881897 -60.661415z" fill-rule="nonzero"></path><path fill="#000000" d="m224.50542 81.554794l0 -34.35937l12.890625 0q3.9375 0 6.3125 1.046875q2.390625 1.03125 3.734375 3.203125q1.34375 2.171875 1.34375 4.53125q0 2.203125 -1.203125 4.15625q-1.1875 1.9375 -3.59375 3.140625q3.109375 0.9062462 4.78125 3.1093712q1.6875 2.203125 1.6875 5.203125q0 2.421875 -1.03125 4.5q-1.015625 2.0625 -2.515625 3.1875q-1.5 1.125 -3.765625 1.703125q-2.25 0.578125 -5.53125 0.578125l-13.109375 0zm4.546875 -19.921871l7.4375 0q3.015625 0 4.328125 -0.40625q1.734375 -0.515625 2.609375 -1.703125q0.890625 -1.203125 0.890625 -3.0q0 -1.71875 -0.828125 -3.015625q-0.8125 -1.296875 -2.34375 -1.78125q-1.515625 -0.484375 -5.21875 -0.484375l-6.875 0l0 10.390625zm0 15.859371l8.5625 0q2.203125 0 3.09375 -0.15625q1.5625 -0.28125 2.609375 -0.9375q1.0625 -0.65625 1.734375 -1.90625q0.6875 -1.265625 0.6875 -2.90625q0 -1.921875 -0.984375 -3.328125q-0.984375 -1.421875 -2.734375 -2.0q-1.734375 -0.578125 -5.015625 -0.578125l-7.953125 0l0 11.8125z" fill-rule="nonzero"></path><path fill="#a4c2f4" d="m187.49934 334.76352l0 0c0 -33.50238 26.36232 -60.661438 58.88188 -60.661438l0 0c15.616455 0 30.593292 6.3911133 41.635803 17.767334c11.04248 11.376221 17.246094 26.805695 17.246094 42.894104l0 0c0 33.50238 -26.362335 60.661407 -58.881897 60.661407l0 0c-32.51956 0 -58.88188 -27.159027 -58.88188 -60.661407z" fill-rule="nonzero"></path><path stroke="#000000" stroke-width="2.0" stroke-linejoin="round" stroke-linecap="butt" d="m187.49934 334.76352l0 0c0 -33.50238 26.36232 -60.661438 58.88188 -60.661438l0 0c15.616455 0 30.593292 6.3911133 41.635803 17.767334c11.04248 11.376221 17.246094 26.805695 17.246094 42.894104l0 0c0 33.50238 -26.362335 60.661407 -58.881897 60.661407l0 0c-32.51956 0 -58.88188 -27.159027 -58.88188 -60.661407z" fill-rule="nonzero"></path><path fill="#000000" d="m257.26794 339.79663l4.546875 1.140625q-1.421875 5.609375 -5.140625 8.5625q-3.7187347 2.9375 -9.07811 2.9375q-5.5625 0 -9.046875 -2.265625q-3.46875 -2.265625 -5.296875 -6.546875q-1.8125 -4.296875 -1.8125 -9.21875q0 -5.375 2.046875 -9.359375q2.0625 -4.0 5.84375 -6.078125q3.78125 -2.078125 8.328125 -2.078125q5.15625 0 8.67186 2.625q3.515625 2.625 4.90625 7.390625l-4.484375 1.046875q-1.1874847 -3.75 -3.4687347 -5.453125q-2.265625 -1.71875 -5.71875 -1.71875q-3.953125 0 -6.625 1.90625q-2.65625 1.890625 -3.734375 5.09375q-1.078125 3.203125 -1.078125 6.59375q0 4.390625 1.28125 7.65625q1.28125 3.265625 3.96875 4.890625q2.703125 1.609375 5.84375 1.609375q3.8125 0 6.453125 -2.203125q2.6562347 -2.203125 3.5937347 -6.53125z" fill-rule="nonzero"></path><path fill="#a4c2f4" d="m391.59723 64.4748l0 0c0 -33.502377 26.362335 -60.66142 58.881897 -60.66142l0 0c15.616455 0 30.593292 6.3910956 41.635773 17.767319c11.042511 11.376221 17.246124 26.80569 17.246124 42.8941l0 0c0 33.502373 -26.362335 60.661415 -58.881897 60.661415l0 0c-32.51956 0 -58.881897 -27.159042 -58.881897 -60.661415z" fill-rule="nonzero"></path><path stroke="#000000" stroke-width="2.0" stroke-linejoin="round" stroke-linecap="butt" d="m391.59723 64.4748l0 0c0 -33.502377 26.362335 -60.66142 58.881897 -60.66142l0 0c15.616455 0 30.593292 6.3910956 41.635773 17.767319c11.042511 11.376221 17.246124 26.80569 17.246124 42.8941l0 0c0 33.502373 -26.362335 60.661415 -58.881897 60.661415l0 0c-32.51956 0 -58.881897 -27.159042 -58.881897 -60.661415z" fill-rule="nonzero"></path><path fill="#000000" d="m436.85022 81.554794l0 -34.35937l11.84375 0q4.0 0 6.109375 0.484375q2.953125 0.6875 5.046875 2.46875q2.71875 2.296875 4.0625 5.875q1.34375 3.5625 1.34375 8.156246q0 3.921875 -0.921875 6.953125q-0.90625 3.015625 -2.34375 5.0q-1.421875 1.96875 -3.125 3.109375q-1.6875 1.140625 -4.09375 1.734375q-2.40625 0.578125 -5.515625 0.578125l-12.40625 0zm4.546875 -4.0625l7.34375 0q3.390625 0 5.328125 -0.625q1.9375 -0.640625 3.078125 -1.78125q1.625 -1.625 2.515625 -4.34375q0.90625 -2.734375 0.90625 -6.625q0 -5.390621 -1.765625 -8.281246q-1.765625 -2.90625 -4.296875 -3.890625q-1.828125 -0.703125 -5.890625 -0.703125l-7.21875 0l0 26.249996z" fill-rule="nonzero"></path><path fill="#a4c2f4" d="m381.9287 302.5332l0 0c0 -33.50238 26.362335 -60.661423 58.881897 -60.661423l0 0c15.616455 0 30.593292 6.391098 41.635803 17.767319c11.04248 11.376221 17.246094 26.805695 17.246094 42.894104l0 0c0 33.50238 -26.362335 60.661407 -58.881897 60.661407l0 0c-32.51956 0 -58.881897 -27.159027 -58.881897 -60.661407z" fill-rule="nonzero"></path><path stroke="#000000" stroke-width="2.0" stroke-linejoin="round" stroke-linecap="butt" d="m381.9287 302.5332l0 0c0 -33.50238 26.362335 -60.661423 58.881897 -60.661423l0 0c15.616455 0 30.593292 6.391098 41.635803 17.767319c11.04248 11.376221 17.246094 26.805695 17.246094 42.894104l0 0c0 33.50238 -26.362335 60.661407 -58.881897 60.661407l0 0c-32.51956 0 -58.881897 -27.159027 -58.881897 -60.661407z" fill-rule="nonzero"></path><path fill="#000000" d="m428.59967 319.6132l0 -34.359375l24.84375 0l0 4.046875l-20.296875 0l0 10.53125l19.015625 0l0 4.03125l-19.015625 0l0 11.6875l21.09375 0l0 4.0625l-25.640625 0z" fill-rule="nonzero"></path><path fill="#a4c2f4" d="m608.57495 193.26558l0 0c0 -33.502365 26.362366 -60.661407 58.881897 -60.661407l0 0c15.616455 0 30.593323 6.391083 41.635803 17.767319c11.04248 11.376221 17.246094 26.80568 17.246094 42.89409l0 0c0 33.50238 -26.362305 60.661423 -58.881897 60.661423l0 0c-32.51953 0 -58.881897 -27.159042 -58.881897 -60.661423z" fill-rule="nonzero"></path><path stroke="#000000" stroke-width="2.0" stroke-linejoin="round" stroke-linecap="butt" d="m608.57495 193.26558l0 0c0 -33.502365 26.362366 -60.661407 58.881897 -60.661407l0 0c15.616455 0 30.593323 6.391083 41.635803 17.767319c11.04248 11.376221 17.246094 26.80568 17.246094 42.89409l0 0c0 33.50238 -26.362305 60.661423 -58.881897 60.661423l0 0c-32.51953 0 -58.881897 -27.159042 -58.881897 -60.661423z" fill-rule="nonzero"></path><path fill="#000000" d="m656.7342 210.34558l0 -34.359375l23.1875 0l0 4.046875l-18.640625 0l0 10.640625l16.125 0l0 4.0625l-16.125 0l0 15.609375l-4.546875 0z" fill-rule="nonzero"></path><path fill="#000000" fill-opacity="0.0" d="m106.02149 177.73659l89.340324 -70.36769" fill-rule="nonzero"></path><path stroke="#000000" stroke-width="4.0" stroke-linejoin="round" stroke-linecap="butt" d="m106.02149 177.73659l70.486305 -55.51757" fill-rule="evenodd"></path><path fill="#000000" stroke="#000000" stroke-width="4.0" stroke-linecap="butt" d="m180.59586 127.40931l10.172165 -16.422173l-18.348297 6.0415726z" fill-rule="evenodd"></path><path fill="#000000" fill-opacity="0.0" d="m295.8795 64.4748l95.71774 0" fill-rule="nonzero"></path><path stroke="#000000" stroke-width="4.0" stroke-linejoin="round" stroke-linecap="butt" d="m295.8795 64.4748l71.71774 0" fill-rule="evenodd"></path><path fill="#000000" stroke="#000000" stroke-width="4.0" stroke-linecap="butt" d="m367.59723 71.081726l18.152405 -6.606926l-18.152405 -6.60693z" fill-rule="evenodd"></path><path fill="#000000" fill-opacity="0.0" d="m509.36102 64.4748l116.46002 85.89669" fill-rule="nonzero"></path><path stroke="#1155cc" stroke-width="4.0" stroke-linejoin="round" stroke-linecap="butt" d="m509.36102 64.4748l97.145386 71.65087" fill-rule="evenodd"></path><path fill="#1155cc" stroke="#1155cc" stroke-width="4.0" stroke-linecap="butt" d="m602.58466 141.4428l18.530396 5.4576874l-10.686951 -16.091919z" fill-rule="evenodd"></path><path fill="#000000" fill-opacity="0.0" d="m106.02149 263.52478l81.47785 71.23874" fill-rule="nonzero"></path><path stroke="#1155cc" stroke-width="4.0" stroke-linejoin="round" stroke-linecap="butt" d="m106.02149 263.52478l63.41004 55.441437" fill-rule="evenodd"></path><path fill="#1155cc" stroke="#1155cc" stroke-width="4.0" stroke-linecap="butt" d="m165.08272 323.9401l18.014389 6.9743958l-9.316757 -16.92212z" fill-rule="evenodd"></path><path fill="#000000" fill-opacity="0.0" d="m236.9976 125.136215l9.383621 148.96587" fill-rule="nonzero"></path><path stroke="#000000" stroke-width="4.0" stroke-linejoin="round" stroke-linecap="butt" d="m236.9976 125.136215l7.874817 125.01335" fill-rule="evenodd"></path><path fill="#000000" stroke="#000000" stroke-width="4.0" stroke-linecap="butt" d="m238.27856 250.56493l7.7350464 17.701126l5.452667 -18.531845z" fill-rule="evenodd"></path><path fill="#000000" fill-opacity="0.0" d="m305.26312 334.76352l76.66559 -32.230316" fill-rule="nonzero"></path><path stroke="#1155cc" stroke-width="4.0" stroke-linejoin="round" stroke-linecap="butt" d="m305.26312 334.76352l54.54123 -22.9292" fill-rule="evenodd"></path><path fill="#1155cc" stroke="#1155cc" stroke-width="4.0" stroke-linecap="butt" d="m362.3648 317.92493l14.173309 -13.125519l-19.294281 0.9443054z" fill-rule="evenodd"></path><path fill="#000000" fill-opacity="0.0" d="m440.8106 241.87178l9.668518 -116.735565" fill-rule="nonzero"></path><path stroke="#1155cc" stroke-width="4.0" stroke-linejoin="round" stroke-linecap="butt" d="m440.8106 241.87178l7.6875 -92.81746" fill-rule="evenodd"></path><path fill="#1155cc" stroke="#1155cc" stroke-width="4.0" stroke-linecap="butt" d="m455.08252 149.59967l-5.0860596 -18.635803l-8.082703 17.545105z" fill-rule="evenodd"></path><path fill="#000000" fill-opacity="0.0" d="m117.906136 103.08665l35.685036 0l0 54.20472l-35.685036 0z" fill-rule="nonzero"></path><path fill="#000000" d="m137.2499 142.80664l0 -5.484375l-9.937508 0l0 -2.578125l10.453133 -14.843742l2.296875 0l0 14.843742l3.09375 0l0 2.578125l-3.09375 0l0 5.484375l-2.8125 0zm0 -8.0625l0 -10.328117l-7.171875 10.328117l7.171875 0z" fill-rule="nonzero"></path><path fill="#000000" fill-opacity="0.0" d="m319.53558 17.895014l57.73227 0l0 54.204727l-57.73227 0z" fill-rule="nonzero"></path><path fill="#000000" d="m340.45746 57.615013l-2.8125 0l0 -17.921875q-1.015625 0.96875 -2.671875 1.9375q-1.640625 0.96875 -2.953125 1.453125l0 -2.71875q2.359375 -1.109375 4.125 -2.6875q1.765625 -1.578125 2.5 -3.0625l1.8125 0l0 23.0zm7.203125 -11.296875q0 -4.0625 0.828125 -6.53125q0.84375 -2.484375 2.484375 -3.828125q1.65625 -1.34375 4.15625 -1.34375q1.84375 0 3.234375 0.75q1.390625 0.734375 2.296875 2.140625q0.90625 1.390625 1.421875 3.40625q0.515625 2.0 0.515625 5.40625q0 4.03125 -0.828125 6.515625q-0.828125 2.46875 -2.484375 3.828125q-1.640625 1.34375 -4.15625 1.34375q-3.3125 0 -5.203125 -2.375q-2.265625 -2.859375 -2.265625 -9.3125zm2.890625 0q0 5.640625 1.3125 7.515625q1.328125 1.859375 3.265625 1.859375q1.9375 0 3.25 -1.875q1.328125 -1.875 1.328125 -7.5q0 -5.65625 -1.328125 -7.515625q-1.3125 -1.859375 -3.28125 -1.859375q-1.9375 0 -3.09375 1.640625q-1.453125 2.09375 -1.453125 7.734375z" fill-rule="nonzero"></path><path fill="#000000" fill-opacity="0.0" d="m201.32014 159.96927l35.685043 0l0 54.204712l-35.685043 0z" fill-rule="nonzero"></path><path fill="#000000" d="m211.64827 193.68927l2.953125 -0.25q0.328125 2.15625 1.515625 3.25q1.203125 1.078125 2.890625 1.078125q2.03125 0 3.4375 -1.53125q1.40625 -1.53125 1.40625 -4.0625q0 -2.40625 -1.359375 -3.796875q-1.34375 -1.390625 -3.53125 -1.390625q-1.359375 0 -2.453125 0.625q-1.09375 0.609375 -1.71875 1.59375l-2.640625 -0.34375l2.21875 -11.765625l11.390625 0l0 2.6875l-9.140625 0l-1.234375 6.15625q2.0625 -1.4375 4.328125 -1.4375q3.0 0 5.0625 2.078125q2.0625 2.078125 2.0625 5.34375q0 3.109375 -1.8125 5.375q-2.203125 2.78125 -6.015625 2.78125q-3.125 0 -5.109375 -1.75q-1.96875 -1.75 -2.25 -4.640625z" fill-rule="nonzero"></path><path fill="#000000" fill-opacity="0.0" d="m137.53958 253.92368l35.685028 0l0 54.204712l-35.685028 0z" fill-rule="nonzero"></path><path fill="#000000" d="m162.64896 290.94055l0 2.703125l-15.140625 0q-0.03125 -1.015625 0.328125 -1.953125q0.578125 -1.546875 1.84375 -3.046875q1.28125 -1.5 3.6875 -3.46875q3.734375 -3.0625 5.046875 -4.84375q1.3125 -1.796875 1.3125 -3.390625q0 -1.671875 -1.203125 -2.8125q-1.1875 -1.15625 -3.109375 -1.15625q-2.03125 0 -3.25 1.21875q-1.21875 1.21875 -1.234375 3.375l-2.890625 -0.296875q0.296875 -3.234375 2.234375 -4.921875q1.9375 -1.703125 5.203125 -1.703125q3.296875 0 5.21875 1.828125q1.921875 1.828125 1.921875 4.53125q0 1.375 -0.5625 2.703125q-0.5625 1.328125 -1.875 2.796875q-1.296875 1.46875 -4.328125 4.03125q-2.53125 2.125 -3.25 2.890625q-0.71875 0.75 -1.1875 1.515625l11.234375 0z" fill-rule="nonzero"></path><path fill="#000000" fill-opacity="0.0" d="m319.5351 267.41092l35.68506 0l0 54.204742l-35.68506 0z" fill-rule="nonzero"></path><path fill="#000000" d="m329.87885 301.08405l2.8125 -0.375q0.484375 2.390625 1.640625 3.453125q1.171875 1.046875 2.84375 1.046875q1.984375 0 3.34375 -1.375q1.375 -1.375 1.375 -3.40625q0 -1.9375 -1.265625 -3.1875q-1.265625 -1.265625 -3.21875 -1.265625q-0.796875 0 -1.984375 0.3125l0.3125 -2.46875q0.28125 0.03125 0.453125 0.03125q1.796875 0 3.234375 -0.9375q1.4375 -0.9375 1.4375 -2.890625q0 -1.546875 -1.046875 -2.5625q-1.046875 -1.015625 -2.703125 -1.015625q-1.640625 0 -2.734375 1.03125q-1.09375 1.03125 -1.40625 3.09375l-2.8125 -0.5q0.515625 -2.828125 2.34375 -4.375q1.828125 -1.5625 4.546875 -1.5625q1.875 0 3.453125 0.8125q1.578125 0.796875 2.40625 2.1875q0.84375 1.390625 0.84375 2.953125q0 1.484375 -0.796875 2.703125q-0.796875 1.21875 -2.359375 1.9375q2.03125 0.46875 3.15625 1.953125q1.125 1.46875 1.125 3.6875q0 3.0 -2.1875 5.09375q-2.1875 2.078125 -5.53125 2.078125q-3.015625 0 -5.015625 -1.796875q-1.984375 -1.796875 -2.265625 -4.65625z" fill-rule="nonzero"></path><path fill="#000000" fill-opacity="0.0" d="m440.8031 165.29402l35.68506 0l0 54.204727l-35.68506 0z" fill-rule="nonzero"></path><path fill="#000000" d="m460.14685 205.01402l0 -5.484375l-9.9375 0l0 -2.578125l10.453125 -14.84375l2.296875 0l0 14.84375l3.09375 0l0 2.578125l-3.09375 0l0 5.484375l-2.8125 0zm0 -8.0625l0 -10.328125l-7.171875 10.328125l7.171875 0z" fill-rule="nonzero"></path><path fill="#000000" fill-opacity="0.0" d="m554.44617 59.658794l60.44098 0l0 54.204723l-60.44098 0z" fill-rule="nonzero"></path><path fill="#000000" d="m575.36804 99.37879l-2.8125 0l0 -17.921875q-1.015625 0.96875 -2.671875 1.9375q-1.640625 0.96875 -2.953125 1.453125l0 -2.71875q2.359375 -1.109375 4.125 -2.6875q1.765625 -1.578125 2.5 -3.0625l1.8125 0l0 23.0zm17.796875 0l-2.8125 0l0 -17.921875q-1.015625 0.96875 -2.671875 1.9375q-1.640625 0.96875 -2.953125 1.453125l0 -2.71875q2.359375 -1.109375 4.125 -2.6875q1.765625 -1.578125 2.5 -3.0625l1.8125 0l0 23.0z" fill-rule="nonzero"></path></g></svg>

